<?xml version="1.0" encoding="utf-8"?>
<svg xmlns="http://www.w3.org/2000/svg" xmlns:xlink="http://www.w3.org/1999/xlink" width="600" height="400" viewBox="0 0 2400 1600">
<defs>
  <clipPath id="clip510">
    <rect x="0" y="0" width="2400" height="1600"/>
  </clipPath>
</defs>
<path clip-path="url(#clip510)" d="M0 1600 L2400 1600 L2400 0 L0 0  Z" fill="#ffffff" fill-rule="evenodd" fill-opacity="1"/>
<defs>
  <clipPath id="clip511">
    <rect x="480" y="0" width="1681" height="1600"/>
  </clipPath>
</defs>
<path clip-path="url(#clip510)" d="M216.436 1486.45 L2352.76 1486.45 L2352.76 47.2441 L216.436 47.2441  Z" fill="#ffffff" fill-rule="evenodd" fill-opacity="1"/>
<defs>
  <clipPath id="clip512">
    <rect x="216" y="47" width="2137" height="1440"/>
  </clipPath>
</defs>
<polyline clip-path="url(#clip512)" style="stroke:#000000; stroke-linecap:round; stroke-linejoin:round; stroke-width:2; stroke-opacity:0.1; fill:none" points="244.907,1486.45 244.907,47.2441 "/>
<polyline clip-path="url(#clip512)" style="stroke:#000000; stroke-linecap:round; stroke-linejoin:round; stroke-width:2; stroke-opacity:0.1; fill:none" points="564.812,1486.45 564.812,47.2441 "/>
<polyline clip-path="url(#clip512)" style="stroke:#000000; stroke-linecap:round; stroke-linejoin:round; stroke-width:2; stroke-opacity:0.1; fill:none" points="884.716,1486.45 884.716,47.2441 "/>
<polyline clip-path="url(#clip512)" style="stroke:#000000; stroke-linecap:round; stroke-linejoin:round; stroke-width:2; stroke-opacity:0.1; fill:none" points="1204.62,1486.45 1204.62,47.2441 "/>
<polyline clip-path="url(#clip512)" style="stroke:#000000; stroke-linecap:round; stroke-linejoin:round; stroke-width:2; stroke-opacity:0.1; fill:none" points="1524.52,1486.45 1524.52,47.2441 "/>
<polyline clip-path="url(#clip512)" style="stroke:#000000; stroke-linecap:round; stroke-linejoin:round; stroke-width:2; stroke-opacity:0.1; fill:none" points="1844.43,1486.45 1844.43,47.2441 "/>
<polyline clip-path="url(#clip512)" style="stroke:#000000; stroke-linecap:round; stroke-linejoin:round; stroke-width:2; stroke-opacity:0.1; fill:none" points="2164.33,1486.45 2164.33,47.2441 "/>
<polyline clip-path="url(#clip510)" style="stroke:#000000; stroke-linecap:round; stroke-linejoin:round; stroke-width:4; stroke-opacity:1; fill:none" points="216.436,1486.45 2352.76,1486.45 "/>
<polyline clip-path="url(#clip510)" style="stroke:#000000; stroke-linecap:round; stroke-linejoin:round; stroke-width:4; stroke-opacity:1; fill:none" points="244.907,1486.45 244.907,1467.55 "/>
<polyline clip-path="url(#clip510)" style="stroke:#000000; stroke-linecap:round; stroke-linejoin:round; stroke-width:4; stroke-opacity:1; fill:none" points="564.812,1486.45 564.812,1467.55 "/>
<polyline clip-path="url(#clip510)" style="stroke:#000000; stroke-linecap:round; stroke-linejoin:round; stroke-width:4; stroke-opacity:1; fill:none" points="884.716,1486.45 884.716,1467.55 "/>
<polyline clip-path="url(#clip510)" style="stroke:#000000; stroke-linecap:round; stroke-linejoin:round; stroke-width:4; stroke-opacity:1; fill:none" points="1204.62,1486.45 1204.62,1467.55 "/>
<polyline clip-path="url(#clip510)" style="stroke:#000000; stroke-linecap:round; stroke-linejoin:round; stroke-width:4; stroke-opacity:1; fill:none" points="1524.52,1486.45 1524.52,1467.55 "/>
<polyline clip-path="url(#clip510)" style="stroke:#000000; stroke-linecap:round; stroke-linejoin:round; stroke-width:4; stroke-opacity:1; fill:none" points="1844.43,1486.45 1844.43,1467.55 "/>
<polyline clip-path="url(#clip510)" style="stroke:#000000; stroke-linecap:round; stroke-linejoin:round; stroke-width:4; stroke-opacity:1; fill:none" points="2164.33,1486.45 2164.33,1467.55 "/>
<path clip-path="url(#clip510)" d="M244.907 1517.37 Q241.296 1517.37 239.468 1520.93 Q237.662 1524.47 237.662 1531.6 Q237.662 1538.71 239.468 1542.27 Q241.296 1545.82 244.907 1545.82 Q248.542 1545.82 250.347 1542.27 Q252.176 1538.71 252.176 1531.6 Q252.176 1524.47 250.347 1520.93 Q248.542 1517.37 244.907 1517.37 M244.907 1513.66 Q250.718 1513.66 253.773 1518.27 Q256.852 1522.85 256.852 1531.6 Q256.852 1540.33 253.773 1544.94 Q250.718 1549.52 244.907 1549.52 Q239.097 1549.52 236.019 1544.94 Q232.963 1540.33 232.963 1531.6 Q232.963 1522.85 236.019 1518.27 Q239.097 1513.66 244.907 1513.66 Z" fill="#000000" fill-rule="nonzero" fill-opacity="1" /><path clip-path="url(#clip510)" d="M539.499 1544.91 L547.138 1544.91 L547.138 1518.55 L538.828 1520.21 L538.828 1515.95 L547.092 1514.29 L551.768 1514.29 L551.768 1544.91 L559.406 1544.91 L559.406 1548.85 L539.499 1548.85 L539.499 1544.91 Z" fill="#000000" fill-rule="nonzero" fill-opacity="1" /><path clip-path="url(#clip510)" d="M578.851 1517.37 Q575.24 1517.37 573.411 1520.93 Q571.605 1524.47 571.605 1531.6 Q571.605 1538.71 573.411 1542.27 Q575.24 1545.82 578.851 1545.82 Q582.485 1545.82 584.291 1542.27 Q586.119 1538.71 586.119 1531.6 Q586.119 1524.47 584.291 1520.93 Q582.485 1517.37 578.851 1517.37 M578.851 1513.66 Q584.661 1513.66 587.716 1518.27 Q590.795 1522.85 590.795 1531.6 Q590.795 1540.33 587.716 1544.94 Q584.661 1549.52 578.851 1549.52 Q573.041 1549.52 569.962 1544.94 Q566.906 1540.33 566.906 1531.6 Q566.906 1522.85 569.962 1518.27 Q573.041 1513.66 578.851 1513.66 Z" fill="#000000" fill-rule="nonzero" fill-opacity="1" /><path clip-path="url(#clip510)" d="M863.489 1544.91 L879.808 1544.91 L879.808 1548.85 L857.864 1548.85 L857.864 1544.91 Q860.526 1542.16 865.109 1537.53 Q869.716 1532.88 870.896 1531.53 Q873.142 1529.01 874.021 1527.27 Q874.924 1525.51 874.924 1523.82 Q874.924 1521.07 872.98 1519.33 Q871.058 1517.6 867.957 1517.6 Q865.757 1517.6 863.304 1518.36 Q860.873 1519.13 858.095 1520.68 L858.095 1515.95 Q860.92 1514.82 863.373 1514.24 Q865.827 1513.66 867.864 1513.66 Q873.234 1513.66 876.429 1516.35 Q879.623 1519.03 879.623 1523.52 Q879.623 1525.65 878.813 1527.57 Q878.026 1529.47 875.919 1532.07 Q875.341 1532.74 872.239 1535.95 Q869.137 1539.15 863.489 1544.91 Z" fill="#000000" fill-rule="nonzero" fill-opacity="1" /><path clip-path="url(#clip510)" d="M899.623 1517.37 Q896.012 1517.37 894.183 1520.93 Q892.378 1524.47 892.378 1531.6 Q892.378 1538.71 894.183 1542.27 Q896.012 1545.82 899.623 1545.82 Q903.257 1545.82 905.063 1542.27 Q906.891 1538.71 906.891 1531.6 Q906.891 1524.47 905.063 1520.93 Q903.257 1517.37 899.623 1517.37 M899.623 1513.66 Q905.433 1513.66 908.489 1518.27 Q911.567 1522.85 911.567 1531.6 Q911.567 1540.33 908.489 1544.94 Q905.433 1549.52 899.623 1549.52 Q893.813 1549.52 890.734 1544.94 Q887.679 1540.33 887.679 1531.6 Q887.679 1522.85 890.734 1518.27 Q893.813 1513.66 899.623 1513.66 Z" fill="#000000" fill-rule="nonzero" fill-opacity="1" /><path clip-path="url(#clip510)" d="M1193.46 1530.21 Q1196.82 1530.93 1198.69 1533.2 Q1200.59 1535.47 1200.59 1538.8 Q1200.59 1543.92 1197.07 1546.72 Q1193.56 1549.52 1187.07 1549.52 Q1184.9 1549.52 1182.58 1549.08 Q1180.29 1548.66 1177.84 1547.81 L1177.84 1543.29 Q1179.78 1544.43 1182.1 1545.01 Q1184.41 1545.58 1186.93 1545.58 Q1191.33 1545.58 1193.62 1543.85 Q1195.94 1542.11 1195.94 1538.8 Q1195.94 1535.75 1193.79 1534.03 Q1191.66 1532.3 1187.84 1532.3 L1183.81 1532.3 L1183.81 1528.45 L1188.02 1528.45 Q1191.47 1528.45 1193.3 1527.09 Q1195.13 1525.7 1195.13 1523.11 Q1195.13 1520.45 1193.23 1519.03 Q1191.36 1517.6 1187.84 1517.6 Q1185.92 1517.6 1183.72 1518.01 Q1181.52 1518.43 1178.88 1519.31 L1178.88 1515.14 Q1181.54 1514.4 1183.86 1514.03 Q1186.19 1513.66 1188.25 1513.66 Q1193.58 1513.66 1196.68 1516.09 Q1199.78 1518.5 1199.78 1522.62 Q1199.78 1525.49 1198.14 1527.48 Q1196.49 1529.45 1193.46 1530.21 Z" fill="#000000" fill-rule="nonzero" fill-opacity="1" /><path clip-path="url(#clip510)" d="M1219.46 1517.37 Q1215.85 1517.37 1214.02 1520.93 Q1212.21 1524.47 1212.21 1531.6 Q1212.21 1538.71 1214.02 1542.27 Q1215.85 1545.82 1219.46 1545.82 Q1223.09 1545.82 1224.9 1542.27 Q1226.73 1538.71 1226.73 1531.6 Q1226.73 1524.47 1224.9 1520.93 Q1223.09 1517.37 1219.46 1517.37 M1219.46 1513.66 Q1225.27 1513.66 1228.32 1518.27 Q1231.4 1522.85 1231.4 1531.6 Q1231.4 1540.33 1228.32 1544.94 Q1225.27 1549.52 1219.46 1549.52 Q1213.65 1549.52 1210.57 1544.94 Q1207.51 1540.33 1207.51 1531.6 Q1207.51 1522.85 1210.57 1518.27 Q1213.65 1513.66 1219.46 1513.66 Z" fill="#000000" fill-rule="nonzero" fill-opacity="1" /><path clip-path="url(#clip510)" d="M1512.7 1518.36 L1500.89 1536.81 L1512.7 1536.81 L1512.7 1518.36 M1511.47 1514.29 L1517.35 1514.29 L1517.35 1536.81 L1522.28 1536.81 L1522.28 1540.7 L1517.35 1540.7 L1517.35 1548.85 L1512.7 1548.85 L1512.7 1540.7 L1497.09 1540.7 L1497.09 1536.19 L1511.47 1514.29 Z" fill="#000000" fill-rule="nonzero" fill-opacity="1" /><path clip-path="url(#clip510)" d="M1540.01 1517.37 Q1536.4 1517.37 1534.57 1520.93 Q1532.76 1524.47 1532.76 1531.6 Q1532.76 1538.71 1534.57 1542.27 Q1536.4 1545.82 1540.01 1545.82 Q1543.64 1545.82 1545.45 1542.27 Q1547.28 1538.71 1547.28 1531.6 Q1547.28 1524.47 1545.45 1520.93 Q1543.64 1517.37 1540.01 1517.37 M1540.01 1513.66 Q1545.82 1513.66 1548.88 1518.27 Q1551.95 1522.85 1551.95 1531.6 Q1551.95 1540.33 1548.88 1544.94 Q1545.82 1549.52 1540.01 1549.52 Q1534.2 1549.52 1531.12 1544.94 Q1528.07 1540.33 1528.07 1531.6 Q1528.07 1522.85 1531.12 1518.27 Q1534.2 1513.66 1540.01 1513.66 Z" fill="#000000" fill-rule="nonzero" fill-opacity="1" /><path clip-path="url(#clip510)" d="M1819.13 1514.29 L1837.48 1514.29 L1837.48 1518.22 L1823.41 1518.22 L1823.41 1526.7 Q1824.43 1526.35 1825.45 1526.19 Q1826.47 1526 1827.48 1526 Q1833.27 1526 1836.65 1529.17 Q1840.03 1532.34 1840.03 1537.76 Q1840.03 1543.34 1836.56 1546.44 Q1833.09 1549.52 1826.77 1549.52 Q1824.59 1549.52 1822.32 1549.15 Q1820.08 1548.78 1817.67 1548.04 L1817.67 1543.34 Q1819.75 1544.47 1821.97 1545.03 Q1824.2 1545.58 1826.67 1545.58 Q1830.68 1545.58 1833.02 1543.48 Q1835.35 1541.37 1835.35 1537.76 Q1835.35 1534.15 1833.02 1532.04 Q1830.68 1529.94 1826.67 1529.94 Q1824.8 1529.94 1822.92 1530.35 Q1821.07 1530.77 1819.13 1531.65 L1819.13 1514.29 Z" fill="#000000" fill-rule="nonzero" fill-opacity="1" /><path clip-path="url(#clip510)" d="M1859.24 1517.37 Q1855.63 1517.37 1853.8 1520.93 Q1852 1524.47 1852 1531.6 Q1852 1538.71 1853.8 1542.27 Q1855.63 1545.82 1859.24 1545.82 Q1862.88 1545.82 1864.68 1542.27 Q1866.51 1538.71 1866.51 1531.6 Q1866.51 1524.47 1864.68 1520.93 Q1862.88 1517.37 1859.24 1517.37 M1859.24 1513.66 Q1865.05 1513.66 1868.11 1518.27 Q1871.19 1522.85 1871.19 1531.6 Q1871.19 1540.33 1868.11 1544.94 Q1865.05 1549.52 1859.24 1549.52 Q1853.43 1549.52 1850.35 1544.94 Q1847.3 1540.33 1847.3 1531.6 Q1847.3 1522.85 1850.35 1518.27 Q1853.43 1513.66 1859.24 1513.66 Z" fill="#000000" fill-rule="nonzero" fill-opacity="1" /><path clip-path="url(#clip510)" d="M2149.74 1529.7 Q2146.59 1529.7 2144.74 1531.86 Q2142.91 1534.01 2142.91 1537.76 Q2142.91 1541.49 2144.74 1543.66 Q2146.59 1545.82 2149.74 1545.82 Q2152.89 1545.82 2154.71 1543.66 Q2156.57 1541.49 2156.57 1537.76 Q2156.57 1534.01 2154.71 1531.86 Q2152.89 1529.7 2149.74 1529.7 M2159.02 1515.05 L2159.02 1519.31 Q2157.26 1518.48 2155.46 1518.04 Q2153.67 1517.6 2151.91 1517.6 Q2147.28 1517.6 2144.83 1520.72 Q2142.4 1523.85 2142.05 1530.17 Q2143.42 1528.15 2145.48 1527.09 Q2147.54 1526 2150.02 1526 Q2155.22 1526 2158.23 1529.17 Q2161.27 1532.32 2161.27 1537.76 Q2161.27 1543.08 2158.12 1546.3 Q2154.97 1549.52 2149.74 1549.52 Q2143.74 1549.52 2140.57 1544.94 Q2137.4 1540.33 2137.4 1531.6 Q2137.4 1523.41 2141.29 1518.55 Q2145.18 1513.66 2151.73 1513.66 Q2153.49 1513.66 2155.27 1514.01 Q2157.08 1514.36 2159.02 1515.05 Z" fill="#000000" fill-rule="nonzero" fill-opacity="1" /><path clip-path="url(#clip510)" d="M2179.32 1517.37 Q2175.71 1517.37 2173.88 1520.93 Q2172.08 1524.47 2172.08 1531.6 Q2172.08 1538.71 2173.88 1542.27 Q2175.71 1545.82 2179.32 1545.82 Q2182.95 1545.82 2184.76 1542.27 Q2186.59 1538.71 2186.59 1531.6 Q2186.59 1524.47 2184.76 1520.93 Q2182.95 1517.37 2179.32 1517.37 M2179.32 1513.66 Q2185.13 1513.66 2188.19 1518.27 Q2191.27 1522.85 2191.27 1531.6 Q2191.27 1540.33 2188.19 1544.94 Q2185.13 1549.52 2179.32 1549.52 Q2173.51 1549.52 2170.43 1544.94 Q2167.38 1540.33 2167.38 1531.6 Q2167.38 1522.85 2170.43 1518.27 Q2173.51 1513.66 2179.32 1513.66 Z" fill="#000000" fill-rule="nonzero" fill-opacity="1" /><polyline clip-path="url(#clip512)" style="stroke:#000000; stroke-linecap:round; stroke-linejoin:round; stroke-width:2; stroke-opacity:0.1; fill:none" points="216.436,1305.13 2352.76,1305.13 "/>
<polyline clip-path="url(#clip512)" style="stroke:#000000; stroke-linecap:round; stroke-linejoin:round; stroke-width:2; stroke-opacity:0.1; fill:none" points="216.436,1021.69 2352.76,1021.69 "/>
<polyline clip-path="url(#clip512)" style="stroke:#000000; stroke-linecap:round; stroke-linejoin:round; stroke-width:2; stroke-opacity:0.1; fill:none" points="216.436,738.241 2352.76,738.241 "/>
<polyline clip-path="url(#clip512)" style="stroke:#000000; stroke-linecap:round; stroke-linejoin:round; stroke-width:2; stroke-opacity:0.1; fill:none" points="216.436,454.798 2352.76,454.798 "/>
<polyline clip-path="url(#clip512)" style="stroke:#000000; stroke-linecap:round; stroke-linejoin:round; stroke-width:2; stroke-opacity:0.1; fill:none" points="216.436,171.354 2352.76,171.354 "/>
<polyline clip-path="url(#clip510)" style="stroke:#000000; stroke-linecap:round; stroke-linejoin:round; stroke-width:4; stroke-opacity:1; fill:none" points="216.436,1486.45 216.436,47.2441 "/>
<polyline clip-path="url(#clip510)" style="stroke:#000000; stroke-linecap:round; stroke-linejoin:round; stroke-width:4; stroke-opacity:1; fill:none" points="216.436,1305.13 235.334,1305.13 "/>
<polyline clip-path="url(#clip510)" style="stroke:#000000; stroke-linecap:round; stroke-linejoin:round; stroke-width:4; stroke-opacity:1; fill:none" points="216.436,1021.69 235.334,1021.69 "/>
<polyline clip-path="url(#clip510)" style="stroke:#000000; stroke-linecap:round; stroke-linejoin:round; stroke-width:4; stroke-opacity:1; fill:none" points="216.436,738.241 235.334,738.241 "/>
<polyline clip-path="url(#clip510)" style="stroke:#000000; stroke-linecap:round; stroke-linejoin:round; stroke-width:4; stroke-opacity:1; fill:none" points="216.436,454.798 235.334,454.798 "/>
<polyline clip-path="url(#clip510)" style="stroke:#000000; stroke-linecap:round; stroke-linejoin:round; stroke-width:4; stroke-opacity:1; fill:none" points="216.436,171.354 235.334,171.354 "/>
<path clip-path="url(#clip510)" d="M62.9365 1290.93 Q59.3254 1290.93 57.4967 1294.49 Q55.6912 1298.03 55.6912 1305.16 Q55.6912 1312.27 57.4967 1315.83 Q59.3254 1319.38 62.9365 1319.38 Q66.5707 1319.38 68.3763 1315.83 Q70.205 1312.27 70.205 1305.16 Q70.205 1298.03 68.3763 1294.49 Q66.5707 1290.93 62.9365 1290.93 M62.9365 1287.22 Q68.7467 1287.22 71.8022 1291.83 Q74.8809 1296.41 74.8809 1305.16 Q74.8809 1313.89 71.8022 1318.5 Q68.7467 1323.08 62.9365 1323.08 Q57.1264 1323.08 54.0477 1318.5 Q50.9921 1313.89 50.9921 1305.16 Q50.9921 1296.41 54.0477 1291.83 Q57.1264 1287.22 62.9365 1287.22 Z" fill="#000000" fill-rule="nonzero" fill-opacity="1" /><path clip-path="url(#clip510)" d="M83.0984 1316.53 L87.9827 1316.53 L87.9827 1322.41 L83.0984 1322.41 L83.0984 1316.53 Z" fill="#000000" fill-rule="nonzero" fill-opacity="1" /><path clip-path="url(#clip510)" d="M98.978 1318.47 L106.617 1318.47 L106.617 1292.11 L98.3067 1293.77 L98.3067 1289.52 L106.571 1287.85 L111.246 1287.85 L111.246 1318.47 L118.885 1318.47 L118.885 1322.41 L98.978 1322.41 L98.978 1318.47 Z" fill="#000000" fill-rule="nonzero" fill-opacity="1" /><path clip-path="url(#clip510)" d="M138.33 1290.93 Q134.719 1290.93 132.89 1294.49 Q131.084 1298.03 131.084 1305.16 Q131.084 1312.27 132.89 1315.83 Q134.719 1319.38 138.33 1319.38 Q141.964 1319.38 143.769 1315.83 Q145.598 1312.27 145.598 1305.16 Q145.598 1298.03 143.769 1294.49 Q141.964 1290.93 138.33 1290.93 M138.33 1287.22 Q144.14 1287.22 147.195 1291.83 Q150.274 1296.41 150.274 1305.16 Q150.274 1313.89 147.195 1318.5 Q144.14 1323.08 138.33 1323.08 Q132.519 1323.08 129.441 1318.5 Q126.385 1313.89 126.385 1305.16 Q126.385 1296.41 129.441 1291.83 Q132.519 1287.22 138.33 1287.22 Z" fill="#000000" fill-rule="nonzero" fill-opacity="1" /><path clip-path="url(#clip510)" d="M168.491 1290.93 Q164.88 1290.93 163.052 1294.49 Q161.246 1298.03 161.246 1305.16 Q161.246 1312.27 163.052 1315.83 Q164.88 1319.38 168.491 1319.38 Q172.126 1319.38 173.931 1315.83 Q175.76 1312.27 175.76 1305.16 Q175.76 1298.03 173.931 1294.49 Q172.126 1290.93 168.491 1290.93 M168.491 1287.22 Q174.302 1287.22 177.357 1291.83 Q180.436 1296.41 180.436 1305.16 Q180.436 1313.89 177.357 1318.5 Q174.302 1323.08 168.491 1323.08 Q162.681 1323.08 159.603 1318.5 Q156.547 1313.89 156.547 1305.16 Q156.547 1296.41 159.603 1291.83 Q162.681 1287.22 168.491 1287.22 Z" fill="#000000" fill-rule="nonzero" fill-opacity="1" /><path clip-path="url(#clip510)" d="M63.9319 1007.48 Q60.3208 1007.48 58.4921 1011.05 Q56.6865 1014.59 56.6865 1021.72 Q56.6865 1028.83 58.4921 1032.39 Q60.3208 1035.93 63.9319 1035.93 Q67.5661 1035.93 69.3717 1032.39 Q71.2004 1028.83 71.2004 1021.72 Q71.2004 1014.59 69.3717 1011.05 Q67.5661 1007.48 63.9319 1007.48 M63.9319 1003.78 Q69.742 1003.78 72.7976 1008.39 Q75.8763 1012.97 75.8763 1021.72 Q75.8763 1030.45 72.7976 1035.05 Q69.742 1039.64 63.9319 1039.64 Q58.1217 1039.64 55.043 1035.05 Q51.9875 1030.45 51.9875 1021.72 Q51.9875 1012.97 55.043 1008.39 Q58.1217 1003.78 63.9319 1003.78 Z" fill="#000000" fill-rule="nonzero" fill-opacity="1" /><path clip-path="url(#clip510)" d="M84.0938 1033.09 L88.978 1033.09 L88.978 1038.97 L84.0938 1038.97 L84.0938 1033.09 Z" fill="#000000" fill-rule="nonzero" fill-opacity="1" /><path clip-path="url(#clip510)" d="M99.9733 1035.03 L107.612 1035.03 L107.612 1008.66 L99.3021 1010.33 L99.3021 1006.07 L107.566 1004.41 L112.242 1004.41 L112.242 1035.03 L119.881 1035.03 L119.881 1038.97 L99.9733 1038.97 L99.9733 1035.03 Z" fill="#000000" fill-rule="nonzero" fill-opacity="1" /><path clip-path="url(#clip510)" d="M133.353 1035.03 L149.672 1035.03 L149.672 1038.97 L127.728 1038.97 L127.728 1035.03 Q130.39 1032.28 134.973 1027.65 Q139.58 1022.99 140.76 1021.65 Q143.006 1019.13 143.885 1017.39 Q144.788 1015.63 144.788 1013.94 Q144.788 1011.19 142.843 1009.45 Q140.922 1007.72 137.82 1007.72 Q135.621 1007.72 133.168 1008.48 Q130.737 1009.24 127.959 1010.79 L127.959 1006.07 Q130.783 1004.94 133.237 1004.36 Q135.691 1003.78 137.728 1003.78 Q143.098 1003.78 146.293 1006.47 Q149.487 1009.15 149.487 1013.64 Q149.487 1015.77 148.677 1017.69 Q147.89 1019.59 145.783 1022.18 Q145.205 1022.85 142.103 1026.07 Q139.001 1029.27 133.353 1035.03 Z" fill="#000000" fill-rule="nonzero" fill-opacity="1" /><path clip-path="url(#clip510)" d="M159.533 1004.41 L177.89 1004.41 L177.89 1008.34 L163.816 1008.34 L163.816 1016.81 Q164.834 1016.47 165.853 1016.3 Q166.871 1016.12 167.89 1016.12 Q173.677 1016.12 177.056 1019.29 Q180.436 1022.46 180.436 1027.88 Q180.436 1033.46 176.964 1036.56 Q173.491 1039.64 167.172 1039.64 Q164.996 1039.64 162.728 1039.27 Q160.482 1038.9 158.075 1038.15 L158.075 1033.46 Q160.158 1034.59 162.38 1035.15 Q164.603 1035.7 167.079 1035.7 Q171.084 1035.7 173.422 1033.59 Q175.76 1031.49 175.76 1027.88 Q175.76 1024.27 173.422 1022.16 Q171.084 1020.05 167.079 1020.05 Q165.204 1020.05 163.329 1020.47 Q161.478 1020.89 159.533 1021.77 L159.533 1004.41 Z" fill="#000000" fill-rule="nonzero" fill-opacity="1" /><path clip-path="url(#clip510)" d="M62.9365 724.04 Q59.3254 724.04 57.4967 727.605 Q55.6912 731.146 55.6912 738.276 Q55.6912 745.382 57.4967 748.947 Q59.3254 752.489 62.9365 752.489 Q66.5707 752.489 68.3763 748.947 Q70.205 745.382 70.205 738.276 Q70.205 731.146 68.3763 727.605 Q66.5707 724.04 62.9365 724.04 M62.9365 720.336 Q68.7467 720.336 71.8022 724.943 Q74.8809 729.526 74.8809 738.276 Q74.8809 747.003 71.8022 751.609 Q68.7467 756.193 62.9365 756.193 Q57.1264 756.193 54.0477 751.609 Q50.9921 747.003 50.9921 738.276 Q50.9921 729.526 54.0477 724.943 Q57.1264 720.336 62.9365 720.336 Z" fill="#000000" fill-rule="nonzero" fill-opacity="1" /><path clip-path="url(#clip510)" d="M83.0984 749.642 L87.9827 749.642 L87.9827 755.521 L83.0984 755.521 L83.0984 749.642 Z" fill="#000000" fill-rule="nonzero" fill-opacity="1" /><path clip-path="url(#clip510)" d="M98.978 751.586 L106.617 751.586 L106.617 725.221 L98.3067 726.887 L98.3067 722.628 L106.571 720.961 L111.246 720.961 L111.246 751.586 L118.885 751.586 L118.885 755.521 L98.978 755.521 L98.978 751.586 Z" fill="#000000" fill-rule="nonzero" fill-opacity="1" /><path clip-path="url(#clip510)" d="M128.376 720.961 L146.732 720.961 L146.732 724.896 L132.658 724.896 L132.658 733.369 Q133.677 733.021 134.695 732.859 Q135.714 732.674 136.732 732.674 Q142.519 732.674 145.899 735.845 Q149.279 739.017 149.279 744.433 Q149.279 750.012 145.806 753.114 Q142.334 756.193 136.015 756.193 Q133.839 756.193 131.57 755.822 Q129.325 755.452 126.918 754.711 L126.918 750.012 Q129.001 751.146 131.223 751.702 Q133.445 752.257 135.922 752.257 Q139.927 752.257 142.265 750.151 Q144.603 748.044 144.603 744.433 Q144.603 740.822 142.265 738.716 Q139.927 736.609 135.922 736.609 Q134.047 736.609 132.172 737.026 Q130.32 737.443 128.376 738.322 L128.376 720.961 Z" fill="#000000" fill-rule="nonzero" fill-opacity="1" /><path clip-path="url(#clip510)" d="M168.491 724.04 Q164.88 724.04 163.052 727.605 Q161.246 731.146 161.246 738.276 Q161.246 745.382 163.052 748.947 Q164.88 752.489 168.491 752.489 Q172.126 752.489 173.931 748.947 Q175.76 745.382 175.76 738.276 Q175.76 731.146 173.931 727.605 Q172.126 724.04 168.491 724.04 M168.491 720.336 Q174.302 720.336 177.357 724.943 Q180.436 729.526 180.436 738.276 Q180.436 747.003 177.357 751.609 Q174.302 756.193 168.491 756.193 Q162.681 756.193 159.603 751.609 Q156.547 747.003 156.547 738.276 Q156.547 729.526 159.603 724.943 Q162.681 720.336 168.491 720.336 Z" fill="#000000" fill-rule="nonzero" fill-opacity="1" /><path clip-path="url(#clip510)" d="M63.9319 440.596 Q60.3208 440.596 58.4921 444.161 Q56.6865 447.703 56.6865 454.832 Q56.6865 461.939 58.4921 465.503 Q60.3208 469.045 63.9319 469.045 Q67.5661 469.045 69.3717 465.503 Q71.2004 461.939 71.2004 454.832 Q71.2004 447.703 69.3717 444.161 Q67.5661 440.596 63.9319 440.596 M63.9319 436.893 Q69.742 436.893 72.7976 441.499 Q75.8763 446.082 75.8763 454.832 Q75.8763 463.559 72.7976 468.165 Q69.742 472.749 63.9319 472.749 Q58.1217 472.749 55.043 468.165 Q51.9875 463.559 51.9875 454.832 Q51.9875 446.082 55.043 441.499 Q58.1217 436.893 63.9319 436.893 Z" fill="#000000" fill-rule="nonzero" fill-opacity="1" /><path clip-path="url(#clip510)" d="M84.0938 466.198 L88.978 466.198 L88.978 472.078 L84.0938 472.078 L84.0938 466.198 Z" fill="#000000" fill-rule="nonzero" fill-opacity="1" /><path clip-path="url(#clip510)" d="M99.9733 468.142 L107.612 468.142 L107.612 441.777 L99.3021 443.443 L99.3021 439.184 L107.566 437.518 L112.242 437.518 L112.242 468.142 L119.881 468.142 L119.881 472.078 L99.9733 472.078 L99.9733 468.142 Z" fill="#000000" fill-rule="nonzero" fill-opacity="1" /><path clip-path="url(#clip510)" d="M128.144 437.518 L150.367 437.518 L150.367 439.508 L137.82 472.078 L132.936 472.078 L144.742 441.453 L128.144 441.453 L128.144 437.518 Z" fill="#000000" fill-rule="nonzero" fill-opacity="1" /><path clip-path="url(#clip510)" d="M159.533 437.518 L177.89 437.518 L177.89 441.453 L163.816 441.453 L163.816 449.925 Q164.834 449.578 165.853 449.416 Q166.871 449.23 167.89 449.23 Q173.677 449.23 177.056 452.402 Q180.436 455.573 180.436 460.99 Q180.436 466.568 176.964 469.67 Q173.491 472.749 167.172 472.749 Q164.996 472.749 162.728 472.378 Q160.482 472.008 158.075 471.267 L158.075 466.568 Q160.158 467.703 162.38 468.258 Q164.603 468.814 167.079 468.814 Q171.084 468.814 173.422 466.707 Q175.76 464.601 175.76 460.99 Q175.76 457.379 173.422 455.272 Q171.084 453.166 167.079 453.166 Q165.204 453.166 163.329 453.582 Q161.478 453.999 159.533 454.879 L159.533 437.518 Z" fill="#000000" fill-rule="nonzero" fill-opacity="1" /><path clip-path="url(#clip510)" d="M62.9365 157.152 Q59.3254 157.152 57.4967 160.717 Q55.6912 164.259 55.6912 171.388 Q55.6912 178.495 57.4967 182.06 Q59.3254 185.601 62.9365 185.601 Q66.5707 185.601 68.3763 182.06 Q70.205 178.495 70.205 171.388 Q70.205 164.259 68.3763 160.717 Q66.5707 157.152 62.9365 157.152 M62.9365 153.449 Q68.7467 153.449 71.8022 158.055 Q74.8809 162.639 74.8809 171.388 Q74.8809 180.115 71.8022 184.722 Q68.7467 189.305 62.9365 189.305 Q57.1264 189.305 54.0477 184.722 Q50.9921 180.115 50.9921 171.388 Q50.9921 162.639 54.0477 158.055 Q57.1264 153.449 62.9365 153.449 Z" fill="#000000" fill-rule="nonzero" fill-opacity="1" /><path clip-path="url(#clip510)" d="M83.0984 182.754 L87.9827 182.754 L87.9827 188.634 L83.0984 188.634 L83.0984 182.754 Z" fill="#000000" fill-rule="nonzero" fill-opacity="1" /><path clip-path="url(#clip510)" d="M102.196 184.699 L118.515 184.699 L118.515 188.634 L96.5706 188.634 L96.5706 184.699 Q99.2326 181.944 103.816 177.314 Q108.422 172.662 109.603 171.319 Q111.848 168.796 112.728 167.06 Q113.631 165.301 113.631 163.611 Q113.631 160.856 111.686 159.12 Q109.765 157.384 106.663 157.384 Q104.464 157.384 102.01 158.148 Q99.5798 158.912 96.8021 160.463 L96.8021 155.74 Q99.6261 154.606 102.08 154.027 Q104.534 153.449 106.571 153.449 Q111.941 153.449 115.135 156.134 Q118.33 158.819 118.33 163.31 Q118.33 165.439 117.52 167.361 Q116.733 169.259 114.626 171.851 Q114.047 172.523 110.946 175.74 Q107.844 178.935 102.196 184.699 Z" fill="#000000" fill-rule="nonzero" fill-opacity="1" /><path clip-path="url(#clip510)" d="M138.33 157.152 Q134.719 157.152 132.89 160.717 Q131.084 164.259 131.084 171.388 Q131.084 178.495 132.89 182.06 Q134.719 185.601 138.33 185.601 Q141.964 185.601 143.769 182.06 Q145.598 178.495 145.598 171.388 Q145.598 164.259 143.769 160.717 Q141.964 157.152 138.33 157.152 M138.33 153.449 Q144.14 153.449 147.195 158.055 Q150.274 162.639 150.274 171.388 Q150.274 180.115 147.195 184.722 Q144.14 189.305 138.33 189.305 Q132.519 189.305 129.441 184.722 Q126.385 180.115 126.385 171.388 Q126.385 162.639 129.441 158.055 Q132.519 153.449 138.33 153.449 Z" fill="#000000" fill-rule="nonzero" fill-opacity="1" /><path clip-path="url(#clip510)" d="M168.491 157.152 Q164.88 157.152 163.052 160.717 Q161.246 164.259 161.246 171.388 Q161.246 178.495 163.052 182.06 Q164.88 185.601 168.491 185.601 Q172.126 185.601 173.931 182.06 Q175.76 178.495 175.76 171.388 Q175.76 164.259 173.931 160.717 Q172.126 157.152 168.491 157.152 M168.491 153.449 Q174.302 153.449 177.357 158.055 Q180.436 162.639 180.436 171.388 Q180.436 180.115 177.357 184.722 Q174.302 189.305 168.491 189.305 Q162.681 189.305 159.603 184.722 Q156.547 180.115 156.547 171.388 Q156.547 162.639 159.603 158.055 Q162.681 153.449 168.491 153.449 Z" fill="#000000" fill-rule="nonzero" fill-opacity="1" /><polyline clip-path="url(#clip512)" style="stroke:#009af9; stroke-linecap:round; stroke-linejoin:round; stroke-width:4; stroke-opacity:1; fill:none" points="276.898,452.663 308.888,87.9763 340.879,235.71 372.869,264.472 404.859,259.565 436.85,410.047 468.84,478.399 500.831,301.869 532.821,528.408 564.812,390.029 596.802,426.847 628.792,494.445 660.783,363.671 692.773,502.603 724.764,728.201 756.754,629.79 788.744,635.565 820.735,673.6 852.725,603.599 884.716,636.656 916.706,625.655 948.697,721.48 980.687,570.565 1012.68,838.174 1044.67,661.638 1076.66,705.645 1108.65,841.761 1140.64,739.568 1172.63,769.993 1204.62,700.825 1236.61,738.048 1268.6,611.59 1300.59,849.815 1332.58,714.07 1364.57,782.061 1396.56,704.096 1428.55,768.417 1460.54,680.595 1492.53,935.297 1524.52,871.823 1556.51,844.225 1588.5,889.882 1620.5,735.611 1652.49,841.088 1684.48,924.976 1716.47,822.954 1748.46,943.329 1780.45,826.416 1812.44,919.319 1844.43,820.826 1876.42,752.928 1908.41,900.633 1940.4,1074.21 1972.39,959.77 2004.38,965.819 2036.37,743.511 2068.36,862.89 2100.35,940.416 2132.34,895.055 2164.33,984.675 2196.32,922.118 2228.31,986.258 2260.3,909.526 2292.29,1003.57 "/>
<polyline clip-path="url(#clip512)" style="stroke:#e26f46; stroke-linecap:round; stroke-linejoin:round; stroke-width:4; stroke-opacity:1; fill:none" points="276.898,299.427 308.888,532.4 340.879,565.022 372.869,536.779 404.859,743.774 436.85,478.246 468.84,679.887 500.831,786.607 532.821,718.641 564.812,830.886 596.802,783.09 628.792,790.734 660.783,960.372 692.773,1002.3 724.764,1014.9 756.754,1079.19 788.744,895.282 820.735,1016.51 852.725,849.489 884.716,1088.9 916.706,1144.24 948.697,940.734 980.687,991.184 1012.68,1077.75 1044.67,1072.66 1076.66,1098.01 1108.65,1216.42 1140.64,1282.56 1172.63,1274.26 1204.62,1306.42 1236.61,1136.78 1268.6,1151.06 1300.59,1275.17 1332.58,1267.22 1364.57,1153.11 1396.56,1260.57 1428.55,1322.01 1460.54,1335.86 1492.53,1252.98 1524.52,1139.72 1556.51,1343.28 1588.5,1212.31 1620.5,1316.05 1652.49,1319.72 1684.48,1356.85 1716.47,1361.48 1748.46,1243.45 1780.45,1210.38 1812.44,1135.55 1844.43,1344.89 1876.42,1256.5 1908.41,1263.13 1940.4,1379.85 1972.39,1403.22 2004.38,1205.97 2036.37,1441.11 2068.36,1247.9 2100.35,1445.72 2132.34,1387.77 2164.33,1289.31 2196.32,1218.53 2228.31,1384.88 2260.3,1395.1 2292.29,1424.17 "/>
<path clip-path="url(#clip510)" d="M1846.2 250.738 L2281.55 250.738 L2281.55 95.2176 L1846.2 95.2176  Z" fill="#ffffff" fill-rule="evenodd" fill-opacity="1"/>
<polyline clip-path="url(#clip510)" style="stroke:#000000; stroke-linecap:round; stroke-linejoin:round; stroke-width:4; stroke-opacity:1; fill:none" points="1846.2,250.738 2281.55,250.738 2281.55,95.2176 1846.2,95.2176 1846.2,250.738 "/>
<polyline clip-path="url(#clip510)" style="stroke:#009af9; stroke-linecap:round; stroke-linejoin:round; stroke-width:4; stroke-opacity:1; fill:none" points="1869.94,147.058 2012.36,147.058 "/>
<path clip-path="url(#clip510)" d="M2051.28 142.393 Q2050.56 141.977 2049.71 141.791 Q2048.87 141.583 2047.86 141.583 Q2044.24 141.583 2042.3 143.944 Q2040.38 146.282 2040.38 150.68 L2040.38 164.338 L2036.1 164.338 L2036.1 138.412 L2040.38 138.412 L2040.38 142.44 Q2041.72 140.078 2043.87 138.944 Q2046.03 137.787 2049.11 137.787 Q2049.55 137.787 2050.08 137.856 Q2050.61 137.903 2051.26 138.018 L2051.28 142.393 Z" fill="#000000" fill-rule="nonzero" fill-opacity="1" /><path clip-path="url(#clip510)" d="M2067.53 151.305 Q2062.37 151.305 2060.38 152.486 Q2058.39 153.666 2058.39 156.514 Q2058.39 158.782 2059.87 160.125 Q2061.37 161.444 2063.94 161.444 Q2067.49 161.444 2069.61 158.944 Q2071.77 156.421 2071.77 152.254 L2071.77 151.305 L2067.53 151.305 M2076.03 149.546 L2076.03 164.338 L2071.77 164.338 L2071.77 160.402 Q2070.31 162.763 2068.13 163.898 Q2065.96 165.009 2062.81 165.009 Q2058.83 165.009 2056.47 162.787 Q2054.13 160.541 2054.13 156.791 Q2054.13 152.416 2057.05 150.194 Q2059.99 147.972 2065.8 147.972 L2071.77 147.972 L2071.77 147.555 Q2071.77 144.615 2069.82 143.018 Q2067.9 141.398 2064.41 141.398 Q2062.18 141.398 2060.08 141.93 Q2057.97 142.463 2056.03 143.527 L2056.03 139.592 Q2058.36 138.69 2060.56 138.25 Q2062.76 137.787 2064.85 137.787 Q2070.47 137.787 2073.25 140.703 Q2076.03 143.62 2076.03 149.546 Z" fill="#000000" fill-rule="nonzero" fill-opacity="1" /><path clip-path="url(#clip510)" d="M2082.32 138.412 L2086.58 138.412 L2091.91 158.643 L2097.21 138.412 L2102.23 138.412 L2107.55 158.643 L2112.86 138.412 L2117.11 138.412 L2110.33 164.338 L2105.31 164.338 L2099.73 143.088 L2094.13 164.338 L2089.11 164.338 L2082.32 138.412 Z" fill="#000000" fill-rule="nonzero" fill-opacity="1" /><path clip-path="url(#clip510)" d="M2143.27 172.208 L2143.27 175.518 L2118.64 175.518 L2118.64 172.208 L2143.27 172.208 Z" fill="#000000" fill-rule="nonzero" fill-opacity="1" /><path clip-path="url(#clip510)" d="M2165.93 139.407 L2165.93 143.389 Q2164.13 142.393 2162.3 141.907 Q2160.49 141.398 2158.64 141.398 Q2154.5 141.398 2152.21 144.037 Q2149.92 146.652 2149.92 151.398 Q2149.92 156.143 2152.21 158.782 Q2154.5 161.398 2158.64 161.398 Q2160.49 161.398 2162.3 160.912 Q2164.13 160.402 2165.93 159.407 L2165.93 163.342 Q2164.15 164.176 2162.23 164.592 Q2160.33 165.009 2158.18 165.009 Q2152.32 165.009 2148.87 161.328 Q2145.42 157.648 2145.42 151.398 Q2145.42 145.055 2148.9 141.421 Q2152.39 137.787 2158.46 137.787 Q2160.42 137.787 2162.3 138.203 Q2164.17 138.597 2165.93 139.407 Z" fill="#000000" fill-rule="nonzero" fill-opacity="1" /><path clip-path="url(#clip510)" d="M2183.39 141.398 Q2179.96 141.398 2177.97 144.083 Q2175.98 146.745 2175.98 151.398 Q2175.98 156.051 2177.95 158.736 Q2179.94 161.398 2183.39 161.398 Q2186.79 161.398 2188.78 158.713 Q2190.77 156.027 2190.77 151.398 Q2190.77 146.791 2188.78 144.106 Q2186.79 141.398 2183.39 141.398 M2183.39 137.787 Q2188.94 137.787 2192.11 141.398 Q2195.29 145.009 2195.29 151.398 Q2195.29 157.764 2192.11 161.398 Q2188.94 165.009 2183.39 165.009 Q2177.81 165.009 2174.64 161.398 Q2171.49 157.764 2171.49 151.398 Q2171.49 145.009 2174.64 141.398 Q2177.81 137.787 2183.39 137.787 Z" fill="#000000" fill-rule="nonzero" fill-opacity="1" /><path clip-path="url(#clip510)" d="M2218.87 139.176 L2218.87 143.203 Q2217.07 142.277 2215.12 141.815 Q2213.18 141.352 2211.1 141.352 Q2207.92 141.352 2206.33 142.324 Q2204.75 143.296 2204.75 145.24 Q2204.75 146.722 2205.89 147.578 Q2207.02 148.412 2210.45 149.176 L2211.91 149.5 Q2216.44 150.472 2218.34 152.254 Q2220.26 154.014 2220.26 157.185 Q2220.26 160.796 2217.39 162.902 Q2214.54 165.009 2209.54 165.009 Q2207.46 165.009 2205.19 164.592 Q2202.95 164.199 2200.45 163.388 L2200.45 158.99 Q2202.81 160.217 2205.1 160.842 Q2207.39 161.444 2209.64 161.444 Q2212.65 161.444 2214.27 160.426 Q2215.89 159.384 2215.89 157.509 Q2215.89 155.773 2214.71 154.847 Q2213.55 153.921 2209.59 153.064 L2208.11 152.717 Q2204.15 151.884 2202.39 150.171 Q2200.63 148.435 2200.63 145.426 Q2200.63 141.768 2203.23 139.778 Q2205.82 137.787 2210.59 137.787 Q2212.95 137.787 2215.03 138.134 Q2217.11 138.481 2218.87 139.176 Z" fill="#000000" fill-rule="nonzero" fill-opacity="1" /><path clip-path="url(#clip510)" d="M2231.26 131.051 L2231.26 138.412 L2240.03 138.412 L2240.03 141.722 L2231.26 141.722 L2231.26 155.796 Q2231.26 158.967 2232.11 159.87 Q2232.99 160.773 2235.66 160.773 L2240.03 160.773 L2240.03 164.338 L2235.66 164.338 Q2230.73 164.338 2228.85 162.509 Q2226.98 160.657 2226.98 155.796 L2226.98 141.722 L2223.85 141.722 L2223.85 138.412 L2226.98 138.412 L2226.98 131.051 L2231.26 131.051 Z" fill="#000000" fill-rule="nonzero" fill-opacity="1" /><polyline clip-path="url(#clip510)" style="stroke:#e26f46; stroke-linecap:round; stroke-linejoin:round; stroke-width:4; stroke-opacity:1; fill:none" points="1869.94,198.898 2012.36,198.898 "/>
<path clip-path="url(#clip510)" d="M2055.01 202.914 Q2055.01 198.284 2053.09 195.738 Q2051.19 193.192 2047.74 193.192 Q2044.31 193.192 2042.39 195.738 Q2040.49 198.284 2040.49 202.914 Q2040.49 207.52 2042.39 210.066 Q2044.31 212.613 2047.74 212.613 Q2051.19 212.613 2053.09 210.066 Q2055.01 207.52 2055.01 202.914 M2059.27 212.96 Q2059.27 219.58 2056.33 222.798 Q2053.39 226.039 2047.32 226.039 Q2045.08 226.039 2043.09 225.691 Q2041.1 225.367 2039.22 224.673 L2039.22 220.529 Q2041.1 221.548 2042.93 222.034 Q2044.75 222.52 2046.65 222.52 Q2050.84 222.52 2052.93 220.321 Q2055.01 218.145 2055.01 213.724 L2055.01 211.617 Q2053.69 213.909 2051.63 215.043 Q2049.57 216.178 2046.7 216.178 Q2041.93 216.178 2039.01 212.543 Q2036.1 208.909 2036.1 202.914 Q2036.1 196.895 2039.01 193.261 Q2041.93 189.627 2046.7 189.627 Q2049.57 189.627 2051.63 190.761 Q2053.69 191.895 2055.01 194.187 L2055.01 190.252 L2059.27 190.252 L2059.27 212.96 Z" fill="#000000" fill-rule="nonzero" fill-opacity="1" /><path clip-path="url(#clip510)" d="M2067.6 205.946 L2067.6 190.252 L2071.86 190.252 L2071.86 205.784 Q2071.86 209.465 2073.3 211.316 Q2074.73 213.145 2077.6 213.145 Q2081.05 213.145 2083.04 210.946 Q2085.05 208.747 2085.05 204.951 L2085.05 190.252 L2089.31 190.252 L2089.31 216.178 L2085.05 216.178 L2085.05 212.196 Q2083.5 214.557 2081.44 215.715 Q2079.41 216.849 2076.7 216.849 Q2072.23 216.849 2069.92 214.071 Q2067.6 211.293 2067.6 205.946 M2078.32 189.627 L2078.32 189.627 Z" fill="#000000" fill-rule="nonzero" fill-opacity="1" /><path clip-path="url(#clip510)" d="M2098.09 190.252 L2102.35 190.252 L2102.35 216.178 L2098.09 216.178 L2098.09 190.252 M2098.09 180.159 L2102.35 180.159 L2102.35 185.553 L2098.09 185.553 L2098.09 180.159 Z" fill="#000000" fill-rule="nonzero" fill-opacity="1" /><path clip-path="url(#clip510)" d="M2128.32 194.187 L2128.32 180.159 L2132.58 180.159 L2132.58 216.178 L2128.32 216.178 L2128.32 212.289 Q2126.98 214.603 2124.92 215.738 Q2122.88 216.849 2120.01 216.849 Q2115.31 216.849 2112.35 213.099 Q2109.41 209.349 2109.41 203.238 Q2109.41 197.127 2112.35 193.377 Q2115.31 189.627 2120.01 189.627 Q2122.88 189.627 2124.92 190.761 Q2126.98 191.872 2128.32 194.187 M2113.8 203.238 Q2113.8 207.937 2115.73 210.622 Q2117.67 213.284 2121.05 213.284 Q2124.43 213.284 2126.37 210.622 Q2128.32 207.937 2128.32 203.238 Q2128.32 198.539 2126.37 195.877 Q2124.43 193.192 2121.05 193.192 Q2117.67 193.192 2115.73 195.877 Q2113.8 198.539 2113.8 203.238 Z" fill="#000000" fill-rule="nonzero" fill-opacity="1" /><path clip-path="url(#clip510)" d="M2161.05 224.048 L2161.05 227.358 L2136.42 227.358 L2136.42 224.048 L2161.05 224.048 Z" fill="#000000" fill-rule="nonzero" fill-opacity="1" /><path clip-path="url(#clip510)" d="M2183.71 191.247 L2183.71 195.229 Q2181.91 194.233 2180.08 193.747 Q2178.27 193.238 2176.42 193.238 Q2172.28 193.238 2169.98 195.877 Q2167.69 198.492 2167.69 203.238 Q2167.69 207.983 2169.98 210.622 Q2172.28 213.238 2176.42 213.238 Q2178.27 213.238 2180.08 212.752 Q2181.91 212.242 2183.71 211.247 L2183.71 215.182 Q2181.93 216.016 2180.01 216.432 Q2178.11 216.849 2175.96 216.849 Q2170.1 216.849 2166.65 213.168 Q2163.2 209.488 2163.2 203.238 Q2163.2 196.895 2166.67 193.261 Q2170.17 189.627 2176.23 189.627 Q2178.2 189.627 2180.08 190.043 Q2181.95 190.437 2183.71 191.247 Z" fill="#000000" fill-rule="nonzero" fill-opacity="1" /><path clip-path="url(#clip510)" d="M2201.17 193.238 Q2197.74 193.238 2195.75 195.923 Q2193.76 198.585 2193.76 203.238 Q2193.76 207.891 2195.73 210.576 Q2197.72 213.238 2201.17 213.238 Q2204.57 213.238 2206.56 210.553 Q2208.55 207.867 2208.55 203.238 Q2208.55 198.631 2206.56 195.946 Q2204.57 193.238 2201.17 193.238 M2201.17 189.627 Q2206.72 189.627 2209.89 193.238 Q2213.06 196.849 2213.06 203.238 Q2213.06 209.604 2209.89 213.238 Q2206.72 216.849 2201.17 216.849 Q2195.59 216.849 2192.42 213.238 Q2189.27 209.604 2189.27 203.238 Q2189.27 196.849 2192.42 193.238 Q2195.59 189.627 2201.17 189.627 Z" fill="#000000" fill-rule="nonzero" fill-opacity="1" /><path clip-path="url(#clip510)" d="M2236.65 191.016 L2236.65 195.043 Q2234.85 194.117 2232.9 193.655 Q2230.96 193.192 2228.87 193.192 Q2225.7 193.192 2224.1 194.164 Q2222.53 195.136 2222.53 197.08 Q2222.53 198.562 2223.67 199.418 Q2224.8 200.252 2228.23 201.016 L2229.68 201.34 Q2234.22 202.312 2236.12 204.094 Q2238.04 205.854 2238.04 209.025 Q2238.04 212.636 2235.17 214.742 Q2232.32 216.849 2227.32 216.849 Q2225.24 216.849 2222.97 216.432 Q2220.73 216.039 2218.23 215.228 L2218.23 210.83 Q2220.59 212.057 2222.88 212.682 Q2225.17 213.284 2227.41 213.284 Q2230.42 213.284 2232.04 212.266 Q2233.66 211.224 2233.66 209.349 Q2233.66 207.613 2232.48 206.687 Q2231.33 205.761 2227.37 204.904 L2225.89 204.557 Q2221.93 203.724 2220.17 202.011 Q2218.41 200.275 2218.41 197.266 Q2218.41 193.608 2221 191.618 Q2223.6 189.627 2228.36 189.627 Q2230.73 189.627 2232.81 189.974 Q2234.89 190.321 2236.65 191.016 Z" fill="#000000" fill-rule="nonzero" fill-opacity="1" /><path clip-path="url(#clip510)" d="M2249.04 182.891 L2249.04 190.252 L2257.81 190.252 L2257.81 193.562 L2249.04 193.562 L2249.04 207.636 Q2249.04 210.807 2249.89 211.71 Q2250.77 212.613 2253.43 212.613 L2257.81 212.613 L2257.81 216.178 L2253.43 216.178 Q2248.5 216.178 2246.63 214.349 Q2244.75 212.497 2244.75 207.636 L2244.75 193.562 L2241.63 193.562 L2241.63 190.252 L2244.75 190.252 L2244.75 182.891 L2249.04 182.891 Z" fill="#000000" fill-rule="nonzero" fill-opacity="1" /></svg>
