<?xml version="1.0" encoding="utf-8"?>
<svg xmlns="http://www.w3.org/2000/svg" xmlns:xlink="http://www.w3.org/1999/xlink" width="600" height="400" viewBox="0 0 2400 1600">
<defs>
  <clipPath id="clip630">
    <rect x="0" y="0" width="2400" height="1600"/>
  </clipPath>
</defs>
<path clip-path="url(#clip630)" d="M0 1600 L2400 1600 L2400 0 L0 0  Z" fill="#ffffff" fill-rule="evenodd" fill-opacity="1"/>
<defs>
  <clipPath id="clip631">
    <rect x="480" y="0" width="1681" height="1600"/>
  </clipPath>
</defs>
<path clip-path="url(#clip630)" d="M186.76 1486.45 L2352.76 1486.45 L2352.76 47.2441 L186.76 47.2441  Z" fill="#ffffff" fill-rule="evenodd" fill-opacity="1"/>
<defs>
  <clipPath id="clip632">
    <rect x="186" y="47" width="2167" height="1440"/>
  </clipPath>
</defs>
<polyline clip-path="url(#clip632)" style="stroke:#000000; stroke-linecap:round; stroke-linejoin:round; stroke-width:2; stroke-opacity:0.1; fill:none" points="215.627,1486.45 215.627,47.2441 "/>
<polyline clip-path="url(#clip632)" style="stroke:#000000; stroke-linecap:round; stroke-linejoin:round; stroke-width:2; stroke-opacity:0.1; fill:none" points="539.975,1486.45 539.975,47.2441 "/>
<polyline clip-path="url(#clip632)" style="stroke:#000000; stroke-linecap:round; stroke-linejoin:round; stroke-width:2; stroke-opacity:0.1; fill:none" points="864.323,1486.45 864.323,47.2441 "/>
<polyline clip-path="url(#clip632)" style="stroke:#000000; stroke-linecap:round; stroke-linejoin:round; stroke-width:2; stroke-opacity:0.1; fill:none" points="1188.67,1486.45 1188.67,47.2441 "/>
<polyline clip-path="url(#clip632)" style="stroke:#000000; stroke-linecap:round; stroke-linejoin:round; stroke-width:2; stroke-opacity:0.1; fill:none" points="1513.02,1486.45 1513.02,47.2441 "/>
<polyline clip-path="url(#clip632)" style="stroke:#000000; stroke-linecap:round; stroke-linejoin:round; stroke-width:2; stroke-opacity:0.1; fill:none" points="1837.37,1486.45 1837.37,47.2441 "/>
<polyline clip-path="url(#clip632)" style="stroke:#000000; stroke-linecap:round; stroke-linejoin:round; stroke-width:2; stroke-opacity:0.1; fill:none" points="2161.71,1486.45 2161.71,47.2441 "/>
<polyline clip-path="url(#clip630)" style="stroke:#000000; stroke-linecap:round; stroke-linejoin:round; stroke-width:4; stroke-opacity:1; fill:none" points="186.76,1486.45 2352.76,1486.45 "/>
<polyline clip-path="url(#clip630)" style="stroke:#000000; stroke-linecap:round; stroke-linejoin:round; stroke-width:4; stroke-opacity:1; fill:none" points="215.627,1486.45 215.627,1467.55 "/>
<polyline clip-path="url(#clip630)" style="stroke:#000000; stroke-linecap:round; stroke-linejoin:round; stroke-width:4; stroke-opacity:1; fill:none" points="539.975,1486.45 539.975,1467.55 "/>
<polyline clip-path="url(#clip630)" style="stroke:#000000; stroke-linecap:round; stroke-linejoin:round; stroke-width:4; stroke-opacity:1; fill:none" points="864.323,1486.45 864.323,1467.55 "/>
<polyline clip-path="url(#clip630)" style="stroke:#000000; stroke-linecap:round; stroke-linejoin:round; stroke-width:4; stroke-opacity:1; fill:none" points="1188.67,1486.45 1188.67,1467.55 "/>
<polyline clip-path="url(#clip630)" style="stroke:#000000; stroke-linecap:round; stroke-linejoin:round; stroke-width:4; stroke-opacity:1; fill:none" points="1513.02,1486.45 1513.02,1467.55 "/>
<polyline clip-path="url(#clip630)" style="stroke:#000000; stroke-linecap:round; stroke-linejoin:round; stroke-width:4; stroke-opacity:1; fill:none" points="1837.37,1486.45 1837.37,1467.55 "/>
<polyline clip-path="url(#clip630)" style="stroke:#000000; stroke-linecap:round; stroke-linejoin:round; stroke-width:4; stroke-opacity:1; fill:none" points="2161.71,1486.45 2161.71,1467.55 "/>
<path clip-path="url(#clip630)" d="M215.627 1517.37 Q212.016 1517.37 210.187 1520.93 Q208.382 1524.47 208.382 1531.6 Q208.382 1538.71 210.187 1542.27 Q212.016 1545.82 215.627 1545.82 Q219.261 1545.82 221.067 1542.27 Q222.896 1538.71 222.896 1531.6 Q222.896 1524.47 221.067 1520.93 Q219.261 1517.37 215.627 1517.37 M215.627 1513.66 Q221.437 1513.66 224.493 1518.27 Q227.571 1522.85 227.571 1531.6 Q227.571 1540.33 224.493 1544.94 Q221.437 1549.52 215.627 1549.52 Q209.817 1549.52 206.738 1544.94 Q203.683 1540.33 203.683 1531.6 Q203.683 1522.85 206.738 1518.27 Q209.817 1513.66 215.627 1513.66 Z" fill="#000000" fill-rule="nonzero" fill-opacity="1" /><path clip-path="url(#clip630)" d="M514.663 1544.91 L522.302 1544.91 L522.302 1518.55 L513.991 1520.21 L513.991 1515.95 L522.255 1514.29 L526.931 1514.29 L526.931 1544.91 L534.57 1544.91 L534.57 1548.85 L514.663 1548.85 L514.663 1544.91 Z" fill="#000000" fill-rule="nonzero" fill-opacity="1" /><path clip-path="url(#clip630)" d="M554.014 1517.37 Q550.403 1517.37 548.575 1520.93 Q546.769 1524.47 546.769 1531.6 Q546.769 1538.71 548.575 1542.27 Q550.403 1545.82 554.014 1545.82 Q557.649 1545.82 559.454 1542.27 Q561.283 1538.71 561.283 1531.6 Q561.283 1524.47 559.454 1520.93 Q557.649 1517.37 554.014 1517.37 M554.014 1513.66 Q559.824 1513.66 562.88 1518.27 Q565.959 1522.85 565.959 1531.6 Q565.959 1540.33 562.88 1544.94 Q559.824 1549.52 554.014 1549.52 Q548.204 1549.52 545.125 1544.94 Q542.07 1540.33 542.07 1531.6 Q542.07 1522.85 545.125 1518.27 Q548.204 1513.66 554.014 1513.66 Z" fill="#000000" fill-rule="nonzero" fill-opacity="1" /><path clip-path="url(#clip630)" d="M843.096 1544.91 L859.416 1544.91 L859.416 1548.85 L837.471 1548.85 L837.471 1544.91 Q840.133 1542.16 844.717 1537.53 Q849.323 1532.88 850.504 1531.53 Q852.749 1529.01 853.629 1527.27 Q854.531 1525.51 854.531 1523.82 Q854.531 1521.07 852.587 1519.33 Q850.666 1517.6 847.564 1517.6 Q845.365 1517.6 842.911 1518.36 Q840.481 1519.13 837.703 1520.68 L837.703 1515.95 Q840.527 1514.82 842.981 1514.24 Q845.434 1513.66 847.471 1513.66 Q852.842 1513.66 856.036 1516.35 Q859.23 1519.03 859.23 1523.52 Q859.23 1525.65 858.42 1527.57 Q857.633 1529.47 855.527 1532.07 Q854.948 1532.74 851.846 1535.95 Q848.744 1539.15 843.096 1544.91 Z" fill="#000000" fill-rule="nonzero" fill-opacity="1" /><path clip-path="url(#clip630)" d="M879.23 1517.37 Q875.619 1517.37 873.791 1520.93 Q871.985 1524.47 871.985 1531.6 Q871.985 1538.71 873.791 1542.27 Q875.619 1545.82 879.23 1545.82 Q882.865 1545.82 884.67 1542.27 Q886.499 1538.71 886.499 1531.6 Q886.499 1524.47 884.67 1520.93 Q882.865 1517.37 879.23 1517.37 M879.23 1513.66 Q885.041 1513.66 888.096 1518.27 Q891.175 1522.85 891.175 1531.6 Q891.175 1540.33 888.096 1544.94 Q885.041 1549.52 879.23 1549.52 Q873.42 1549.52 870.342 1544.94 Q867.286 1540.33 867.286 1531.6 Q867.286 1522.85 870.342 1518.27 Q873.42 1513.66 879.23 1513.66 Z" fill="#000000" fill-rule="nonzero" fill-opacity="1" /><path clip-path="url(#clip630)" d="M1177.51 1530.21 Q1180.87 1530.93 1182.75 1533.2 Q1184.64 1535.47 1184.64 1538.8 Q1184.64 1543.92 1181.12 1546.72 Q1177.61 1549.52 1171.12 1549.52 Q1168.95 1549.52 1166.63 1549.08 Q1164.34 1548.66 1161.89 1547.81 L1161.89 1543.29 Q1163.83 1544.43 1166.15 1545.01 Q1168.46 1545.58 1170.99 1545.58 Q1175.38 1545.58 1177.68 1543.85 Q1179.99 1542.11 1179.99 1538.8 Q1179.99 1535.75 1177.84 1534.03 Q1175.71 1532.3 1171.89 1532.3 L1167.86 1532.3 L1167.86 1528.45 L1172.07 1528.45 Q1175.52 1528.45 1177.35 1527.09 Q1179.18 1525.7 1179.18 1523.11 Q1179.18 1520.45 1177.28 1519.03 Q1175.41 1517.6 1171.89 1517.6 Q1169.97 1517.6 1167.77 1518.01 Q1165.57 1518.43 1162.93 1519.31 L1162.93 1515.14 Q1165.59 1514.4 1167.91 1514.03 Q1170.25 1513.66 1172.31 1513.66 Q1177.63 1513.66 1180.73 1516.09 Q1183.83 1518.5 1183.83 1522.62 Q1183.83 1525.49 1182.19 1527.48 Q1180.55 1529.45 1177.51 1530.21 Z" fill="#000000" fill-rule="nonzero" fill-opacity="1" /><path clip-path="url(#clip630)" d="M1203.51 1517.37 Q1199.9 1517.37 1198.07 1520.93 Q1196.26 1524.47 1196.26 1531.6 Q1196.26 1538.71 1198.07 1542.27 Q1199.9 1545.82 1203.51 1545.82 Q1207.14 1545.82 1208.95 1542.27 Q1210.78 1538.71 1210.78 1531.6 Q1210.78 1524.47 1208.95 1520.93 Q1207.14 1517.37 1203.51 1517.37 M1203.51 1513.66 Q1209.32 1513.66 1212.37 1518.27 Q1215.45 1522.85 1215.45 1531.6 Q1215.45 1540.33 1212.37 1544.94 Q1209.32 1549.52 1203.51 1549.52 Q1197.7 1549.52 1194.62 1544.94 Q1191.56 1540.33 1191.56 1531.6 Q1191.56 1522.85 1194.62 1518.27 Q1197.7 1513.66 1203.51 1513.66 Z" fill="#000000" fill-rule="nonzero" fill-opacity="1" /><path clip-path="url(#clip630)" d="M1501.19 1518.36 L1489.38 1536.81 L1501.19 1536.81 L1501.19 1518.36 M1499.96 1514.29 L1505.84 1514.29 L1505.84 1536.81 L1510.77 1536.81 L1510.77 1540.7 L1505.84 1540.7 L1505.84 1548.85 L1501.19 1548.85 L1501.19 1540.7 L1485.59 1540.7 L1485.59 1536.19 L1499.96 1514.29 Z" fill="#000000" fill-rule="nonzero" fill-opacity="1" /><path clip-path="url(#clip630)" d="M1528.51 1517.37 Q1524.89 1517.37 1523.07 1520.93 Q1521.26 1524.47 1521.26 1531.6 Q1521.26 1538.71 1523.07 1542.27 Q1524.89 1545.82 1528.51 1545.82 Q1532.14 1545.82 1533.94 1542.27 Q1535.77 1538.71 1535.77 1531.6 Q1535.77 1524.47 1533.94 1520.93 Q1532.14 1517.37 1528.51 1517.37 M1528.51 1513.66 Q1534.32 1513.66 1537.37 1518.27 Q1540.45 1522.85 1540.45 1531.6 Q1540.45 1540.33 1537.37 1544.94 Q1534.32 1549.52 1528.51 1549.52 Q1522.69 1549.52 1519.62 1544.94 Q1516.56 1540.33 1516.56 1531.6 Q1516.56 1522.85 1519.62 1518.27 Q1522.69 1513.66 1528.51 1513.66 Z" fill="#000000" fill-rule="nonzero" fill-opacity="1" /><path clip-path="url(#clip630)" d="M1812.07 1514.29 L1830.42 1514.29 L1830.42 1518.22 L1816.35 1518.22 L1816.35 1526.7 Q1817.37 1526.35 1818.39 1526.19 Q1819.4 1526 1820.42 1526 Q1826.21 1526 1829.59 1529.17 Q1832.97 1532.34 1832.97 1537.76 Q1832.97 1543.34 1829.5 1546.44 Q1826.02 1549.52 1819.71 1549.52 Q1817.53 1549.52 1815.26 1549.15 Q1813.02 1548.78 1810.61 1548.04 L1810.61 1543.34 Q1812.69 1544.47 1814.91 1545.03 Q1817.14 1545.58 1819.61 1545.58 Q1823.62 1545.58 1825.95 1543.48 Q1828.29 1541.37 1828.29 1537.76 Q1828.29 1534.15 1825.95 1532.04 Q1823.62 1529.94 1819.61 1529.94 Q1817.74 1529.94 1815.86 1530.35 Q1814.01 1530.77 1812.07 1531.65 L1812.07 1514.29 Z" fill="#000000" fill-rule="nonzero" fill-opacity="1" /><path clip-path="url(#clip630)" d="M1852.18 1517.37 Q1848.57 1517.37 1846.74 1520.93 Q1844.94 1524.47 1844.94 1531.6 Q1844.94 1538.71 1846.74 1542.27 Q1848.57 1545.82 1852.18 1545.82 Q1855.82 1545.82 1857.62 1542.27 Q1859.45 1538.71 1859.45 1531.6 Q1859.45 1524.47 1857.62 1520.93 Q1855.82 1517.37 1852.18 1517.37 M1852.18 1513.66 Q1857.99 1513.66 1861.05 1518.27 Q1864.13 1522.85 1864.13 1531.6 Q1864.13 1540.33 1861.05 1544.94 Q1857.99 1549.52 1852.18 1549.52 Q1846.37 1549.52 1843.29 1544.94 Q1840.24 1540.33 1840.24 1531.6 Q1840.24 1522.85 1843.29 1518.27 Q1846.37 1513.66 1852.18 1513.66 Z" fill="#000000" fill-rule="nonzero" fill-opacity="1" /><path clip-path="url(#clip630)" d="M2147.12 1529.7 Q2143.97 1529.7 2142.12 1531.86 Q2140.29 1534.01 2140.29 1537.76 Q2140.29 1541.49 2142.12 1543.66 Q2143.97 1545.82 2147.12 1545.82 Q2150.27 1545.82 2152.1 1543.66 Q2153.95 1541.49 2153.95 1537.76 Q2153.95 1534.01 2152.1 1531.86 Q2150.27 1529.7 2147.12 1529.7 M2156.4 1515.05 L2156.4 1519.31 Q2154.64 1518.48 2152.84 1518.04 Q2151.06 1517.6 2149.3 1517.6 Q2144.67 1517.6 2142.21 1520.72 Q2139.78 1523.85 2139.43 1530.17 Q2140.8 1528.15 2142.86 1527.09 Q2144.92 1526 2147.4 1526 Q2152.61 1526 2155.62 1529.17 Q2158.65 1532.32 2158.65 1537.76 Q2158.65 1543.08 2155.5 1546.3 Q2152.35 1549.52 2147.12 1549.52 Q2141.12 1549.52 2137.95 1544.94 Q2134.78 1540.33 2134.78 1531.6 Q2134.78 1523.41 2138.67 1518.55 Q2142.56 1513.66 2149.11 1513.66 Q2150.87 1513.66 2152.65 1514.01 Q2154.46 1514.36 2156.4 1515.05 Z" fill="#000000" fill-rule="nonzero" fill-opacity="1" /><path clip-path="url(#clip630)" d="M2176.7 1517.37 Q2173.09 1517.37 2171.26 1520.93 Q2169.46 1524.47 2169.46 1531.6 Q2169.46 1538.71 2171.26 1542.27 Q2173.09 1545.82 2176.7 1545.82 Q2180.34 1545.82 2182.14 1542.27 Q2183.97 1538.71 2183.97 1531.6 Q2183.97 1524.47 2182.14 1520.93 Q2180.34 1517.37 2176.7 1517.37 M2176.7 1513.66 Q2182.51 1513.66 2185.57 1518.27 Q2188.65 1522.85 2188.65 1531.6 Q2188.65 1540.33 2185.57 1544.94 Q2182.51 1549.52 2176.7 1549.52 Q2170.89 1549.52 2167.81 1544.94 Q2164.76 1540.33 2164.76 1531.6 Q2164.76 1522.85 2167.81 1518.27 Q2170.89 1513.66 2176.7 1513.66 Z" fill="#000000" fill-rule="nonzero" fill-opacity="1" /><polyline clip-path="url(#clip632)" style="stroke:#000000; stroke-linecap:round; stroke-linejoin:round; stroke-width:2; stroke-opacity:0.1; fill:none" points="186.76,1402.5 2352.76,1402.5 "/>
<polyline clip-path="url(#clip632)" style="stroke:#000000; stroke-linecap:round; stroke-linejoin:round; stroke-width:2; stroke-opacity:0.1; fill:none" points="186.76,1105.72 2352.76,1105.72 "/>
<polyline clip-path="url(#clip632)" style="stroke:#000000; stroke-linecap:round; stroke-linejoin:round; stroke-width:2; stroke-opacity:0.1; fill:none" points="186.76,808.949 2352.76,808.949 "/>
<polyline clip-path="url(#clip632)" style="stroke:#000000; stroke-linecap:round; stroke-linejoin:round; stroke-width:2; stroke-opacity:0.1; fill:none" points="186.76,512.173 2352.76,512.173 "/>
<polyline clip-path="url(#clip632)" style="stroke:#000000; stroke-linecap:round; stroke-linejoin:round; stroke-width:2; stroke-opacity:0.1; fill:none" points="186.76,215.397 2352.76,215.397 "/>
<polyline clip-path="url(#clip630)" style="stroke:#000000; stroke-linecap:round; stroke-linejoin:round; stroke-width:4; stroke-opacity:1; fill:none" points="186.76,1486.45 186.76,47.2441 "/>
<polyline clip-path="url(#clip630)" style="stroke:#000000; stroke-linecap:round; stroke-linejoin:round; stroke-width:4; stroke-opacity:1; fill:none" points="186.76,1402.5 205.658,1402.5 "/>
<polyline clip-path="url(#clip630)" style="stroke:#000000; stroke-linecap:round; stroke-linejoin:round; stroke-width:4; stroke-opacity:1; fill:none" points="186.76,1105.72 205.658,1105.72 "/>
<polyline clip-path="url(#clip630)" style="stroke:#000000; stroke-linecap:round; stroke-linejoin:round; stroke-width:4; stroke-opacity:1; fill:none" points="186.76,808.949 205.658,808.949 "/>
<polyline clip-path="url(#clip630)" style="stroke:#000000; stroke-linecap:round; stroke-linejoin:round; stroke-width:4; stroke-opacity:1; fill:none" points="186.76,512.173 205.658,512.173 "/>
<polyline clip-path="url(#clip630)" style="stroke:#000000; stroke-linecap:round; stroke-linejoin:round; stroke-width:4; stroke-opacity:1; fill:none" points="186.76,215.397 205.658,215.397 "/>
<path clip-path="url(#clip630)" d="M62.9365 1388.3 Q59.3254 1388.3 57.4967 1391.86 Q55.6912 1395.41 55.6912 1402.54 Q55.6912 1409.64 57.4967 1413.21 Q59.3254 1416.75 62.9365 1416.75 Q66.5707 1416.75 68.3763 1413.21 Q70.205 1409.64 70.205 1402.54 Q70.205 1395.41 68.3763 1391.86 Q66.5707 1388.3 62.9365 1388.3 M62.9365 1384.6 Q68.7467 1384.6 71.8022 1389.2 Q74.8809 1393.79 74.8809 1402.54 Q74.8809 1411.26 71.8022 1415.87 Q68.7467 1420.45 62.9365 1420.45 Q57.1264 1420.45 54.0477 1415.87 Q50.9921 1411.26 50.9921 1402.54 Q50.9921 1393.79 54.0477 1389.2 Q57.1264 1384.6 62.9365 1384.6 Z" fill="#000000" fill-rule="nonzero" fill-opacity="1" /><path clip-path="url(#clip630)" d="M83.0984 1413.9 L87.9827 1413.9 L87.9827 1419.78 L83.0984 1419.78 L83.0984 1413.9 Z" fill="#000000" fill-rule="nonzero" fill-opacity="1" /><path clip-path="url(#clip630)" d="M98.978 1415.85 L106.617 1415.85 L106.617 1389.48 L98.3067 1391.15 L98.3067 1386.89 L106.571 1385.22 L111.246 1385.22 L111.246 1415.85 L118.885 1415.85 L118.885 1419.78 L98.978 1419.78 L98.978 1415.85 Z" fill="#000000" fill-rule="nonzero" fill-opacity="1" /><path clip-path="url(#clip630)" d="M141.177 1389.29 L129.371 1407.74 L141.177 1407.74 L141.177 1389.29 M139.95 1385.22 L145.83 1385.22 L145.83 1407.74 L150.76 1407.74 L150.76 1411.63 L145.83 1411.63 L145.83 1419.78 L141.177 1419.78 L141.177 1411.63 L125.575 1411.63 L125.575 1407.12 L139.95 1385.22 Z" fill="#000000" fill-rule="nonzero" fill-opacity="1" /><path clip-path="url(#clip630)" d="M63.2606 1091.52 Q59.6495 1091.52 57.8208 1095.09 Q56.0152 1098.63 56.0152 1105.76 Q56.0152 1112.87 57.8208 1116.43 Q59.6495 1119.97 63.2606 1119.97 Q66.8948 1119.97 68.7004 1116.43 Q70.5291 1112.87 70.5291 1105.76 Q70.5291 1098.63 68.7004 1095.09 Q66.8948 1091.52 63.2606 1091.52 M63.2606 1087.82 Q69.0707 1087.82 72.1263 1092.43 Q75.205 1097.01 75.205 1105.76 Q75.205 1114.49 72.1263 1119.09 Q69.0707 1123.68 63.2606 1123.68 Q57.4504 1123.68 54.3717 1119.09 Q51.3162 1114.49 51.3162 1105.76 Q51.3162 1097.01 54.3717 1092.43 Q57.4504 1087.82 63.2606 1087.82 Z" fill="#000000" fill-rule="nonzero" fill-opacity="1" /><path clip-path="url(#clip630)" d="M83.4225 1117.13 L88.3067 1117.13 L88.3067 1123 L83.4225 1123 L83.4225 1117.13 Z" fill="#000000" fill-rule="nonzero" fill-opacity="1" /><path clip-path="url(#clip630)" d="M99.3021 1119.07 L106.941 1119.07 L106.941 1092.7 L98.6308 1094.37 L98.6308 1090.11 L106.895 1088.44 L111.571 1088.44 L111.571 1119.07 L119.209 1119.07 L119.209 1123 L99.3021 1123 L99.3021 1119.07 Z" fill="#000000" fill-rule="nonzero" fill-opacity="1" /><path clip-path="url(#clip630)" d="M139.232 1103.86 Q136.084 1103.86 134.232 1106.01 Q132.404 1108.17 132.404 1111.92 Q132.404 1115.64 134.232 1117.82 Q136.084 1119.97 139.232 1119.97 Q142.381 1119.97 144.209 1117.82 Q146.061 1115.64 146.061 1111.92 Q146.061 1108.17 144.209 1106.01 Q142.381 1103.86 139.232 1103.86 M148.515 1089.21 L148.515 1093.47 Q146.756 1092.63 144.95 1092.19 Q143.168 1091.75 141.408 1091.75 Q136.779 1091.75 134.325 1094.88 Q131.894 1098 131.547 1104.32 Q132.913 1102.31 134.973 1101.25 Q137.033 1100.16 139.51 1100.16 Q144.718 1100.16 147.728 1103.33 Q150.76 1106.48 150.76 1111.92 Q150.76 1117.24 147.612 1120.46 Q144.464 1123.68 139.232 1123.68 Q133.237 1123.68 130.066 1119.09 Q126.894 1114.49 126.894 1105.76 Q126.894 1097.57 130.783 1092.7 Q134.672 1087.82 141.223 1087.82 Q142.982 1087.82 144.765 1088.17 Q146.57 1088.51 148.515 1089.21 Z" fill="#000000" fill-rule="nonzero" fill-opacity="1" /><path clip-path="url(#clip630)" d="M63.5152 794.748 Q59.9041 794.748 58.0754 798.312 Q56.2699 801.854 56.2699 808.984 Q56.2699 816.09 58.0754 819.655 Q59.9041 823.196 63.5152 823.196 Q67.1494 823.196 68.955 819.655 Q70.7837 816.09 70.7837 808.984 Q70.7837 801.854 68.955 798.312 Q67.1494 794.748 63.5152 794.748 M63.5152 791.044 Q69.3254 791.044 72.3809 795.65 Q75.4596 800.234 75.4596 808.984 Q75.4596 817.71 72.3809 822.317 Q69.3254 826.9 63.5152 826.9 Q57.7051 826.9 54.6264 822.317 Q51.5708 817.71 51.5708 808.984 Q51.5708 800.234 54.6264 795.65 Q57.7051 791.044 63.5152 791.044 Z" fill="#000000" fill-rule="nonzero" fill-opacity="1" /><path clip-path="url(#clip630)" d="M83.6771 820.349 L88.5614 820.349 L88.5614 826.229 L83.6771 826.229 L83.6771 820.349 Z" fill="#000000" fill-rule="nonzero" fill-opacity="1" /><path clip-path="url(#clip630)" d="M99.5567 822.294 L107.196 822.294 L107.196 795.928 L98.8854 797.595 L98.8854 793.335 L107.149 791.669 L111.825 791.669 L111.825 822.294 L119.464 822.294 L119.464 826.229 L99.5567 826.229 L99.5567 822.294 Z" fill="#000000" fill-rule="nonzero" fill-opacity="1" /><path clip-path="url(#clip630)" d="M138.908 809.817 Q135.575 809.817 133.654 811.599 Q131.756 813.382 131.756 816.507 Q131.756 819.632 133.654 821.414 Q135.575 823.196 138.908 823.196 Q142.242 823.196 144.163 821.414 Q146.084 819.608 146.084 816.507 Q146.084 813.382 144.163 811.599 Q142.265 809.817 138.908 809.817 M134.232 807.826 Q131.223 807.085 129.533 805.025 Q127.867 802.965 127.867 800.002 Q127.867 795.859 130.807 793.451 Q133.769 791.044 138.908 791.044 Q144.07 791.044 147.01 793.451 Q149.95 795.859 149.95 800.002 Q149.95 802.965 148.26 805.025 Q146.593 807.085 143.607 807.826 Q146.987 808.613 148.862 810.905 Q150.76 813.196 150.76 816.507 Q150.76 821.53 147.681 824.215 Q144.626 826.9 138.908 826.9 Q133.191 826.9 130.112 824.215 Q127.057 821.53 127.057 816.507 Q127.057 813.196 128.955 810.905 Q130.853 808.613 134.232 807.826 M132.519 800.442 Q132.519 803.127 134.186 804.632 Q135.876 806.136 138.908 806.136 Q141.918 806.136 143.607 804.632 Q145.32 803.127 145.32 800.442 Q145.32 797.757 143.607 796.252 Q141.918 794.748 138.908 794.748 Q135.876 794.748 134.186 796.252 Q132.519 797.757 132.519 800.442 Z" fill="#000000" fill-rule="nonzero" fill-opacity="1" /><path clip-path="url(#clip630)" d="M63.4226 497.972 Q59.8115 497.972 57.9828 501.536 Q56.1773 505.078 56.1773 512.208 Q56.1773 519.314 57.9828 522.879 Q59.8115 526.421 63.4226 526.421 Q67.0569 526.421 68.8624 522.879 Q70.6911 519.314 70.6911 512.208 Q70.6911 505.078 68.8624 501.536 Q67.0569 497.972 63.4226 497.972 M63.4226 494.268 Q69.2328 494.268 72.2883 498.874 Q75.367 503.458 75.367 512.208 Q75.367 520.934 72.2883 525.541 Q69.2328 530.124 63.4226 530.124 Q57.6125 530.124 54.5338 525.541 Q51.4782 520.934 51.4782 512.208 Q51.4782 503.458 54.5338 498.874 Q57.6125 494.268 63.4226 494.268 Z" fill="#000000" fill-rule="nonzero" fill-opacity="1" /><path clip-path="url(#clip630)" d="M83.5845 523.573 L88.4688 523.573 L88.4688 529.453 L83.5845 529.453 L83.5845 523.573 Z" fill="#000000" fill-rule="nonzero" fill-opacity="1" /><path clip-path="url(#clip630)" d="M102.682 525.518 L119.001 525.518 L119.001 529.453 L97.0567 529.453 L97.0567 525.518 Q99.7187 522.763 104.302 518.134 Q108.908 513.481 110.089 512.138 Q112.334 509.615 113.214 507.879 Q114.117 506.12 114.117 504.43 Q114.117 501.675 112.172 499.939 Q110.251 498.203 107.149 498.203 Q104.95 498.203 102.496 498.967 Q100.066 499.731 97.2882 501.282 L97.2882 496.56 Q100.112 495.425 102.566 494.847 Q105.02 494.268 107.057 494.268 Q112.427 494.268 115.621 496.953 Q118.816 499.638 118.816 504.129 Q118.816 506.259 118.006 508.18 Q117.219 510.078 115.112 512.671 Q114.533 513.342 111.432 516.559 Q108.33 519.754 102.682 525.518 Z" fill="#000000" fill-rule="nonzero" fill-opacity="1" /><path clip-path="url(#clip630)" d="M138.816 497.972 Q135.205 497.972 133.376 501.536 Q131.57 505.078 131.57 512.208 Q131.57 519.314 133.376 522.879 Q135.205 526.421 138.816 526.421 Q142.45 526.421 144.256 522.879 Q146.084 519.314 146.084 512.208 Q146.084 505.078 144.256 501.536 Q142.45 497.972 138.816 497.972 M138.816 494.268 Q144.626 494.268 147.681 498.874 Q150.76 503.458 150.76 512.208 Q150.76 520.934 147.681 525.541 Q144.626 530.124 138.816 530.124 Q133.006 530.124 129.927 525.541 Q126.871 520.934 126.871 512.208 Q126.871 503.458 129.927 498.874 Q133.006 494.268 138.816 494.268 Z" fill="#000000" fill-rule="nonzero" fill-opacity="1" /><path clip-path="url(#clip630)" d="M65.0198 201.196 Q61.4087 201.196 59.58 204.76 Q57.7745 208.302 57.7745 215.432 Q57.7745 222.538 59.58 226.103 Q61.4087 229.645 65.0198 229.645 Q68.6541 229.645 70.4596 226.103 Q72.2883 222.538 72.2883 215.432 Q72.2883 208.302 70.4596 204.76 Q68.6541 201.196 65.0198 201.196 M65.0198 197.492 Q70.83 197.492 73.8855 202.098 Q76.9642 206.682 76.9642 215.432 Q76.9642 224.158 73.8855 228.765 Q70.83 233.348 65.0198 233.348 Q59.2097 233.348 56.131 228.765 Q53.0754 224.158 53.0754 215.432 Q53.0754 206.682 56.131 202.098 Q59.2097 197.492 65.0198 197.492 Z" fill="#000000" fill-rule="nonzero" fill-opacity="1" /><path clip-path="url(#clip630)" d="M85.1818 226.797 L90.066 226.797 L90.066 232.677 L85.1818 232.677 L85.1818 226.797 Z" fill="#000000" fill-rule="nonzero" fill-opacity="1" /><path clip-path="url(#clip630)" d="M104.279 228.742 L120.598 228.742 L120.598 232.677 L98.6539 232.677 L98.6539 228.742 Q101.316 225.987 105.899 221.358 Q110.506 216.705 111.686 215.362 Q113.932 212.839 114.811 211.103 Q115.714 209.344 115.714 207.654 Q115.714 204.899 113.77 203.163 Q111.848 201.427 108.746 201.427 Q106.547 201.427 104.094 202.191 Q101.663 202.955 98.8854 204.506 L98.8854 199.784 Q101.709 198.649 104.163 198.071 Q106.617 197.492 108.654 197.492 Q114.024 197.492 117.219 200.177 Q120.413 202.862 120.413 207.353 Q120.413 209.483 119.603 211.404 Q118.816 213.302 116.709 215.895 Q116.131 216.566 113.029 219.783 Q109.927 222.978 104.279 228.742 Z" fill="#000000" fill-rule="nonzero" fill-opacity="1" /><path clip-path="url(#clip630)" d="M134.441 228.742 L150.76 228.742 L150.76 232.677 L128.816 232.677 L128.816 228.742 Q131.478 225.987 136.061 221.358 Q140.668 216.705 141.848 215.362 Q144.093 212.839 144.973 211.103 Q145.876 209.344 145.876 207.654 Q145.876 204.899 143.931 203.163 Q142.01 201.427 138.908 201.427 Q136.709 201.427 134.256 202.191 Q131.825 202.955 129.047 204.506 L129.047 199.784 Q131.871 198.649 134.325 198.071 Q136.779 197.492 138.816 197.492 Q144.186 197.492 147.38 200.177 Q150.575 202.862 150.575 207.353 Q150.575 209.483 149.765 211.404 Q148.978 213.302 146.871 215.895 Q146.293 216.566 143.191 219.783 Q140.089 222.978 134.441 228.742 Z" fill="#000000" fill-rule="nonzero" fill-opacity="1" /><polyline clip-path="url(#clip632)" style="stroke:#009af9; stroke-linecap:round; stroke-linejoin:round; stroke-width:4; stroke-opacity:1; fill:none" points="248.062,538.184 280.497,375.826 312.931,398.98 345.366,287.094 377.801,558.387 410.236,534.691 442.671,517.061 475.105,730.966 507.54,735.23 539.975,748.727 572.41,740.248 604.845,813.726 637.279,743.178 669.714,796.97 702.149,922.885 734.584,1011.28 767.019,894.259 799.453,1014.67 831.888,1076.09 864.323,986.96 896.758,1047.72 929.193,884.427 961.627,1214.54 994.062,1128.45 1026.5,976.64 1058.93,955.958 1091.37,1143.04 1123.8,1033.63 1156.24,1116.57 1188.67,1025.67 1221.11,1179.45 1253.54,936.967 1285.98,1123.51 1318.41,1237.12 1350.85,1318.08 1383.28,1069.91 1415.71,1054.07 1448.15,1046.49 1480.58,1001.76 1513.02,867.029 1545.45,1025.99 1577.89,1115.6 1610.32,1092.87 1642.76,1147.11 1675.19,1293.06 1707.63,1242.73 1740.06,1230.28 1772.5,1322.92 1804.93,1051.18 1837.37,1240.83 1869.8,1292.62 1902.24,1327.6 1934.67,1045.31 1967.11,1154.75 1999.54,1220.66 2031.98,1284.73 2064.41,1092.85 2096.85,1224.69 2129.28,1138.45 2161.71,1276.66 2194.15,1101.98 2226.58,1445.72 2259.02,1138.11 2291.45,1154.76 "/>
<polyline clip-path="url(#clip632)" style="stroke:#e26f46; stroke-linecap:round; stroke-linejoin:round; stroke-width:4; stroke-opacity:1; fill:none" points="248.062,229.54 280.497,192.931 312.931,210.378 345.366,135.851 377.801,261.903 410.236,87.9763 442.671,258.015 475.105,131.193 507.54,374.74 539.975,273.775 572.41,281.177 604.845,318.937 637.279,260.563 669.714,331.688 702.149,358.258 734.584,414.796 767.019,449.102 799.453,335.837 831.888,526.991 864.323,487.379 896.758,318.242 929.193,378.417 961.627,355.727 994.062,604.014 1026.5,258.398 1058.93,469.603 1091.37,637.965 1123.8,254.581 1156.24,505.248 1188.67,327.818 1221.11,467.923 1253.54,491.55 1285.98,544.595 1318.41,415.454 1350.85,481.113 1383.28,545.537 1415.71,428.12 1448.15,369.905 1480.58,575.675 1513.02,671.332 1545.45,632.463 1577.89,558.483 1610.32,698.563 1642.76,588.6 1675.19,514.122 1707.63,607.648 1740.06,332.759 1772.5,486.39 1804.93,647.27 1837.37,448.258 1869.8,495.275 1902.24,791.456 1934.67,349.323 1967.11,601.628 1999.54,756.494 2031.98,427.406 2064.41,522.256 2096.85,314.7 2129.28,363.848 2161.71,465.239 2194.15,348.841 2226.58,330.874 2259.02,585.428 2291.45,403.392 "/>
<path clip-path="url(#clip630)" d="M258.96 1438.47 L697.271 1438.47 L697.271 1282.95 L258.96 1282.95  Z" fill="#ffffff" fill-rule="evenodd" fill-opacity="1"/>
<polyline clip-path="url(#clip630)" style="stroke:#000000; stroke-linecap:round; stroke-linejoin:round; stroke-width:4; stroke-opacity:1; fill:none" points="258.96,1438.47 697.271,1438.47 697.271,1282.95 258.96,1282.95 258.96,1438.47 "/>
<polyline clip-path="url(#clip630)" style="stroke:#009af9; stroke-linecap:round; stroke-linejoin:round; stroke-width:4; stroke-opacity:1; fill:none" points="283.027,1334.79 427.426,1334.79 "/>
<path clip-path="url(#clip630)" d="M466.678 1330.13 Q465.96 1329.71 465.104 1329.53 Q464.271 1329.32 463.252 1329.32 Q459.641 1329.32 457.697 1331.68 Q455.775 1334.02 455.775 1338.42 L455.775 1352.07 L451.493 1352.07 L451.493 1326.15 L455.775 1326.15 L455.775 1330.18 Q457.118 1327.82 459.271 1326.68 Q461.423 1325.52 464.502 1325.52 Q464.942 1325.52 465.474 1325.59 Q466.007 1325.64 466.655 1325.76 L466.678 1330.13 Z" fill="#000000" fill-rule="nonzero" fill-opacity="1" /><path clip-path="url(#clip630)" d="M482.928 1339.04 Q477.766 1339.04 475.775 1340.22 Q473.784 1341.4 473.784 1344.25 Q473.784 1346.52 475.266 1347.86 Q476.771 1349.18 479.34 1349.18 Q482.882 1349.18 485.011 1346.68 Q487.164 1344.16 487.164 1339.99 L487.164 1339.04 L482.928 1339.04 M491.423 1337.28 L491.423 1352.07 L487.164 1352.07 L487.164 1348.14 Q485.706 1350.5 483.53 1351.63 Q481.354 1352.75 478.206 1352.75 Q474.224 1352.75 471.863 1350.52 Q469.525 1348.28 469.525 1344.53 Q469.525 1340.15 472.442 1337.93 Q475.382 1335.71 481.192 1335.71 L487.164 1335.71 L487.164 1335.29 Q487.164 1332.35 485.22 1330.76 Q483.298 1329.13 479.803 1329.13 Q477.581 1329.13 475.474 1329.67 Q473.368 1330.2 471.423 1331.26 L471.423 1327.33 Q473.761 1326.43 475.96 1325.99 Q478.159 1325.52 480.243 1325.52 Q485.868 1325.52 488.646 1328.44 Q491.423 1331.36 491.423 1337.28 Z" fill="#000000" fill-rule="nonzero" fill-opacity="1" /><path clip-path="url(#clip630)" d="M497.72 1326.15 L501.979 1326.15 L507.303 1346.38 L512.604 1326.15 L517.627 1326.15 L522.951 1346.38 L528.252 1326.15 L532.511 1326.15 L525.729 1352.07 L520.706 1352.07 L515.127 1330.82 L509.525 1352.07 L504.502 1352.07 L497.72 1326.15 Z" fill="#000000" fill-rule="nonzero" fill-opacity="1" /><path clip-path="url(#clip630)" d="M558.668 1359.94 L558.668 1363.25 L534.039 1363.25 L534.039 1359.94 L558.668 1359.94 Z" fill="#000000" fill-rule="nonzero" fill-opacity="1" /><path clip-path="url(#clip630)" d="M581.33 1327.14 L581.33 1331.13 Q579.525 1330.13 577.696 1329.64 Q575.89 1329.13 574.039 1329.13 Q569.895 1329.13 567.603 1331.77 Q565.312 1334.39 565.312 1339.13 Q565.312 1343.88 567.603 1346.52 Q569.895 1349.13 574.039 1349.13 Q575.89 1349.13 577.696 1348.65 Q579.525 1348.14 581.33 1347.14 L581.33 1351.08 Q579.548 1351.91 577.627 1352.33 Q575.728 1352.75 573.576 1352.75 Q567.719 1352.75 564.27 1349.07 Q560.821 1345.38 560.821 1339.13 Q560.821 1332.79 564.293 1329.16 Q567.789 1325.52 573.853 1325.52 Q575.821 1325.52 577.696 1325.94 Q579.571 1326.33 581.33 1327.14 Z" fill="#000000" fill-rule="nonzero" fill-opacity="1" /><path clip-path="url(#clip630)" d="M598.784 1329.13 Q595.358 1329.13 593.367 1331.82 Q591.376 1334.48 591.376 1339.13 Q591.376 1343.79 593.344 1346.47 Q595.335 1349.13 598.784 1349.13 Q602.187 1349.13 604.177 1346.45 Q606.168 1343.76 606.168 1339.13 Q606.168 1334.53 604.177 1331.84 Q602.187 1329.13 598.784 1329.13 M598.784 1325.52 Q604.339 1325.52 607.511 1329.13 Q610.682 1332.75 610.682 1339.13 Q610.682 1345.5 607.511 1349.13 Q604.339 1352.75 598.784 1352.75 Q593.205 1352.75 590.034 1349.13 Q586.886 1345.5 586.886 1339.13 Q586.886 1332.75 590.034 1329.13 Q593.205 1325.52 598.784 1325.52 Z" fill="#000000" fill-rule="nonzero" fill-opacity="1" /><path clip-path="url(#clip630)" d="M634.27 1326.91 L634.27 1330.94 Q632.464 1330.01 630.52 1329.55 Q628.575 1329.09 626.492 1329.09 Q623.321 1329.09 621.723 1330.06 Q620.149 1331.03 620.149 1332.98 Q620.149 1334.46 621.284 1335.32 Q622.418 1336.15 625.844 1336.91 L627.302 1337.24 Q631.839 1338.21 633.737 1339.99 Q635.659 1341.75 635.659 1344.92 Q635.659 1348.53 632.788 1350.64 Q629.941 1352.75 624.941 1352.75 Q622.858 1352.75 620.589 1352.33 Q618.344 1351.94 615.844 1351.13 L615.844 1346.73 Q618.205 1347.95 620.497 1348.58 Q622.788 1349.18 625.034 1349.18 Q628.043 1349.18 629.663 1348.16 Q631.284 1347.12 631.284 1345.25 Q631.284 1343.51 630.103 1342.58 Q628.946 1341.66 624.987 1340.8 L623.506 1340.45 Q619.548 1339.62 617.788 1337.91 Q616.029 1336.17 616.029 1333.16 Q616.029 1329.51 618.622 1327.51 Q621.214 1325.52 625.983 1325.52 Q628.344 1325.52 630.427 1325.87 Q632.51 1326.22 634.27 1326.91 Z" fill="#000000" fill-rule="nonzero" fill-opacity="1" /><path clip-path="url(#clip630)" d="M646.654 1318.79 L646.654 1326.15 L655.427 1326.15 L655.427 1329.46 L646.654 1329.46 L646.654 1343.53 Q646.654 1346.7 647.51 1347.61 Q648.39 1348.51 651.052 1348.51 L655.427 1348.51 L655.427 1352.07 L651.052 1352.07 Q646.122 1352.07 644.247 1350.25 Q642.372 1348.39 642.372 1343.53 L642.372 1329.46 L639.247 1329.46 L639.247 1326.15 L642.372 1326.15 L642.372 1318.79 L646.654 1318.79 Z" fill="#000000" fill-rule="nonzero" fill-opacity="1" /><polyline clip-path="url(#clip630)" style="stroke:#e26f46; stroke-linecap:round; stroke-linejoin:round; stroke-width:4; stroke-opacity:1; fill:none" points="283.027,1386.63 427.426,1386.63 "/>
<path clip-path="url(#clip630)" d="M470.405 1390.65 Q470.405 1386.02 468.484 1383.47 Q466.585 1380.93 463.136 1380.93 Q459.71 1380.93 457.789 1383.47 Q455.891 1386.02 455.891 1390.65 Q455.891 1395.26 457.789 1397.8 Q459.71 1400.35 463.136 1400.35 Q466.585 1400.35 468.484 1397.8 Q470.405 1395.26 470.405 1390.65 M474.664 1400.7 Q474.664 1407.32 471.724 1410.53 Q468.785 1413.78 462.72 1413.78 Q460.474 1413.78 458.484 1413.43 Q456.493 1413.1 454.618 1412.41 L454.618 1408.27 Q456.493 1409.28 458.322 1409.77 Q460.15 1410.26 462.048 1410.26 Q466.238 1410.26 468.322 1408.06 Q470.405 1405.88 470.405 1401.46 L470.405 1399.35 Q469.085 1401.65 467.025 1402.78 Q464.965 1403.91 462.095 1403.91 Q457.326 1403.91 454.41 1400.28 Q451.493 1396.65 451.493 1390.65 Q451.493 1384.63 454.41 1381 Q457.326 1377.36 462.095 1377.36 Q464.965 1377.36 467.025 1378.5 Q469.085 1379.63 470.405 1381.92 L470.405 1377.99 L474.664 1377.99 L474.664 1400.7 Z" fill="#000000" fill-rule="nonzero" fill-opacity="1" /><path clip-path="url(#clip630)" d="M482.997 1393.68 L482.997 1377.99 L487.257 1377.99 L487.257 1393.52 Q487.257 1397.2 488.692 1399.05 Q490.127 1400.88 492.997 1400.88 Q496.446 1400.88 498.437 1398.68 Q500.451 1396.48 500.451 1392.69 L500.451 1377.99 L504.71 1377.99 L504.71 1403.91 L500.451 1403.91 L500.451 1399.93 Q498.9 1402.29 496.84 1403.45 Q494.803 1404.59 492.095 1404.59 Q487.627 1404.59 485.312 1401.81 Q482.997 1399.03 482.997 1393.68 M493.715 1377.36 L493.715 1377.36 Z" fill="#000000" fill-rule="nonzero" fill-opacity="1" /><path clip-path="url(#clip630)" d="M513.483 1377.99 L517.743 1377.99 L517.743 1403.91 L513.483 1403.91 L513.483 1377.99 M513.483 1367.9 L517.743 1367.9 L517.743 1373.29 L513.483 1373.29 L513.483 1367.9 Z" fill="#000000" fill-rule="nonzero" fill-opacity="1" /><path clip-path="url(#clip630)" d="M543.715 1381.92 L543.715 1367.9 L547.974 1367.9 L547.974 1403.91 L543.715 1403.91 L543.715 1400.03 Q542.372 1402.34 540.312 1403.47 Q538.275 1404.59 535.405 1404.59 Q530.705 1404.59 527.743 1400.84 Q524.803 1397.09 524.803 1390.97 Q524.803 1384.86 527.743 1381.11 Q530.705 1377.36 535.405 1377.36 Q538.275 1377.36 540.312 1378.5 Q542.372 1379.61 543.715 1381.92 M529.201 1390.97 Q529.201 1395.67 531.122 1398.36 Q533.067 1401.02 536.446 1401.02 Q539.826 1401.02 541.77 1398.36 Q543.715 1395.67 543.715 1390.97 Q543.715 1386.28 541.77 1383.61 Q539.826 1380.93 536.446 1380.93 Q533.067 1380.93 531.122 1383.61 Q529.201 1386.28 529.201 1390.97 Z" fill="#000000" fill-rule="nonzero" fill-opacity="1" /><path clip-path="url(#clip630)" d="M576.446 1411.78 L576.446 1415.09 L551.816 1415.09 L551.816 1411.78 L576.446 1411.78 Z" fill="#000000" fill-rule="nonzero" fill-opacity="1" /><path clip-path="url(#clip630)" d="M599.108 1378.98 L599.108 1382.97 Q597.302 1381.97 595.474 1381.48 Q593.668 1380.97 591.816 1380.97 Q587.673 1380.97 585.381 1383.61 Q583.089 1386.23 583.089 1390.97 Q583.089 1395.72 585.381 1398.36 Q587.673 1400.97 591.816 1400.97 Q593.668 1400.97 595.474 1400.49 Q597.302 1399.98 599.108 1398.98 L599.108 1402.92 Q597.325 1403.75 595.404 1404.17 Q593.506 1404.59 591.353 1404.59 Q585.497 1404.59 582.048 1400.91 Q578.599 1397.22 578.599 1390.97 Q578.599 1384.63 582.071 1381 Q585.566 1377.36 591.631 1377.36 Q593.599 1377.36 595.474 1377.78 Q597.349 1378.17 599.108 1378.98 Z" fill="#000000" fill-rule="nonzero" fill-opacity="1" /><path clip-path="url(#clip630)" d="M616.561 1380.97 Q613.136 1380.97 611.145 1383.66 Q609.154 1386.32 609.154 1390.97 Q609.154 1395.63 611.122 1398.31 Q613.112 1400.97 616.561 1400.97 Q619.964 1400.97 621.955 1398.29 Q623.946 1395.6 623.946 1390.97 Q623.946 1386.37 621.955 1383.68 Q619.964 1380.97 616.561 1380.97 M616.561 1377.36 Q622.117 1377.36 625.288 1380.97 Q628.46 1384.59 628.46 1390.97 Q628.46 1397.34 625.288 1400.97 Q622.117 1404.59 616.561 1404.59 Q610.983 1404.59 607.812 1400.97 Q604.663 1397.34 604.663 1390.97 Q604.663 1384.59 607.812 1380.97 Q610.983 1377.36 616.561 1377.36 Z" fill="#000000" fill-rule="nonzero" fill-opacity="1" /><path clip-path="url(#clip630)" d="M652.047 1378.75 L652.047 1382.78 Q650.242 1381.85 648.297 1381.39 Q646.353 1380.93 644.27 1380.93 Q641.098 1380.93 639.501 1381.9 Q637.927 1382.87 637.927 1384.82 Q637.927 1386.3 639.061 1387.16 Q640.196 1387.99 643.622 1388.75 L645.08 1389.08 Q649.617 1390.05 651.515 1391.83 Q653.436 1393.59 653.436 1396.76 Q653.436 1400.37 650.566 1402.48 Q647.719 1404.59 642.719 1404.59 Q640.635 1404.59 638.367 1404.17 Q636.122 1403.78 633.622 1402.97 L633.622 1398.57 Q635.983 1399.79 638.274 1400.42 Q640.566 1401.02 642.811 1401.02 Q645.821 1401.02 647.441 1400 Q649.061 1398.96 649.061 1397.09 Q649.061 1395.35 647.881 1394.42 Q646.723 1393.5 642.765 1392.64 L641.284 1392.29 Q637.325 1391.46 635.566 1389.75 Q633.807 1388.01 633.807 1385 Q633.807 1381.35 636.399 1379.35 Q638.992 1377.36 643.76 1377.36 Q646.122 1377.36 648.205 1377.71 Q650.288 1378.06 652.047 1378.75 Z" fill="#000000" fill-rule="nonzero" fill-opacity="1" /><path clip-path="url(#clip630)" d="M664.432 1370.63 L664.432 1377.99 L673.205 1377.99 L673.205 1381.3 L664.432 1381.3 L664.432 1395.37 Q664.432 1398.54 665.288 1399.45 Q666.168 1400.35 668.83 1400.35 L673.205 1400.35 L673.205 1403.91 L668.83 1403.91 Q663.899 1403.91 662.024 1402.09 Q660.149 1400.23 660.149 1395.37 L660.149 1381.3 L657.024 1381.3 L657.024 1377.99 L660.149 1377.99 L660.149 1370.63 L664.432 1370.63 Z" fill="#000000" fill-rule="nonzero" fill-opacity="1" /></svg>
