<?xml version="1.0" encoding="utf-8"?>
<svg xmlns="http://www.w3.org/2000/svg" xmlns:xlink="http://www.w3.org/1999/xlink" width="600" height="400" viewBox="0 0 2400 1600">
<defs>
  <clipPath id="clip270">
    <rect x="0" y="0" width="2400" height="1600"/>
  </clipPath>
</defs>
<path clip-path="url(#clip270)" d="M0 1600 L2400 1600 L2400 0 L0 0  Z" fill="#ffffff" fill-rule="evenodd" fill-opacity="1"/>
<defs>
  <clipPath id="clip271">
    <rect x="480" y="0" width="1681" height="1600"/>
  </clipPath>
</defs>
<path clip-path="url(#clip270)" d="M186.76 1486.45 L2352.76 1486.45 L2352.76 47.2441 L186.76 47.2441  Z" fill="#ffffff" fill-rule="evenodd" fill-opacity="1"/>
<defs>
  <clipPath id="clip272">
    <rect x="186" y="47" width="2167" height="1440"/>
  </clipPath>
</defs>
<polyline clip-path="url(#clip272)" style="stroke:#000000; stroke-linecap:round; stroke-linejoin:round; stroke-width:2; stroke-opacity:0.1; fill:none" points="215.627,1486.45 215.627,47.2441 "/>
<polyline clip-path="url(#clip272)" style="stroke:#000000; stroke-linecap:round; stroke-linejoin:round; stroke-width:2; stroke-opacity:0.1; fill:none" points="539.975,1486.45 539.975,47.2441 "/>
<polyline clip-path="url(#clip272)" style="stroke:#000000; stroke-linecap:round; stroke-linejoin:round; stroke-width:2; stroke-opacity:0.1; fill:none" points="864.323,1486.45 864.323,47.2441 "/>
<polyline clip-path="url(#clip272)" style="stroke:#000000; stroke-linecap:round; stroke-linejoin:round; stroke-width:2; stroke-opacity:0.1; fill:none" points="1188.67,1486.45 1188.67,47.2441 "/>
<polyline clip-path="url(#clip272)" style="stroke:#000000; stroke-linecap:round; stroke-linejoin:round; stroke-width:2; stroke-opacity:0.1; fill:none" points="1513.02,1486.45 1513.02,47.2441 "/>
<polyline clip-path="url(#clip272)" style="stroke:#000000; stroke-linecap:round; stroke-linejoin:round; stroke-width:2; stroke-opacity:0.1; fill:none" points="1837.37,1486.45 1837.37,47.2441 "/>
<polyline clip-path="url(#clip272)" style="stroke:#000000; stroke-linecap:round; stroke-linejoin:round; stroke-width:2; stroke-opacity:0.1; fill:none" points="2161.71,1486.45 2161.71,47.2441 "/>
<polyline clip-path="url(#clip270)" style="stroke:#000000; stroke-linecap:round; stroke-linejoin:round; stroke-width:4; stroke-opacity:1; fill:none" points="186.76,1486.45 2352.76,1486.45 "/>
<polyline clip-path="url(#clip270)" style="stroke:#000000; stroke-linecap:round; stroke-linejoin:round; stroke-width:4; stroke-opacity:1; fill:none" points="215.627,1486.45 215.627,1467.55 "/>
<polyline clip-path="url(#clip270)" style="stroke:#000000; stroke-linecap:round; stroke-linejoin:round; stroke-width:4; stroke-opacity:1; fill:none" points="539.975,1486.45 539.975,1467.55 "/>
<polyline clip-path="url(#clip270)" style="stroke:#000000; stroke-linecap:round; stroke-linejoin:round; stroke-width:4; stroke-opacity:1; fill:none" points="864.323,1486.45 864.323,1467.55 "/>
<polyline clip-path="url(#clip270)" style="stroke:#000000; stroke-linecap:round; stroke-linejoin:round; stroke-width:4; stroke-opacity:1; fill:none" points="1188.67,1486.45 1188.67,1467.55 "/>
<polyline clip-path="url(#clip270)" style="stroke:#000000; stroke-linecap:round; stroke-linejoin:round; stroke-width:4; stroke-opacity:1; fill:none" points="1513.02,1486.45 1513.02,1467.55 "/>
<polyline clip-path="url(#clip270)" style="stroke:#000000; stroke-linecap:round; stroke-linejoin:round; stroke-width:4; stroke-opacity:1; fill:none" points="1837.37,1486.45 1837.37,1467.55 "/>
<polyline clip-path="url(#clip270)" style="stroke:#000000; stroke-linecap:round; stroke-linejoin:round; stroke-width:4; stroke-opacity:1; fill:none" points="2161.71,1486.45 2161.71,1467.55 "/>
<path clip-path="url(#clip270)" d="M215.627 1517.37 Q212.016 1517.37 210.187 1520.93 Q208.382 1524.47 208.382 1531.6 Q208.382 1538.71 210.187 1542.27 Q212.016 1545.82 215.627 1545.82 Q219.261 1545.82 221.067 1542.27 Q222.896 1538.71 222.896 1531.6 Q222.896 1524.47 221.067 1520.93 Q219.261 1517.37 215.627 1517.37 M215.627 1513.66 Q221.437 1513.66 224.493 1518.27 Q227.571 1522.85 227.571 1531.6 Q227.571 1540.33 224.493 1544.94 Q221.437 1549.52 215.627 1549.52 Q209.817 1549.52 206.738 1544.94 Q203.683 1540.33 203.683 1531.6 Q203.683 1522.85 206.738 1518.27 Q209.817 1513.66 215.627 1513.66 Z" fill="#000000" fill-rule="nonzero" fill-opacity="1" /><path clip-path="url(#clip270)" d="M514.663 1544.91 L522.302 1544.91 L522.302 1518.55 L513.991 1520.21 L513.991 1515.95 L522.255 1514.29 L526.931 1514.29 L526.931 1544.91 L534.57 1544.91 L534.57 1548.85 L514.663 1548.85 L514.663 1544.91 Z" fill="#000000" fill-rule="nonzero" fill-opacity="1" /><path clip-path="url(#clip270)" d="M554.014 1517.37 Q550.403 1517.37 548.575 1520.93 Q546.769 1524.47 546.769 1531.6 Q546.769 1538.71 548.575 1542.27 Q550.403 1545.82 554.014 1545.82 Q557.649 1545.82 559.454 1542.27 Q561.283 1538.71 561.283 1531.6 Q561.283 1524.47 559.454 1520.93 Q557.649 1517.37 554.014 1517.37 M554.014 1513.66 Q559.824 1513.66 562.88 1518.27 Q565.959 1522.85 565.959 1531.6 Q565.959 1540.33 562.88 1544.94 Q559.824 1549.52 554.014 1549.52 Q548.204 1549.52 545.125 1544.94 Q542.07 1540.33 542.07 1531.6 Q542.07 1522.85 545.125 1518.27 Q548.204 1513.66 554.014 1513.66 Z" fill="#000000" fill-rule="nonzero" fill-opacity="1" /><path clip-path="url(#clip270)" d="M843.096 1544.91 L859.416 1544.91 L859.416 1548.85 L837.471 1548.85 L837.471 1544.91 Q840.133 1542.16 844.717 1537.53 Q849.323 1532.88 850.504 1531.53 Q852.749 1529.01 853.629 1527.27 Q854.531 1525.51 854.531 1523.82 Q854.531 1521.07 852.587 1519.33 Q850.666 1517.6 847.564 1517.6 Q845.365 1517.6 842.911 1518.36 Q840.481 1519.13 837.703 1520.68 L837.703 1515.95 Q840.527 1514.82 842.981 1514.24 Q845.434 1513.66 847.471 1513.66 Q852.842 1513.66 856.036 1516.35 Q859.23 1519.03 859.23 1523.52 Q859.23 1525.65 858.42 1527.57 Q857.633 1529.47 855.527 1532.07 Q854.948 1532.74 851.846 1535.95 Q848.744 1539.15 843.096 1544.91 Z" fill="#000000" fill-rule="nonzero" fill-opacity="1" /><path clip-path="url(#clip270)" d="M879.23 1517.37 Q875.619 1517.37 873.791 1520.93 Q871.985 1524.47 871.985 1531.6 Q871.985 1538.71 873.791 1542.27 Q875.619 1545.82 879.23 1545.82 Q882.865 1545.82 884.67 1542.27 Q886.499 1538.71 886.499 1531.6 Q886.499 1524.47 884.67 1520.93 Q882.865 1517.37 879.23 1517.37 M879.23 1513.66 Q885.041 1513.66 888.096 1518.27 Q891.175 1522.85 891.175 1531.6 Q891.175 1540.33 888.096 1544.94 Q885.041 1549.52 879.23 1549.52 Q873.42 1549.52 870.342 1544.94 Q867.286 1540.33 867.286 1531.6 Q867.286 1522.85 870.342 1518.27 Q873.42 1513.66 879.23 1513.66 Z" fill="#000000" fill-rule="nonzero" fill-opacity="1" /><path clip-path="url(#clip270)" d="M1177.51 1530.21 Q1180.87 1530.93 1182.75 1533.2 Q1184.64 1535.47 1184.64 1538.8 Q1184.64 1543.92 1181.12 1546.72 Q1177.61 1549.52 1171.12 1549.52 Q1168.95 1549.52 1166.63 1549.08 Q1164.34 1548.66 1161.89 1547.81 L1161.89 1543.29 Q1163.83 1544.43 1166.15 1545.01 Q1168.46 1545.58 1170.99 1545.58 Q1175.38 1545.58 1177.68 1543.85 Q1179.99 1542.11 1179.99 1538.8 Q1179.99 1535.75 1177.84 1534.03 Q1175.71 1532.3 1171.89 1532.3 L1167.86 1532.3 L1167.86 1528.45 L1172.07 1528.45 Q1175.52 1528.45 1177.35 1527.09 Q1179.18 1525.7 1179.18 1523.11 Q1179.18 1520.45 1177.28 1519.03 Q1175.41 1517.6 1171.89 1517.6 Q1169.97 1517.6 1167.77 1518.01 Q1165.57 1518.43 1162.93 1519.31 L1162.93 1515.14 Q1165.59 1514.4 1167.91 1514.03 Q1170.25 1513.66 1172.31 1513.66 Q1177.63 1513.66 1180.73 1516.09 Q1183.83 1518.5 1183.83 1522.62 Q1183.83 1525.49 1182.19 1527.48 Q1180.55 1529.45 1177.51 1530.21 Z" fill="#000000" fill-rule="nonzero" fill-opacity="1" /><path clip-path="url(#clip270)" d="M1203.51 1517.37 Q1199.9 1517.37 1198.07 1520.93 Q1196.26 1524.47 1196.26 1531.6 Q1196.26 1538.71 1198.07 1542.27 Q1199.9 1545.82 1203.51 1545.82 Q1207.14 1545.82 1208.95 1542.27 Q1210.78 1538.71 1210.78 1531.6 Q1210.78 1524.47 1208.95 1520.93 Q1207.14 1517.37 1203.51 1517.37 M1203.51 1513.66 Q1209.32 1513.66 1212.37 1518.27 Q1215.45 1522.85 1215.45 1531.6 Q1215.45 1540.33 1212.37 1544.94 Q1209.32 1549.52 1203.51 1549.52 Q1197.7 1549.52 1194.62 1544.94 Q1191.56 1540.33 1191.56 1531.6 Q1191.56 1522.85 1194.62 1518.27 Q1197.7 1513.66 1203.51 1513.66 Z" fill="#000000" fill-rule="nonzero" fill-opacity="1" /><path clip-path="url(#clip270)" d="M1501.19 1518.36 L1489.38 1536.81 L1501.19 1536.81 L1501.19 1518.36 M1499.96 1514.29 L1505.84 1514.29 L1505.84 1536.81 L1510.77 1536.81 L1510.77 1540.7 L1505.84 1540.7 L1505.84 1548.85 L1501.19 1548.85 L1501.19 1540.7 L1485.59 1540.7 L1485.59 1536.19 L1499.96 1514.29 Z" fill="#000000" fill-rule="nonzero" fill-opacity="1" /><path clip-path="url(#clip270)" d="M1528.51 1517.37 Q1524.89 1517.37 1523.07 1520.93 Q1521.26 1524.47 1521.26 1531.6 Q1521.26 1538.71 1523.07 1542.27 Q1524.89 1545.82 1528.51 1545.82 Q1532.14 1545.82 1533.94 1542.27 Q1535.77 1538.71 1535.77 1531.6 Q1535.77 1524.47 1533.94 1520.93 Q1532.14 1517.37 1528.51 1517.37 M1528.51 1513.66 Q1534.32 1513.66 1537.37 1518.27 Q1540.45 1522.85 1540.45 1531.6 Q1540.45 1540.33 1537.37 1544.94 Q1534.32 1549.52 1528.51 1549.52 Q1522.69 1549.52 1519.62 1544.94 Q1516.56 1540.33 1516.56 1531.6 Q1516.56 1522.85 1519.62 1518.27 Q1522.69 1513.66 1528.51 1513.66 Z" fill="#000000" fill-rule="nonzero" fill-opacity="1" /><path clip-path="url(#clip270)" d="M1812.07 1514.29 L1830.42 1514.29 L1830.42 1518.22 L1816.35 1518.22 L1816.35 1526.7 Q1817.37 1526.35 1818.39 1526.19 Q1819.4 1526 1820.42 1526 Q1826.21 1526 1829.59 1529.17 Q1832.97 1532.34 1832.97 1537.76 Q1832.97 1543.34 1829.5 1546.44 Q1826.02 1549.52 1819.71 1549.52 Q1817.53 1549.52 1815.26 1549.15 Q1813.02 1548.78 1810.61 1548.04 L1810.61 1543.34 Q1812.69 1544.47 1814.91 1545.03 Q1817.14 1545.58 1819.61 1545.58 Q1823.62 1545.58 1825.95 1543.48 Q1828.29 1541.37 1828.29 1537.76 Q1828.29 1534.15 1825.95 1532.04 Q1823.62 1529.94 1819.61 1529.94 Q1817.74 1529.94 1815.86 1530.35 Q1814.01 1530.77 1812.07 1531.65 L1812.07 1514.29 Z" fill="#000000" fill-rule="nonzero" fill-opacity="1" /><path clip-path="url(#clip270)" d="M1852.18 1517.37 Q1848.57 1517.37 1846.74 1520.93 Q1844.94 1524.47 1844.94 1531.6 Q1844.94 1538.71 1846.74 1542.27 Q1848.57 1545.82 1852.18 1545.82 Q1855.82 1545.82 1857.62 1542.27 Q1859.45 1538.71 1859.45 1531.6 Q1859.45 1524.47 1857.62 1520.93 Q1855.82 1517.37 1852.18 1517.37 M1852.18 1513.66 Q1857.99 1513.66 1861.05 1518.27 Q1864.13 1522.85 1864.13 1531.6 Q1864.13 1540.33 1861.05 1544.94 Q1857.99 1549.52 1852.18 1549.52 Q1846.37 1549.52 1843.29 1544.94 Q1840.24 1540.33 1840.24 1531.6 Q1840.24 1522.85 1843.29 1518.27 Q1846.37 1513.66 1852.18 1513.66 Z" fill="#000000" fill-rule="nonzero" fill-opacity="1" /><path clip-path="url(#clip270)" d="M2147.12 1529.7 Q2143.97 1529.7 2142.12 1531.86 Q2140.29 1534.01 2140.29 1537.76 Q2140.29 1541.49 2142.12 1543.66 Q2143.97 1545.82 2147.12 1545.82 Q2150.27 1545.82 2152.1 1543.66 Q2153.95 1541.49 2153.95 1537.76 Q2153.95 1534.01 2152.1 1531.86 Q2150.27 1529.7 2147.12 1529.7 M2156.4 1515.05 L2156.4 1519.31 Q2154.64 1518.48 2152.84 1518.04 Q2151.06 1517.6 2149.3 1517.6 Q2144.67 1517.6 2142.21 1520.72 Q2139.78 1523.85 2139.43 1530.17 Q2140.8 1528.15 2142.86 1527.09 Q2144.92 1526 2147.4 1526 Q2152.61 1526 2155.62 1529.17 Q2158.65 1532.32 2158.65 1537.76 Q2158.65 1543.08 2155.5 1546.3 Q2152.35 1549.52 2147.12 1549.52 Q2141.12 1549.52 2137.95 1544.94 Q2134.78 1540.33 2134.78 1531.6 Q2134.78 1523.41 2138.67 1518.55 Q2142.56 1513.66 2149.11 1513.66 Q2150.87 1513.66 2152.65 1514.01 Q2154.46 1514.36 2156.4 1515.05 Z" fill="#000000" fill-rule="nonzero" fill-opacity="1" /><path clip-path="url(#clip270)" d="M2176.7 1517.37 Q2173.09 1517.37 2171.26 1520.93 Q2169.46 1524.47 2169.46 1531.6 Q2169.46 1538.71 2171.26 1542.27 Q2173.09 1545.82 2176.7 1545.82 Q2180.34 1545.82 2182.14 1542.27 Q2183.97 1538.71 2183.97 1531.6 Q2183.97 1524.47 2182.14 1520.93 Q2180.34 1517.37 2176.7 1517.37 M2176.7 1513.66 Q2182.51 1513.66 2185.57 1518.27 Q2188.65 1522.85 2188.65 1531.6 Q2188.65 1540.33 2185.57 1544.94 Q2182.51 1549.52 2176.7 1549.52 Q2170.89 1549.52 2167.81 1544.94 Q2164.76 1540.33 2164.76 1531.6 Q2164.76 1522.85 2167.81 1518.27 Q2170.89 1513.66 2176.7 1513.66 Z" fill="#000000" fill-rule="nonzero" fill-opacity="1" /><polyline clip-path="url(#clip272)" style="stroke:#000000; stroke-linecap:round; stroke-linejoin:round; stroke-width:2; stroke-opacity:0.1; fill:none" points="186.76,1418.84 2352.76,1418.84 "/>
<polyline clip-path="url(#clip272)" style="stroke:#000000; stroke-linecap:round; stroke-linejoin:round; stroke-width:2; stroke-opacity:0.1; fill:none" points="186.76,1140.92 2352.76,1140.92 "/>
<polyline clip-path="url(#clip272)" style="stroke:#000000; stroke-linecap:round; stroke-linejoin:round; stroke-width:2; stroke-opacity:0.1; fill:none" points="186.76,863.003 2352.76,863.003 "/>
<polyline clip-path="url(#clip272)" style="stroke:#000000; stroke-linecap:round; stroke-linejoin:round; stroke-width:2; stroke-opacity:0.1; fill:none" points="186.76,585.086 2352.76,585.086 "/>
<polyline clip-path="url(#clip272)" style="stroke:#000000; stroke-linecap:round; stroke-linejoin:round; stroke-width:2; stroke-opacity:0.1; fill:none" points="186.76,307.169 2352.76,307.169 "/>
<polyline clip-path="url(#clip270)" style="stroke:#000000; stroke-linecap:round; stroke-linejoin:round; stroke-width:4; stroke-opacity:1; fill:none" points="186.76,1486.45 186.76,47.2441 "/>
<polyline clip-path="url(#clip270)" style="stroke:#000000; stroke-linecap:round; stroke-linejoin:round; stroke-width:4; stroke-opacity:1; fill:none" points="186.76,1418.84 205.658,1418.84 "/>
<polyline clip-path="url(#clip270)" style="stroke:#000000; stroke-linecap:round; stroke-linejoin:round; stroke-width:4; stroke-opacity:1; fill:none" points="186.76,1140.92 205.658,1140.92 "/>
<polyline clip-path="url(#clip270)" style="stroke:#000000; stroke-linecap:round; stroke-linejoin:round; stroke-width:4; stroke-opacity:1; fill:none" points="186.76,863.003 205.658,863.003 "/>
<polyline clip-path="url(#clip270)" style="stroke:#000000; stroke-linecap:round; stroke-linejoin:round; stroke-width:4; stroke-opacity:1; fill:none" points="186.76,585.086 205.658,585.086 "/>
<polyline clip-path="url(#clip270)" style="stroke:#000000; stroke-linecap:round; stroke-linejoin:round; stroke-width:4; stroke-opacity:1; fill:none" points="186.76,307.169 205.658,307.169 "/>
<path clip-path="url(#clip270)" d="M65.0198 1404.63 Q61.4087 1404.63 59.58 1408.2 Q57.7745 1411.74 57.7745 1418.87 Q57.7745 1425.98 59.58 1429.54 Q61.4087 1433.08 65.0198 1433.08 Q68.6541 1433.08 70.4596 1429.54 Q72.2883 1425.98 72.2883 1418.87 Q72.2883 1411.74 70.4596 1408.2 Q68.6541 1404.63 65.0198 1404.63 M65.0198 1400.93 Q70.83 1400.93 73.8855 1405.54 Q76.9642 1410.12 76.9642 1418.87 Q76.9642 1427.6 73.8855 1432.2 Q70.83 1436.79 65.0198 1436.79 Q59.2097 1436.79 56.131 1432.2 Q53.0754 1427.6 53.0754 1418.87 Q53.0754 1410.12 56.131 1405.54 Q59.2097 1400.93 65.0198 1400.93 Z" fill="#000000" fill-rule="nonzero" fill-opacity="1" /><path clip-path="url(#clip270)" d="M85.1818 1430.24 L90.066 1430.24 L90.066 1436.12 L85.1818 1436.12 L85.1818 1430.24 Z" fill="#000000" fill-rule="nonzero" fill-opacity="1" /><path clip-path="url(#clip270)" d="M101.061 1432.18 L108.7 1432.18 L108.7 1405.82 L100.39 1407.48 L100.39 1403.22 L108.654 1401.56 L113.33 1401.56 L113.33 1432.18 L120.969 1432.18 L120.969 1436.12 L101.061 1436.12 L101.061 1432.18 Z" fill="#000000" fill-rule="nonzero" fill-opacity="1" /><path clip-path="url(#clip270)" d="M134.441 1432.18 L150.76 1432.18 L150.76 1436.12 L128.816 1436.12 L128.816 1432.18 Q131.478 1429.43 136.061 1424.8 Q140.668 1420.14 141.848 1418.8 Q144.093 1416.28 144.973 1414.54 Q145.876 1412.78 145.876 1411.09 Q145.876 1408.34 143.931 1406.6 Q142.01 1404.87 138.908 1404.87 Q136.709 1404.87 134.256 1405.63 Q131.825 1406.39 129.047 1407.95 L129.047 1403.22 Q131.871 1402.09 134.325 1401.51 Q136.779 1400.93 138.816 1400.93 Q144.186 1400.93 147.38 1403.62 Q150.575 1406.3 150.575 1410.79 Q150.575 1412.92 149.765 1414.84 Q148.978 1416.74 146.871 1419.33 Q146.293 1420.01 143.191 1423.22 Q140.089 1426.42 134.441 1432.18 Z" fill="#000000" fill-rule="nonzero" fill-opacity="1" /><path clip-path="url(#clip270)" d="M62.9365 1126.72 Q59.3254 1126.72 57.4967 1130.28 Q55.6912 1133.82 55.6912 1140.95 Q55.6912 1148.06 57.4967 1151.63 Q59.3254 1155.17 62.9365 1155.17 Q66.5707 1155.17 68.3763 1151.63 Q70.205 1148.06 70.205 1140.95 Q70.205 1133.82 68.3763 1130.28 Q66.5707 1126.72 62.9365 1126.72 M62.9365 1123.01 Q68.7467 1123.01 71.8022 1127.62 Q74.8809 1132.2 74.8809 1140.95 Q74.8809 1149.68 71.8022 1154.29 Q68.7467 1158.87 62.9365 1158.87 Q57.1264 1158.87 54.0477 1154.29 Q50.9921 1149.68 50.9921 1140.95 Q50.9921 1132.2 54.0477 1127.62 Q57.1264 1123.01 62.9365 1123.01 Z" fill="#000000" fill-rule="nonzero" fill-opacity="1" /><path clip-path="url(#clip270)" d="M83.0984 1152.32 L87.9827 1152.32 L87.9827 1158.2 L83.0984 1158.2 L83.0984 1152.32 Z" fill="#000000" fill-rule="nonzero" fill-opacity="1" /><path clip-path="url(#clip270)" d="M98.978 1154.26 L106.617 1154.26 L106.617 1127.9 L98.3067 1129.57 L98.3067 1125.31 L106.571 1123.64 L111.246 1123.64 L111.246 1154.26 L118.885 1154.26 L118.885 1158.2 L98.978 1158.2 L98.978 1154.26 Z" fill="#000000" fill-rule="nonzero" fill-opacity="1" /><path clip-path="url(#clip270)" d="M141.177 1127.71 L129.371 1146.16 L141.177 1146.16 L141.177 1127.71 M139.95 1123.64 L145.83 1123.64 L145.83 1146.16 L150.76 1146.16 L150.76 1150.05 L145.83 1150.05 L145.83 1158.2 L141.177 1158.2 L141.177 1150.05 L125.575 1150.05 L125.575 1145.54 L139.95 1123.64 Z" fill="#000000" fill-rule="nonzero" fill-opacity="1" /><path clip-path="url(#clip270)" d="M63.2606 848.801 Q59.6495 848.801 57.8208 852.366 Q56.0152 855.908 56.0152 863.037 Q56.0152 870.144 57.8208 873.709 Q59.6495 877.25 63.2606 877.25 Q66.8948 877.25 68.7004 873.709 Q70.5291 870.144 70.5291 863.037 Q70.5291 855.908 68.7004 852.366 Q66.8948 848.801 63.2606 848.801 M63.2606 845.098 Q69.0707 845.098 72.1263 849.704 Q75.205 854.287 75.205 863.037 Q75.205 871.764 72.1263 876.371 Q69.0707 880.954 63.2606 880.954 Q57.4504 880.954 54.3717 876.371 Q51.3162 871.764 51.3162 863.037 Q51.3162 854.287 54.3717 849.704 Q57.4504 845.098 63.2606 845.098 Z" fill="#000000" fill-rule="nonzero" fill-opacity="1" /><path clip-path="url(#clip270)" d="M83.4225 874.403 L88.3067 874.403 L88.3067 880.283 L83.4225 880.283 L83.4225 874.403 Z" fill="#000000" fill-rule="nonzero" fill-opacity="1" /><path clip-path="url(#clip270)" d="M99.3021 876.348 L106.941 876.348 L106.941 849.982 L98.6308 851.649 L98.6308 847.389 L106.895 845.723 L111.571 845.723 L111.571 876.348 L119.209 876.348 L119.209 880.283 L99.3021 880.283 L99.3021 876.348 Z" fill="#000000" fill-rule="nonzero" fill-opacity="1" /><path clip-path="url(#clip270)" d="M139.232 861.139 Q136.084 861.139 134.232 863.292 Q132.404 865.445 132.404 869.195 Q132.404 872.922 134.232 875.098 Q136.084 877.25 139.232 877.25 Q142.381 877.25 144.209 875.098 Q146.061 872.922 146.061 869.195 Q146.061 865.445 144.209 863.292 Q142.381 861.139 139.232 861.139 M148.515 846.487 L148.515 850.746 Q146.756 849.912 144.95 849.473 Q143.168 849.033 141.408 849.033 Q136.779 849.033 134.325 852.158 Q131.894 855.283 131.547 861.602 Q132.913 859.588 134.973 858.524 Q137.033 857.436 139.51 857.436 Q144.718 857.436 147.728 860.607 Q150.76 863.755 150.76 869.195 Q150.76 874.519 147.612 877.736 Q144.464 880.954 139.232 880.954 Q133.237 880.954 130.066 876.371 Q126.894 871.764 126.894 863.037 Q126.894 854.843 130.783 849.982 Q134.672 845.098 141.223 845.098 Q142.982 845.098 144.765 845.445 Q146.57 845.792 148.515 846.487 Z" fill="#000000" fill-rule="nonzero" fill-opacity="1" /><path clip-path="url(#clip270)" d="M63.5152 570.885 Q59.9041 570.885 58.0754 574.449 Q56.2699 577.991 56.2699 585.121 Q56.2699 592.227 58.0754 595.792 Q59.9041 599.334 63.5152 599.334 Q67.1494 599.334 68.955 595.792 Q70.7837 592.227 70.7837 585.121 Q70.7837 577.991 68.955 574.449 Q67.1494 570.885 63.5152 570.885 M63.5152 567.181 Q69.3254 567.181 72.3809 571.787 Q75.4596 576.371 75.4596 585.121 Q75.4596 593.847 72.3809 598.454 Q69.3254 603.037 63.5152 603.037 Q57.7051 603.037 54.6264 598.454 Q51.5708 593.847 51.5708 585.121 Q51.5708 576.371 54.6264 571.787 Q57.7051 567.181 63.5152 567.181 Z" fill="#000000" fill-rule="nonzero" fill-opacity="1" /><path clip-path="url(#clip270)" d="M83.6771 596.486 L88.5614 596.486 L88.5614 602.366 L83.6771 602.366 L83.6771 596.486 Z" fill="#000000" fill-rule="nonzero" fill-opacity="1" /><path clip-path="url(#clip270)" d="M99.5567 598.431 L107.196 598.431 L107.196 572.065 L98.8854 573.732 L98.8854 569.473 L107.149 567.806 L111.825 567.806 L111.825 598.431 L119.464 598.431 L119.464 602.366 L99.5567 602.366 L99.5567 598.431 Z" fill="#000000" fill-rule="nonzero" fill-opacity="1" /><path clip-path="url(#clip270)" d="M138.908 585.954 Q135.575 585.954 133.654 587.736 Q131.756 589.519 131.756 592.644 Q131.756 595.769 133.654 597.551 Q135.575 599.334 138.908 599.334 Q142.242 599.334 144.163 597.551 Q146.084 595.746 146.084 592.644 Q146.084 589.519 144.163 587.736 Q142.265 585.954 138.908 585.954 M134.232 583.963 Q131.223 583.222 129.533 581.162 Q127.867 579.102 127.867 576.139 Q127.867 571.996 130.807 569.588 Q133.769 567.181 138.908 567.181 Q144.07 567.181 147.01 569.588 Q149.95 571.996 149.95 576.139 Q149.95 579.102 148.26 581.162 Q146.593 583.222 143.607 583.963 Q146.987 584.75 148.862 587.042 Q150.76 589.334 150.76 592.644 Q150.76 597.667 147.681 600.352 Q144.626 603.037 138.908 603.037 Q133.191 603.037 130.112 600.352 Q127.057 597.667 127.057 592.644 Q127.057 589.334 128.955 587.042 Q130.853 584.75 134.232 583.963 M132.519 576.579 Q132.519 579.264 134.186 580.769 Q135.876 582.273 138.908 582.273 Q141.918 582.273 143.607 580.769 Q145.32 579.264 145.32 576.579 Q145.32 573.894 143.607 572.389 Q141.918 570.885 138.908 570.885 Q135.876 570.885 134.186 572.389 Q132.519 573.894 132.519 576.579 Z" fill="#000000" fill-rule="nonzero" fill-opacity="1" /><path clip-path="url(#clip270)" d="M63.4226 292.968 Q59.8115 292.968 57.9828 296.533 Q56.1773 300.074 56.1773 307.204 Q56.1773 314.31 57.9828 317.875 Q59.8115 321.417 63.4226 321.417 Q67.0569 321.417 68.8624 317.875 Q70.6911 314.31 70.6911 307.204 Q70.6911 300.074 68.8624 296.533 Q67.0569 292.968 63.4226 292.968 M63.4226 289.264 Q69.2328 289.264 72.2883 293.871 Q75.367 298.454 75.367 307.204 Q75.367 315.931 72.2883 320.537 Q69.2328 325.12 63.4226 325.12 Q57.6125 325.12 54.5338 320.537 Q51.4782 315.931 51.4782 307.204 Q51.4782 298.454 54.5338 293.871 Q57.6125 289.264 63.4226 289.264 Z" fill="#000000" fill-rule="nonzero" fill-opacity="1" /><path clip-path="url(#clip270)" d="M83.5845 318.57 L88.4688 318.57 L88.4688 324.449 L83.5845 324.449 L83.5845 318.57 Z" fill="#000000" fill-rule="nonzero" fill-opacity="1" /><path clip-path="url(#clip270)" d="M102.682 320.514 L119.001 320.514 L119.001 324.449 L97.0567 324.449 L97.0567 320.514 Q99.7187 317.759 104.302 313.13 Q108.908 308.477 110.089 307.134 Q112.334 304.611 113.214 302.875 Q114.117 301.116 114.117 299.426 Q114.117 296.672 112.172 294.935 Q110.251 293.199 107.149 293.199 Q104.95 293.199 102.496 293.963 Q100.066 294.727 97.2882 296.278 L97.2882 291.556 Q100.112 290.422 102.566 289.843 Q105.02 289.264 107.057 289.264 Q112.427 289.264 115.621 291.949 Q118.816 294.634 118.816 299.125 Q118.816 301.255 118.006 303.176 Q117.219 305.074 115.112 307.667 Q114.533 308.338 111.432 311.556 Q108.33 314.75 102.682 320.514 Z" fill="#000000" fill-rule="nonzero" fill-opacity="1" /><path clip-path="url(#clip270)" d="M138.816 292.968 Q135.205 292.968 133.376 296.533 Q131.57 300.074 131.57 307.204 Q131.57 314.31 133.376 317.875 Q135.205 321.417 138.816 321.417 Q142.45 321.417 144.256 317.875 Q146.084 314.31 146.084 307.204 Q146.084 300.074 144.256 296.533 Q142.45 292.968 138.816 292.968 M138.816 289.264 Q144.626 289.264 147.681 293.871 Q150.76 298.454 150.76 307.204 Q150.76 315.931 147.681 320.537 Q144.626 325.12 138.816 325.12 Q133.006 325.12 129.927 320.537 Q126.871 315.931 126.871 307.204 Q126.871 298.454 129.927 293.871 Q133.006 289.264 138.816 289.264 Z" fill="#000000" fill-rule="nonzero" fill-opacity="1" /><polyline clip-path="url(#clip272)" style="stroke:#009af9; stroke-linecap:round; stroke-linejoin:round; stroke-width:4; stroke-opacity:1; fill:none" points="248.062,350.227 280.497,464.793 312.931,431.797 345.366,429.439 377.801,447.094 410.236,635.418 442.671,652.024 475.105,832.479 507.54,846.975 539.975,756.822 572.41,921.823 604.845,924.309 637.279,1021.58 669.714,923.699 702.149,890.53 734.584,936.493 767.019,867.191 799.453,985.742 831.888,980.97 864.323,1039.96 896.758,964.958 929.193,1011.04 961.627,1053.47 994.062,1146.13 1026.5,1045.61 1058.93,1142.46 1091.37,1178.87 1123.8,1065.31 1156.24,1153.78 1188.67,1131.64 1221.11,1188.24 1253.54,1190.57 1285.98,1227.21 1318.41,1373.26 1350.85,1179.67 1383.28,1340.06 1415.71,1193.1 1448.15,1224.82 1480.58,1203.6 1513.02,1216.1 1545.45,1267.72 1577.89,1315.28 1610.32,1279.8 1642.76,1391.75 1675.19,1367.11 1707.63,1393.36 1740.06,1279.88 1772.5,1143.46 1804.93,1255.27 1837.37,1216.78 1869.8,1429.66 1902.24,1273.66 1934.67,1342.38 1967.11,1335.77 1999.54,1361.08 2031.98,1398.86 2064.41,1315.26 2096.85,1313.54 2129.28,1336.74 2161.71,1360.44 2194.15,1445.72 2226.58,1284.17 2259.02,1310.05 2291.45,1296.33 "/>
<polyline clip-path="url(#clip272)" style="stroke:#e26f46; stroke-linecap:round; stroke-linejoin:round; stroke-width:4; stroke-opacity:1; fill:none" points="248.062,87.9763 280.497,124.569 312.931,168.501 345.366,222.602 377.801,389.818 410.236,236.435 442.671,356.633 475.105,336.843 507.54,452.949 539.975,371.169 572.41,450.112 604.845,341.143 637.279,505.82 669.714,517.397 702.149,551.852 734.584,519.829 767.019,608.838 799.453,664.331 831.888,643.112 864.323,624.064 896.758,689.936 929.193,742.787 961.627,672.88 994.062,680.778 1026.5,800.115 1058.93,752.209 1091.37,718.743 1123.8,725.504 1156.24,692.438 1188.67,755.148 1221.11,897.404 1253.54,769.361 1285.98,725.235 1318.41,776.496 1350.85,792.427 1383.28,771.493 1415.71,823.117 1448.15,900.818 1480.58,823.599 1513.02,863.679 1545.45,788.431 1577.89,902.585 1610.32,832.585 1642.76,897.496 1675.19,818.917 1707.63,877.137 1740.06,879.94 1772.5,861.222 1804.93,868.022 1837.37,814.327 1869.8,891.585 1902.24,825.779 1934.67,934.688 1967.11,888.864 1999.54,834.132 2031.98,924.168 2064.41,802.103 2096.85,900.785 2129.28,929.681 2161.71,910.84 2194.15,804.474 2226.58,958.219 2259.02,873.367 2291.45,881.71 "/>
<path clip-path="url(#clip270)" d="M1842.24 250.738 L2280.56 250.738 L2280.56 95.2176 L1842.24 95.2176  Z" fill="#ffffff" fill-rule="evenodd" fill-opacity="1"/>
<polyline clip-path="url(#clip270)" style="stroke:#000000; stroke-linecap:round; stroke-linejoin:round; stroke-width:4; stroke-opacity:1; fill:none" points="1842.24,250.738 2280.56,250.738 2280.56,95.2176 1842.24,95.2176 1842.24,250.738 "/>
<polyline clip-path="url(#clip270)" style="stroke:#009af9; stroke-linecap:round; stroke-linejoin:round; stroke-width:4; stroke-opacity:1; fill:none" points="1866.31,147.058 2010.71,147.058 "/>
<path clip-path="url(#clip270)" d="M2049.96 142.393 Q2049.25 141.977 2048.39 141.791 Q2047.56 141.583 2046.54 141.583 Q2042.93 141.583 2040.98 143.944 Q2039.06 146.282 2039.06 150.68 L2039.06 164.338 L2034.78 164.338 L2034.78 138.412 L2039.06 138.412 L2039.06 142.44 Q2040.4 140.078 2042.56 138.944 Q2044.71 137.787 2047.79 137.787 Q2048.23 137.787 2048.76 137.856 Q2049.29 137.903 2049.94 138.018 L2049.96 142.393 Z" fill="#000000" fill-rule="nonzero" fill-opacity="1" /><path clip-path="url(#clip270)" d="M2066.21 151.305 Q2061.05 151.305 2059.06 152.486 Q2057.07 153.666 2057.07 156.514 Q2057.07 158.782 2058.55 160.125 Q2060.06 161.444 2062.62 161.444 Q2066.17 161.444 2068.3 158.944 Q2070.45 156.421 2070.45 152.254 L2070.45 151.305 L2066.21 151.305 M2074.71 149.546 L2074.71 164.338 L2070.45 164.338 L2070.45 160.402 Q2068.99 162.763 2066.81 163.898 Q2064.64 165.009 2061.49 165.009 Q2057.51 165.009 2055.15 162.787 Q2052.81 160.541 2052.81 156.791 Q2052.81 152.416 2055.73 150.194 Q2058.67 147.972 2064.48 147.972 L2070.45 147.972 L2070.45 147.555 Q2070.45 144.615 2068.5 143.018 Q2066.58 141.398 2063.09 141.398 Q2060.87 141.398 2058.76 141.93 Q2056.65 142.463 2054.71 143.527 L2054.71 139.592 Q2057.05 138.69 2059.25 138.25 Q2061.44 137.787 2063.53 137.787 Q2069.15 137.787 2071.93 140.703 Q2074.71 143.62 2074.71 149.546 Z" fill="#000000" fill-rule="nonzero" fill-opacity="1" /><path clip-path="url(#clip270)" d="M2081 138.412 L2085.26 138.412 L2090.59 158.643 L2095.89 138.412 L2100.91 138.412 L2106.24 158.643 L2111.54 138.412 L2115.8 138.412 L2109.01 164.338 L2103.99 164.338 L2098.41 143.088 L2092.81 164.338 L2087.79 164.338 L2081 138.412 Z" fill="#000000" fill-rule="nonzero" fill-opacity="1" /><path clip-path="url(#clip270)" d="M2141.95 172.208 L2141.95 175.518 L2117.32 175.518 L2117.32 172.208 L2141.95 172.208 Z" fill="#000000" fill-rule="nonzero" fill-opacity="1" /><path clip-path="url(#clip270)" d="M2164.61 139.407 L2164.61 143.389 Q2162.81 142.393 2160.98 141.907 Q2159.18 141.398 2157.32 141.398 Q2153.18 141.398 2150.89 144.037 Q2148.6 146.652 2148.6 151.398 Q2148.6 156.143 2150.89 158.782 Q2153.18 161.398 2157.32 161.398 Q2159.18 161.398 2160.98 160.912 Q2162.81 160.402 2164.61 159.407 L2164.61 163.342 Q2162.83 164.176 2160.91 164.592 Q2159.01 165.009 2156.86 165.009 Q2151 165.009 2147.55 161.328 Q2144.11 157.648 2144.11 151.398 Q2144.11 145.055 2147.58 141.421 Q2151.07 137.787 2157.14 137.787 Q2159.11 137.787 2160.98 138.203 Q2162.86 138.597 2164.61 139.407 Z" fill="#000000" fill-rule="nonzero" fill-opacity="1" /><path clip-path="url(#clip270)" d="M2182.07 141.398 Q2178.64 141.398 2176.65 144.083 Q2174.66 146.745 2174.66 151.398 Q2174.66 156.051 2176.63 158.736 Q2178.62 161.398 2182.07 161.398 Q2185.47 161.398 2187.46 158.713 Q2189.45 156.027 2189.45 151.398 Q2189.45 146.791 2187.46 144.106 Q2185.47 141.398 2182.07 141.398 M2182.07 137.787 Q2187.62 137.787 2190.8 141.398 Q2193.97 145.009 2193.97 151.398 Q2193.97 157.764 2190.8 161.398 Q2187.62 165.009 2182.07 165.009 Q2176.49 165.009 2173.32 161.398 Q2170.17 157.764 2170.17 151.398 Q2170.17 145.009 2173.32 141.398 Q2176.49 137.787 2182.07 137.787 Z" fill="#000000" fill-rule="nonzero" fill-opacity="1" /><path clip-path="url(#clip270)" d="M2217.55 139.176 L2217.55 143.203 Q2215.75 142.277 2213.8 141.815 Q2211.86 141.352 2209.78 141.352 Q2206.61 141.352 2205.01 142.324 Q2203.43 143.296 2203.43 145.24 Q2203.43 146.722 2204.57 147.578 Q2205.7 148.412 2209.13 149.176 L2210.59 149.5 Q2215.12 150.472 2217.02 152.254 Q2218.94 154.014 2218.94 157.185 Q2218.94 160.796 2216.07 162.902 Q2213.23 165.009 2208.23 165.009 Q2206.14 165.009 2203.87 164.592 Q2201.63 164.199 2199.13 163.388 L2199.13 158.99 Q2201.49 160.217 2203.78 160.842 Q2206.07 161.444 2208.32 161.444 Q2211.33 161.444 2212.95 160.426 Q2214.57 159.384 2214.57 157.509 Q2214.57 155.773 2213.39 154.847 Q2212.23 153.921 2208.27 153.064 L2206.79 152.717 Q2202.83 151.884 2201.07 150.171 Q2199.31 148.435 2199.31 145.426 Q2199.31 141.768 2201.91 139.778 Q2204.5 137.787 2209.27 137.787 Q2211.63 137.787 2213.71 138.134 Q2215.8 138.481 2217.55 139.176 Z" fill="#000000" fill-rule="nonzero" fill-opacity="1" /><path clip-path="url(#clip270)" d="M2229.94 131.051 L2229.94 138.412 L2238.71 138.412 L2238.71 141.722 L2229.94 141.722 L2229.94 155.796 Q2229.94 158.967 2230.8 159.87 Q2231.67 160.773 2234.34 160.773 L2238.71 160.773 L2238.71 164.338 L2234.34 164.338 Q2229.41 164.338 2227.53 162.509 Q2225.66 160.657 2225.66 155.796 L2225.66 141.722 L2222.53 141.722 L2222.53 138.412 L2225.66 138.412 L2225.66 131.051 L2229.94 131.051 Z" fill="#000000" fill-rule="nonzero" fill-opacity="1" /><polyline clip-path="url(#clip270)" style="stroke:#e26f46; stroke-linecap:round; stroke-linejoin:round; stroke-width:4; stroke-opacity:1; fill:none" points="1866.31,198.898 2010.71,198.898 "/>
<path clip-path="url(#clip270)" d="M2053.69 202.914 Q2053.69 198.284 2051.77 195.738 Q2049.87 193.192 2046.42 193.192 Q2043 193.192 2041.07 195.738 Q2039.18 198.284 2039.18 202.914 Q2039.18 207.52 2041.07 210.066 Q2043 212.613 2046.42 212.613 Q2049.87 212.613 2051.77 210.066 Q2053.69 207.52 2053.69 202.914 M2057.95 212.96 Q2057.95 219.58 2055.01 222.798 Q2052.07 226.039 2046 226.039 Q2043.76 226.039 2041.77 225.691 Q2039.78 225.367 2037.9 224.673 L2037.9 220.529 Q2039.78 221.548 2041.61 222.034 Q2043.44 222.52 2045.33 222.52 Q2049.52 222.52 2051.61 220.321 Q2053.69 218.145 2053.69 213.724 L2053.69 211.617 Q2052.37 213.909 2050.31 215.043 Q2048.25 216.178 2045.38 216.178 Q2040.61 216.178 2037.69 212.543 Q2034.78 208.909 2034.78 202.914 Q2034.78 196.895 2037.69 193.261 Q2040.61 189.627 2045.38 189.627 Q2048.25 189.627 2050.31 190.761 Q2052.37 191.895 2053.69 194.187 L2053.69 190.252 L2057.95 190.252 L2057.95 212.96 Z" fill="#000000" fill-rule="nonzero" fill-opacity="1" /><path clip-path="url(#clip270)" d="M2066.28 205.946 L2066.28 190.252 L2070.54 190.252 L2070.54 205.784 Q2070.54 209.465 2071.98 211.316 Q2073.41 213.145 2076.28 213.145 Q2079.73 213.145 2081.72 210.946 Q2083.74 208.747 2083.74 204.951 L2083.74 190.252 L2087.99 190.252 L2087.99 216.178 L2083.74 216.178 L2083.74 212.196 Q2082.18 214.557 2080.12 215.715 Q2078.09 216.849 2075.38 216.849 Q2070.91 216.849 2068.6 214.071 Q2066.28 211.293 2066.28 205.946 M2077 189.627 L2077 189.627 Z" fill="#000000" fill-rule="nonzero" fill-opacity="1" /><path clip-path="url(#clip270)" d="M2096.77 190.252 L2101.03 190.252 L2101.03 216.178 L2096.77 216.178 L2096.77 190.252 M2096.77 180.159 L2101.03 180.159 L2101.03 185.553 L2096.77 185.553 L2096.77 180.159 Z" fill="#000000" fill-rule="nonzero" fill-opacity="1" /><path clip-path="url(#clip270)" d="M2127 194.187 L2127 180.159 L2131.26 180.159 L2131.26 216.178 L2127 216.178 L2127 212.289 Q2125.66 214.603 2123.6 215.738 Q2121.56 216.849 2118.69 216.849 Q2113.99 216.849 2111.03 213.099 Q2108.09 209.349 2108.09 203.238 Q2108.09 197.127 2111.03 193.377 Q2113.99 189.627 2118.69 189.627 Q2121.56 189.627 2123.6 190.761 Q2125.66 191.872 2127 194.187 M2112.49 203.238 Q2112.49 207.937 2114.41 210.622 Q2116.35 213.284 2119.73 213.284 Q2123.11 213.284 2125.05 210.622 Q2127 207.937 2127 203.238 Q2127 198.539 2125.05 195.877 Q2123.11 193.192 2119.73 193.192 Q2116.35 193.192 2114.41 195.877 Q2112.49 198.539 2112.49 203.238 Z" fill="#000000" fill-rule="nonzero" fill-opacity="1" /><path clip-path="url(#clip270)" d="M2159.73 224.048 L2159.73 227.358 L2135.1 227.358 L2135.1 224.048 L2159.73 224.048 Z" fill="#000000" fill-rule="nonzero" fill-opacity="1" /><path clip-path="url(#clip270)" d="M2182.39 191.247 L2182.39 195.229 Q2180.59 194.233 2178.76 193.747 Q2176.95 193.238 2175.1 193.238 Q2170.96 193.238 2168.67 195.877 Q2166.37 198.492 2166.37 203.238 Q2166.37 207.983 2168.67 210.622 Q2170.96 213.238 2175.1 213.238 Q2176.95 213.238 2178.76 212.752 Q2180.59 212.242 2182.39 211.247 L2182.39 215.182 Q2180.61 216.016 2178.69 216.432 Q2176.79 216.849 2174.64 216.849 Q2168.78 216.849 2165.33 213.168 Q2161.88 209.488 2161.88 203.238 Q2161.88 196.895 2165.36 193.261 Q2168.85 189.627 2174.92 189.627 Q2176.88 189.627 2178.76 190.043 Q2180.63 190.437 2182.39 191.247 Z" fill="#000000" fill-rule="nonzero" fill-opacity="1" /><path clip-path="url(#clip270)" d="M2199.85 193.238 Q2196.42 193.238 2194.43 195.923 Q2192.44 198.585 2192.44 203.238 Q2192.44 207.891 2194.41 210.576 Q2196.4 213.238 2199.85 213.238 Q2203.25 213.238 2205.24 210.553 Q2207.23 207.867 2207.23 203.238 Q2207.23 198.631 2205.24 195.946 Q2203.25 193.238 2199.85 193.238 M2199.85 189.627 Q2205.4 189.627 2208.57 193.238 Q2211.74 196.849 2211.74 203.238 Q2211.74 209.604 2208.57 213.238 Q2205.4 216.849 2199.85 216.849 Q2194.27 216.849 2191.1 213.238 Q2187.95 209.604 2187.95 203.238 Q2187.95 196.849 2191.1 193.238 Q2194.27 189.627 2199.85 189.627 Z" fill="#000000" fill-rule="nonzero" fill-opacity="1" /><path clip-path="url(#clip270)" d="M2235.33 191.016 L2235.33 195.043 Q2233.53 194.117 2231.58 193.655 Q2229.64 193.192 2227.55 193.192 Q2224.38 193.192 2222.79 194.164 Q2221.21 195.136 2221.21 197.08 Q2221.21 198.562 2222.35 199.418 Q2223.48 200.252 2226.91 201.016 L2228.36 201.34 Q2232.9 202.312 2234.8 204.094 Q2236.72 205.854 2236.72 209.025 Q2236.72 212.636 2233.85 214.742 Q2231 216.849 2226 216.849 Q2223.92 216.849 2221.65 216.432 Q2219.41 216.039 2216.91 215.228 L2216.91 210.83 Q2219.27 212.057 2221.56 212.682 Q2223.85 213.284 2226.1 213.284 Q2229.11 213.284 2230.73 212.266 Q2232.35 211.224 2232.35 209.349 Q2232.35 207.613 2231.17 206.687 Q2230.01 205.761 2226.05 204.904 L2224.57 204.557 Q2220.61 203.724 2218.85 202.011 Q2217.09 200.275 2217.09 197.266 Q2217.09 193.608 2219.68 191.618 Q2222.28 189.627 2227.05 189.627 Q2229.41 189.627 2231.49 189.974 Q2233.57 190.321 2235.33 191.016 Z" fill="#000000" fill-rule="nonzero" fill-opacity="1" /><path clip-path="url(#clip270)" d="M2247.72 182.891 L2247.72 190.252 L2256.49 190.252 L2256.49 193.562 L2247.72 193.562 L2247.72 207.636 Q2247.72 210.807 2248.57 211.71 Q2249.45 212.613 2252.11 212.613 L2256.49 212.613 L2256.49 216.178 L2252.11 216.178 Q2247.18 216.178 2245.31 214.349 Q2243.43 212.497 2243.43 207.636 L2243.43 193.562 L2240.31 193.562 L2240.31 190.252 L2243.43 190.252 L2243.43 182.891 L2247.72 182.891 Z" fill="#000000" fill-rule="nonzero" fill-opacity="1" /></svg>
