<?xml version="1.0" encoding="utf-8"?>
<svg xmlns="http://www.w3.org/2000/svg" xmlns:xlink="http://www.w3.org/1999/xlink" width="600" height="400" viewBox="0 0 2400 1600">
<defs>
  <clipPath id="clip790">
    <rect x="0" y="0" width="2400" height="1600"/>
  </clipPath>
</defs>
<path clip-path="url(#clip790)" d="M0 1600 L2400 1600 L2400 0 L0 0  Z" fill="#ffffff" fill-rule="evenodd" fill-opacity="1"/>
<defs>
  <clipPath id="clip791">
    <rect x="480" y="0" width="1681" height="1600"/>
  </clipPath>
</defs>
<path clip-path="url(#clip790)" d="M186.76 1486.45 L2352.76 1486.45 L2352.76 47.2441 L186.76 47.2441  Z" fill="#ffffff" fill-rule="evenodd" fill-opacity="1"/>
<defs>
  <clipPath id="clip792">
    <rect x="186" y="47" width="2167" height="1440"/>
  </clipPath>
</defs>
<polyline clip-path="url(#clip792)" style="stroke:#000000; stroke-linecap:round; stroke-linejoin:round; stroke-width:2; stroke-opacity:0.1; fill:none" points="215.627,1486.45 215.627,47.2441 "/>
<polyline clip-path="url(#clip792)" style="stroke:#000000; stroke-linecap:round; stroke-linejoin:round; stroke-width:2; stroke-opacity:0.1; fill:none" points="539.975,1486.45 539.975,47.2441 "/>
<polyline clip-path="url(#clip792)" style="stroke:#000000; stroke-linecap:round; stroke-linejoin:round; stroke-width:2; stroke-opacity:0.1; fill:none" points="864.323,1486.45 864.323,47.2441 "/>
<polyline clip-path="url(#clip792)" style="stroke:#000000; stroke-linecap:round; stroke-linejoin:round; stroke-width:2; stroke-opacity:0.1; fill:none" points="1188.67,1486.45 1188.67,47.2441 "/>
<polyline clip-path="url(#clip792)" style="stroke:#000000; stroke-linecap:round; stroke-linejoin:round; stroke-width:2; stroke-opacity:0.1; fill:none" points="1513.02,1486.45 1513.02,47.2441 "/>
<polyline clip-path="url(#clip792)" style="stroke:#000000; stroke-linecap:round; stroke-linejoin:round; stroke-width:2; stroke-opacity:0.1; fill:none" points="1837.37,1486.45 1837.37,47.2441 "/>
<polyline clip-path="url(#clip792)" style="stroke:#000000; stroke-linecap:round; stroke-linejoin:round; stroke-width:2; stroke-opacity:0.1; fill:none" points="2161.71,1486.45 2161.71,47.2441 "/>
<polyline clip-path="url(#clip790)" style="stroke:#000000; stroke-linecap:round; stroke-linejoin:round; stroke-width:4; stroke-opacity:1; fill:none" points="186.76,1486.45 2352.76,1486.45 "/>
<polyline clip-path="url(#clip790)" style="stroke:#000000; stroke-linecap:round; stroke-linejoin:round; stroke-width:4; stroke-opacity:1; fill:none" points="215.627,1486.45 215.627,1467.55 "/>
<polyline clip-path="url(#clip790)" style="stroke:#000000; stroke-linecap:round; stroke-linejoin:round; stroke-width:4; stroke-opacity:1; fill:none" points="539.975,1486.45 539.975,1467.55 "/>
<polyline clip-path="url(#clip790)" style="stroke:#000000; stroke-linecap:round; stroke-linejoin:round; stroke-width:4; stroke-opacity:1; fill:none" points="864.323,1486.45 864.323,1467.55 "/>
<polyline clip-path="url(#clip790)" style="stroke:#000000; stroke-linecap:round; stroke-linejoin:round; stroke-width:4; stroke-opacity:1; fill:none" points="1188.67,1486.45 1188.67,1467.55 "/>
<polyline clip-path="url(#clip790)" style="stroke:#000000; stroke-linecap:round; stroke-linejoin:round; stroke-width:4; stroke-opacity:1; fill:none" points="1513.02,1486.45 1513.02,1467.55 "/>
<polyline clip-path="url(#clip790)" style="stroke:#000000; stroke-linecap:round; stroke-linejoin:round; stroke-width:4; stroke-opacity:1; fill:none" points="1837.37,1486.45 1837.37,1467.55 "/>
<polyline clip-path="url(#clip790)" style="stroke:#000000; stroke-linecap:round; stroke-linejoin:round; stroke-width:4; stroke-opacity:1; fill:none" points="2161.71,1486.45 2161.71,1467.55 "/>
<path clip-path="url(#clip790)" d="M215.627 1517.37 Q212.016 1517.37 210.187 1520.93 Q208.382 1524.47 208.382 1531.6 Q208.382 1538.71 210.187 1542.27 Q212.016 1545.82 215.627 1545.82 Q219.261 1545.82 221.067 1542.27 Q222.896 1538.71 222.896 1531.6 Q222.896 1524.47 221.067 1520.93 Q219.261 1517.37 215.627 1517.37 M215.627 1513.66 Q221.437 1513.66 224.493 1518.27 Q227.571 1522.85 227.571 1531.6 Q227.571 1540.33 224.493 1544.94 Q221.437 1549.52 215.627 1549.52 Q209.817 1549.52 206.738 1544.94 Q203.683 1540.33 203.683 1531.6 Q203.683 1522.85 206.738 1518.27 Q209.817 1513.66 215.627 1513.66 Z" fill="#000000" fill-rule="nonzero" fill-opacity="1" /><path clip-path="url(#clip790)" d="M514.663 1544.91 L522.302 1544.91 L522.302 1518.55 L513.991 1520.21 L513.991 1515.95 L522.255 1514.29 L526.931 1514.29 L526.931 1544.91 L534.57 1544.91 L534.57 1548.85 L514.663 1548.85 L514.663 1544.91 Z" fill="#000000" fill-rule="nonzero" fill-opacity="1" /><path clip-path="url(#clip790)" d="M554.014 1517.37 Q550.403 1517.37 548.575 1520.93 Q546.769 1524.47 546.769 1531.6 Q546.769 1538.71 548.575 1542.27 Q550.403 1545.82 554.014 1545.82 Q557.649 1545.82 559.454 1542.27 Q561.283 1538.71 561.283 1531.6 Q561.283 1524.47 559.454 1520.93 Q557.649 1517.37 554.014 1517.37 M554.014 1513.66 Q559.824 1513.66 562.88 1518.27 Q565.959 1522.85 565.959 1531.6 Q565.959 1540.33 562.88 1544.94 Q559.824 1549.52 554.014 1549.52 Q548.204 1549.52 545.125 1544.94 Q542.07 1540.33 542.07 1531.6 Q542.07 1522.85 545.125 1518.27 Q548.204 1513.66 554.014 1513.66 Z" fill="#000000" fill-rule="nonzero" fill-opacity="1" /><path clip-path="url(#clip790)" d="M843.096 1544.91 L859.416 1544.91 L859.416 1548.85 L837.471 1548.85 L837.471 1544.91 Q840.133 1542.16 844.717 1537.53 Q849.323 1532.88 850.504 1531.53 Q852.749 1529.01 853.629 1527.27 Q854.531 1525.51 854.531 1523.82 Q854.531 1521.07 852.587 1519.33 Q850.666 1517.6 847.564 1517.6 Q845.365 1517.6 842.911 1518.36 Q840.481 1519.13 837.703 1520.68 L837.703 1515.95 Q840.527 1514.82 842.981 1514.24 Q845.434 1513.66 847.471 1513.66 Q852.842 1513.66 856.036 1516.35 Q859.23 1519.03 859.23 1523.52 Q859.23 1525.65 858.42 1527.57 Q857.633 1529.47 855.527 1532.07 Q854.948 1532.74 851.846 1535.95 Q848.744 1539.15 843.096 1544.91 Z" fill="#000000" fill-rule="nonzero" fill-opacity="1" /><path clip-path="url(#clip790)" d="M879.23 1517.37 Q875.619 1517.37 873.791 1520.93 Q871.985 1524.47 871.985 1531.6 Q871.985 1538.71 873.791 1542.27 Q875.619 1545.82 879.23 1545.82 Q882.865 1545.82 884.67 1542.27 Q886.499 1538.71 886.499 1531.6 Q886.499 1524.47 884.67 1520.93 Q882.865 1517.37 879.23 1517.37 M879.23 1513.66 Q885.041 1513.66 888.096 1518.27 Q891.175 1522.85 891.175 1531.6 Q891.175 1540.33 888.096 1544.94 Q885.041 1549.52 879.23 1549.52 Q873.42 1549.52 870.342 1544.94 Q867.286 1540.33 867.286 1531.6 Q867.286 1522.85 870.342 1518.27 Q873.42 1513.66 879.23 1513.66 Z" fill="#000000" fill-rule="nonzero" fill-opacity="1" /><path clip-path="url(#clip790)" d="M1177.51 1530.21 Q1180.87 1530.93 1182.75 1533.2 Q1184.64 1535.47 1184.64 1538.8 Q1184.64 1543.92 1181.12 1546.72 Q1177.61 1549.52 1171.12 1549.52 Q1168.95 1549.52 1166.63 1549.08 Q1164.34 1548.66 1161.89 1547.81 L1161.89 1543.29 Q1163.83 1544.43 1166.15 1545.01 Q1168.46 1545.58 1170.99 1545.58 Q1175.38 1545.58 1177.68 1543.85 Q1179.99 1542.11 1179.99 1538.8 Q1179.99 1535.75 1177.84 1534.03 Q1175.71 1532.3 1171.89 1532.3 L1167.86 1532.3 L1167.86 1528.45 L1172.07 1528.45 Q1175.52 1528.45 1177.35 1527.09 Q1179.18 1525.7 1179.18 1523.11 Q1179.18 1520.45 1177.28 1519.03 Q1175.41 1517.6 1171.89 1517.6 Q1169.97 1517.6 1167.77 1518.01 Q1165.57 1518.43 1162.93 1519.31 L1162.93 1515.14 Q1165.59 1514.4 1167.91 1514.03 Q1170.25 1513.66 1172.31 1513.66 Q1177.63 1513.66 1180.73 1516.09 Q1183.83 1518.5 1183.83 1522.62 Q1183.83 1525.49 1182.19 1527.48 Q1180.55 1529.45 1177.51 1530.21 Z" fill="#000000" fill-rule="nonzero" fill-opacity="1" /><path clip-path="url(#clip790)" d="M1203.51 1517.37 Q1199.9 1517.37 1198.07 1520.93 Q1196.26 1524.47 1196.26 1531.6 Q1196.26 1538.71 1198.07 1542.27 Q1199.9 1545.82 1203.51 1545.82 Q1207.14 1545.82 1208.95 1542.27 Q1210.78 1538.71 1210.78 1531.6 Q1210.78 1524.47 1208.95 1520.93 Q1207.14 1517.37 1203.51 1517.37 M1203.51 1513.66 Q1209.32 1513.66 1212.37 1518.27 Q1215.45 1522.85 1215.45 1531.6 Q1215.45 1540.33 1212.37 1544.94 Q1209.32 1549.52 1203.51 1549.52 Q1197.7 1549.52 1194.62 1544.94 Q1191.56 1540.33 1191.56 1531.6 Q1191.56 1522.85 1194.62 1518.27 Q1197.7 1513.66 1203.51 1513.66 Z" fill="#000000" fill-rule="nonzero" fill-opacity="1" /><path clip-path="url(#clip790)" d="M1501.19 1518.36 L1489.38 1536.81 L1501.19 1536.81 L1501.19 1518.36 M1499.96 1514.29 L1505.84 1514.29 L1505.84 1536.81 L1510.77 1536.81 L1510.77 1540.7 L1505.84 1540.7 L1505.84 1548.85 L1501.19 1548.85 L1501.19 1540.7 L1485.59 1540.7 L1485.59 1536.19 L1499.96 1514.29 Z" fill="#000000" fill-rule="nonzero" fill-opacity="1" /><path clip-path="url(#clip790)" d="M1528.51 1517.37 Q1524.89 1517.37 1523.07 1520.93 Q1521.26 1524.47 1521.26 1531.6 Q1521.26 1538.71 1523.07 1542.27 Q1524.89 1545.82 1528.51 1545.82 Q1532.14 1545.82 1533.94 1542.27 Q1535.77 1538.71 1535.77 1531.6 Q1535.77 1524.47 1533.94 1520.93 Q1532.14 1517.37 1528.51 1517.37 M1528.51 1513.66 Q1534.32 1513.66 1537.37 1518.27 Q1540.45 1522.85 1540.45 1531.6 Q1540.45 1540.33 1537.37 1544.94 Q1534.32 1549.52 1528.51 1549.52 Q1522.69 1549.52 1519.62 1544.94 Q1516.56 1540.33 1516.56 1531.6 Q1516.56 1522.85 1519.62 1518.27 Q1522.69 1513.66 1528.51 1513.66 Z" fill="#000000" fill-rule="nonzero" fill-opacity="1" /><path clip-path="url(#clip790)" d="M1812.07 1514.29 L1830.42 1514.29 L1830.42 1518.22 L1816.35 1518.22 L1816.35 1526.7 Q1817.37 1526.35 1818.39 1526.19 Q1819.4 1526 1820.42 1526 Q1826.21 1526 1829.59 1529.17 Q1832.97 1532.34 1832.97 1537.76 Q1832.97 1543.34 1829.5 1546.44 Q1826.02 1549.52 1819.71 1549.52 Q1817.53 1549.52 1815.26 1549.15 Q1813.02 1548.78 1810.61 1548.04 L1810.61 1543.34 Q1812.69 1544.47 1814.91 1545.03 Q1817.14 1545.58 1819.61 1545.58 Q1823.62 1545.58 1825.95 1543.48 Q1828.29 1541.37 1828.29 1537.76 Q1828.29 1534.15 1825.95 1532.04 Q1823.62 1529.94 1819.61 1529.94 Q1817.74 1529.94 1815.86 1530.35 Q1814.01 1530.77 1812.07 1531.65 L1812.07 1514.29 Z" fill="#000000" fill-rule="nonzero" fill-opacity="1" /><path clip-path="url(#clip790)" d="M1852.18 1517.37 Q1848.57 1517.37 1846.74 1520.93 Q1844.94 1524.47 1844.94 1531.6 Q1844.94 1538.71 1846.74 1542.27 Q1848.57 1545.82 1852.18 1545.82 Q1855.82 1545.82 1857.62 1542.27 Q1859.45 1538.71 1859.45 1531.6 Q1859.45 1524.47 1857.62 1520.93 Q1855.82 1517.37 1852.18 1517.37 M1852.18 1513.66 Q1857.99 1513.66 1861.05 1518.27 Q1864.13 1522.85 1864.13 1531.6 Q1864.13 1540.33 1861.05 1544.94 Q1857.99 1549.52 1852.18 1549.52 Q1846.37 1549.52 1843.29 1544.94 Q1840.24 1540.33 1840.24 1531.6 Q1840.24 1522.85 1843.29 1518.27 Q1846.37 1513.66 1852.18 1513.66 Z" fill="#000000" fill-rule="nonzero" fill-opacity="1" /><path clip-path="url(#clip790)" d="M2147.12 1529.7 Q2143.97 1529.7 2142.12 1531.86 Q2140.29 1534.01 2140.29 1537.76 Q2140.29 1541.49 2142.12 1543.66 Q2143.97 1545.82 2147.12 1545.82 Q2150.27 1545.82 2152.1 1543.66 Q2153.95 1541.49 2153.95 1537.76 Q2153.95 1534.01 2152.1 1531.86 Q2150.27 1529.7 2147.12 1529.7 M2156.4 1515.05 L2156.4 1519.31 Q2154.64 1518.48 2152.84 1518.04 Q2151.06 1517.6 2149.3 1517.6 Q2144.67 1517.6 2142.21 1520.72 Q2139.78 1523.85 2139.43 1530.17 Q2140.8 1528.15 2142.86 1527.09 Q2144.92 1526 2147.4 1526 Q2152.61 1526 2155.62 1529.17 Q2158.65 1532.32 2158.65 1537.76 Q2158.65 1543.08 2155.5 1546.3 Q2152.35 1549.52 2147.12 1549.52 Q2141.12 1549.52 2137.95 1544.94 Q2134.78 1540.33 2134.78 1531.6 Q2134.78 1523.41 2138.67 1518.55 Q2142.56 1513.66 2149.11 1513.66 Q2150.87 1513.66 2152.65 1514.01 Q2154.46 1514.36 2156.4 1515.05 Z" fill="#000000" fill-rule="nonzero" fill-opacity="1" /><path clip-path="url(#clip790)" d="M2176.7 1517.37 Q2173.09 1517.37 2171.26 1520.93 Q2169.46 1524.47 2169.46 1531.6 Q2169.46 1538.71 2171.26 1542.27 Q2173.09 1545.82 2176.7 1545.82 Q2180.34 1545.82 2182.14 1542.27 Q2183.97 1538.71 2183.97 1531.6 Q2183.97 1524.47 2182.14 1520.93 Q2180.34 1517.37 2176.7 1517.37 M2176.7 1513.66 Q2182.51 1513.66 2185.57 1518.27 Q2188.65 1522.85 2188.65 1531.6 Q2188.65 1540.33 2185.57 1544.94 Q2182.51 1549.52 2176.7 1549.52 Q2170.89 1549.52 2167.81 1544.94 Q2164.76 1540.33 2164.76 1531.6 Q2164.76 1522.85 2167.81 1518.27 Q2170.89 1513.66 2176.7 1513.66 Z" fill="#000000" fill-rule="nonzero" fill-opacity="1" /><polyline clip-path="url(#clip792)" style="stroke:#000000; stroke-linecap:round; stroke-linejoin:round; stroke-width:2; stroke-opacity:0.1; fill:none" points="186.76,1389.17 2352.76,1389.17 "/>
<polyline clip-path="url(#clip792)" style="stroke:#000000; stroke-linecap:round; stroke-linejoin:round; stroke-width:2; stroke-opacity:0.1; fill:none" points="186.76,1095.55 2352.76,1095.55 "/>
<polyline clip-path="url(#clip792)" style="stroke:#000000; stroke-linecap:round; stroke-linejoin:round; stroke-width:2; stroke-opacity:0.1; fill:none" points="186.76,801.926 2352.76,801.926 "/>
<polyline clip-path="url(#clip792)" style="stroke:#000000; stroke-linecap:round; stroke-linejoin:round; stroke-width:2; stroke-opacity:0.1; fill:none" points="186.76,508.306 2352.76,508.306 "/>
<polyline clip-path="url(#clip792)" style="stroke:#000000; stroke-linecap:round; stroke-linejoin:round; stroke-width:2; stroke-opacity:0.1; fill:none" points="186.76,214.685 2352.76,214.685 "/>
<polyline clip-path="url(#clip790)" style="stroke:#000000; stroke-linecap:round; stroke-linejoin:round; stroke-width:4; stroke-opacity:1; fill:none" points="186.76,1486.45 186.76,47.2441 "/>
<polyline clip-path="url(#clip790)" style="stroke:#000000; stroke-linecap:round; stroke-linejoin:round; stroke-width:4; stroke-opacity:1; fill:none" points="186.76,1389.17 205.658,1389.17 "/>
<polyline clip-path="url(#clip790)" style="stroke:#000000; stroke-linecap:round; stroke-linejoin:round; stroke-width:4; stroke-opacity:1; fill:none" points="186.76,1095.55 205.658,1095.55 "/>
<polyline clip-path="url(#clip790)" style="stroke:#000000; stroke-linecap:round; stroke-linejoin:round; stroke-width:4; stroke-opacity:1; fill:none" points="186.76,801.926 205.658,801.926 "/>
<polyline clip-path="url(#clip790)" style="stroke:#000000; stroke-linecap:round; stroke-linejoin:round; stroke-width:4; stroke-opacity:1; fill:none" points="186.76,508.306 205.658,508.306 "/>
<polyline clip-path="url(#clip790)" style="stroke:#000000; stroke-linecap:round; stroke-linejoin:round; stroke-width:4; stroke-opacity:1; fill:none" points="186.76,214.685 205.658,214.685 "/>
<path clip-path="url(#clip790)" d="M62.9365 1374.97 Q59.3254 1374.97 57.4967 1378.53 Q55.6912 1382.07 55.6912 1389.2 Q55.6912 1396.31 57.4967 1399.87 Q59.3254 1403.42 62.9365 1403.42 Q66.5707 1403.42 68.3763 1399.87 Q70.205 1396.31 70.205 1389.2 Q70.205 1382.07 68.3763 1378.53 Q66.5707 1374.97 62.9365 1374.97 M62.9365 1371.26 Q68.7467 1371.26 71.8022 1375.87 Q74.8809 1380.45 74.8809 1389.2 Q74.8809 1397.93 71.8022 1402.54 Q68.7467 1407.12 62.9365 1407.12 Q57.1264 1407.12 54.0477 1402.54 Q50.9921 1397.93 50.9921 1389.2 Q50.9921 1380.45 54.0477 1375.87 Q57.1264 1371.26 62.9365 1371.26 Z" fill="#000000" fill-rule="nonzero" fill-opacity="1" /><path clip-path="url(#clip790)" d="M83.0984 1400.57 L87.9827 1400.57 L87.9827 1406.45 L83.0984 1406.45 L83.0984 1400.57 Z" fill="#000000" fill-rule="nonzero" fill-opacity="1" /><path clip-path="url(#clip790)" d="M98.978 1402.51 L106.617 1402.51 L106.617 1376.15 L98.3067 1377.81 L98.3067 1373.55 L106.571 1371.89 L111.246 1371.89 L111.246 1402.51 L118.885 1402.51 L118.885 1406.45 L98.978 1406.45 L98.978 1402.51 Z" fill="#000000" fill-rule="nonzero" fill-opacity="1" /><path clip-path="url(#clip790)" d="M141.177 1375.96 L129.371 1394.41 L141.177 1394.41 L141.177 1375.96 M139.95 1371.89 L145.83 1371.89 L145.83 1394.41 L150.76 1394.41 L150.76 1398.3 L145.83 1398.3 L145.83 1406.45 L141.177 1406.45 L141.177 1398.3 L125.575 1398.3 L125.575 1393.79 L139.95 1371.89 Z" fill="#000000" fill-rule="nonzero" fill-opacity="1" /><path clip-path="url(#clip790)" d="M63.2606 1081.35 Q59.6495 1081.35 57.8208 1084.91 Q56.0152 1088.45 56.0152 1095.58 Q56.0152 1102.69 57.8208 1106.25 Q59.6495 1109.79 63.2606 1109.79 Q66.8948 1109.79 68.7004 1106.25 Q70.5291 1102.69 70.5291 1095.58 Q70.5291 1088.45 68.7004 1084.91 Q66.8948 1081.35 63.2606 1081.35 M63.2606 1077.64 Q69.0707 1077.64 72.1263 1082.25 Q75.205 1086.83 75.205 1095.58 Q75.205 1104.31 72.1263 1108.92 Q69.0707 1113.5 63.2606 1113.5 Q57.4504 1113.5 54.3717 1108.92 Q51.3162 1104.31 51.3162 1095.58 Q51.3162 1086.83 54.3717 1082.25 Q57.4504 1077.64 63.2606 1077.64 Z" fill="#000000" fill-rule="nonzero" fill-opacity="1" /><path clip-path="url(#clip790)" d="M83.4225 1106.95 L88.3067 1106.95 L88.3067 1112.83 L83.4225 1112.83 L83.4225 1106.95 Z" fill="#000000" fill-rule="nonzero" fill-opacity="1" /><path clip-path="url(#clip790)" d="M99.3021 1108.89 L106.941 1108.89 L106.941 1082.53 L98.6308 1084.19 L98.6308 1079.93 L106.895 1078.27 L111.571 1078.27 L111.571 1108.89 L119.209 1108.89 L119.209 1112.83 L99.3021 1112.83 L99.3021 1108.89 Z" fill="#000000" fill-rule="nonzero" fill-opacity="1" /><path clip-path="url(#clip790)" d="M139.232 1093.68 Q136.084 1093.68 134.232 1095.84 Q132.404 1097.99 132.404 1101.74 Q132.404 1105.47 134.232 1107.64 Q136.084 1109.79 139.232 1109.79 Q142.381 1109.79 144.209 1107.64 Q146.061 1105.47 146.061 1101.74 Q146.061 1097.99 144.209 1095.84 Q142.381 1093.68 139.232 1093.68 M148.515 1079.03 L148.515 1083.29 Q146.756 1082.46 144.95 1082.02 Q143.168 1081.58 141.408 1081.58 Q136.779 1081.58 134.325 1084.7 Q131.894 1087.83 131.547 1094.15 Q132.913 1092.13 134.973 1091.07 Q137.033 1089.98 139.51 1089.98 Q144.718 1089.98 147.728 1093.15 Q150.76 1096.3 150.76 1101.74 Q150.76 1107.06 147.612 1110.28 Q144.464 1113.5 139.232 1113.5 Q133.237 1113.5 130.066 1108.92 Q126.894 1104.31 126.894 1095.58 Q126.894 1087.39 130.783 1082.53 Q134.672 1077.64 141.223 1077.64 Q142.982 1077.64 144.765 1077.99 Q146.57 1078.34 148.515 1079.03 Z" fill="#000000" fill-rule="nonzero" fill-opacity="1" /><path clip-path="url(#clip790)" d="M63.5152 787.725 Q59.9041 787.725 58.0754 791.29 Q56.2699 794.832 56.2699 801.961 Q56.2699 809.068 58.0754 812.632 Q59.9041 816.174 63.5152 816.174 Q67.1494 816.174 68.955 812.632 Q70.7837 809.068 70.7837 801.961 Q70.7837 794.832 68.955 791.29 Q67.1494 787.725 63.5152 787.725 M63.5152 784.021 Q69.3254 784.021 72.3809 788.628 Q75.4596 793.211 75.4596 801.961 Q75.4596 810.688 72.3809 815.294 Q69.3254 819.878 63.5152 819.878 Q57.7051 819.878 54.6264 815.294 Q51.5708 810.688 51.5708 801.961 Q51.5708 793.211 54.6264 788.628 Q57.7051 784.021 63.5152 784.021 Z" fill="#000000" fill-rule="nonzero" fill-opacity="1" /><path clip-path="url(#clip790)" d="M83.6771 813.327 L88.5614 813.327 L88.5614 819.206 L83.6771 819.206 L83.6771 813.327 Z" fill="#000000" fill-rule="nonzero" fill-opacity="1" /><path clip-path="url(#clip790)" d="M99.5567 815.271 L107.196 815.271 L107.196 788.906 L98.8854 790.572 L98.8854 786.313 L107.149 784.646 L111.825 784.646 L111.825 815.271 L119.464 815.271 L119.464 819.206 L99.5567 819.206 L99.5567 815.271 Z" fill="#000000" fill-rule="nonzero" fill-opacity="1" /><path clip-path="url(#clip790)" d="M138.908 802.794 Q135.575 802.794 133.654 804.577 Q131.756 806.359 131.756 809.484 Q131.756 812.609 133.654 814.392 Q135.575 816.174 138.908 816.174 Q142.242 816.174 144.163 814.392 Q146.084 812.586 146.084 809.484 Q146.084 806.359 144.163 804.577 Q142.265 802.794 138.908 802.794 M134.232 800.804 Q131.223 800.063 129.533 798.003 Q127.867 795.943 127.867 792.98 Q127.867 788.836 130.807 786.429 Q133.769 784.021 138.908 784.021 Q144.07 784.021 147.01 786.429 Q149.95 788.836 149.95 792.98 Q149.95 795.943 148.26 798.003 Q146.593 800.063 143.607 800.804 Q146.987 801.591 148.862 803.882 Q150.76 806.174 150.76 809.484 Q150.76 814.507 147.681 817.192 Q144.626 819.878 138.908 819.878 Q133.191 819.878 130.112 817.192 Q127.057 814.507 127.057 809.484 Q127.057 806.174 128.955 803.882 Q130.853 801.591 134.232 800.804 M132.519 793.419 Q132.519 796.105 134.186 797.609 Q135.876 799.114 138.908 799.114 Q141.918 799.114 143.607 797.609 Q145.32 796.105 145.32 793.419 Q145.32 790.734 143.607 789.23 Q141.918 787.725 138.908 787.725 Q135.876 787.725 134.186 789.23 Q132.519 790.734 132.519 793.419 Z" fill="#000000" fill-rule="nonzero" fill-opacity="1" /><path clip-path="url(#clip790)" d="M63.4226 494.104 Q59.8115 494.104 57.9828 497.669 Q56.1773 501.211 56.1773 508.34 Q56.1773 515.447 57.9828 519.012 Q59.8115 522.553 63.4226 522.553 Q67.0569 522.553 68.8624 519.012 Q70.6911 515.447 70.6911 508.34 Q70.6911 501.211 68.8624 497.669 Q67.0569 494.104 63.4226 494.104 M63.4226 490.401 Q69.2328 490.401 72.2883 495.007 Q75.367 499.59 75.367 508.34 Q75.367 517.067 72.2883 521.674 Q69.2328 526.257 63.4226 526.257 Q57.6125 526.257 54.5338 521.674 Q51.4782 517.067 51.4782 508.34 Q51.4782 499.59 54.5338 495.007 Q57.6125 490.401 63.4226 490.401 Z" fill="#000000" fill-rule="nonzero" fill-opacity="1" /><path clip-path="url(#clip790)" d="M83.5845 519.706 L88.4688 519.706 L88.4688 525.586 L83.5845 525.586 L83.5845 519.706 Z" fill="#000000" fill-rule="nonzero" fill-opacity="1" /><path clip-path="url(#clip790)" d="M102.682 521.651 L119.001 521.651 L119.001 525.586 L97.0567 525.586 L97.0567 521.651 Q99.7187 518.896 104.302 514.266 Q108.908 509.614 110.089 508.271 Q112.334 505.748 113.214 504.012 Q114.117 502.252 114.117 500.563 Q114.117 497.808 112.172 496.072 Q110.251 494.336 107.149 494.336 Q104.95 494.336 102.496 495.1 Q100.066 495.864 97.2882 497.415 L97.2882 492.692 Q100.112 491.558 102.566 490.979 Q105.02 490.401 107.057 490.401 Q112.427 490.401 115.621 493.086 Q118.816 495.771 118.816 500.262 Q118.816 502.391 118.006 504.313 Q117.219 506.211 115.112 508.803 Q114.533 509.475 111.432 512.692 Q108.33 515.887 102.682 521.651 Z" fill="#000000" fill-rule="nonzero" fill-opacity="1" /><path clip-path="url(#clip790)" d="M138.816 494.104 Q135.205 494.104 133.376 497.669 Q131.57 501.211 131.57 508.34 Q131.57 515.447 133.376 519.012 Q135.205 522.553 138.816 522.553 Q142.45 522.553 144.256 519.012 Q146.084 515.447 146.084 508.34 Q146.084 501.211 144.256 497.669 Q142.45 494.104 138.816 494.104 M138.816 490.401 Q144.626 490.401 147.681 495.007 Q150.76 499.59 150.76 508.34 Q150.76 517.067 147.681 521.674 Q144.626 526.257 138.816 526.257 Q133.006 526.257 129.927 521.674 Q126.871 517.067 126.871 508.34 Q126.871 499.59 129.927 495.007 Q133.006 490.401 138.816 490.401 Z" fill="#000000" fill-rule="nonzero" fill-opacity="1" /><path clip-path="url(#clip790)" d="M65.0198 200.484 Q61.4087 200.484 59.58 204.049 Q57.7745 207.59 57.7745 214.72 Q57.7745 221.826 59.58 225.391 Q61.4087 228.933 65.0198 228.933 Q68.6541 228.933 70.4596 225.391 Q72.2883 221.826 72.2883 214.72 Q72.2883 207.59 70.4596 204.049 Q68.6541 200.484 65.0198 200.484 M65.0198 196.78 Q70.83 196.78 73.8855 201.387 Q76.9642 205.97 76.9642 214.72 Q76.9642 223.447 73.8855 228.053 Q70.83 232.636 65.0198 232.636 Q59.2097 232.636 56.131 228.053 Q53.0754 223.447 53.0754 214.72 Q53.0754 205.97 56.131 201.387 Q59.2097 196.78 65.0198 196.78 Z" fill="#000000" fill-rule="nonzero" fill-opacity="1" /><path clip-path="url(#clip790)" d="M85.1818 226.085 L90.066 226.085 L90.066 231.965 L85.1818 231.965 L85.1818 226.085 Z" fill="#000000" fill-rule="nonzero" fill-opacity="1" /><path clip-path="url(#clip790)" d="M104.279 228.03 L120.598 228.03 L120.598 231.965 L98.6539 231.965 L98.6539 228.03 Q101.316 225.275 105.899 220.646 Q110.506 215.993 111.686 214.65 Q113.932 212.127 114.811 210.391 Q115.714 208.632 115.714 206.942 Q115.714 204.187 113.77 202.451 Q111.848 200.715 108.746 200.715 Q106.547 200.715 104.094 201.479 Q101.663 202.243 98.8854 203.794 L98.8854 199.072 Q101.709 197.937 104.163 197.359 Q106.617 196.78 108.654 196.78 Q114.024 196.78 117.219 199.465 Q120.413 202.15 120.413 206.641 Q120.413 208.771 119.603 210.692 Q118.816 212.59 116.709 215.183 Q116.131 215.854 113.029 219.072 Q109.927 222.266 104.279 228.03 Z" fill="#000000" fill-rule="nonzero" fill-opacity="1" /><path clip-path="url(#clip790)" d="M134.441 228.03 L150.76 228.03 L150.76 231.965 L128.816 231.965 L128.816 228.03 Q131.478 225.275 136.061 220.646 Q140.668 215.993 141.848 214.65 Q144.093 212.127 144.973 210.391 Q145.876 208.632 145.876 206.942 Q145.876 204.187 143.931 202.451 Q142.01 200.715 138.908 200.715 Q136.709 200.715 134.256 201.479 Q131.825 202.243 129.047 203.794 L129.047 199.072 Q131.871 197.937 134.325 197.359 Q136.779 196.78 138.816 196.78 Q144.186 196.78 147.38 199.465 Q150.575 202.15 150.575 206.641 Q150.575 208.771 149.765 210.692 Q148.978 212.59 146.871 215.183 Q146.293 215.854 143.191 219.072 Q140.089 222.266 134.441 228.03 Z" fill="#000000" fill-rule="nonzero" fill-opacity="1" /><polyline clip-path="url(#clip792)" style="stroke:#009af9; stroke-linecap:round; stroke-linejoin:round; stroke-width:4; stroke-opacity:1; fill:none" points="248.062,604.673 280.497,454.349 312.931,584.734 345.366,557.296 377.801,788.806 410.236,707.948 442.671,752.058 475.105,726.576 507.54,872.933 539.975,906.189 572.41,807.587 604.845,825.869 637.279,1091.45 669.714,974.153 702.149,1062.81 734.584,849.383 767.019,946.273 799.453,888.438 831.888,992.84 864.323,1074.95 896.758,1090.15 929.193,1147.76 961.627,1100.13 994.062,1075.83 1026.5,1122.91 1058.93,1198.3 1091.37,1262.53 1123.8,1177.11 1156.24,1117.65 1188.67,1131.75 1221.11,1147.17 1253.54,1161.79 1285.98,1270.06 1318.41,1289.8 1350.85,1144.28 1383.28,1268.74 1415.71,1224.17 1448.15,1283.19 1480.58,1261.29 1513.02,1132.25 1545.45,1284.23 1577.89,1225.62 1610.32,1338.54 1642.76,1272.76 1675.19,1174.22 1707.63,1043.11 1740.06,1328.94 1772.5,1445.72 1804.93,1249.45 1837.37,1317.34 1869.8,1396.88 1902.24,1342.51 1934.67,1317.85 1967.11,1226.87 1999.54,1340.98 2031.98,1387.41 2064.41,1278.96 2096.85,1272.97 2129.28,1435.74 2161.71,1332.65 2194.15,1283.77 2226.58,1280.19 2259.02,1399.82 2291.45,1390.29 "/>
<polyline clip-path="url(#clip792)" style="stroke:#e26f46; stroke-linecap:round; stroke-linejoin:round; stroke-width:4; stroke-opacity:1; fill:none" points="248.062,123.578 280.497,111.763 312.931,87.9763 345.366,207.311 377.801,225.554 410.236,312.657 442.671,337.648 475.105,289.379 507.54,355.888 539.975,408.258 572.41,241.387 604.845,347.59 637.279,420.624 669.714,352.816 702.149,386.676 734.584,406.829 767.019,435.069 799.453,430.195 831.888,409.514 864.323,460.898 896.758,411.344 929.193,458.298 961.627,584.579 994.062,504.361 1026.5,521.627 1058.93,528.342 1091.37,425.179 1123.8,528.36 1156.24,358.468 1188.67,685.812 1221.11,374.876 1253.54,583.733 1285.98,350.083 1318.41,392.638 1350.85,415.801 1383.28,625.568 1415.71,634.999 1448.15,421.683 1480.58,494.796 1513.02,438.387 1545.45,631.569 1577.89,570.969 1610.32,528.892 1642.76,542.859 1675.19,566.1 1707.63,509.649 1740.06,501 1772.5,643.471 1804.93,576.168 1837.37,461.222 1869.8,554.029 1902.24,548.167 1934.67,660.757 1967.11,638.801 1999.54,582.144 2031.98,657.309 2064.41,511.651 2096.85,624.309 2129.28,604.523 2161.71,557.535 2194.15,845.853 2226.58,456.469 2259.02,441.298 2291.45,609.816 "/>
<path clip-path="url(#clip790)" d="M1842.24 250.738 L2280.56 250.738 L2280.56 95.2176 L1842.24 95.2176  Z" fill="#ffffff" fill-rule="evenodd" fill-opacity="1"/>
<polyline clip-path="url(#clip790)" style="stroke:#000000; stroke-linecap:round; stroke-linejoin:round; stroke-width:4; stroke-opacity:1; fill:none" points="1842.24,250.738 2280.56,250.738 2280.56,95.2176 1842.24,95.2176 1842.24,250.738 "/>
<polyline clip-path="url(#clip790)" style="stroke:#009af9; stroke-linecap:round; stroke-linejoin:round; stroke-width:4; stroke-opacity:1; fill:none" points="1866.31,147.058 2010.71,147.058 "/>
<path clip-path="url(#clip790)" d="M2049.96 142.393 Q2049.25 141.977 2048.39 141.791 Q2047.56 141.583 2046.54 141.583 Q2042.93 141.583 2040.98 143.944 Q2039.06 146.282 2039.06 150.68 L2039.06 164.338 L2034.78 164.338 L2034.78 138.412 L2039.06 138.412 L2039.06 142.44 Q2040.4 140.078 2042.56 138.944 Q2044.71 137.787 2047.79 137.787 Q2048.23 137.787 2048.76 137.856 Q2049.29 137.903 2049.94 138.018 L2049.96 142.393 Z" fill="#000000" fill-rule="nonzero" fill-opacity="1" /><path clip-path="url(#clip790)" d="M2066.21 151.305 Q2061.05 151.305 2059.06 152.486 Q2057.07 153.666 2057.07 156.514 Q2057.07 158.782 2058.55 160.125 Q2060.06 161.444 2062.62 161.444 Q2066.17 161.444 2068.3 158.944 Q2070.45 156.421 2070.45 152.254 L2070.45 151.305 L2066.21 151.305 M2074.71 149.546 L2074.71 164.338 L2070.45 164.338 L2070.45 160.402 Q2068.99 162.763 2066.81 163.898 Q2064.64 165.009 2061.49 165.009 Q2057.51 165.009 2055.15 162.787 Q2052.81 160.541 2052.81 156.791 Q2052.81 152.416 2055.73 150.194 Q2058.67 147.972 2064.48 147.972 L2070.45 147.972 L2070.45 147.555 Q2070.45 144.615 2068.5 143.018 Q2066.58 141.398 2063.09 141.398 Q2060.87 141.398 2058.76 141.93 Q2056.65 142.463 2054.71 143.527 L2054.71 139.592 Q2057.05 138.69 2059.25 138.25 Q2061.44 137.787 2063.53 137.787 Q2069.15 137.787 2071.93 140.703 Q2074.71 143.62 2074.71 149.546 Z" fill="#000000" fill-rule="nonzero" fill-opacity="1" /><path clip-path="url(#clip790)" d="M2081 138.412 L2085.26 138.412 L2090.59 158.643 L2095.89 138.412 L2100.91 138.412 L2106.24 158.643 L2111.54 138.412 L2115.8 138.412 L2109.01 164.338 L2103.99 164.338 L2098.41 143.088 L2092.81 164.338 L2087.79 164.338 L2081 138.412 Z" fill="#000000" fill-rule="nonzero" fill-opacity="1" /><path clip-path="url(#clip790)" d="M2141.95 172.208 L2141.95 175.518 L2117.32 175.518 L2117.32 172.208 L2141.95 172.208 Z" fill="#000000" fill-rule="nonzero" fill-opacity="1" /><path clip-path="url(#clip790)" d="M2164.61 139.407 L2164.61 143.389 Q2162.81 142.393 2160.98 141.907 Q2159.18 141.398 2157.32 141.398 Q2153.18 141.398 2150.89 144.037 Q2148.6 146.652 2148.6 151.398 Q2148.6 156.143 2150.89 158.782 Q2153.18 161.398 2157.32 161.398 Q2159.18 161.398 2160.98 160.912 Q2162.81 160.402 2164.61 159.407 L2164.61 163.342 Q2162.83 164.176 2160.91 164.592 Q2159.01 165.009 2156.86 165.009 Q2151 165.009 2147.55 161.328 Q2144.11 157.648 2144.11 151.398 Q2144.11 145.055 2147.58 141.421 Q2151.07 137.787 2157.14 137.787 Q2159.11 137.787 2160.98 138.203 Q2162.86 138.597 2164.61 139.407 Z" fill="#000000" fill-rule="nonzero" fill-opacity="1" /><path clip-path="url(#clip790)" d="M2182.07 141.398 Q2178.64 141.398 2176.65 144.083 Q2174.66 146.745 2174.66 151.398 Q2174.66 156.051 2176.63 158.736 Q2178.62 161.398 2182.07 161.398 Q2185.47 161.398 2187.46 158.713 Q2189.45 156.027 2189.45 151.398 Q2189.45 146.791 2187.46 144.106 Q2185.47 141.398 2182.07 141.398 M2182.07 137.787 Q2187.62 137.787 2190.8 141.398 Q2193.97 145.009 2193.97 151.398 Q2193.97 157.764 2190.8 161.398 Q2187.62 165.009 2182.07 165.009 Q2176.49 165.009 2173.32 161.398 Q2170.17 157.764 2170.17 151.398 Q2170.17 145.009 2173.32 141.398 Q2176.49 137.787 2182.07 137.787 Z" fill="#000000" fill-rule="nonzero" fill-opacity="1" /><path clip-path="url(#clip790)" d="M2217.55 139.176 L2217.55 143.203 Q2215.75 142.277 2213.8 141.815 Q2211.86 141.352 2209.78 141.352 Q2206.61 141.352 2205.01 142.324 Q2203.43 143.296 2203.43 145.24 Q2203.43 146.722 2204.57 147.578 Q2205.7 148.412 2209.13 149.176 L2210.59 149.5 Q2215.12 150.472 2217.02 152.254 Q2218.94 154.014 2218.94 157.185 Q2218.94 160.796 2216.07 162.902 Q2213.23 165.009 2208.23 165.009 Q2206.14 165.009 2203.87 164.592 Q2201.63 164.199 2199.13 163.388 L2199.13 158.99 Q2201.49 160.217 2203.78 160.842 Q2206.07 161.444 2208.32 161.444 Q2211.33 161.444 2212.95 160.426 Q2214.57 159.384 2214.57 157.509 Q2214.57 155.773 2213.39 154.847 Q2212.23 153.921 2208.27 153.064 L2206.79 152.717 Q2202.83 151.884 2201.07 150.171 Q2199.31 148.435 2199.31 145.426 Q2199.31 141.768 2201.91 139.778 Q2204.5 137.787 2209.27 137.787 Q2211.63 137.787 2213.71 138.134 Q2215.8 138.481 2217.55 139.176 Z" fill="#000000" fill-rule="nonzero" fill-opacity="1" /><path clip-path="url(#clip790)" d="M2229.94 131.051 L2229.94 138.412 L2238.71 138.412 L2238.71 141.722 L2229.94 141.722 L2229.94 155.796 Q2229.94 158.967 2230.8 159.87 Q2231.67 160.773 2234.34 160.773 L2238.71 160.773 L2238.71 164.338 L2234.34 164.338 Q2229.41 164.338 2227.53 162.509 Q2225.66 160.657 2225.66 155.796 L2225.66 141.722 L2222.53 141.722 L2222.53 138.412 L2225.66 138.412 L2225.66 131.051 L2229.94 131.051 Z" fill="#000000" fill-rule="nonzero" fill-opacity="1" /><polyline clip-path="url(#clip790)" style="stroke:#e26f46; stroke-linecap:round; stroke-linejoin:round; stroke-width:4; stroke-opacity:1; fill:none" points="1866.31,198.898 2010.71,198.898 "/>
<path clip-path="url(#clip790)" d="M2053.69 202.914 Q2053.69 198.284 2051.77 195.738 Q2049.87 193.192 2046.42 193.192 Q2043 193.192 2041.07 195.738 Q2039.18 198.284 2039.18 202.914 Q2039.18 207.52 2041.07 210.066 Q2043 212.613 2046.42 212.613 Q2049.87 212.613 2051.77 210.066 Q2053.69 207.52 2053.69 202.914 M2057.95 212.96 Q2057.95 219.58 2055.01 222.798 Q2052.07 226.039 2046 226.039 Q2043.76 226.039 2041.77 225.691 Q2039.78 225.367 2037.9 224.673 L2037.9 220.529 Q2039.78 221.548 2041.61 222.034 Q2043.44 222.52 2045.33 222.52 Q2049.52 222.52 2051.61 220.321 Q2053.69 218.145 2053.69 213.724 L2053.69 211.617 Q2052.37 213.909 2050.31 215.043 Q2048.25 216.178 2045.38 216.178 Q2040.61 216.178 2037.69 212.543 Q2034.78 208.909 2034.78 202.914 Q2034.78 196.895 2037.69 193.261 Q2040.61 189.627 2045.38 189.627 Q2048.25 189.627 2050.31 190.761 Q2052.37 191.895 2053.69 194.187 L2053.69 190.252 L2057.95 190.252 L2057.95 212.96 Z" fill="#000000" fill-rule="nonzero" fill-opacity="1" /><path clip-path="url(#clip790)" d="M2066.28 205.946 L2066.28 190.252 L2070.54 190.252 L2070.54 205.784 Q2070.54 209.465 2071.98 211.316 Q2073.41 213.145 2076.28 213.145 Q2079.73 213.145 2081.72 210.946 Q2083.74 208.747 2083.74 204.951 L2083.74 190.252 L2087.99 190.252 L2087.99 216.178 L2083.74 216.178 L2083.74 212.196 Q2082.18 214.557 2080.12 215.715 Q2078.09 216.849 2075.38 216.849 Q2070.91 216.849 2068.6 214.071 Q2066.28 211.293 2066.28 205.946 M2077 189.627 L2077 189.627 Z" fill="#000000" fill-rule="nonzero" fill-opacity="1" /><path clip-path="url(#clip790)" d="M2096.77 190.252 L2101.03 190.252 L2101.03 216.178 L2096.77 216.178 L2096.77 190.252 M2096.77 180.159 L2101.03 180.159 L2101.03 185.553 L2096.77 185.553 L2096.77 180.159 Z" fill="#000000" fill-rule="nonzero" fill-opacity="1" /><path clip-path="url(#clip790)" d="M2127 194.187 L2127 180.159 L2131.26 180.159 L2131.26 216.178 L2127 216.178 L2127 212.289 Q2125.66 214.603 2123.6 215.738 Q2121.56 216.849 2118.69 216.849 Q2113.99 216.849 2111.03 213.099 Q2108.09 209.349 2108.09 203.238 Q2108.09 197.127 2111.03 193.377 Q2113.99 189.627 2118.69 189.627 Q2121.56 189.627 2123.6 190.761 Q2125.66 191.872 2127 194.187 M2112.49 203.238 Q2112.49 207.937 2114.41 210.622 Q2116.35 213.284 2119.73 213.284 Q2123.11 213.284 2125.05 210.622 Q2127 207.937 2127 203.238 Q2127 198.539 2125.05 195.877 Q2123.11 193.192 2119.73 193.192 Q2116.35 193.192 2114.41 195.877 Q2112.49 198.539 2112.49 203.238 Z" fill="#000000" fill-rule="nonzero" fill-opacity="1" /><path clip-path="url(#clip790)" d="M2159.73 224.048 L2159.73 227.358 L2135.1 227.358 L2135.1 224.048 L2159.73 224.048 Z" fill="#000000" fill-rule="nonzero" fill-opacity="1" /><path clip-path="url(#clip790)" d="M2182.39 191.247 L2182.39 195.229 Q2180.59 194.233 2178.76 193.747 Q2176.95 193.238 2175.1 193.238 Q2170.96 193.238 2168.67 195.877 Q2166.37 198.492 2166.37 203.238 Q2166.37 207.983 2168.67 210.622 Q2170.96 213.238 2175.1 213.238 Q2176.95 213.238 2178.76 212.752 Q2180.59 212.242 2182.39 211.247 L2182.39 215.182 Q2180.61 216.016 2178.69 216.432 Q2176.79 216.849 2174.64 216.849 Q2168.78 216.849 2165.33 213.168 Q2161.88 209.488 2161.88 203.238 Q2161.88 196.895 2165.36 193.261 Q2168.85 189.627 2174.92 189.627 Q2176.88 189.627 2178.76 190.043 Q2180.63 190.437 2182.39 191.247 Z" fill="#000000" fill-rule="nonzero" fill-opacity="1" /><path clip-path="url(#clip790)" d="M2199.85 193.238 Q2196.42 193.238 2194.43 195.923 Q2192.44 198.585 2192.44 203.238 Q2192.44 207.891 2194.41 210.576 Q2196.4 213.238 2199.85 213.238 Q2203.25 213.238 2205.24 210.553 Q2207.23 207.867 2207.23 203.238 Q2207.23 198.631 2205.24 195.946 Q2203.25 193.238 2199.85 193.238 M2199.85 189.627 Q2205.4 189.627 2208.57 193.238 Q2211.74 196.849 2211.74 203.238 Q2211.74 209.604 2208.57 213.238 Q2205.4 216.849 2199.85 216.849 Q2194.27 216.849 2191.1 213.238 Q2187.95 209.604 2187.95 203.238 Q2187.95 196.849 2191.1 193.238 Q2194.27 189.627 2199.85 189.627 Z" fill="#000000" fill-rule="nonzero" fill-opacity="1" /><path clip-path="url(#clip790)" d="M2235.33 191.016 L2235.33 195.043 Q2233.53 194.117 2231.58 193.655 Q2229.64 193.192 2227.55 193.192 Q2224.38 193.192 2222.79 194.164 Q2221.21 195.136 2221.21 197.08 Q2221.21 198.562 2222.35 199.418 Q2223.48 200.252 2226.91 201.016 L2228.36 201.34 Q2232.9 202.312 2234.8 204.094 Q2236.72 205.854 2236.72 209.025 Q2236.72 212.636 2233.85 214.742 Q2231 216.849 2226 216.849 Q2223.92 216.849 2221.65 216.432 Q2219.41 216.039 2216.91 215.228 L2216.91 210.83 Q2219.27 212.057 2221.56 212.682 Q2223.85 213.284 2226.1 213.284 Q2229.11 213.284 2230.73 212.266 Q2232.35 211.224 2232.35 209.349 Q2232.35 207.613 2231.17 206.687 Q2230.01 205.761 2226.05 204.904 L2224.57 204.557 Q2220.61 203.724 2218.85 202.011 Q2217.09 200.275 2217.09 197.266 Q2217.09 193.608 2219.68 191.618 Q2222.28 189.627 2227.05 189.627 Q2229.41 189.627 2231.49 189.974 Q2233.57 190.321 2235.33 191.016 Z" fill="#000000" fill-rule="nonzero" fill-opacity="1" /><path clip-path="url(#clip790)" d="M2247.72 182.891 L2247.72 190.252 L2256.49 190.252 L2256.49 193.562 L2247.72 193.562 L2247.72 207.636 Q2247.72 210.807 2248.57 211.71 Q2249.45 212.613 2252.11 212.613 L2256.49 212.613 L2256.49 216.178 L2252.11 216.178 Q2247.18 216.178 2245.31 214.349 Q2243.43 212.497 2243.43 207.636 L2243.43 193.562 L2240.31 193.562 L2240.31 190.252 L2243.43 190.252 L2243.43 182.891 L2247.72 182.891 Z" fill="#000000" fill-rule="nonzero" fill-opacity="1" /></svg>
