<?xml version="1.0" encoding="utf-8"?>
<svg xmlns="http://www.w3.org/2000/svg" xmlns:xlink="http://www.w3.org/1999/xlink" width="600" height="400" viewBox="0 0 2400 1600">
<defs>
  <clipPath id="clip390">
    <rect x="0" y="0" width="2400" height="1600"/>
  </clipPath>
</defs>
<path clip-path="url(#clip390)" d="M0 1600 L2400 1600 L2400 0 L0 0  Z" fill="#ffffff" fill-rule="evenodd" fill-opacity="1"/>
<defs>
  <clipPath id="clip391">
    <rect x="480" y="0" width="1681" height="1600"/>
  </clipPath>
</defs>
<path clip-path="url(#clip390)" d="M186.76 1486.45 L2352.76 1486.45 L2352.76 47.2441 L186.76 47.2441  Z" fill="#ffffff" fill-rule="evenodd" fill-opacity="1"/>
<defs>
  <clipPath id="clip392">
    <rect x="186" y="47" width="2167" height="1440"/>
  </clipPath>
</defs>
<polyline clip-path="url(#clip392)" style="stroke:#000000; stroke-linecap:round; stroke-linejoin:round; stroke-width:2; stroke-opacity:0.1; fill:none" points="215.627,1486.45 215.627,47.2441 "/>
<polyline clip-path="url(#clip392)" style="stroke:#000000; stroke-linecap:round; stroke-linejoin:round; stroke-width:2; stroke-opacity:0.1; fill:none" points="539.975,1486.45 539.975,47.2441 "/>
<polyline clip-path="url(#clip392)" style="stroke:#000000; stroke-linecap:round; stroke-linejoin:round; stroke-width:2; stroke-opacity:0.1; fill:none" points="864.323,1486.45 864.323,47.2441 "/>
<polyline clip-path="url(#clip392)" style="stroke:#000000; stroke-linecap:round; stroke-linejoin:round; stroke-width:2; stroke-opacity:0.1; fill:none" points="1188.67,1486.45 1188.67,47.2441 "/>
<polyline clip-path="url(#clip392)" style="stroke:#000000; stroke-linecap:round; stroke-linejoin:round; stroke-width:2; stroke-opacity:0.1; fill:none" points="1513.02,1486.45 1513.02,47.2441 "/>
<polyline clip-path="url(#clip392)" style="stroke:#000000; stroke-linecap:round; stroke-linejoin:round; stroke-width:2; stroke-opacity:0.1; fill:none" points="1837.37,1486.45 1837.37,47.2441 "/>
<polyline clip-path="url(#clip392)" style="stroke:#000000; stroke-linecap:round; stroke-linejoin:round; stroke-width:2; stroke-opacity:0.1; fill:none" points="2161.71,1486.45 2161.71,47.2441 "/>
<polyline clip-path="url(#clip390)" style="stroke:#000000; stroke-linecap:round; stroke-linejoin:round; stroke-width:4; stroke-opacity:1; fill:none" points="186.76,1486.45 2352.76,1486.45 "/>
<polyline clip-path="url(#clip390)" style="stroke:#000000; stroke-linecap:round; stroke-linejoin:round; stroke-width:4; stroke-opacity:1; fill:none" points="215.627,1486.45 215.627,1467.55 "/>
<polyline clip-path="url(#clip390)" style="stroke:#000000; stroke-linecap:round; stroke-linejoin:round; stroke-width:4; stroke-opacity:1; fill:none" points="539.975,1486.45 539.975,1467.55 "/>
<polyline clip-path="url(#clip390)" style="stroke:#000000; stroke-linecap:round; stroke-linejoin:round; stroke-width:4; stroke-opacity:1; fill:none" points="864.323,1486.45 864.323,1467.55 "/>
<polyline clip-path="url(#clip390)" style="stroke:#000000; stroke-linecap:round; stroke-linejoin:round; stroke-width:4; stroke-opacity:1; fill:none" points="1188.67,1486.45 1188.67,1467.55 "/>
<polyline clip-path="url(#clip390)" style="stroke:#000000; stroke-linecap:round; stroke-linejoin:round; stroke-width:4; stroke-opacity:1; fill:none" points="1513.02,1486.45 1513.02,1467.55 "/>
<polyline clip-path="url(#clip390)" style="stroke:#000000; stroke-linecap:round; stroke-linejoin:round; stroke-width:4; stroke-opacity:1; fill:none" points="1837.37,1486.45 1837.37,1467.55 "/>
<polyline clip-path="url(#clip390)" style="stroke:#000000; stroke-linecap:round; stroke-linejoin:round; stroke-width:4; stroke-opacity:1; fill:none" points="2161.71,1486.45 2161.71,1467.55 "/>
<path clip-path="url(#clip390)" d="M215.627 1517.37 Q212.016 1517.37 210.187 1520.93 Q208.382 1524.47 208.382 1531.6 Q208.382 1538.71 210.187 1542.27 Q212.016 1545.82 215.627 1545.82 Q219.261 1545.82 221.067 1542.27 Q222.896 1538.71 222.896 1531.6 Q222.896 1524.47 221.067 1520.93 Q219.261 1517.37 215.627 1517.37 M215.627 1513.66 Q221.437 1513.66 224.493 1518.27 Q227.571 1522.85 227.571 1531.6 Q227.571 1540.33 224.493 1544.94 Q221.437 1549.52 215.627 1549.52 Q209.817 1549.52 206.738 1544.94 Q203.683 1540.33 203.683 1531.6 Q203.683 1522.85 206.738 1518.27 Q209.817 1513.66 215.627 1513.66 Z" fill="#000000" fill-rule="nonzero" fill-opacity="1" /><path clip-path="url(#clip390)" d="M514.663 1544.91 L522.302 1544.91 L522.302 1518.55 L513.991 1520.21 L513.991 1515.95 L522.255 1514.29 L526.931 1514.29 L526.931 1544.91 L534.57 1544.91 L534.57 1548.85 L514.663 1548.85 L514.663 1544.91 Z" fill="#000000" fill-rule="nonzero" fill-opacity="1" /><path clip-path="url(#clip390)" d="M554.014 1517.37 Q550.403 1517.37 548.575 1520.93 Q546.769 1524.47 546.769 1531.6 Q546.769 1538.71 548.575 1542.27 Q550.403 1545.82 554.014 1545.82 Q557.649 1545.82 559.454 1542.27 Q561.283 1538.71 561.283 1531.6 Q561.283 1524.47 559.454 1520.93 Q557.649 1517.37 554.014 1517.37 M554.014 1513.66 Q559.824 1513.66 562.88 1518.27 Q565.959 1522.85 565.959 1531.6 Q565.959 1540.33 562.88 1544.94 Q559.824 1549.52 554.014 1549.52 Q548.204 1549.52 545.125 1544.94 Q542.07 1540.33 542.07 1531.6 Q542.07 1522.85 545.125 1518.27 Q548.204 1513.66 554.014 1513.66 Z" fill="#000000" fill-rule="nonzero" fill-opacity="1" /><path clip-path="url(#clip390)" d="M843.096 1544.91 L859.416 1544.91 L859.416 1548.85 L837.471 1548.85 L837.471 1544.91 Q840.133 1542.16 844.717 1537.53 Q849.323 1532.88 850.504 1531.53 Q852.749 1529.01 853.629 1527.27 Q854.531 1525.51 854.531 1523.82 Q854.531 1521.07 852.587 1519.33 Q850.666 1517.6 847.564 1517.6 Q845.365 1517.6 842.911 1518.36 Q840.481 1519.13 837.703 1520.68 L837.703 1515.95 Q840.527 1514.82 842.981 1514.24 Q845.434 1513.66 847.471 1513.66 Q852.842 1513.66 856.036 1516.35 Q859.23 1519.03 859.23 1523.52 Q859.23 1525.65 858.42 1527.57 Q857.633 1529.47 855.527 1532.07 Q854.948 1532.74 851.846 1535.95 Q848.744 1539.15 843.096 1544.91 Z" fill="#000000" fill-rule="nonzero" fill-opacity="1" /><path clip-path="url(#clip390)" d="M879.23 1517.37 Q875.619 1517.37 873.791 1520.93 Q871.985 1524.47 871.985 1531.6 Q871.985 1538.71 873.791 1542.27 Q875.619 1545.82 879.23 1545.82 Q882.865 1545.82 884.67 1542.27 Q886.499 1538.71 886.499 1531.6 Q886.499 1524.47 884.67 1520.93 Q882.865 1517.37 879.23 1517.37 M879.23 1513.66 Q885.041 1513.66 888.096 1518.27 Q891.175 1522.85 891.175 1531.6 Q891.175 1540.33 888.096 1544.94 Q885.041 1549.52 879.23 1549.52 Q873.42 1549.52 870.342 1544.94 Q867.286 1540.33 867.286 1531.6 Q867.286 1522.85 870.342 1518.27 Q873.42 1513.66 879.23 1513.66 Z" fill="#000000" fill-rule="nonzero" fill-opacity="1" /><path clip-path="url(#clip390)" d="M1177.51 1530.21 Q1180.87 1530.93 1182.75 1533.2 Q1184.64 1535.47 1184.64 1538.8 Q1184.64 1543.92 1181.12 1546.72 Q1177.61 1549.52 1171.12 1549.52 Q1168.95 1549.52 1166.63 1549.08 Q1164.34 1548.66 1161.89 1547.81 L1161.89 1543.29 Q1163.83 1544.43 1166.15 1545.01 Q1168.46 1545.58 1170.99 1545.58 Q1175.38 1545.58 1177.68 1543.85 Q1179.99 1542.11 1179.99 1538.8 Q1179.99 1535.75 1177.84 1534.03 Q1175.71 1532.3 1171.89 1532.3 L1167.86 1532.3 L1167.86 1528.45 L1172.07 1528.45 Q1175.52 1528.45 1177.35 1527.09 Q1179.18 1525.7 1179.18 1523.11 Q1179.18 1520.45 1177.28 1519.03 Q1175.41 1517.6 1171.89 1517.6 Q1169.97 1517.6 1167.77 1518.01 Q1165.57 1518.43 1162.93 1519.31 L1162.93 1515.14 Q1165.59 1514.4 1167.91 1514.03 Q1170.25 1513.66 1172.31 1513.66 Q1177.63 1513.66 1180.73 1516.09 Q1183.83 1518.5 1183.83 1522.62 Q1183.83 1525.49 1182.19 1527.48 Q1180.55 1529.45 1177.51 1530.21 Z" fill="#000000" fill-rule="nonzero" fill-opacity="1" /><path clip-path="url(#clip390)" d="M1203.51 1517.37 Q1199.9 1517.37 1198.07 1520.93 Q1196.26 1524.47 1196.26 1531.6 Q1196.26 1538.71 1198.07 1542.27 Q1199.9 1545.82 1203.51 1545.82 Q1207.14 1545.82 1208.95 1542.27 Q1210.78 1538.71 1210.78 1531.6 Q1210.78 1524.47 1208.95 1520.93 Q1207.14 1517.37 1203.51 1517.37 M1203.51 1513.66 Q1209.32 1513.66 1212.37 1518.27 Q1215.45 1522.85 1215.45 1531.6 Q1215.45 1540.33 1212.37 1544.94 Q1209.32 1549.52 1203.51 1549.52 Q1197.7 1549.52 1194.62 1544.94 Q1191.56 1540.33 1191.56 1531.6 Q1191.56 1522.85 1194.62 1518.27 Q1197.7 1513.66 1203.51 1513.66 Z" fill="#000000" fill-rule="nonzero" fill-opacity="1" /><path clip-path="url(#clip390)" d="M1501.19 1518.36 L1489.38 1536.81 L1501.19 1536.81 L1501.19 1518.36 M1499.96 1514.29 L1505.84 1514.29 L1505.84 1536.81 L1510.77 1536.81 L1510.77 1540.7 L1505.84 1540.7 L1505.84 1548.85 L1501.19 1548.85 L1501.19 1540.7 L1485.59 1540.7 L1485.59 1536.19 L1499.96 1514.29 Z" fill="#000000" fill-rule="nonzero" fill-opacity="1" /><path clip-path="url(#clip390)" d="M1528.51 1517.37 Q1524.89 1517.37 1523.07 1520.93 Q1521.26 1524.47 1521.26 1531.6 Q1521.26 1538.71 1523.07 1542.27 Q1524.89 1545.82 1528.51 1545.82 Q1532.14 1545.82 1533.94 1542.27 Q1535.77 1538.71 1535.77 1531.6 Q1535.77 1524.47 1533.94 1520.93 Q1532.14 1517.37 1528.51 1517.37 M1528.51 1513.66 Q1534.32 1513.66 1537.37 1518.27 Q1540.45 1522.85 1540.45 1531.6 Q1540.45 1540.33 1537.37 1544.94 Q1534.32 1549.52 1528.51 1549.52 Q1522.69 1549.52 1519.62 1544.94 Q1516.56 1540.33 1516.56 1531.6 Q1516.56 1522.85 1519.62 1518.27 Q1522.69 1513.66 1528.51 1513.66 Z" fill="#000000" fill-rule="nonzero" fill-opacity="1" /><path clip-path="url(#clip390)" d="M1812.07 1514.29 L1830.42 1514.29 L1830.42 1518.22 L1816.35 1518.22 L1816.35 1526.7 Q1817.37 1526.35 1818.39 1526.19 Q1819.4 1526 1820.42 1526 Q1826.21 1526 1829.59 1529.17 Q1832.97 1532.34 1832.97 1537.76 Q1832.97 1543.34 1829.5 1546.44 Q1826.02 1549.52 1819.71 1549.52 Q1817.53 1549.52 1815.26 1549.15 Q1813.02 1548.78 1810.61 1548.04 L1810.61 1543.34 Q1812.69 1544.47 1814.91 1545.03 Q1817.14 1545.58 1819.61 1545.58 Q1823.62 1545.58 1825.95 1543.48 Q1828.29 1541.37 1828.29 1537.76 Q1828.29 1534.15 1825.95 1532.04 Q1823.62 1529.94 1819.61 1529.94 Q1817.74 1529.94 1815.86 1530.35 Q1814.01 1530.77 1812.07 1531.65 L1812.07 1514.29 Z" fill="#000000" fill-rule="nonzero" fill-opacity="1" /><path clip-path="url(#clip390)" d="M1852.18 1517.37 Q1848.57 1517.37 1846.74 1520.93 Q1844.94 1524.47 1844.94 1531.6 Q1844.94 1538.71 1846.74 1542.27 Q1848.57 1545.82 1852.18 1545.82 Q1855.82 1545.82 1857.62 1542.27 Q1859.45 1538.71 1859.45 1531.6 Q1859.45 1524.47 1857.62 1520.93 Q1855.82 1517.37 1852.18 1517.37 M1852.18 1513.66 Q1857.99 1513.66 1861.05 1518.27 Q1864.13 1522.85 1864.13 1531.6 Q1864.13 1540.33 1861.05 1544.94 Q1857.99 1549.52 1852.18 1549.52 Q1846.37 1549.52 1843.29 1544.94 Q1840.24 1540.33 1840.24 1531.6 Q1840.24 1522.85 1843.29 1518.27 Q1846.37 1513.66 1852.18 1513.66 Z" fill="#000000" fill-rule="nonzero" fill-opacity="1" /><path clip-path="url(#clip390)" d="M2147.12 1529.7 Q2143.97 1529.7 2142.12 1531.86 Q2140.29 1534.01 2140.29 1537.76 Q2140.29 1541.49 2142.12 1543.66 Q2143.97 1545.82 2147.12 1545.82 Q2150.27 1545.82 2152.1 1543.66 Q2153.95 1541.49 2153.95 1537.76 Q2153.95 1534.01 2152.1 1531.86 Q2150.27 1529.7 2147.12 1529.7 M2156.4 1515.05 L2156.4 1519.31 Q2154.64 1518.48 2152.84 1518.04 Q2151.06 1517.6 2149.3 1517.6 Q2144.67 1517.6 2142.21 1520.72 Q2139.78 1523.85 2139.43 1530.17 Q2140.8 1528.15 2142.86 1527.09 Q2144.92 1526 2147.4 1526 Q2152.61 1526 2155.62 1529.17 Q2158.65 1532.32 2158.65 1537.76 Q2158.65 1543.08 2155.5 1546.3 Q2152.35 1549.52 2147.12 1549.52 Q2141.12 1549.52 2137.95 1544.94 Q2134.78 1540.33 2134.78 1531.6 Q2134.78 1523.41 2138.67 1518.55 Q2142.56 1513.66 2149.11 1513.66 Q2150.87 1513.66 2152.65 1514.01 Q2154.46 1514.36 2156.4 1515.05 Z" fill="#000000" fill-rule="nonzero" fill-opacity="1" /><path clip-path="url(#clip390)" d="M2176.7 1517.37 Q2173.09 1517.37 2171.26 1520.93 Q2169.46 1524.47 2169.46 1531.6 Q2169.46 1538.71 2171.26 1542.27 Q2173.09 1545.82 2176.7 1545.82 Q2180.34 1545.82 2182.14 1542.27 Q2183.97 1538.71 2183.97 1531.6 Q2183.97 1524.47 2182.14 1520.93 Q2180.34 1517.37 2176.7 1517.37 M2176.7 1513.66 Q2182.51 1513.66 2185.57 1518.27 Q2188.65 1522.85 2188.65 1531.6 Q2188.65 1540.33 2185.57 1544.94 Q2182.51 1549.52 2176.7 1549.52 Q2170.89 1549.52 2167.81 1544.94 Q2164.76 1540.33 2164.76 1531.6 Q2164.76 1522.85 2167.81 1518.27 Q2170.89 1513.66 2176.7 1513.66 Z" fill="#000000" fill-rule="nonzero" fill-opacity="1" /><polyline clip-path="url(#clip392)" style="stroke:#000000; stroke-linecap:round; stroke-linejoin:round; stroke-width:2; stroke-opacity:0.1; fill:none" points="186.76,1434.39 2352.76,1434.39 "/>
<polyline clip-path="url(#clip392)" style="stroke:#000000; stroke-linecap:round; stroke-linejoin:round; stroke-width:2; stroke-opacity:0.1; fill:none" points="186.76,1122.55 2352.76,1122.55 "/>
<polyline clip-path="url(#clip392)" style="stroke:#000000; stroke-linecap:round; stroke-linejoin:round; stroke-width:2; stroke-opacity:0.1; fill:none" points="186.76,810.714 2352.76,810.714 "/>
<polyline clip-path="url(#clip392)" style="stroke:#000000; stroke-linecap:round; stroke-linejoin:round; stroke-width:2; stroke-opacity:0.1; fill:none" points="186.76,498.879 2352.76,498.879 "/>
<polyline clip-path="url(#clip392)" style="stroke:#000000; stroke-linecap:round; stroke-linejoin:round; stroke-width:2; stroke-opacity:0.1; fill:none" points="186.76,187.043 2352.76,187.043 "/>
<polyline clip-path="url(#clip390)" style="stroke:#000000; stroke-linecap:round; stroke-linejoin:round; stroke-width:4; stroke-opacity:1; fill:none" points="186.76,1486.45 186.76,47.2441 "/>
<polyline clip-path="url(#clip390)" style="stroke:#000000; stroke-linecap:round; stroke-linejoin:round; stroke-width:4; stroke-opacity:1; fill:none" points="186.76,1434.39 205.658,1434.39 "/>
<polyline clip-path="url(#clip390)" style="stroke:#000000; stroke-linecap:round; stroke-linejoin:round; stroke-width:4; stroke-opacity:1; fill:none" points="186.76,1122.55 205.658,1122.55 "/>
<polyline clip-path="url(#clip390)" style="stroke:#000000; stroke-linecap:round; stroke-linejoin:round; stroke-width:4; stroke-opacity:1; fill:none" points="186.76,810.714 205.658,810.714 "/>
<polyline clip-path="url(#clip390)" style="stroke:#000000; stroke-linecap:round; stroke-linejoin:round; stroke-width:4; stroke-opacity:1; fill:none" points="186.76,498.879 205.658,498.879 "/>
<polyline clip-path="url(#clip390)" style="stroke:#000000; stroke-linecap:round; stroke-linejoin:round; stroke-width:4; stroke-opacity:1; fill:none" points="186.76,187.043 205.658,187.043 "/>
<path clip-path="url(#clip390)" d="M62.9365 1420.18 Q59.3254 1420.18 57.4967 1423.75 Q55.6912 1427.29 55.6912 1434.42 Q55.6912 1441.53 57.4967 1445.09 Q59.3254 1448.63 62.9365 1448.63 Q66.5707 1448.63 68.3763 1445.09 Q70.205 1441.53 70.205 1434.42 Q70.205 1427.29 68.3763 1423.75 Q66.5707 1420.18 62.9365 1420.18 M62.9365 1416.48 Q68.7467 1416.48 71.8022 1421.09 Q74.8809 1425.67 74.8809 1434.42 Q74.8809 1443.15 71.8022 1447.75 Q68.7467 1452.34 62.9365 1452.34 Q57.1264 1452.34 54.0477 1447.75 Q50.9921 1443.15 50.9921 1434.42 Q50.9921 1425.67 54.0477 1421.09 Q57.1264 1416.48 62.9365 1416.48 Z" fill="#000000" fill-rule="nonzero" fill-opacity="1" /><path clip-path="url(#clip390)" d="M83.0984 1445.79 L87.9827 1445.79 L87.9827 1451.67 L83.0984 1451.67 L83.0984 1445.79 Z" fill="#000000" fill-rule="nonzero" fill-opacity="1" /><path clip-path="url(#clip390)" d="M98.978 1447.73 L106.617 1447.73 L106.617 1421.37 L98.3067 1423.03 L98.3067 1418.77 L106.571 1417.11 L111.246 1417.11 L111.246 1447.73 L118.885 1447.73 L118.885 1451.67 L98.978 1451.67 L98.978 1447.73 Z" fill="#000000" fill-rule="nonzero" fill-opacity="1" /><path clip-path="url(#clip390)" d="M141.177 1421.18 L129.371 1439.63 L141.177 1439.63 L141.177 1421.18 M139.95 1417.11 L145.83 1417.11 L145.83 1439.63 L150.76 1439.63 L150.76 1443.52 L145.83 1443.52 L145.83 1451.67 L141.177 1451.67 L141.177 1443.52 L125.575 1443.52 L125.575 1439 L139.95 1417.11 Z" fill="#000000" fill-rule="nonzero" fill-opacity="1" /><path clip-path="url(#clip390)" d="M63.2606 1108.35 Q59.6495 1108.35 57.8208 1111.91 Q56.0152 1115.46 56.0152 1122.58 Q56.0152 1129.69 57.8208 1133.26 Q59.6495 1136.8 63.2606 1136.8 Q66.8948 1136.8 68.7004 1133.26 Q70.5291 1129.69 70.5291 1122.58 Q70.5291 1115.46 68.7004 1111.91 Q66.8948 1108.35 63.2606 1108.35 M63.2606 1104.65 Q69.0707 1104.65 72.1263 1109.25 Q75.205 1113.83 75.205 1122.58 Q75.205 1131.31 72.1263 1135.92 Q69.0707 1140.5 63.2606 1140.5 Q57.4504 1140.5 54.3717 1135.92 Q51.3162 1131.31 51.3162 1122.58 Q51.3162 1113.83 54.3717 1109.25 Q57.4504 1104.65 63.2606 1104.65 Z" fill="#000000" fill-rule="nonzero" fill-opacity="1" /><path clip-path="url(#clip390)" d="M83.4225 1133.95 L88.3067 1133.95 L88.3067 1139.83 L83.4225 1139.83 L83.4225 1133.95 Z" fill="#000000" fill-rule="nonzero" fill-opacity="1" /><path clip-path="url(#clip390)" d="M99.3021 1135.89 L106.941 1135.89 L106.941 1109.53 L98.6308 1111.2 L98.6308 1106.94 L106.895 1105.27 L111.571 1105.27 L111.571 1135.89 L119.209 1135.89 L119.209 1139.83 L99.3021 1139.83 L99.3021 1135.89 Z" fill="#000000" fill-rule="nonzero" fill-opacity="1" /><path clip-path="url(#clip390)" d="M139.232 1120.69 Q136.084 1120.69 134.232 1122.84 Q132.404 1124.99 132.404 1128.74 Q132.404 1132.47 134.232 1134.64 Q136.084 1136.8 139.232 1136.8 Q142.381 1136.8 144.209 1134.64 Q146.061 1132.47 146.061 1128.74 Q146.061 1124.99 144.209 1122.84 Q142.381 1120.69 139.232 1120.69 M148.515 1106.03 L148.515 1110.29 Q146.756 1109.46 144.95 1109.02 Q143.168 1108.58 141.408 1108.58 Q136.779 1108.58 134.325 1111.71 Q131.894 1114.83 131.547 1121.15 Q132.913 1119.14 134.973 1118.07 Q137.033 1116.98 139.51 1116.98 Q144.718 1116.98 147.728 1120.15 Q150.76 1123.3 150.76 1128.74 Q150.76 1134.07 147.612 1137.28 Q144.464 1140.5 139.232 1140.5 Q133.237 1140.5 130.066 1135.92 Q126.894 1131.31 126.894 1122.58 Q126.894 1114.39 130.783 1109.53 Q134.672 1104.65 141.223 1104.65 Q142.982 1104.65 144.765 1104.99 Q146.57 1105.34 148.515 1106.03 Z" fill="#000000" fill-rule="nonzero" fill-opacity="1" /><path clip-path="url(#clip390)" d="M63.5152 796.513 Q59.9041 796.513 58.0754 800.078 Q56.2699 803.62 56.2699 810.749 Q56.2699 817.856 58.0754 821.42 Q59.9041 824.962 63.5152 824.962 Q67.1494 824.962 68.955 821.42 Q70.7837 817.856 70.7837 810.749 Q70.7837 803.62 68.955 800.078 Q67.1494 796.513 63.5152 796.513 M63.5152 792.809 Q69.3254 792.809 72.3809 797.416 Q75.4596 801.999 75.4596 810.749 Q75.4596 819.476 72.3809 824.082 Q69.3254 828.666 63.5152 828.666 Q57.7051 828.666 54.6264 824.082 Q51.5708 819.476 51.5708 810.749 Q51.5708 801.999 54.6264 797.416 Q57.7051 792.809 63.5152 792.809 Z" fill="#000000" fill-rule="nonzero" fill-opacity="1" /><path clip-path="url(#clip390)" d="M83.6771 822.115 L88.5614 822.115 L88.5614 827.994 L83.6771 827.994 L83.6771 822.115 Z" fill="#000000" fill-rule="nonzero" fill-opacity="1" /><path clip-path="url(#clip390)" d="M99.5567 824.059 L107.196 824.059 L107.196 797.694 L98.8854 799.36 L98.8854 795.101 L107.149 793.434 L111.825 793.434 L111.825 824.059 L119.464 824.059 L119.464 827.994 L99.5567 827.994 L99.5567 824.059 Z" fill="#000000" fill-rule="nonzero" fill-opacity="1" /><path clip-path="url(#clip390)" d="M138.908 811.583 Q135.575 811.583 133.654 813.365 Q131.756 815.147 131.756 818.272 Q131.756 821.397 133.654 823.18 Q135.575 824.962 138.908 824.962 Q142.242 824.962 144.163 823.18 Q146.084 821.374 146.084 818.272 Q146.084 815.147 144.163 813.365 Q142.265 811.583 138.908 811.583 M134.232 809.592 Q131.223 808.851 129.533 806.791 Q127.867 804.731 127.867 801.768 Q127.867 797.624 130.807 795.217 Q133.769 792.809 138.908 792.809 Q144.07 792.809 147.01 795.217 Q149.95 797.624 149.95 801.768 Q149.95 804.731 148.26 806.791 Q146.593 808.851 143.607 809.592 Q146.987 810.379 148.862 812.67 Q150.76 814.962 150.76 818.272 Q150.76 823.295 147.681 825.981 Q144.626 828.666 138.908 828.666 Q133.191 828.666 130.112 825.981 Q127.057 823.295 127.057 818.272 Q127.057 814.962 128.955 812.67 Q130.853 810.379 134.232 809.592 M132.519 802.208 Q132.519 804.893 134.186 806.397 Q135.876 807.902 138.908 807.902 Q141.918 807.902 143.607 806.397 Q145.32 804.893 145.32 802.208 Q145.32 799.522 143.607 798.018 Q141.918 796.513 138.908 796.513 Q135.876 796.513 134.186 798.018 Q132.519 799.522 132.519 802.208 Z" fill="#000000" fill-rule="nonzero" fill-opacity="1" /><path clip-path="url(#clip390)" d="M63.4226 484.677 Q59.8115 484.677 57.9828 488.242 Q56.1773 491.784 56.1773 498.913 Q56.1773 506.02 57.9828 509.585 Q59.8115 513.126 63.4226 513.126 Q67.0569 513.126 68.8624 509.585 Q70.6911 506.02 70.6911 498.913 Q70.6911 491.784 68.8624 488.242 Q67.0569 484.677 63.4226 484.677 M63.4226 480.974 Q69.2328 480.974 72.2883 485.58 Q75.367 490.164 75.367 498.913 Q75.367 507.64 72.2883 512.247 Q69.2328 516.83 63.4226 516.83 Q57.6125 516.83 54.5338 512.247 Q51.4782 507.64 51.4782 498.913 Q51.4782 490.164 54.5338 485.58 Q57.6125 480.974 63.4226 480.974 Z" fill="#000000" fill-rule="nonzero" fill-opacity="1" /><path clip-path="url(#clip390)" d="M83.5845 510.279 L88.4688 510.279 L88.4688 516.159 L83.5845 516.159 L83.5845 510.279 Z" fill="#000000" fill-rule="nonzero" fill-opacity="1" /><path clip-path="url(#clip390)" d="M102.682 512.224 L119.001 512.224 L119.001 516.159 L97.0567 516.159 L97.0567 512.224 Q99.7187 509.469 104.302 504.839 Q108.908 500.187 110.089 498.844 Q112.334 496.321 113.214 494.585 Q114.117 492.826 114.117 491.136 Q114.117 488.381 112.172 486.645 Q110.251 484.909 107.149 484.909 Q104.95 484.909 102.496 485.673 Q100.066 486.437 97.2882 487.988 L97.2882 483.265 Q100.112 482.131 102.566 481.552 Q105.02 480.974 107.057 480.974 Q112.427 480.974 115.621 483.659 Q118.816 486.344 118.816 490.835 Q118.816 492.964 118.006 494.886 Q117.219 496.784 115.112 499.376 Q114.533 500.048 111.432 503.265 Q108.33 506.46 102.682 512.224 Z" fill="#000000" fill-rule="nonzero" fill-opacity="1" /><path clip-path="url(#clip390)" d="M138.816 484.677 Q135.205 484.677 133.376 488.242 Q131.57 491.784 131.57 498.913 Q131.57 506.02 133.376 509.585 Q135.205 513.126 138.816 513.126 Q142.45 513.126 144.256 509.585 Q146.084 506.02 146.084 498.913 Q146.084 491.784 144.256 488.242 Q142.45 484.677 138.816 484.677 M138.816 480.974 Q144.626 480.974 147.681 485.58 Q150.76 490.164 150.76 498.913 Q150.76 507.64 147.681 512.247 Q144.626 516.83 138.816 516.83 Q133.006 516.83 129.927 512.247 Q126.871 507.64 126.871 498.913 Q126.871 490.164 129.927 485.58 Q133.006 480.974 138.816 480.974 Z" fill="#000000" fill-rule="nonzero" fill-opacity="1" /><path clip-path="url(#clip390)" d="M65.0198 172.842 Q61.4087 172.842 59.58 176.407 Q57.7745 179.948 57.7745 187.078 Q57.7745 194.184 59.58 197.749 Q61.4087 201.291 65.0198 201.291 Q68.6541 201.291 70.4596 197.749 Q72.2883 194.184 72.2883 187.078 Q72.2883 179.948 70.4596 176.407 Q68.6541 172.842 65.0198 172.842 M65.0198 169.138 Q70.83 169.138 73.8855 173.745 Q76.9642 178.328 76.9642 187.078 Q76.9642 195.805 73.8855 200.411 Q70.83 204.994 65.0198 204.994 Q59.2097 204.994 56.131 200.411 Q53.0754 195.805 53.0754 187.078 Q53.0754 178.328 56.131 173.745 Q59.2097 169.138 65.0198 169.138 Z" fill="#000000" fill-rule="nonzero" fill-opacity="1" /><path clip-path="url(#clip390)" d="M85.1818 198.443 L90.066 198.443 L90.066 204.323 L85.1818 204.323 L85.1818 198.443 Z" fill="#000000" fill-rule="nonzero" fill-opacity="1" /><path clip-path="url(#clip390)" d="M104.279 200.388 L120.598 200.388 L120.598 204.323 L98.6539 204.323 L98.6539 200.388 Q101.316 197.633 105.899 193.004 Q110.506 188.351 111.686 187.008 Q113.932 184.485 114.811 182.749 Q115.714 180.99 115.714 179.3 Q115.714 176.545 113.77 174.809 Q111.848 173.073 108.746 173.073 Q106.547 173.073 104.094 173.837 Q101.663 174.601 98.8854 176.152 L98.8854 171.43 Q101.709 170.295 104.163 169.717 Q106.617 169.138 108.654 169.138 Q114.024 169.138 117.219 171.823 Q120.413 174.508 120.413 178.999 Q120.413 181.129 119.603 183.05 Q118.816 184.948 116.709 187.541 Q116.131 188.212 113.029 191.43 Q109.927 194.624 104.279 200.388 Z" fill="#000000" fill-rule="nonzero" fill-opacity="1" /><path clip-path="url(#clip390)" d="M134.441 200.388 L150.76 200.388 L150.76 204.323 L128.816 204.323 L128.816 200.388 Q131.478 197.633 136.061 193.004 Q140.668 188.351 141.848 187.008 Q144.093 184.485 144.973 182.749 Q145.876 180.99 145.876 179.3 Q145.876 176.545 143.931 174.809 Q142.01 173.073 138.908 173.073 Q136.709 173.073 134.256 173.837 Q131.825 174.601 129.047 176.152 L129.047 171.43 Q131.871 170.295 134.325 169.717 Q136.779 169.138 138.816 169.138 Q144.186 169.138 147.38 171.823 Q150.575 174.508 150.575 178.999 Q150.575 181.129 149.765 183.05 Q148.978 184.948 146.871 187.541 Q146.293 188.212 143.191 191.43 Q140.089 194.624 134.441 200.388 Z" fill="#000000" fill-rule="nonzero" fill-opacity="1" /><polyline clip-path="url(#clip392)" style="stroke:#009af9; stroke-linecap:round; stroke-linejoin:round; stroke-width:4; stroke-opacity:1; fill:none" points="248.062,505.882 280.497,394.727 312.931,520.478 345.366,572.395 377.801,747.089 410.236,867.603 442.671,840.939 475.105,735.392 507.54,705.728 539.975,854.372 572.41,978.083 604.845,775.889 637.279,984.356 669.714,882.353 702.149,972.416 734.584,957.513 767.019,1088.85 799.453,986.24 831.888,919.613 864.323,1081.37 896.758,1083.44 929.193,1165.92 961.627,1151.27 994.062,1155.91 1026.5,1213.25 1058.93,1063.08 1091.37,1161.79 1123.8,1168.2 1156.24,1158.69 1188.67,1119.83 1221.11,1070.65 1253.54,1288.36 1285.98,1246.09 1318.41,1051.7 1350.85,1174.03 1383.28,1215.44 1415.71,1191.36 1448.15,1173.07 1480.58,1255.15 1513.02,1282.81 1545.45,1307.81 1577.89,1310.1 1610.32,1385.81 1642.76,1305.49 1675.19,1183.74 1707.63,1176.21 1740.06,1370.07 1772.5,1323.3 1804.93,1348.7 1837.37,1263.24 1869.8,1187.81 1902.24,1313.08 1934.67,1264.83 1967.11,1324.97 1999.54,1322.52 2031.98,1400.23 2064.41,1412.55 2096.85,1256.26 2129.28,1385.2 2161.71,1445.72 2194.15,1289.38 2226.58,1390.99 2259.02,1360.86 2291.45,1145.01 "/>
<polyline clip-path="url(#clip392)" style="stroke:#e26f46; stroke-linecap:round; stroke-linejoin:round; stroke-width:4; stroke-opacity:1; fill:none" points="248.062,129.844 280.497,164.503 312.931,87.9763 345.366,138.215 377.801,200.953 410.236,205.368 442.671,374.329 475.105,288.497 507.54,249.074 539.975,305.484 572.41,336.003 604.845,234.98 637.279,316.355 669.714,457.818 702.149,494.991 734.584,362.134 767.019,421.475 799.453,451.037 831.888,298.156 864.323,438.221 896.758,565.351 929.193,497.596 961.627,443.796 994.062,490.037 1026.5,531.391 1058.93,512.186 1091.37,563.489 1123.8,404.637 1156.24,495.893 1188.67,541.398 1221.11,438.616 1253.54,472.182 1285.98,617.982 1318.41,472.23 1350.85,424.681 1383.28,447.231 1415.71,497.967 1448.15,525.337 1480.58,396.632 1513.02,560.306 1545.45,443.73 1577.89,417.842 1610.32,472.348 1642.76,397.213 1675.19,662.735 1707.63,408.068 1740.06,504.531 1772.5,506.975 1804.93,440.821 1837.37,409.679 1869.8,567.014 1902.24,547.15 1934.67,546.333 1967.11,742.058 1999.54,560.825 2031.98,544.521 2064.41,447.358 2096.85,568.494 2129.28,605.452 2161.71,549.149 2194.15,518.928 2226.58,584.774 2259.02,586.852 2291.45,422.391 "/>
<path clip-path="url(#clip390)" d="M1842.24 250.738 L2280.56 250.738 L2280.56 95.2176 L1842.24 95.2176  Z" fill="#ffffff" fill-rule="evenodd" fill-opacity="1"/>
<polyline clip-path="url(#clip390)" style="stroke:#000000; stroke-linecap:round; stroke-linejoin:round; stroke-width:4; stroke-opacity:1; fill:none" points="1842.24,250.738 2280.56,250.738 2280.56,95.2176 1842.24,95.2176 1842.24,250.738 "/>
<polyline clip-path="url(#clip390)" style="stroke:#009af9; stroke-linecap:round; stroke-linejoin:round; stroke-width:4; stroke-opacity:1; fill:none" points="1866.31,147.058 2010.71,147.058 "/>
<path clip-path="url(#clip390)" d="M2049.96 142.393 Q2049.25 141.977 2048.39 141.791 Q2047.56 141.583 2046.54 141.583 Q2042.93 141.583 2040.98 143.944 Q2039.06 146.282 2039.06 150.68 L2039.06 164.338 L2034.78 164.338 L2034.78 138.412 L2039.06 138.412 L2039.06 142.44 Q2040.4 140.078 2042.56 138.944 Q2044.71 137.787 2047.79 137.787 Q2048.23 137.787 2048.76 137.856 Q2049.29 137.903 2049.94 138.018 L2049.96 142.393 Z" fill="#000000" fill-rule="nonzero" fill-opacity="1" /><path clip-path="url(#clip390)" d="M2066.21 151.305 Q2061.05 151.305 2059.06 152.486 Q2057.07 153.666 2057.07 156.514 Q2057.07 158.782 2058.55 160.125 Q2060.06 161.444 2062.62 161.444 Q2066.17 161.444 2068.3 158.944 Q2070.45 156.421 2070.45 152.254 L2070.45 151.305 L2066.21 151.305 M2074.71 149.546 L2074.71 164.338 L2070.45 164.338 L2070.45 160.402 Q2068.99 162.763 2066.81 163.898 Q2064.64 165.009 2061.49 165.009 Q2057.51 165.009 2055.15 162.787 Q2052.81 160.541 2052.81 156.791 Q2052.81 152.416 2055.73 150.194 Q2058.67 147.972 2064.48 147.972 L2070.45 147.972 L2070.45 147.555 Q2070.45 144.615 2068.5 143.018 Q2066.58 141.398 2063.09 141.398 Q2060.87 141.398 2058.76 141.93 Q2056.65 142.463 2054.71 143.527 L2054.71 139.592 Q2057.05 138.69 2059.25 138.25 Q2061.44 137.787 2063.53 137.787 Q2069.15 137.787 2071.93 140.703 Q2074.71 143.62 2074.71 149.546 Z" fill="#000000" fill-rule="nonzero" fill-opacity="1" /><path clip-path="url(#clip390)" d="M2081 138.412 L2085.26 138.412 L2090.59 158.643 L2095.89 138.412 L2100.91 138.412 L2106.24 158.643 L2111.54 138.412 L2115.8 138.412 L2109.01 164.338 L2103.99 164.338 L2098.41 143.088 L2092.81 164.338 L2087.79 164.338 L2081 138.412 Z" fill="#000000" fill-rule="nonzero" fill-opacity="1" /><path clip-path="url(#clip390)" d="M2141.95 172.208 L2141.95 175.518 L2117.32 175.518 L2117.32 172.208 L2141.95 172.208 Z" fill="#000000" fill-rule="nonzero" fill-opacity="1" /><path clip-path="url(#clip390)" d="M2164.61 139.407 L2164.61 143.389 Q2162.81 142.393 2160.98 141.907 Q2159.18 141.398 2157.32 141.398 Q2153.18 141.398 2150.89 144.037 Q2148.6 146.652 2148.6 151.398 Q2148.6 156.143 2150.89 158.782 Q2153.18 161.398 2157.32 161.398 Q2159.18 161.398 2160.98 160.912 Q2162.81 160.402 2164.61 159.407 L2164.61 163.342 Q2162.83 164.176 2160.91 164.592 Q2159.01 165.009 2156.86 165.009 Q2151 165.009 2147.55 161.328 Q2144.11 157.648 2144.11 151.398 Q2144.11 145.055 2147.58 141.421 Q2151.07 137.787 2157.14 137.787 Q2159.11 137.787 2160.98 138.203 Q2162.86 138.597 2164.61 139.407 Z" fill="#000000" fill-rule="nonzero" fill-opacity="1" /><path clip-path="url(#clip390)" d="M2182.07 141.398 Q2178.64 141.398 2176.65 144.083 Q2174.66 146.745 2174.66 151.398 Q2174.66 156.051 2176.63 158.736 Q2178.62 161.398 2182.07 161.398 Q2185.47 161.398 2187.46 158.713 Q2189.45 156.027 2189.45 151.398 Q2189.45 146.791 2187.46 144.106 Q2185.47 141.398 2182.07 141.398 M2182.07 137.787 Q2187.62 137.787 2190.8 141.398 Q2193.97 145.009 2193.97 151.398 Q2193.97 157.764 2190.8 161.398 Q2187.62 165.009 2182.07 165.009 Q2176.49 165.009 2173.32 161.398 Q2170.17 157.764 2170.17 151.398 Q2170.17 145.009 2173.32 141.398 Q2176.49 137.787 2182.07 137.787 Z" fill="#000000" fill-rule="nonzero" fill-opacity="1" /><path clip-path="url(#clip390)" d="M2217.55 139.176 L2217.55 143.203 Q2215.75 142.277 2213.8 141.815 Q2211.86 141.352 2209.78 141.352 Q2206.61 141.352 2205.01 142.324 Q2203.43 143.296 2203.43 145.24 Q2203.43 146.722 2204.57 147.578 Q2205.7 148.412 2209.13 149.176 L2210.59 149.5 Q2215.12 150.472 2217.02 152.254 Q2218.94 154.014 2218.94 157.185 Q2218.94 160.796 2216.07 162.902 Q2213.23 165.009 2208.23 165.009 Q2206.14 165.009 2203.87 164.592 Q2201.63 164.199 2199.13 163.388 L2199.13 158.99 Q2201.49 160.217 2203.78 160.842 Q2206.07 161.444 2208.32 161.444 Q2211.33 161.444 2212.95 160.426 Q2214.57 159.384 2214.57 157.509 Q2214.57 155.773 2213.39 154.847 Q2212.23 153.921 2208.27 153.064 L2206.79 152.717 Q2202.83 151.884 2201.07 150.171 Q2199.31 148.435 2199.31 145.426 Q2199.31 141.768 2201.91 139.778 Q2204.5 137.787 2209.27 137.787 Q2211.63 137.787 2213.71 138.134 Q2215.8 138.481 2217.55 139.176 Z" fill="#000000" fill-rule="nonzero" fill-opacity="1" /><path clip-path="url(#clip390)" d="M2229.94 131.051 L2229.94 138.412 L2238.71 138.412 L2238.71 141.722 L2229.94 141.722 L2229.94 155.796 Q2229.94 158.967 2230.8 159.87 Q2231.67 160.773 2234.34 160.773 L2238.71 160.773 L2238.71 164.338 L2234.34 164.338 Q2229.41 164.338 2227.53 162.509 Q2225.66 160.657 2225.66 155.796 L2225.66 141.722 L2222.53 141.722 L2222.53 138.412 L2225.66 138.412 L2225.66 131.051 L2229.94 131.051 Z" fill="#000000" fill-rule="nonzero" fill-opacity="1" /><polyline clip-path="url(#clip390)" style="stroke:#e26f46; stroke-linecap:round; stroke-linejoin:round; stroke-width:4; stroke-opacity:1; fill:none" points="1866.31,198.898 2010.71,198.898 "/>
<path clip-path="url(#clip390)" d="M2053.69 202.914 Q2053.69 198.284 2051.77 195.738 Q2049.87 193.192 2046.42 193.192 Q2043 193.192 2041.07 195.738 Q2039.18 198.284 2039.18 202.914 Q2039.18 207.52 2041.07 210.066 Q2043 212.613 2046.42 212.613 Q2049.87 212.613 2051.77 210.066 Q2053.69 207.52 2053.69 202.914 M2057.95 212.96 Q2057.95 219.58 2055.01 222.798 Q2052.07 226.039 2046 226.039 Q2043.76 226.039 2041.77 225.691 Q2039.78 225.367 2037.9 224.673 L2037.9 220.529 Q2039.78 221.548 2041.61 222.034 Q2043.44 222.52 2045.33 222.52 Q2049.52 222.52 2051.61 220.321 Q2053.69 218.145 2053.69 213.724 L2053.69 211.617 Q2052.37 213.909 2050.31 215.043 Q2048.25 216.178 2045.38 216.178 Q2040.61 216.178 2037.69 212.543 Q2034.78 208.909 2034.78 202.914 Q2034.78 196.895 2037.69 193.261 Q2040.61 189.627 2045.38 189.627 Q2048.25 189.627 2050.31 190.761 Q2052.37 191.895 2053.69 194.187 L2053.69 190.252 L2057.95 190.252 L2057.95 212.96 Z" fill="#000000" fill-rule="nonzero" fill-opacity="1" /><path clip-path="url(#clip390)" d="M2066.28 205.946 L2066.28 190.252 L2070.54 190.252 L2070.54 205.784 Q2070.54 209.465 2071.98 211.316 Q2073.41 213.145 2076.28 213.145 Q2079.73 213.145 2081.72 210.946 Q2083.74 208.747 2083.74 204.951 L2083.74 190.252 L2087.99 190.252 L2087.99 216.178 L2083.74 216.178 L2083.74 212.196 Q2082.18 214.557 2080.12 215.715 Q2078.09 216.849 2075.38 216.849 Q2070.91 216.849 2068.6 214.071 Q2066.28 211.293 2066.28 205.946 M2077 189.627 L2077 189.627 Z" fill="#000000" fill-rule="nonzero" fill-opacity="1" /><path clip-path="url(#clip390)" d="M2096.77 190.252 L2101.03 190.252 L2101.03 216.178 L2096.77 216.178 L2096.77 190.252 M2096.77 180.159 L2101.03 180.159 L2101.03 185.553 L2096.77 185.553 L2096.77 180.159 Z" fill="#000000" fill-rule="nonzero" fill-opacity="1" /><path clip-path="url(#clip390)" d="M2127 194.187 L2127 180.159 L2131.26 180.159 L2131.26 216.178 L2127 216.178 L2127 212.289 Q2125.66 214.603 2123.6 215.738 Q2121.56 216.849 2118.69 216.849 Q2113.99 216.849 2111.03 213.099 Q2108.09 209.349 2108.09 203.238 Q2108.09 197.127 2111.03 193.377 Q2113.99 189.627 2118.69 189.627 Q2121.56 189.627 2123.6 190.761 Q2125.66 191.872 2127 194.187 M2112.49 203.238 Q2112.49 207.937 2114.41 210.622 Q2116.35 213.284 2119.73 213.284 Q2123.11 213.284 2125.05 210.622 Q2127 207.937 2127 203.238 Q2127 198.539 2125.05 195.877 Q2123.11 193.192 2119.73 193.192 Q2116.35 193.192 2114.41 195.877 Q2112.49 198.539 2112.49 203.238 Z" fill="#000000" fill-rule="nonzero" fill-opacity="1" /><path clip-path="url(#clip390)" d="M2159.73 224.048 L2159.73 227.358 L2135.1 227.358 L2135.1 224.048 L2159.73 224.048 Z" fill="#000000" fill-rule="nonzero" fill-opacity="1" /><path clip-path="url(#clip390)" d="M2182.39 191.247 L2182.39 195.229 Q2180.59 194.233 2178.76 193.747 Q2176.95 193.238 2175.1 193.238 Q2170.96 193.238 2168.67 195.877 Q2166.37 198.492 2166.37 203.238 Q2166.37 207.983 2168.67 210.622 Q2170.96 213.238 2175.1 213.238 Q2176.95 213.238 2178.76 212.752 Q2180.59 212.242 2182.39 211.247 L2182.39 215.182 Q2180.61 216.016 2178.69 216.432 Q2176.79 216.849 2174.64 216.849 Q2168.78 216.849 2165.33 213.168 Q2161.88 209.488 2161.88 203.238 Q2161.88 196.895 2165.36 193.261 Q2168.85 189.627 2174.92 189.627 Q2176.88 189.627 2178.76 190.043 Q2180.63 190.437 2182.39 191.247 Z" fill="#000000" fill-rule="nonzero" fill-opacity="1" /><path clip-path="url(#clip390)" d="M2199.85 193.238 Q2196.42 193.238 2194.43 195.923 Q2192.44 198.585 2192.44 203.238 Q2192.44 207.891 2194.41 210.576 Q2196.4 213.238 2199.85 213.238 Q2203.25 213.238 2205.24 210.553 Q2207.23 207.867 2207.23 203.238 Q2207.23 198.631 2205.24 195.946 Q2203.25 193.238 2199.85 193.238 M2199.85 189.627 Q2205.4 189.627 2208.57 193.238 Q2211.74 196.849 2211.74 203.238 Q2211.74 209.604 2208.57 213.238 Q2205.4 216.849 2199.85 216.849 Q2194.27 216.849 2191.1 213.238 Q2187.95 209.604 2187.95 203.238 Q2187.95 196.849 2191.1 193.238 Q2194.27 189.627 2199.85 189.627 Z" fill="#000000" fill-rule="nonzero" fill-opacity="1" /><path clip-path="url(#clip390)" d="M2235.33 191.016 L2235.33 195.043 Q2233.53 194.117 2231.58 193.655 Q2229.64 193.192 2227.55 193.192 Q2224.38 193.192 2222.79 194.164 Q2221.21 195.136 2221.21 197.08 Q2221.21 198.562 2222.35 199.418 Q2223.48 200.252 2226.91 201.016 L2228.36 201.34 Q2232.9 202.312 2234.8 204.094 Q2236.72 205.854 2236.72 209.025 Q2236.72 212.636 2233.85 214.742 Q2231 216.849 2226 216.849 Q2223.92 216.849 2221.65 216.432 Q2219.41 216.039 2216.91 215.228 L2216.91 210.83 Q2219.27 212.057 2221.56 212.682 Q2223.85 213.284 2226.1 213.284 Q2229.11 213.284 2230.73 212.266 Q2232.35 211.224 2232.35 209.349 Q2232.35 207.613 2231.17 206.687 Q2230.01 205.761 2226.05 204.904 L2224.57 204.557 Q2220.61 203.724 2218.85 202.011 Q2217.09 200.275 2217.09 197.266 Q2217.09 193.608 2219.68 191.618 Q2222.28 189.627 2227.05 189.627 Q2229.41 189.627 2231.49 189.974 Q2233.57 190.321 2235.33 191.016 Z" fill="#000000" fill-rule="nonzero" fill-opacity="1" /><path clip-path="url(#clip390)" d="M2247.72 182.891 L2247.72 190.252 L2256.49 190.252 L2256.49 193.562 L2247.72 193.562 L2247.72 207.636 Q2247.72 210.807 2248.57 211.71 Q2249.45 212.613 2252.11 212.613 L2256.49 212.613 L2256.49 216.178 L2252.11 216.178 Q2247.18 216.178 2245.31 214.349 Q2243.43 212.497 2243.43 207.636 L2243.43 193.562 L2240.31 193.562 L2240.31 190.252 L2243.43 190.252 L2243.43 182.891 L2247.72 182.891 Z" fill="#000000" fill-rule="nonzero" fill-opacity="1" /></svg>
