<?xml version="1.0" encoding="utf-8"?>
<svg xmlns="http://www.w3.org/2000/svg" xmlns:xlink="http://www.w3.org/1999/xlink" width="600" height="400" viewBox="0 0 2400 1600">
<defs>
  <clipPath id="clip990">
    <rect x="0" y="0" width="2400" height="1600"/>
  </clipPath>
</defs>
<path clip-path="url(#clip990)" d="M0 1600 L2400 1600 L2400 0 L0 0  Z" fill="#ffffff" fill-rule="evenodd" fill-opacity="1"/>
<defs>
  <clipPath id="clip991">
    <rect x="480" y="0" width="1681" height="1600"/>
  </clipPath>
</defs>
<path clip-path="url(#clip990)" d="M216.436 1486.45 L2352.76 1486.45 L2352.76 47.2441 L216.436 47.2441  Z" fill="#ffffff" fill-rule="evenodd" fill-opacity="1"/>
<defs>
  <clipPath id="clip992">
    <rect x="216" y="47" width="2137" height="1440"/>
  </clipPath>
</defs>
<polyline clip-path="url(#clip992)" style="stroke:#000000; stroke-linecap:round; stroke-linejoin:round; stroke-width:2; stroke-opacity:0.1; fill:none" points="244.907,1486.45 244.907,47.2441 "/>
<polyline clip-path="url(#clip992)" style="stroke:#000000; stroke-linecap:round; stroke-linejoin:round; stroke-width:2; stroke-opacity:0.1; fill:none" points="564.812,1486.45 564.812,47.2441 "/>
<polyline clip-path="url(#clip992)" style="stroke:#000000; stroke-linecap:round; stroke-linejoin:round; stroke-width:2; stroke-opacity:0.1; fill:none" points="884.716,1486.45 884.716,47.2441 "/>
<polyline clip-path="url(#clip992)" style="stroke:#000000; stroke-linecap:round; stroke-linejoin:round; stroke-width:2; stroke-opacity:0.1; fill:none" points="1204.62,1486.45 1204.62,47.2441 "/>
<polyline clip-path="url(#clip992)" style="stroke:#000000; stroke-linecap:round; stroke-linejoin:round; stroke-width:2; stroke-opacity:0.1; fill:none" points="1524.52,1486.45 1524.52,47.2441 "/>
<polyline clip-path="url(#clip992)" style="stroke:#000000; stroke-linecap:round; stroke-linejoin:round; stroke-width:2; stroke-opacity:0.1; fill:none" points="1844.43,1486.45 1844.43,47.2441 "/>
<polyline clip-path="url(#clip992)" style="stroke:#000000; stroke-linecap:round; stroke-linejoin:round; stroke-width:2; stroke-opacity:0.1; fill:none" points="2164.33,1486.45 2164.33,47.2441 "/>
<polyline clip-path="url(#clip990)" style="stroke:#000000; stroke-linecap:round; stroke-linejoin:round; stroke-width:4; stroke-opacity:1; fill:none" points="216.436,1486.45 2352.76,1486.45 "/>
<polyline clip-path="url(#clip990)" style="stroke:#000000; stroke-linecap:round; stroke-linejoin:round; stroke-width:4; stroke-opacity:1; fill:none" points="244.907,1486.45 244.907,1467.55 "/>
<polyline clip-path="url(#clip990)" style="stroke:#000000; stroke-linecap:round; stroke-linejoin:round; stroke-width:4; stroke-opacity:1; fill:none" points="564.812,1486.45 564.812,1467.55 "/>
<polyline clip-path="url(#clip990)" style="stroke:#000000; stroke-linecap:round; stroke-linejoin:round; stroke-width:4; stroke-opacity:1; fill:none" points="884.716,1486.45 884.716,1467.55 "/>
<polyline clip-path="url(#clip990)" style="stroke:#000000; stroke-linecap:round; stroke-linejoin:round; stroke-width:4; stroke-opacity:1; fill:none" points="1204.62,1486.45 1204.62,1467.55 "/>
<polyline clip-path="url(#clip990)" style="stroke:#000000; stroke-linecap:round; stroke-linejoin:round; stroke-width:4; stroke-opacity:1; fill:none" points="1524.52,1486.45 1524.52,1467.55 "/>
<polyline clip-path="url(#clip990)" style="stroke:#000000; stroke-linecap:round; stroke-linejoin:round; stroke-width:4; stroke-opacity:1; fill:none" points="1844.43,1486.45 1844.43,1467.55 "/>
<polyline clip-path="url(#clip990)" style="stroke:#000000; stroke-linecap:round; stroke-linejoin:round; stroke-width:4; stroke-opacity:1; fill:none" points="2164.33,1486.45 2164.33,1467.55 "/>
<path clip-path="url(#clip990)" d="M244.907 1517.37 Q241.296 1517.37 239.468 1520.93 Q237.662 1524.47 237.662 1531.6 Q237.662 1538.71 239.468 1542.27 Q241.296 1545.82 244.907 1545.82 Q248.542 1545.82 250.347 1542.27 Q252.176 1538.71 252.176 1531.6 Q252.176 1524.47 250.347 1520.93 Q248.542 1517.37 244.907 1517.37 M244.907 1513.66 Q250.718 1513.66 253.773 1518.27 Q256.852 1522.85 256.852 1531.6 Q256.852 1540.33 253.773 1544.94 Q250.718 1549.52 244.907 1549.52 Q239.097 1549.52 236.019 1544.94 Q232.963 1540.33 232.963 1531.6 Q232.963 1522.85 236.019 1518.27 Q239.097 1513.66 244.907 1513.66 Z" fill="#000000" fill-rule="nonzero" fill-opacity="1" /><path clip-path="url(#clip990)" d="M539.499 1544.91 L547.138 1544.91 L547.138 1518.55 L538.828 1520.21 L538.828 1515.95 L547.092 1514.29 L551.768 1514.29 L551.768 1544.91 L559.406 1544.91 L559.406 1548.85 L539.499 1548.85 L539.499 1544.91 Z" fill="#000000" fill-rule="nonzero" fill-opacity="1" /><path clip-path="url(#clip990)" d="M578.851 1517.37 Q575.24 1517.37 573.411 1520.93 Q571.605 1524.47 571.605 1531.6 Q571.605 1538.71 573.411 1542.27 Q575.24 1545.82 578.851 1545.82 Q582.485 1545.82 584.291 1542.27 Q586.119 1538.71 586.119 1531.6 Q586.119 1524.47 584.291 1520.93 Q582.485 1517.37 578.851 1517.37 M578.851 1513.66 Q584.661 1513.66 587.716 1518.27 Q590.795 1522.85 590.795 1531.6 Q590.795 1540.33 587.716 1544.94 Q584.661 1549.52 578.851 1549.52 Q573.041 1549.52 569.962 1544.94 Q566.906 1540.33 566.906 1531.6 Q566.906 1522.85 569.962 1518.27 Q573.041 1513.66 578.851 1513.66 Z" fill="#000000" fill-rule="nonzero" fill-opacity="1" /><path clip-path="url(#clip990)" d="M863.489 1544.91 L879.808 1544.91 L879.808 1548.85 L857.864 1548.85 L857.864 1544.91 Q860.526 1542.16 865.109 1537.53 Q869.716 1532.88 870.896 1531.53 Q873.142 1529.01 874.021 1527.27 Q874.924 1525.51 874.924 1523.82 Q874.924 1521.07 872.98 1519.33 Q871.058 1517.6 867.957 1517.6 Q865.757 1517.6 863.304 1518.36 Q860.873 1519.13 858.095 1520.68 L858.095 1515.95 Q860.92 1514.82 863.373 1514.24 Q865.827 1513.66 867.864 1513.66 Q873.234 1513.66 876.429 1516.35 Q879.623 1519.03 879.623 1523.52 Q879.623 1525.65 878.813 1527.57 Q878.026 1529.47 875.919 1532.07 Q875.341 1532.74 872.239 1535.95 Q869.137 1539.15 863.489 1544.91 Z" fill="#000000" fill-rule="nonzero" fill-opacity="1" /><path clip-path="url(#clip990)" d="M899.623 1517.37 Q896.012 1517.37 894.183 1520.93 Q892.378 1524.47 892.378 1531.6 Q892.378 1538.71 894.183 1542.27 Q896.012 1545.82 899.623 1545.82 Q903.257 1545.82 905.063 1542.27 Q906.891 1538.71 906.891 1531.6 Q906.891 1524.47 905.063 1520.93 Q903.257 1517.37 899.623 1517.37 M899.623 1513.66 Q905.433 1513.66 908.489 1518.27 Q911.567 1522.85 911.567 1531.6 Q911.567 1540.33 908.489 1544.94 Q905.433 1549.52 899.623 1549.52 Q893.813 1549.52 890.734 1544.94 Q887.679 1540.33 887.679 1531.6 Q887.679 1522.85 890.734 1518.27 Q893.813 1513.66 899.623 1513.66 Z" fill="#000000" fill-rule="nonzero" fill-opacity="1" /><path clip-path="url(#clip990)" d="M1193.46 1530.21 Q1196.82 1530.93 1198.69 1533.2 Q1200.59 1535.47 1200.59 1538.8 Q1200.59 1543.92 1197.07 1546.72 Q1193.56 1549.52 1187.07 1549.52 Q1184.9 1549.52 1182.58 1549.08 Q1180.29 1548.66 1177.84 1547.81 L1177.84 1543.29 Q1179.78 1544.43 1182.1 1545.01 Q1184.41 1545.58 1186.93 1545.58 Q1191.33 1545.58 1193.62 1543.85 Q1195.94 1542.11 1195.94 1538.8 Q1195.94 1535.75 1193.79 1534.03 Q1191.66 1532.3 1187.84 1532.3 L1183.81 1532.3 L1183.81 1528.45 L1188.02 1528.45 Q1191.47 1528.45 1193.3 1527.09 Q1195.13 1525.7 1195.13 1523.11 Q1195.13 1520.45 1193.23 1519.03 Q1191.36 1517.6 1187.84 1517.6 Q1185.92 1517.6 1183.72 1518.01 Q1181.52 1518.43 1178.88 1519.31 L1178.88 1515.14 Q1181.54 1514.4 1183.86 1514.03 Q1186.19 1513.66 1188.25 1513.66 Q1193.58 1513.66 1196.68 1516.09 Q1199.78 1518.5 1199.78 1522.62 Q1199.78 1525.49 1198.14 1527.48 Q1196.49 1529.45 1193.46 1530.21 Z" fill="#000000" fill-rule="nonzero" fill-opacity="1" /><path clip-path="url(#clip990)" d="M1219.46 1517.37 Q1215.85 1517.37 1214.02 1520.93 Q1212.21 1524.47 1212.21 1531.6 Q1212.21 1538.71 1214.02 1542.27 Q1215.85 1545.82 1219.46 1545.82 Q1223.09 1545.82 1224.9 1542.27 Q1226.73 1538.71 1226.73 1531.6 Q1226.73 1524.47 1224.9 1520.93 Q1223.09 1517.37 1219.46 1517.37 M1219.46 1513.66 Q1225.27 1513.66 1228.32 1518.27 Q1231.4 1522.85 1231.4 1531.6 Q1231.4 1540.33 1228.32 1544.94 Q1225.27 1549.52 1219.46 1549.52 Q1213.65 1549.52 1210.57 1544.94 Q1207.51 1540.33 1207.51 1531.6 Q1207.51 1522.85 1210.57 1518.27 Q1213.65 1513.66 1219.46 1513.66 Z" fill="#000000" fill-rule="nonzero" fill-opacity="1" /><path clip-path="url(#clip990)" d="M1512.7 1518.36 L1500.89 1536.81 L1512.7 1536.81 L1512.7 1518.36 M1511.47 1514.29 L1517.35 1514.29 L1517.35 1536.81 L1522.28 1536.81 L1522.28 1540.7 L1517.35 1540.7 L1517.35 1548.85 L1512.7 1548.85 L1512.7 1540.7 L1497.09 1540.7 L1497.09 1536.19 L1511.47 1514.29 Z" fill="#000000" fill-rule="nonzero" fill-opacity="1" /><path clip-path="url(#clip990)" d="M1540.01 1517.37 Q1536.4 1517.37 1534.57 1520.93 Q1532.76 1524.47 1532.76 1531.6 Q1532.76 1538.71 1534.57 1542.27 Q1536.4 1545.82 1540.01 1545.82 Q1543.64 1545.82 1545.45 1542.27 Q1547.28 1538.71 1547.28 1531.6 Q1547.28 1524.47 1545.45 1520.93 Q1543.64 1517.37 1540.01 1517.37 M1540.01 1513.66 Q1545.82 1513.66 1548.88 1518.27 Q1551.95 1522.85 1551.95 1531.6 Q1551.95 1540.33 1548.88 1544.94 Q1545.82 1549.52 1540.01 1549.52 Q1534.2 1549.52 1531.12 1544.94 Q1528.07 1540.33 1528.07 1531.6 Q1528.07 1522.85 1531.12 1518.27 Q1534.2 1513.66 1540.01 1513.66 Z" fill="#000000" fill-rule="nonzero" fill-opacity="1" /><path clip-path="url(#clip990)" d="M1819.13 1514.29 L1837.48 1514.29 L1837.48 1518.22 L1823.41 1518.22 L1823.41 1526.7 Q1824.43 1526.35 1825.45 1526.19 Q1826.47 1526 1827.48 1526 Q1833.27 1526 1836.65 1529.17 Q1840.03 1532.34 1840.03 1537.76 Q1840.03 1543.34 1836.56 1546.44 Q1833.09 1549.52 1826.77 1549.52 Q1824.59 1549.52 1822.32 1549.15 Q1820.08 1548.78 1817.67 1548.04 L1817.67 1543.34 Q1819.75 1544.47 1821.97 1545.03 Q1824.2 1545.58 1826.67 1545.58 Q1830.68 1545.58 1833.02 1543.48 Q1835.35 1541.37 1835.35 1537.76 Q1835.35 1534.15 1833.02 1532.04 Q1830.68 1529.94 1826.67 1529.94 Q1824.8 1529.94 1822.92 1530.35 Q1821.07 1530.77 1819.13 1531.65 L1819.13 1514.29 Z" fill="#000000" fill-rule="nonzero" fill-opacity="1" /><path clip-path="url(#clip990)" d="M1859.24 1517.37 Q1855.63 1517.37 1853.8 1520.93 Q1852 1524.47 1852 1531.6 Q1852 1538.71 1853.8 1542.27 Q1855.63 1545.82 1859.24 1545.82 Q1862.88 1545.82 1864.68 1542.27 Q1866.51 1538.71 1866.51 1531.6 Q1866.51 1524.47 1864.68 1520.93 Q1862.88 1517.37 1859.24 1517.37 M1859.24 1513.66 Q1865.05 1513.66 1868.11 1518.27 Q1871.19 1522.85 1871.19 1531.6 Q1871.19 1540.33 1868.11 1544.94 Q1865.05 1549.52 1859.24 1549.52 Q1853.43 1549.52 1850.35 1544.94 Q1847.3 1540.33 1847.3 1531.6 Q1847.3 1522.85 1850.35 1518.27 Q1853.43 1513.66 1859.24 1513.66 Z" fill="#000000" fill-rule="nonzero" fill-opacity="1" /><path clip-path="url(#clip990)" d="M2149.74 1529.7 Q2146.59 1529.7 2144.74 1531.86 Q2142.91 1534.01 2142.91 1537.76 Q2142.91 1541.49 2144.74 1543.66 Q2146.59 1545.82 2149.74 1545.82 Q2152.89 1545.82 2154.71 1543.66 Q2156.57 1541.49 2156.57 1537.76 Q2156.57 1534.01 2154.71 1531.86 Q2152.89 1529.7 2149.74 1529.7 M2159.02 1515.05 L2159.02 1519.31 Q2157.26 1518.48 2155.46 1518.04 Q2153.67 1517.6 2151.91 1517.6 Q2147.28 1517.6 2144.83 1520.72 Q2142.4 1523.85 2142.05 1530.17 Q2143.42 1528.15 2145.48 1527.09 Q2147.54 1526 2150.02 1526 Q2155.22 1526 2158.23 1529.17 Q2161.27 1532.32 2161.27 1537.76 Q2161.27 1543.08 2158.12 1546.3 Q2154.97 1549.52 2149.74 1549.52 Q2143.74 1549.52 2140.57 1544.94 Q2137.4 1540.33 2137.4 1531.6 Q2137.4 1523.41 2141.29 1518.55 Q2145.18 1513.66 2151.73 1513.66 Q2153.49 1513.66 2155.27 1514.01 Q2157.08 1514.36 2159.02 1515.05 Z" fill="#000000" fill-rule="nonzero" fill-opacity="1" /><path clip-path="url(#clip990)" d="M2179.32 1517.37 Q2175.71 1517.37 2173.88 1520.93 Q2172.08 1524.47 2172.08 1531.6 Q2172.08 1538.71 2173.88 1542.27 Q2175.71 1545.82 2179.32 1545.82 Q2182.95 1545.82 2184.76 1542.27 Q2186.59 1538.71 2186.59 1531.6 Q2186.59 1524.47 2184.76 1520.93 Q2182.95 1517.37 2179.32 1517.37 M2179.32 1513.66 Q2185.13 1513.66 2188.19 1518.27 Q2191.27 1522.85 2191.27 1531.6 Q2191.27 1540.33 2188.19 1544.94 Q2185.13 1549.52 2179.32 1549.52 Q2173.51 1549.52 2170.43 1544.94 Q2167.38 1540.33 2167.38 1531.6 Q2167.38 1522.85 2170.43 1518.27 Q2173.51 1513.66 2179.32 1513.66 Z" fill="#000000" fill-rule="nonzero" fill-opacity="1" /><polyline clip-path="url(#clip992)" style="stroke:#000000; stroke-linecap:round; stroke-linejoin:round; stroke-width:2; stroke-opacity:0.1; fill:none" points="216.436,1380.55 2352.76,1380.55 "/>
<polyline clip-path="url(#clip992)" style="stroke:#000000; stroke-linecap:round; stroke-linejoin:round; stroke-width:2; stroke-opacity:0.1; fill:none" points="216.436,1031.33 2352.76,1031.33 "/>
<polyline clip-path="url(#clip992)" style="stroke:#000000; stroke-linecap:round; stroke-linejoin:round; stroke-width:2; stroke-opacity:0.1; fill:none" points="216.436,682.108 2352.76,682.108 "/>
<polyline clip-path="url(#clip992)" style="stroke:#000000; stroke-linecap:round; stroke-linejoin:round; stroke-width:2; stroke-opacity:0.1; fill:none" points="216.436,332.884 2352.76,332.884 "/>
<polyline clip-path="url(#clip990)" style="stroke:#000000; stroke-linecap:round; stroke-linejoin:round; stroke-width:4; stroke-opacity:1; fill:none" points="216.436,1486.45 216.436,47.2441 "/>
<polyline clip-path="url(#clip990)" style="stroke:#000000; stroke-linecap:round; stroke-linejoin:round; stroke-width:4; stroke-opacity:1; fill:none" points="216.436,1380.55 235.334,1380.55 "/>
<polyline clip-path="url(#clip990)" style="stroke:#000000; stroke-linecap:round; stroke-linejoin:round; stroke-width:4; stroke-opacity:1; fill:none" points="216.436,1031.33 235.334,1031.33 "/>
<polyline clip-path="url(#clip990)" style="stroke:#000000; stroke-linecap:round; stroke-linejoin:round; stroke-width:4; stroke-opacity:1; fill:none" points="216.436,682.108 235.334,682.108 "/>
<polyline clip-path="url(#clip990)" style="stroke:#000000; stroke-linecap:round; stroke-linejoin:round; stroke-width:4; stroke-opacity:1; fill:none" points="216.436,332.884 235.334,332.884 "/>
<path clip-path="url(#clip990)" d="M63.9319 1366.35 Q60.3208 1366.35 58.4921 1369.92 Q56.6865 1373.46 56.6865 1380.59 Q56.6865 1387.7 58.4921 1391.26 Q60.3208 1394.8 63.9319 1394.8 Q67.5661 1394.8 69.3717 1391.26 Q71.2004 1387.7 71.2004 1380.59 Q71.2004 1373.46 69.3717 1369.92 Q67.5661 1366.35 63.9319 1366.35 M63.9319 1362.65 Q69.742 1362.65 72.7976 1367.26 Q75.8763 1371.84 75.8763 1380.59 Q75.8763 1389.32 72.7976 1393.92 Q69.742 1398.51 63.9319 1398.51 Q58.1217 1398.51 55.043 1393.92 Q51.9875 1389.32 51.9875 1380.59 Q51.9875 1371.84 55.043 1367.26 Q58.1217 1362.65 63.9319 1362.65 Z" fill="#000000" fill-rule="nonzero" fill-opacity="1" /><path clip-path="url(#clip990)" d="M84.0938 1391.96 L88.978 1391.96 L88.978 1397.83 L84.0938 1397.83 L84.0938 1391.96 Z" fill="#000000" fill-rule="nonzero" fill-opacity="1" /><path clip-path="url(#clip990)" d="M99.9733 1393.9 L107.612 1393.9 L107.612 1367.53 L99.3021 1369.2 L99.3021 1364.94 L107.566 1363.27 L112.242 1363.27 L112.242 1393.9 L119.881 1393.9 L119.881 1397.83 L99.9733 1397.83 L99.9733 1393.9 Z" fill="#000000" fill-rule="nonzero" fill-opacity="1" /><path clip-path="url(#clip990)" d="M133.353 1393.9 L149.672 1393.9 L149.672 1397.83 L127.728 1397.83 L127.728 1393.9 Q130.39 1391.14 134.973 1386.52 Q139.58 1381.86 140.76 1380.52 Q143.006 1378 143.885 1376.26 Q144.788 1374.5 144.788 1372.81 Q144.788 1370.06 142.843 1368.32 Q140.922 1366.58 137.82 1366.58 Q135.621 1366.58 133.168 1367.35 Q130.737 1368.11 127.959 1369.66 L127.959 1364.94 Q130.783 1363.81 133.237 1363.23 Q135.691 1362.65 137.728 1362.65 Q143.098 1362.65 146.293 1365.33 Q149.487 1368.02 149.487 1372.51 Q149.487 1374.64 148.677 1376.56 Q147.89 1378.46 145.783 1381.05 Q145.205 1381.72 142.103 1384.94 Q139.001 1388.14 133.353 1393.9 Z" fill="#000000" fill-rule="nonzero" fill-opacity="1" /><path clip-path="url(#clip990)" d="M159.533 1363.27 L177.89 1363.27 L177.89 1367.21 L163.816 1367.21 L163.816 1375.68 Q164.834 1375.33 165.853 1375.17 Q166.871 1374.99 167.89 1374.99 Q173.677 1374.99 177.056 1378.16 Q180.436 1381.33 180.436 1386.75 Q180.436 1392.33 176.964 1395.43 Q173.491 1398.51 167.172 1398.51 Q164.996 1398.51 162.728 1398.14 Q160.482 1397.77 158.075 1397.02 L158.075 1392.33 Q160.158 1393.46 162.38 1394.02 Q164.603 1394.57 167.079 1394.57 Q171.084 1394.57 173.422 1392.46 Q175.76 1390.36 175.76 1386.75 Q175.76 1383.14 173.422 1381.03 Q171.084 1378.92 167.079 1378.92 Q165.204 1378.92 163.329 1379.34 Q161.478 1379.76 159.533 1380.64 L159.533 1363.27 Z" fill="#000000" fill-rule="nonzero" fill-opacity="1" /><path clip-path="url(#clip990)" d="M62.9365 1017.13 Q59.3254 1017.13 57.4967 1020.69 Q55.6912 1024.24 55.6912 1031.37 Q55.6912 1038.47 57.4967 1042.04 Q59.3254 1045.58 62.9365 1045.58 Q66.5707 1045.58 68.3763 1042.04 Q70.205 1038.47 70.205 1031.37 Q70.205 1024.24 68.3763 1020.69 Q66.5707 1017.13 62.9365 1017.13 M62.9365 1013.43 Q68.7467 1013.43 71.8022 1018.03 Q74.8809 1022.62 74.8809 1031.37 Q74.8809 1040.09 71.8022 1044.7 Q68.7467 1049.28 62.9365 1049.28 Q57.1264 1049.28 54.0477 1044.7 Q50.9921 1040.09 50.9921 1031.37 Q50.9921 1022.62 54.0477 1018.03 Q57.1264 1013.43 62.9365 1013.43 Z" fill="#000000" fill-rule="nonzero" fill-opacity="1" /><path clip-path="url(#clip990)" d="M83.0984 1042.73 L87.9827 1042.73 L87.9827 1048.61 L83.0984 1048.61 L83.0984 1042.73 Z" fill="#000000" fill-rule="nonzero" fill-opacity="1" /><path clip-path="url(#clip990)" d="M98.978 1044.68 L106.617 1044.68 L106.617 1018.31 L98.3067 1019.98 L98.3067 1015.72 L106.571 1014.05 L111.246 1014.05 L111.246 1044.68 L118.885 1044.68 L118.885 1048.61 L98.978 1048.61 L98.978 1044.68 Z" fill="#000000" fill-rule="nonzero" fill-opacity="1" /><path clip-path="url(#clip990)" d="M128.376 1014.05 L146.732 1014.05 L146.732 1017.99 L132.658 1017.99 L132.658 1026.46 Q133.677 1026.11 134.695 1025.95 Q135.714 1025.76 136.732 1025.76 Q142.519 1025.76 145.899 1028.94 Q149.279 1032.11 149.279 1037.52 Q149.279 1043.1 145.806 1046.2 Q142.334 1049.28 136.015 1049.28 Q133.839 1049.28 131.57 1048.91 Q129.325 1048.54 126.918 1047.8 L126.918 1043.1 Q129.001 1044.24 131.223 1044.79 Q133.445 1045.35 135.922 1045.35 Q139.927 1045.35 142.265 1043.24 Q144.603 1041.13 144.603 1037.52 Q144.603 1033.91 142.265 1031.81 Q139.927 1029.7 135.922 1029.7 Q134.047 1029.7 132.172 1030.12 Q130.32 1030.53 128.376 1031.41 L128.376 1014.05 Z" fill="#000000" fill-rule="nonzero" fill-opacity="1" /><path clip-path="url(#clip990)" d="M168.491 1017.13 Q164.88 1017.13 163.052 1020.69 Q161.246 1024.24 161.246 1031.37 Q161.246 1038.47 163.052 1042.04 Q164.88 1045.58 168.491 1045.58 Q172.126 1045.58 173.931 1042.04 Q175.76 1038.47 175.76 1031.37 Q175.76 1024.24 173.931 1020.69 Q172.126 1017.13 168.491 1017.13 M168.491 1013.43 Q174.302 1013.43 177.357 1018.03 Q180.436 1022.62 180.436 1031.37 Q180.436 1040.09 177.357 1044.7 Q174.302 1049.28 168.491 1049.28 Q162.681 1049.28 159.603 1044.7 Q156.547 1040.09 156.547 1031.37 Q156.547 1022.62 159.603 1018.03 Q162.681 1013.43 168.491 1013.43 Z" fill="#000000" fill-rule="nonzero" fill-opacity="1" /><path clip-path="url(#clip990)" d="M63.9319 667.907 Q60.3208 667.907 58.4921 671.471 Q56.6865 675.013 56.6865 682.143 Q56.6865 689.249 58.4921 692.814 Q60.3208 696.355 63.9319 696.355 Q67.5661 696.355 69.3717 692.814 Q71.2004 689.249 71.2004 682.143 Q71.2004 675.013 69.3717 671.471 Q67.5661 667.907 63.9319 667.907 M63.9319 664.203 Q69.742 664.203 72.7976 668.809 Q75.8763 673.393 75.8763 682.143 Q75.8763 690.869 72.7976 695.476 Q69.742 700.059 63.9319 700.059 Q58.1217 700.059 55.043 695.476 Q51.9875 690.869 51.9875 682.143 Q51.9875 673.393 55.043 668.809 Q58.1217 664.203 63.9319 664.203 Z" fill="#000000" fill-rule="nonzero" fill-opacity="1" /><path clip-path="url(#clip990)" d="M84.0938 693.508 L88.978 693.508 L88.978 699.388 L84.0938 699.388 L84.0938 693.508 Z" fill="#000000" fill-rule="nonzero" fill-opacity="1" /><path clip-path="url(#clip990)" d="M99.9733 695.453 L107.612 695.453 L107.612 669.087 L99.3021 670.754 L99.3021 666.495 L107.566 664.828 L112.242 664.828 L112.242 695.453 L119.881 695.453 L119.881 699.388 L99.9733 699.388 L99.9733 695.453 Z" fill="#000000" fill-rule="nonzero" fill-opacity="1" /><path clip-path="url(#clip990)" d="M128.144 664.828 L150.367 664.828 L150.367 666.819 L137.82 699.388 L132.936 699.388 L144.742 668.763 L128.144 668.763 L128.144 664.828 Z" fill="#000000" fill-rule="nonzero" fill-opacity="1" /><path clip-path="url(#clip990)" d="M159.533 664.828 L177.89 664.828 L177.89 668.763 L163.816 668.763 L163.816 677.235 Q164.834 676.888 165.853 676.726 Q166.871 676.541 167.89 676.541 Q173.677 676.541 177.056 679.712 Q180.436 682.883 180.436 688.3 Q180.436 693.879 176.964 696.98 Q173.491 700.059 167.172 700.059 Q164.996 700.059 162.728 699.689 Q160.482 699.318 158.075 698.578 L158.075 693.879 Q160.158 695.013 162.38 695.568 Q164.603 696.124 167.079 696.124 Q171.084 696.124 173.422 694.018 Q175.76 691.911 175.76 688.3 Q175.76 684.689 173.422 682.582 Q171.084 680.476 167.079 680.476 Q165.204 680.476 163.329 680.893 Q161.478 681.309 159.533 682.189 L159.533 664.828 Z" fill="#000000" fill-rule="nonzero" fill-opacity="1" /><path clip-path="url(#clip990)" d="M62.9365 318.683 Q59.3254 318.683 57.4967 322.248 Q55.6912 325.79 55.6912 332.919 Q55.6912 340.026 57.4967 343.59 Q59.3254 347.132 62.9365 347.132 Q66.5707 347.132 68.3763 343.59 Q70.205 340.026 70.205 332.919 Q70.205 325.79 68.3763 322.248 Q66.5707 318.683 62.9365 318.683 M62.9365 314.979 Q68.7467 314.979 71.8022 319.586 Q74.8809 324.169 74.8809 332.919 Q74.8809 341.646 71.8022 346.252 Q68.7467 350.836 62.9365 350.836 Q57.1264 350.836 54.0477 346.252 Q50.9921 341.646 50.9921 332.919 Q50.9921 324.169 54.0477 319.586 Q57.1264 314.979 62.9365 314.979 Z" fill="#000000" fill-rule="nonzero" fill-opacity="1" /><path clip-path="url(#clip990)" d="M83.0984 344.285 L87.9827 344.285 L87.9827 350.164 L83.0984 350.164 L83.0984 344.285 Z" fill="#000000" fill-rule="nonzero" fill-opacity="1" /><path clip-path="url(#clip990)" d="M102.196 346.229 L118.515 346.229 L118.515 350.164 L96.5706 350.164 L96.5706 346.229 Q99.2326 343.475 103.816 338.845 Q108.422 334.192 109.603 332.85 Q111.848 330.327 112.728 328.59 Q113.631 326.831 113.631 325.141 Q113.631 322.387 111.686 320.651 Q109.765 318.915 106.663 318.915 Q104.464 318.915 102.01 319.678 Q99.5798 320.442 96.8021 321.993 L96.8021 317.271 Q99.6261 316.137 102.08 315.558 Q104.534 314.979 106.571 314.979 Q111.941 314.979 115.135 317.665 Q118.33 320.35 118.33 324.84 Q118.33 326.97 117.52 328.891 Q116.733 330.789 114.626 333.382 Q114.047 334.053 110.946 337.271 Q107.844 340.465 102.196 346.229 Z" fill="#000000" fill-rule="nonzero" fill-opacity="1" /><path clip-path="url(#clip990)" d="M138.33 318.683 Q134.719 318.683 132.89 322.248 Q131.084 325.79 131.084 332.919 Q131.084 340.026 132.89 343.59 Q134.719 347.132 138.33 347.132 Q141.964 347.132 143.769 343.59 Q145.598 340.026 145.598 332.919 Q145.598 325.79 143.769 322.248 Q141.964 318.683 138.33 318.683 M138.33 314.979 Q144.14 314.979 147.195 319.586 Q150.274 324.169 150.274 332.919 Q150.274 341.646 147.195 346.252 Q144.14 350.836 138.33 350.836 Q132.519 350.836 129.441 346.252 Q126.385 341.646 126.385 332.919 Q126.385 324.169 129.441 319.586 Q132.519 314.979 138.33 314.979 Z" fill="#000000" fill-rule="nonzero" fill-opacity="1" /><path clip-path="url(#clip990)" d="M168.491 318.683 Q164.88 318.683 163.052 322.248 Q161.246 325.79 161.246 332.919 Q161.246 340.026 163.052 343.59 Q164.88 347.132 168.491 347.132 Q172.126 347.132 173.931 343.59 Q175.76 340.026 175.76 332.919 Q175.76 325.79 173.931 322.248 Q172.126 318.683 168.491 318.683 M168.491 314.979 Q174.302 314.979 177.357 319.586 Q180.436 324.169 180.436 332.919 Q180.436 341.646 177.357 346.252 Q174.302 350.836 168.491 350.836 Q162.681 350.836 159.603 346.252 Q156.547 341.646 156.547 332.919 Q156.547 324.169 159.603 319.586 Q162.681 314.979 168.491 314.979 Z" fill="#000000" fill-rule="nonzero" fill-opacity="1" /><polyline clip-path="url(#clip992)" style="stroke:#009af9; stroke-linecap:round; stroke-linejoin:round; stroke-width:4; stroke-opacity:1; fill:none" points="276.898,385.773 308.888,404.891 340.879,368.134 372.869,478.133 404.859,455.916 436.85,551.184 468.84,555.165 500.831,650.156 532.821,704.8 564.812,807.162 596.802,769.169 628.792,849.467 660.783,812.4 692.773,782.454 724.764,911.66 756.754,944.453 788.744,1067.52 820.735,1042.75 852.725,1082.99 884.716,978.114 916.706,987.271 948.697,959.135 980.687,1109.14 1012.68,1140.42 1044.67,1018.42 1076.66,967.116 1108.65,1141.74 1140.64,1135.91 1172.63,1107.83 1204.62,1249.37 1236.61,1139.34 1268.6,1149.4 1300.59,1223.88 1332.58,1110.64 1364.57,1186.16 1396.56,1212.49 1428.55,1225.45 1460.54,1198.09 1492.53,1235.4 1524.52,1204.6 1556.51,1284.18 1588.5,1387.58 1620.5,1177.29 1652.49,1329.83 1684.48,1290.88 1716.47,1361.17 1748.46,1364.98 1780.45,1293.2 1812.44,1350.19 1844.43,1319.34 1876.42,1262.07 1908.41,1328.26 1940.4,1445.72 1972.39,1332.8 2004.38,1174.86 2036.37,1373.98 2068.36,1392.19 2100.35,1352.16 2132.34,1228.43 2164.33,1429.15 2196.32,1394.45 2228.31,1276.75 2260.3,1393.99 2292.29,1362.59 "/>
<polyline clip-path="url(#clip992)" style="stroke:#e26f46; stroke-linecap:round; stroke-linejoin:round; stroke-width:4; stroke-opacity:1; fill:none" points="276.898,116.361 308.888,87.9763 340.879,226.975 372.869,308.713 404.859,267.399 436.85,359.22 468.84,358.751 500.831,350.97 532.821,405.434 564.812,518.821 596.802,390.825 628.792,448.711 660.783,515.713 692.773,594.96 724.764,682.643 756.754,600.329 788.744,592.195 820.735,633.906 852.725,655.756 884.716,616.382 916.706,652.438 948.697,701.32 980.687,752.238 1012.68,661.387 1044.67,746.296 1076.66,765.534 1108.65,821.706 1140.64,792.877 1172.63,757.528 1204.62,782.833 1236.61,869.153 1268.6,844.702 1300.59,798.076 1332.58,794.76 1364.57,753.345 1396.56,729.829 1428.55,815.653 1460.54,770.034 1492.53,803.307 1524.52,865.409 1556.51,794.454 1588.5,864.517 1620.5,919.348 1652.49,847.593 1684.48,861 1716.47,886.029 1748.46,833.393 1780.45,967.186 1812.44,917.258 1844.43,819.25 1876.42,859.443 1908.41,876.269 1940.4,879.784 1972.39,876.474 2004.38,893.85 2036.37,910.539 2068.36,919.32 2100.35,878.745 2132.34,1024.64 2164.33,938.325 2196.32,995.447 2228.31,977.751 2260.3,972.535 2292.29,955.343 "/>
<path clip-path="url(#clip990)" d="M1846.2 250.738 L2281.55 250.738 L2281.55 95.2176 L1846.2 95.2176  Z" fill="#ffffff" fill-rule="evenodd" fill-opacity="1"/>
<polyline clip-path="url(#clip990)" style="stroke:#000000; stroke-linecap:round; stroke-linejoin:round; stroke-width:4; stroke-opacity:1; fill:none" points="1846.2,250.738 2281.55,250.738 2281.55,95.2176 1846.2,95.2176 1846.2,250.738 "/>
<polyline clip-path="url(#clip990)" style="stroke:#009af9; stroke-linecap:round; stroke-linejoin:round; stroke-width:4; stroke-opacity:1; fill:none" points="1869.94,147.058 2012.36,147.058 "/>
<path clip-path="url(#clip990)" d="M2051.28 142.393 Q2050.56 141.977 2049.71 141.791 Q2048.87 141.583 2047.86 141.583 Q2044.24 141.583 2042.3 143.944 Q2040.38 146.282 2040.38 150.68 L2040.38 164.338 L2036.1 164.338 L2036.1 138.412 L2040.38 138.412 L2040.38 142.44 Q2041.72 140.078 2043.87 138.944 Q2046.03 137.787 2049.11 137.787 Q2049.55 137.787 2050.08 137.856 Q2050.61 137.903 2051.26 138.018 L2051.28 142.393 Z" fill="#000000" fill-rule="nonzero" fill-opacity="1" /><path clip-path="url(#clip990)" d="M2067.53 151.305 Q2062.37 151.305 2060.38 152.486 Q2058.39 153.666 2058.39 156.514 Q2058.39 158.782 2059.87 160.125 Q2061.37 161.444 2063.94 161.444 Q2067.49 161.444 2069.61 158.944 Q2071.77 156.421 2071.77 152.254 L2071.77 151.305 L2067.53 151.305 M2076.03 149.546 L2076.03 164.338 L2071.77 164.338 L2071.77 160.402 Q2070.31 162.763 2068.13 163.898 Q2065.96 165.009 2062.81 165.009 Q2058.83 165.009 2056.47 162.787 Q2054.13 160.541 2054.13 156.791 Q2054.13 152.416 2057.05 150.194 Q2059.99 147.972 2065.8 147.972 L2071.77 147.972 L2071.77 147.555 Q2071.77 144.615 2069.82 143.018 Q2067.9 141.398 2064.41 141.398 Q2062.18 141.398 2060.08 141.93 Q2057.97 142.463 2056.03 143.527 L2056.03 139.592 Q2058.36 138.69 2060.56 138.25 Q2062.76 137.787 2064.85 137.787 Q2070.47 137.787 2073.25 140.703 Q2076.03 143.62 2076.03 149.546 Z" fill="#000000" fill-rule="nonzero" fill-opacity="1" /><path clip-path="url(#clip990)" d="M2082.32 138.412 L2086.58 138.412 L2091.91 158.643 L2097.21 138.412 L2102.23 138.412 L2107.55 158.643 L2112.86 138.412 L2117.11 138.412 L2110.33 164.338 L2105.31 164.338 L2099.73 143.088 L2094.13 164.338 L2089.11 164.338 L2082.32 138.412 Z" fill="#000000" fill-rule="nonzero" fill-opacity="1" /><path clip-path="url(#clip990)" d="M2143.27 172.208 L2143.27 175.518 L2118.64 175.518 L2118.64 172.208 L2143.27 172.208 Z" fill="#000000" fill-rule="nonzero" fill-opacity="1" /><path clip-path="url(#clip990)" d="M2165.93 139.407 L2165.93 143.389 Q2164.13 142.393 2162.3 141.907 Q2160.49 141.398 2158.64 141.398 Q2154.5 141.398 2152.21 144.037 Q2149.92 146.652 2149.92 151.398 Q2149.92 156.143 2152.21 158.782 Q2154.5 161.398 2158.64 161.398 Q2160.49 161.398 2162.3 160.912 Q2164.13 160.402 2165.93 159.407 L2165.93 163.342 Q2164.15 164.176 2162.23 164.592 Q2160.33 165.009 2158.18 165.009 Q2152.32 165.009 2148.87 161.328 Q2145.42 157.648 2145.42 151.398 Q2145.42 145.055 2148.9 141.421 Q2152.39 137.787 2158.46 137.787 Q2160.42 137.787 2162.3 138.203 Q2164.17 138.597 2165.93 139.407 Z" fill="#000000" fill-rule="nonzero" fill-opacity="1" /><path clip-path="url(#clip990)" d="M2183.39 141.398 Q2179.96 141.398 2177.97 144.083 Q2175.98 146.745 2175.98 151.398 Q2175.98 156.051 2177.95 158.736 Q2179.94 161.398 2183.39 161.398 Q2186.79 161.398 2188.78 158.713 Q2190.77 156.027 2190.77 151.398 Q2190.77 146.791 2188.78 144.106 Q2186.79 141.398 2183.39 141.398 M2183.39 137.787 Q2188.94 137.787 2192.11 141.398 Q2195.29 145.009 2195.29 151.398 Q2195.29 157.764 2192.11 161.398 Q2188.94 165.009 2183.39 165.009 Q2177.81 165.009 2174.64 161.398 Q2171.49 157.764 2171.49 151.398 Q2171.49 145.009 2174.64 141.398 Q2177.81 137.787 2183.39 137.787 Z" fill="#000000" fill-rule="nonzero" fill-opacity="1" /><path clip-path="url(#clip990)" d="M2218.87 139.176 L2218.87 143.203 Q2217.07 142.277 2215.12 141.815 Q2213.18 141.352 2211.1 141.352 Q2207.92 141.352 2206.33 142.324 Q2204.75 143.296 2204.75 145.24 Q2204.75 146.722 2205.89 147.578 Q2207.02 148.412 2210.45 149.176 L2211.91 149.5 Q2216.44 150.472 2218.34 152.254 Q2220.26 154.014 2220.26 157.185 Q2220.26 160.796 2217.39 162.902 Q2214.54 165.009 2209.54 165.009 Q2207.46 165.009 2205.19 164.592 Q2202.95 164.199 2200.45 163.388 L2200.45 158.99 Q2202.81 160.217 2205.1 160.842 Q2207.39 161.444 2209.64 161.444 Q2212.65 161.444 2214.27 160.426 Q2215.89 159.384 2215.89 157.509 Q2215.89 155.773 2214.71 154.847 Q2213.55 153.921 2209.59 153.064 L2208.11 152.717 Q2204.15 151.884 2202.39 150.171 Q2200.63 148.435 2200.63 145.426 Q2200.63 141.768 2203.23 139.778 Q2205.82 137.787 2210.59 137.787 Q2212.95 137.787 2215.03 138.134 Q2217.11 138.481 2218.87 139.176 Z" fill="#000000" fill-rule="nonzero" fill-opacity="1" /><path clip-path="url(#clip990)" d="M2231.26 131.051 L2231.26 138.412 L2240.03 138.412 L2240.03 141.722 L2231.26 141.722 L2231.26 155.796 Q2231.26 158.967 2232.11 159.87 Q2232.99 160.773 2235.66 160.773 L2240.03 160.773 L2240.03 164.338 L2235.66 164.338 Q2230.73 164.338 2228.85 162.509 Q2226.98 160.657 2226.98 155.796 L2226.98 141.722 L2223.85 141.722 L2223.85 138.412 L2226.98 138.412 L2226.98 131.051 L2231.26 131.051 Z" fill="#000000" fill-rule="nonzero" fill-opacity="1" /><polyline clip-path="url(#clip990)" style="stroke:#e26f46; stroke-linecap:round; stroke-linejoin:round; stroke-width:4; stroke-opacity:1; fill:none" points="1869.94,198.898 2012.36,198.898 "/>
<path clip-path="url(#clip990)" d="M2055.01 202.914 Q2055.01 198.284 2053.09 195.738 Q2051.19 193.192 2047.74 193.192 Q2044.31 193.192 2042.39 195.738 Q2040.49 198.284 2040.49 202.914 Q2040.49 207.52 2042.39 210.066 Q2044.31 212.613 2047.74 212.613 Q2051.19 212.613 2053.09 210.066 Q2055.01 207.52 2055.01 202.914 M2059.27 212.96 Q2059.27 219.58 2056.33 222.798 Q2053.39 226.039 2047.32 226.039 Q2045.08 226.039 2043.09 225.691 Q2041.1 225.367 2039.22 224.673 L2039.22 220.529 Q2041.1 221.548 2042.93 222.034 Q2044.75 222.52 2046.65 222.52 Q2050.84 222.52 2052.93 220.321 Q2055.01 218.145 2055.01 213.724 L2055.01 211.617 Q2053.69 213.909 2051.63 215.043 Q2049.57 216.178 2046.7 216.178 Q2041.93 216.178 2039.01 212.543 Q2036.1 208.909 2036.1 202.914 Q2036.1 196.895 2039.01 193.261 Q2041.93 189.627 2046.7 189.627 Q2049.57 189.627 2051.63 190.761 Q2053.69 191.895 2055.01 194.187 L2055.01 190.252 L2059.27 190.252 L2059.27 212.96 Z" fill="#000000" fill-rule="nonzero" fill-opacity="1" /><path clip-path="url(#clip990)" d="M2067.6 205.946 L2067.6 190.252 L2071.86 190.252 L2071.86 205.784 Q2071.86 209.465 2073.3 211.316 Q2074.73 213.145 2077.6 213.145 Q2081.05 213.145 2083.04 210.946 Q2085.05 208.747 2085.05 204.951 L2085.05 190.252 L2089.31 190.252 L2089.31 216.178 L2085.05 216.178 L2085.05 212.196 Q2083.5 214.557 2081.44 215.715 Q2079.41 216.849 2076.7 216.849 Q2072.23 216.849 2069.92 214.071 Q2067.6 211.293 2067.6 205.946 M2078.32 189.627 L2078.32 189.627 Z" fill="#000000" fill-rule="nonzero" fill-opacity="1" /><path clip-path="url(#clip990)" d="M2098.09 190.252 L2102.35 190.252 L2102.35 216.178 L2098.09 216.178 L2098.09 190.252 M2098.09 180.159 L2102.35 180.159 L2102.35 185.553 L2098.09 185.553 L2098.09 180.159 Z" fill="#000000" fill-rule="nonzero" fill-opacity="1" /><path clip-path="url(#clip990)" d="M2128.32 194.187 L2128.32 180.159 L2132.58 180.159 L2132.58 216.178 L2128.32 216.178 L2128.32 212.289 Q2126.98 214.603 2124.92 215.738 Q2122.88 216.849 2120.01 216.849 Q2115.31 216.849 2112.35 213.099 Q2109.41 209.349 2109.41 203.238 Q2109.41 197.127 2112.35 193.377 Q2115.31 189.627 2120.01 189.627 Q2122.88 189.627 2124.92 190.761 Q2126.98 191.872 2128.32 194.187 M2113.8 203.238 Q2113.8 207.937 2115.73 210.622 Q2117.67 213.284 2121.05 213.284 Q2124.43 213.284 2126.37 210.622 Q2128.32 207.937 2128.32 203.238 Q2128.32 198.539 2126.37 195.877 Q2124.43 193.192 2121.05 193.192 Q2117.67 193.192 2115.73 195.877 Q2113.8 198.539 2113.8 203.238 Z" fill="#000000" fill-rule="nonzero" fill-opacity="1" /><path clip-path="url(#clip990)" d="M2161.05 224.048 L2161.05 227.358 L2136.42 227.358 L2136.42 224.048 L2161.05 224.048 Z" fill="#000000" fill-rule="nonzero" fill-opacity="1" /><path clip-path="url(#clip990)" d="M2183.71 191.247 L2183.71 195.229 Q2181.91 194.233 2180.08 193.747 Q2178.27 193.238 2176.42 193.238 Q2172.28 193.238 2169.98 195.877 Q2167.69 198.492 2167.69 203.238 Q2167.69 207.983 2169.98 210.622 Q2172.28 213.238 2176.42 213.238 Q2178.27 213.238 2180.08 212.752 Q2181.91 212.242 2183.71 211.247 L2183.71 215.182 Q2181.93 216.016 2180.01 216.432 Q2178.11 216.849 2175.96 216.849 Q2170.1 216.849 2166.65 213.168 Q2163.2 209.488 2163.2 203.238 Q2163.2 196.895 2166.67 193.261 Q2170.17 189.627 2176.23 189.627 Q2178.2 189.627 2180.08 190.043 Q2181.95 190.437 2183.71 191.247 Z" fill="#000000" fill-rule="nonzero" fill-opacity="1" /><path clip-path="url(#clip990)" d="M2201.17 193.238 Q2197.74 193.238 2195.75 195.923 Q2193.76 198.585 2193.76 203.238 Q2193.76 207.891 2195.73 210.576 Q2197.72 213.238 2201.17 213.238 Q2204.57 213.238 2206.56 210.553 Q2208.55 207.867 2208.55 203.238 Q2208.55 198.631 2206.56 195.946 Q2204.57 193.238 2201.17 193.238 M2201.17 189.627 Q2206.72 189.627 2209.89 193.238 Q2213.06 196.849 2213.06 203.238 Q2213.06 209.604 2209.89 213.238 Q2206.72 216.849 2201.17 216.849 Q2195.59 216.849 2192.42 213.238 Q2189.27 209.604 2189.27 203.238 Q2189.27 196.849 2192.42 193.238 Q2195.59 189.627 2201.17 189.627 Z" fill="#000000" fill-rule="nonzero" fill-opacity="1" /><path clip-path="url(#clip990)" d="M2236.65 191.016 L2236.65 195.043 Q2234.85 194.117 2232.9 193.655 Q2230.96 193.192 2228.87 193.192 Q2225.7 193.192 2224.1 194.164 Q2222.53 195.136 2222.53 197.08 Q2222.53 198.562 2223.67 199.418 Q2224.8 200.252 2228.23 201.016 L2229.68 201.34 Q2234.22 202.312 2236.12 204.094 Q2238.04 205.854 2238.04 209.025 Q2238.04 212.636 2235.17 214.742 Q2232.32 216.849 2227.32 216.849 Q2225.24 216.849 2222.97 216.432 Q2220.73 216.039 2218.23 215.228 L2218.23 210.83 Q2220.59 212.057 2222.88 212.682 Q2225.17 213.284 2227.41 213.284 Q2230.42 213.284 2232.04 212.266 Q2233.66 211.224 2233.66 209.349 Q2233.66 207.613 2232.48 206.687 Q2231.33 205.761 2227.37 204.904 L2225.89 204.557 Q2221.93 203.724 2220.17 202.011 Q2218.41 200.275 2218.41 197.266 Q2218.41 193.608 2221 191.618 Q2223.6 189.627 2228.36 189.627 Q2230.73 189.627 2232.81 189.974 Q2234.89 190.321 2236.65 191.016 Z" fill="#000000" fill-rule="nonzero" fill-opacity="1" /><path clip-path="url(#clip990)" d="M2249.04 182.891 L2249.04 190.252 L2257.81 190.252 L2257.81 193.562 L2249.04 193.562 L2249.04 207.636 Q2249.04 210.807 2249.89 211.71 Q2250.77 212.613 2253.43 212.613 L2257.81 212.613 L2257.81 216.178 L2253.43 216.178 Q2248.5 216.178 2246.63 214.349 Q2244.75 212.497 2244.75 207.636 L2244.75 193.562 L2241.63 193.562 L2241.63 190.252 L2244.75 190.252 L2244.75 182.891 L2249.04 182.891 Z" fill="#000000" fill-rule="nonzero" fill-opacity="1" /></svg>
