<?xml version="1.0" encoding="utf-8"?>
<svg xmlns="http://www.w3.org/2000/svg" xmlns:xlink="http://www.w3.org/1999/xlink" width="600" height="400" viewBox="0 0 2400 1600">
<defs>
  <clipPath id="clip270">
    <rect x="0" y="0" width="2400" height="1600"/>
  </clipPath>
</defs>
<path clip-path="url(#clip270)" d="M0 1600 L2400 1600 L2400 0 L0 0  Z" fill="#ffffff" fill-rule="evenodd" fill-opacity="1"/>
<defs>
  <clipPath id="clip271">
    <rect x="480" y="0" width="1681" height="1600"/>
  </clipPath>
</defs>
<path clip-path="url(#clip270)" d="M186.274 1486.45 L2352.76 1486.45 L2352.76 47.2441 L186.274 47.2441  Z" fill="#ffffff" fill-rule="evenodd" fill-opacity="1"/>
<defs>
  <clipPath id="clip272">
    <rect x="186" y="47" width="2167" height="1440"/>
  </clipPath>
</defs>
<polyline clip-path="url(#clip272)" style="stroke:#000000; stroke-linecap:round; stroke-linejoin:round; stroke-width:2; stroke-opacity:0.1; fill:none" points="215.147,1486.45 215.147,47.2441 "/>
<polyline clip-path="url(#clip272)" style="stroke:#000000; stroke-linecap:round; stroke-linejoin:round; stroke-width:2; stroke-opacity:0.1; fill:none" points="539.568,1486.45 539.568,47.2441 "/>
<polyline clip-path="url(#clip272)" style="stroke:#000000; stroke-linecap:round; stroke-linejoin:round; stroke-width:2; stroke-opacity:0.1; fill:none" points="863.989,1486.45 863.989,47.2441 "/>
<polyline clip-path="url(#clip272)" style="stroke:#000000; stroke-linecap:round; stroke-linejoin:round; stroke-width:2; stroke-opacity:0.1; fill:none" points="1188.41,1486.45 1188.41,47.2441 "/>
<polyline clip-path="url(#clip272)" style="stroke:#000000; stroke-linecap:round; stroke-linejoin:round; stroke-width:2; stroke-opacity:0.1; fill:none" points="1512.83,1486.45 1512.83,47.2441 "/>
<polyline clip-path="url(#clip272)" style="stroke:#000000; stroke-linecap:round; stroke-linejoin:round; stroke-width:2; stroke-opacity:0.1; fill:none" points="1837.25,1486.45 1837.25,47.2441 "/>
<polyline clip-path="url(#clip272)" style="stroke:#000000; stroke-linecap:round; stroke-linejoin:round; stroke-width:2; stroke-opacity:0.1; fill:none" points="2161.67,1486.45 2161.67,47.2441 "/>
<polyline clip-path="url(#clip270)" style="stroke:#000000; stroke-linecap:round; stroke-linejoin:round; stroke-width:4; stroke-opacity:1; fill:none" points="186.274,1486.45 2352.76,1486.45 "/>
<polyline clip-path="url(#clip270)" style="stroke:#000000; stroke-linecap:round; stroke-linejoin:round; stroke-width:4; stroke-opacity:1; fill:none" points="215.147,1486.45 215.147,1467.55 "/>
<polyline clip-path="url(#clip270)" style="stroke:#000000; stroke-linecap:round; stroke-linejoin:round; stroke-width:4; stroke-opacity:1; fill:none" points="539.568,1486.45 539.568,1467.55 "/>
<polyline clip-path="url(#clip270)" style="stroke:#000000; stroke-linecap:round; stroke-linejoin:round; stroke-width:4; stroke-opacity:1; fill:none" points="863.989,1486.45 863.989,1467.55 "/>
<polyline clip-path="url(#clip270)" style="stroke:#000000; stroke-linecap:round; stroke-linejoin:round; stroke-width:4; stroke-opacity:1; fill:none" points="1188.41,1486.45 1188.41,1467.55 "/>
<polyline clip-path="url(#clip270)" style="stroke:#000000; stroke-linecap:round; stroke-linejoin:round; stroke-width:4; stroke-opacity:1; fill:none" points="1512.83,1486.45 1512.83,1467.55 "/>
<polyline clip-path="url(#clip270)" style="stroke:#000000; stroke-linecap:round; stroke-linejoin:round; stroke-width:4; stroke-opacity:1; fill:none" points="1837.25,1486.45 1837.25,1467.55 "/>
<polyline clip-path="url(#clip270)" style="stroke:#000000; stroke-linecap:round; stroke-linejoin:round; stroke-width:4; stroke-opacity:1; fill:none" points="2161.67,1486.45 2161.67,1467.55 "/>
<path clip-path="url(#clip270)" d="M215.147 1517.37 Q211.536 1517.37 209.708 1520.93 Q207.902 1524.47 207.902 1531.6 Q207.902 1538.71 209.708 1542.27 Q211.536 1545.82 215.147 1545.82 Q218.782 1545.82 220.587 1542.27 Q222.416 1538.71 222.416 1531.6 Q222.416 1524.47 220.587 1520.93 Q218.782 1517.37 215.147 1517.37 M215.147 1513.66 Q220.958 1513.66 224.013 1518.27 Q227.092 1522.85 227.092 1531.6 Q227.092 1540.33 224.013 1544.94 Q220.958 1549.52 215.147 1549.52 Q209.337 1549.52 206.259 1544.94 Q203.203 1540.33 203.203 1531.6 Q203.203 1522.85 206.259 1518.27 Q209.337 1513.66 215.147 1513.66 Z" fill="#000000" fill-rule="nonzero" fill-opacity="1" /><path clip-path="url(#clip270)" d="M514.256 1544.91 L521.895 1544.91 L521.895 1518.55 L513.585 1520.21 L513.585 1515.95 L521.848 1514.29 L526.524 1514.29 L526.524 1544.91 L534.163 1544.91 L534.163 1548.85 L514.256 1548.85 L514.256 1544.91 Z" fill="#000000" fill-rule="nonzero" fill-opacity="1" /><path clip-path="url(#clip270)" d="M553.607 1517.37 Q549.996 1517.37 548.168 1520.93 Q546.362 1524.47 546.362 1531.6 Q546.362 1538.71 548.168 1542.27 Q549.996 1545.82 553.607 1545.82 Q557.242 1545.82 559.047 1542.27 Q560.876 1538.71 560.876 1531.6 Q560.876 1524.47 559.047 1520.93 Q557.242 1517.37 553.607 1517.37 M553.607 1513.66 Q559.418 1513.66 562.473 1518.27 Q565.552 1522.85 565.552 1531.6 Q565.552 1540.33 562.473 1544.94 Q559.418 1549.52 553.607 1549.52 Q547.797 1549.52 544.719 1544.94 Q541.663 1540.33 541.663 1531.6 Q541.663 1522.85 544.719 1518.27 Q547.797 1513.66 553.607 1513.66 Z" fill="#000000" fill-rule="nonzero" fill-opacity="1" /><path clip-path="url(#clip270)" d="M842.762 1544.91 L859.082 1544.91 L859.082 1548.85 L837.137 1548.85 L837.137 1544.91 Q839.799 1542.16 844.383 1537.53 Q848.989 1532.88 850.17 1531.53 Q852.415 1529.01 853.295 1527.27 Q854.197 1525.51 854.197 1523.82 Q854.197 1521.07 852.253 1519.33 Q850.332 1517.6 847.23 1517.6 Q845.031 1517.6 842.577 1518.36 Q840.147 1519.13 837.369 1520.68 L837.369 1515.95 Q840.193 1514.82 842.647 1514.24 Q845.1 1513.66 847.137 1513.66 Q852.508 1513.66 855.702 1516.35 Q858.896 1519.03 858.896 1523.52 Q858.896 1525.65 858.086 1527.57 Q857.299 1529.47 855.193 1532.07 Q854.614 1532.74 851.512 1535.95 Q848.41 1539.15 842.762 1544.91 Z" fill="#000000" fill-rule="nonzero" fill-opacity="1" /><path clip-path="url(#clip270)" d="M878.896 1517.37 Q875.285 1517.37 873.457 1520.93 Q871.651 1524.47 871.651 1531.6 Q871.651 1538.71 873.457 1542.27 Q875.285 1545.82 878.896 1545.82 Q882.531 1545.82 884.336 1542.27 Q886.165 1538.71 886.165 1531.6 Q886.165 1524.47 884.336 1520.93 Q882.531 1517.37 878.896 1517.37 M878.896 1513.66 Q884.706 1513.66 887.762 1518.27 Q890.841 1522.85 890.841 1531.6 Q890.841 1540.33 887.762 1544.94 Q884.706 1549.52 878.896 1549.52 Q873.086 1549.52 870.007 1544.94 Q866.952 1540.33 866.952 1531.6 Q866.952 1522.85 870.007 1518.27 Q873.086 1513.66 878.896 1513.66 Z" fill="#000000" fill-rule="nonzero" fill-opacity="1" /><path clip-path="url(#clip270)" d="M1177.25 1530.21 Q1180.61 1530.93 1182.48 1533.2 Q1184.38 1535.47 1184.38 1538.8 Q1184.38 1543.92 1180.86 1546.72 Q1177.35 1549.52 1170.86 1549.52 Q1168.69 1549.52 1166.37 1549.08 Q1164.08 1548.66 1161.63 1547.81 L1161.63 1543.29 Q1163.57 1544.43 1165.89 1545.01 Q1168.2 1545.58 1170.72 1545.58 Q1175.12 1545.58 1177.41 1543.85 Q1179.73 1542.11 1179.73 1538.8 Q1179.73 1535.75 1177.58 1534.03 Q1175.45 1532.3 1171.63 1532.3 L1167.6 1532.3 L1167.6 1528.45 L1171.81 1528.45 Q1175.26 1528.45 1177.09 1527.09 Q1178.92 1525.7 1178.92 1523.11 Q1178.92 1520.45 1177.02 1519.03 Q1175.15 1517.6 1171.63 1517.6 Q1169.71 1517.6 1167.51 1518.01 Q1165.31 1518.43 1162.67 1519.31 L1162.67 1515.14 Q1165.33 1514.4 1167.65 1514.03 Q1169.98 1513.66 1172.04 1513.66 Q1177.37 1513.66 1180.47 1516.09 Q1183.57 1518.5 1183.57 1522.62 Q1183.57 1525.49 1181.93 1527.48 Q1180.28 1529.45 1177.25 1530.21 Z" fill="#000000" fill-rule="nonzero" fill-opacity="1" /><path clip-path="url(#clip270)" d="M1203.25 1517.37 Q1199.64 1517.37 1197.81 1520.93 Q1196 1524.47 1196 1531.6 Q1196 1538.71 1197.81 1542.27 Q1199.64 1545.82 1203.25 1545.82 Q1206.88 1545.82 1208.69 1542.27 Q1210.52 1538.71 1210.52 1531.6 Q1210.52 1524.47 1208.69 1520.93 Q1206.88 1517.37 1203.25 1517.37 M1203.25 1513.66 Q1209.06 1513.66 1212.11 1518.27 Q1215.19 1522.85 1215.19 1531.6 Q1215.19 1540.33 1212.11 1544.94 Q1209.06 1549.52 1203.25 1549.52 Q1197.44 1549.52 1194.36 1544.94 Q1191.3 1540.33 1191.3 1531.6 Q1191.3 1522.85 1194.36 1518.27 Q1197.44 1513.66 1203.25 1513.66 Z" fill="#000000" fill-rule="nonzero" fill-opacity="1" /><path clip-path="url(#clip270)" d="M1501 1518.36 L1489.2 1536.81 L1501 1536.81 L1501 1518.36 M1499.78 1514.29 L1505.65 1514.29 L1505.65 1536.81 L1510.59 1536.81 L1510.59 1540.7 L1505.65 1540.7 L1505.65 1548.85 L1501 1548.85 L1501 1540.7 L1485.4 1540.7 L1485.4 1536.19 L1499.78 1514.29 Z" fill="#000000" fill-rule="nonzero" fill-opacity="1" /><path clip-path="url(#clip270)" d="M1528.32 1517.37 Q1524.71 1517.37 1522.88 1520.93 Q1521.07 1524.47 1521.07 1531.6 Q1521.07 1538.71 1522.88 1542.27 Q1524.71 1545.82 1528.32 1545.82 Q1531.95 1545.82 1533.76 1542.27 Q1535.59 1538.71 1535.59 1531.6 Q1535.59 1524.47 1533.76 1520.93 Q1531.95 1517.37 1528.32 1517.37 M1528.32 1513.66 Q1534.13 1513.66 1537.18 1518.27 Q1540.26 1522.85 1540.26 1531.6 Q1540.26 1540.33 1537.18 1544.94 Q1534.13 1549.52 1528.32 1549.52 Q1522.51 1549.52 1519.43 1544.94 Q1516.37 1540.33 1516.37 1531.6 Q1516.37 1522.85 1519.43 1518.27 Q1522.51 1513.66 1528.32 1513.66 Z" fill="#000000" fill-rule="nonzero" fill-opacity="1" /><path clip-path="url(#clip270)" d="M1811.95 1514.29 L1830.31 1514.29 L1830.31 1518.22 L1816.23 1518.22 L1816.23 1526.7 Q1817.25 1526.35 1818.27 1526.19 Q1819.29 1526 1820.31 1526 Q1826.09 1526 1829.47 1529.17 Q1832.85 1532.34 1832.85 1537.76 Q1832.85 1543.34 1829.38 1546.44 Q1825.91 1549.52 1819.59 1549.52 Q1817.41 1549.52 1815.14 1549.15 Q1812.9 1548.78 1810.49 1548.04 L1810.49 1543.34 Q1812.58 1544.47 1814.8 1545.03 Q1817.02 1545.58 1819.5 1545.58 Q1823.5 1545.58 1825.84 1543.48 Q1828.18 1541.37 1828.18 1537.76 Q1828.18 1534.15 1825.84 1532.04 Q1823.5 1529.94 1819.5 1529.94 Q1817.62 1529.94 1815.75 1530.35 Q1813.89 1530.77 1811.95 1531.65 L1811.95 1514.29 Z" fill="#000000" fill-rule="nonzero" fill-opacity="1" /><path clip-path="url(#clip270)" d="M1852.07 1517.37 Q1848.45 1517.37 1846.63 1520.93 Q1844.82 1524.47 1844.82 1531.6 Q1844.82 1538.71 1846.63 1542.27 Q1848.45 1545.82 1852.07 1545.82 Q1855.7 1545.82 1857.51 1542.27 Q1859.33 1538.71 1859.33 1531.6 Q1859.33 1524.47 1857.51 1520.93 Q1855.7 1517.37 1852.07 1517.37 M1852.07 1513.66 Q1857.88 1513.66 1860.93 1518.27 Q1864.01 1522.85 1864.01 1531.6 Q1864.01 1540.33 1860.93 1544.94 Q1857.88 1549.52 1852.07 1549.52 Q1846.26 1549.52 1843.18 1544.94 Q1840.12 1540.33 1840.12 1531.6 Q1840.12 1522.85 1843.18 1518.27 Q1846.26 1513.66 1852.07 1513.66 Z" fill="#000000" fill-rule="nonzero" fill-opacity="1" /><path clip-path="url(#clip270)" d="M2147.08 1529.7 Q2143.93 1529.7 2142.08 1531.86 Q2140.25 1534.01 2140.25 1537.76 Q2140.25 1541.49 2142.08 1543.66 Q2143.93 1545.82 2147.08 1545.82 Q2150.23 1545.82 2152.05 1543.66 Q2153.91 1541.49 2153.91 1537.76 Q2153.91 1534.01 2152.05 1531.86 Q2150.23 1529.7 2147.08 1529.7 M2156.36 1515.05 L2156.36 1519.31 Q2154.6 1518.48 2152.79 1518.04 Q2151.01 1517.6 2149.25 1517.6 Q2144.62 1517.6 2142.17 1520.72 Q2139.74 1523.85 2139.39 1530.17 Q2140.76 1528.15 2142.82 1527.09 Q2144.88 1526 2147.36 1526 Q2152.56 1526 2155.57 1529.17 Q2158.6 1532.32 2158.6 1537.76 Q2158.6 1543.08 2155.46 1546.3 Q2152.31 1549.52 2147.08 1549.52 Q2141.08 1549.52 2137.91 1544.94 Q2134.74 1540.33 2134.74 1531.6 Q2134.74 1523.41 2138.63 1518.55 Q2142.52 1513.66 2149.07 1513.66 Q2150.83 1513.66 2152.61 1514.01 Q2154.42 1514.36 2156.36 1515.05 Z" fill="#000000" fill-rule="nonzero" fill-opacity="1" /><path clip-path="url(#clip270)" d="M2176.66 1517.37 Q2173.05 1517.37 2171.22 1520.93 Q2169.42 1524.47 2169.42 1531.6 Q2169.42 1538.71 2171.22 1542.27 Q2173.05 1545.82 2176.66 1545.82 Q2180.29 1545.82 2182.1 1542.27 Q2183.93 1538.71 2183.93 1531.6 Q2183.93 1524.47 2182.1 1520.93 Q2180.29 1517.37 2176.66 1517.37 M2176.66 1513.66 Q2182.47 1513.66 2185.53 1518.27 Q2188.6 1522.85 2188.6 1531.6 Q2188.6 1540.33 2185.53 1544.94 Q2182.47 1549.52 2176.66 1549.52 Q2170.85 1549.52 2167.77 1544.94 Q2164.72 1540.33 2164.72 1531.6 Q2164.72 1522.85 2167.77 1518.27 Q2170.85 1513.66 2176.66 1513.66 Z" fill="#000000" fill-rule="nonzero" fill-opacity="1" /><polyline clip-path="url(#clip272)" style="stroke:#000000; stroke-linecap:round; stroke-linejoin:round; stroke-width:2; stroke-opacity:0.1; fill:none" points="186.274,1480.05 2352.76,1480.05 "/>
<polyline clip-path="url(#clip272)" style="stroke:#000000; stroke-linecap:round; stroke-linejoin:round; stroke-width:2; stroke-opacity:0.1; fill:none" points="186.274,1217.15 2352.76,1217.15 "/>
<polyline clip-path="url(#clip272)" style="stroke:#000000; stroke-linecap:round; stroke-linejoin:round; stroke-width:2; stroke-opacity:0.1; fill:none" points="186.274,954.249 2352.76,954.249 "/>
<polyline clip-path="url(#clip272)" style="stroke:#000000; stroke-linecap:round; stroke-linejoin:round; stroke-width:2; stroke-opacity:0.1; fill:none" points="186.274,691.35 2352.76,691.35 "/>
<polyline clip-path="url(#clip272)" style="stroke:#000000; stroke-linecap:round; stroke-linejoin:round; stroke-width:2; stroke-opacity:0.1; fill:none" points="186.274,428.45 2352.76,428.45 "/>
<polyline clip-path="url(#clip272)" style="stroke:#000000; stroke-linecap:round; stroke-linejoin:round; stroke-width:2; stroke-opacity:0.1; fill:none" points="186.274,165.55 2352.76,165.55 "/>
<polyline clip-path="url(#clip270)" style="stroke:#000000; stroke-linecap:round; stroke-linejoin:round; stroke-width:4; stroke-opacity:1; fill:none" points="186.274,1486.45 186.274,47.2441 "/>
<polyline clip-path="url(#clip270)" style="stroke:#000000; stroke-linecap:round; stroke-linejoin:round; stroke-width:4; stroke-opacity:1; fill:none" points="186.274,1480.05 205.172,1480.05 "/>
<polyline clip-path="url(#clip270)" style="stroke:#000000; stroke-linecap:round; stroke-linejoin:round; stroke-width:4; stroke-opacity:1; fill:none" points="186.274,1217.15 205.172,1217.15 "/>
<polyline clip-path="url(#clip270)" style="stroke:#000000; stroke-linecap:round; stroke-linejoin:round; stroke-width:4; stroke-opacity:1; fill:none" points="186.274,954.249 205.172,954.249 "/>
<polyline clip-path="url(#clip270)" style="stroke:#000000; stroke-linecap:round; stroke-linejoin:round; stroke-width:4; stroke-opacity:1; fill:none" points="186.274,691.35 205.172,691.35 "/>
<polyline clip-path="url(#clip270)" style="stroke:#000000; stroke-linecap:round; stroke-linejoin:round; stroke-width:4; stroke-opacity:1; fill:none" points="186.274,428.45 205.172,428.45 "/>
<polyline clip-path="url(#clip270)" style="stroke:#000000; stroke-linecap:round; stroke-linejoin:round; stroke-width:4; stroke-opacity:1; fill:none" points="186.274,165.55 205.172,165.55 "/>
<path clip-path="url(#clip270)" d="M63.0291 1465.85 Q59.418 1465.85 57.5893 1469.41 Q55.7838 1472.95 55.7838 1480.08 Q55.7838 1487.19 57.5893 1490.75 Q59.418 1494.3 63.0291 1494.3 Q66.6633 1494.3 68.4689 1490.75 Q70.2976 1487.19 70.2976 1480.08 Q70.2976 1472.95 68.4689 1469.41 Q66.6633 1465.85 63.0291 1465.85 M63.0291 1462.14 Q68.8393 1462.14 71.8948 1466.75 Q74.9735 1471.33 74.9735 1480.08 Q74.9735 1488.81 71.8948 1493.42 Q68.8393 1498 63.0291 1498 Q57.2189 1498 54.1403 1493.42 Q51.0847 1488.81 51.0847 1480.08 Q51.0847 1471.33 54.1403 1466.75 Q57.2189 1462.14 63.0291 1462.14 Z" fill="#000000" fill-rule="nonzero" fill-opacity="1" /><path clip-path="url(#clip270)" d="M83.191 1491.45 L88.0753 1491.45 L88.0753 1497.33 L83.191 1497.33 L83.191 1491.45 Z" fill="#000000" fill-rule="nonzero" fill-opacity="1" /><path clip-path="url(#clip270)" d="M99.0706 1493.39 L106.709 1493.39 L106.709 1467.03 L98.3993 1468.69 L98.3993 1464.44 L106.663 1462.77 L111.339 1462.77 L111.339 1493.39 L118.978 1493.39 L118.978 1497.33 L99.0706 1497.33 L99.0706 1493.39 Z" fill="#000000" fill-rule="nonzero" fill-opacity="1" /><path clip-path="url(#clip270)" d="M138.422 1480.92 Q135.089 1480.92 133.168 1482.7 Q131.269 1484.48 131.269 1487.61 Q131.269 1490.73 133.168 1492.51 Q135.089 1494.3 138.422 1494.3 Q141.756 1494.3 143.677 1492.51 Q145.598 1490.71 145.598 1487.61 Q145.598 1484.48 143.677 1482.7 Q141.779 1480.92 138.422 1480.92 M133.746 1478.93 Q130.737 1478.19 129.047 1476.13 Q127.381 1474.07 127.381 1471.1 Q127.381 1466.96 130.32 1464.55 Q133.283 1462.14 138.422 1462.14 Q143.584 1462.14 146.524 1464.55 Q149.464 1466.96 149.464 1471.1 Q149.464 1474.07 147.774 1476.13 Q146.107 1478.19 143.121 1478.93 Q146.501 1479.71 148.376 1482 Q150.274 1484.3 150.274 1487.61 Q150.274 1492.63 147.195 1495.31 Q144.14 1498 138.422 1498 Q132.705 1498 129.626 1495.31 Q126.57 1492.63 126.57 1487.61 Q126.57 1484.3 128.469 1482 Q130.367 1479.71 133.746 1478.93 M132.033 1471.54 Q132.033 1474.23 133.7 1475.73 Q135.39 1477.24 138.422 1477.24 Q141.431 1477.24 143.121 1475.73 Q144.834 1474.23 144.834 1471.54 Q144.834 1468.86 143.121 1467.35 Q141.431 1465.85 138.422 1465.85 Q135.39 1465.85 133.7 1467.35 Q132.033 1468.86 132.033 1471.54 Z" fill="#000000" fill-rule="nonzero" fill-opacity="1" /><path clip-path="url(#clip270)" d="M63.1217 1202.95 Q59.5106 1202.95 57.6819 1206.51 Q55.8764 1210.05 55.8764 1217.18 Q55.8764 1224.29 57.6819 1227.86 Q59.5106 1231.4 63.1217 1231.4 Q66.7559 1231.4 68.5615 1227.86 Q70.3902 1224.29 70.3902 1217.18 Q70.3902 1210.05 68.5615 1206.51 Q66.7559 1202.95 63.1217 1202.95 M63.1217 1199.24 Q68.9318 1199.24 71.9874 1203.85 Q75.0661 1208.43 75.0661 1217.18 Q75.0661 1225.91 71.9874 1230.52 Q68.9318 1235.1 63.1217 1235.1 Q57.3115 1235.1 54.2328 1230.52 Q51.1773 1225.91 51.1773 1217.18 Q51.1773 1208.43 54.2328 1203.85 Q57.3115 1199.24 63.1217 1199.24 Z" fill="#000000" fill-rule="nonzero" fill-opacity="1" /><path clip-path="url(#clip270)" d="M83.2836 1228.55 L88.1679 1228.55 L88.1679 1234.43 L83.2836 1234.43 L83.2836 1228.55 Z" fill="#000000" fill-rule="nonzero" fill-opacity="1" /><path clip-path="url(#clip270)" d="M99.1632 1230.49 L106.802 1230.49 L106.802 1204.13 L98.4919 1205.79 L98.4919 1201.54 L106.756 1199.87 L111.432 1199.87 L111.432 1230.49 L119.07 1230.49 L119.07 1234.43 L99.1632 1234.43 L99.1632 1230.49 Z" fill="#000000" fill-rule="nonzero" fill-opacity="1" /><path clip-path="url(#clip270)" d="M128.654 1233.71 L128.654 1229.45 Q130.413 1230.29 132.219 1230.73 Q134.024 1231.17 135.76 1231.17 Q140.39 1231.17 142.82 1228.06 Q145.274 1224.94 145.621 1218.6 Q144.279 1220.59 142.218 1221.65 Q140.158 1222.72 137.658 1222.72 Q132.473 1222.72 129.441 1219.59 Q126.432 1216.44 126.432 1211 Q126.432 1205.68 129.58 1202.46 Q132.728 1199.24 137.959 1199.24 Q143.955 1199.24 147.103 1203.85 Q150.274 1208.43 150.274 1217.18 Q150.274 1225.36 146.385 1230.24 Q142.519 1235.1 135.969 1235.1 Q134.209 1235.1 132.404 1234.75 Q130.598 1234.41 128.654 1233.71 M137.959 1219.06 Q141.107 1219.06 142.936 1216.91 Q144.788 1214.75 144.788 1211 Q144.788 1207.28 142.936 1205.12 Q141.107 1202.95 137.959 1202.95 Q134.811 1202.95 132.959 1205.12 Q131.131 1207.28 131.131 1211 Q131.131 1214.75 132.959 1216.91 Q134.811 1219.06 137.959 1219.06 Z" fill="#000000" fill-rule="nonzero" fill-opacity="1" /><path clip-path="url(#clip270)" d="M62.9365 940.048 Q59.3254 940.048 57.4967 943.613 Q55.6912 947.155 55.6912 954.284 Q55.6912 961.391 57.4967 964.955 Q59.3254 968.497 62.9365 968.497 Q66.5707 968.497 68.3763 964.955 Q70.205 961.391 70.205 954.284 Q70.205 947.155 68.3763 943.613 Q66.5707 940.048 62.9365 940.048 M62.9365 936.344 Q68.7467 936.344 71.8022 940.951 Q74.8809 945.534 74.8809 954.284 Q74.8809 963.011 71.8022 967.617 Q68.7467 972.201 62.9365 972.201 Q57.1264 972.201 54.0477 967.617 Q50.9921 963.011 50.9921 954.284 Q50.9921 945.534 54.0477 940.951 Q57.1264 936.344 62.9365 936.344 Z" fill="#000000" fill-rule="nonzero" fill-opacity="1" /><path clip-path="url(#clip270)" d="M83.0984 965.65 L87.9827 965.65 L87.9827 971.529 L83.0984 971.529 L83.0984 965.65 Z" fill="#000000" fill-rule="nonzero" fill-opacity="1" /><path clip-path="url(#clip270)" d="M102.196 967.594 L118.515 967.594 L118.515 971.529 L96.5706 971.529 L96.5706 967.594 Q99.2326 964.84 103.816 960.21 Q108.422 955.557 109.603 954.215 Q111.848 951.692 112.728 949.955 Q113.631 948.196 113.631 946.506 Q113.631 943.752 111.686 942.016 Q109.765 940.28 106.663 940.28 Q104.464 940.28 102.01 941.043 Q99.5798 941.807 96.8021 943.358 L96.8021 938.636 Q99.6261 937.502 102.08 936.923 Q104.534 936.344 106.571 936.344 Q111.941 936.344 115.135 939.03 Q118.33 941.715 118.33 946.205 Q118.33 948.335 117.52 950.256 Q116.733 952.154 114.626 954.747 Q114.047 955.418 110.946 958.636 Q107.844 961.83 102.196 967.594 Z" fill="#000000" fill-rule="nonzero" fill-opacity="1" /><path clip-path="url(#clip270)" d="M138.33 940.048 Q134.719 940.048 132.89 943.613 Q131.084 947.155 131.084 954.284 Q131.084 961.391 132.89 964.955 Q134.719 968.497 138.33 968.497 Q141.964 968.497 143.769 964.955 Q145.598 961.391 145.598 954.284 Q145.598 947.155 143.769 943.613 Q141.964 940.048 138.33 940.048 M138.33 936.344 Q144.14 936.344 147.195 940.951 Q150.274 945.534 150.274 954.284 Q150.274 963.011 147.195 967.617 Q144.14 972.201 138.33 972.201 Q132.519 972.201 129.441 967.617 Q126.385 963.011 126.385 954.284 Q126.385 945.534 129.441 940.951 Q132.519 936.344 138.33 936.344 Z" fill="#000000" fill-rule="nonzero" fill-opacity="1" /><path clip-path="url(#clip270)" d="M64.1634 677.148 Q60.5523 677.148 58.7236 680.713 Q56.918 684.255 56.918 691.384 Q56.918 698.491 58.7236 702.056 Q60.5523 705.597 64.1634 705.597 Q67.7976 705.597 69.6031 702.056 Q71.4318 698.491 71.4318 691.384 Q71.4318 684.255 69.6031 680.713 Q67.7976 677.148 64.1634 677.148 M64.1634 673.445 Q69.9735 673.445 73.029 678.051 Q76.1077 682.634 76.1077 691.384 Q76.1077 700.111 73.029 704.718 Q69.9735 709.301 64.1634 709.301 Q58.3532 709.301 55.2745 704.718 Q52.219 700.111 52.219 691.384 Q52.219 682.634 55.2745 678.051 Q58.3532 673.445 64.1634 673.445 Z" fill="#000000" fill-rule="nonzero" fill-opacity="1" /><path clip-path="url(#clip270)" d="M84.3253 702.75 L89.2095 702.75 L89.2095 708.63 L84.3253 708.63 L84.3253 702.75 Z" fill="#000000" fill-rule="nonzero" fill-opacity="1" /><path clip-path="url(#clip270)" d="M103.422 704.695 L119.742 704.695 L119.742 708.63 L97.7974 708.63 L97.7974 704.695 Q100.459 701.94 105.043 697.31 Q109.649 692.658 110.83 691.315 Q113.075 688.792 113.955 687.056 Q114.858 685.296 114.858 683.607 Q114.858 680.852 112.913 679.116 Q110.992 677.38 107.89 677.38 Q105.691 677.38 103.237 678.144 Q100.807 678.908 98.0289 680.459 L98.0289 675.736 Q100.853 674.602 103.307 674.023 Q105.76 673.445 107.797 673.445 Q113.168 673.445 116.362 676.13 Q119.557 678.815 119.557 683.306 Q119.557 685.435 118.746 687.357 Q117.959 689.255 115.853 691.847 Q115.274 692.519 112.172 695.736 Q109.071 698.931 103.422 704.695 Z" fill="#000000" fill-rule="nonzero" fill-opacity="1" /><path clip-path="url(#clip270)" d="M130.367 704.695 L138.006 704.695 L138.006 678.329 L129.695 679.996 L129.695 675.736 L137.959 674.07 L142.635 674.07 L142.635 704.695 L150.274 704.695 L150.274 708.63 L130.367 708.63 L130.367 704.695 Z" fill="#000000" fill-rule="nonzero" fill-opacity="1" /><path clip-path="url(#clip270)" d="M64.5337 414.249 Q60.9226 414.249 59.0939 417.813 Q57.2884 421.355 57.2884 428.485 Q57.2884 435.591 59.0939 439.156 Q60.9226 442.698 64.5337 442.698 Q68.168 442.698 69.9735 439.156 Q71.8022 435.591 71.8022 428.485 Q71.8022 421.355 69.9735 417.813 Q68.168 414.249 64.5337 414.249 M64.5337 410.545 Q70.3439 410.545 73.3994 415.151 Q76.4781 419.735 76.4781 428.485 Q76.4781 437.212 73.3994 441.818 Q70.3439 446.401 64.5337 446.401 Q58.7236 446.401 55.6449 441.818 Q52.5893 437.212 52.5893 428.485 Q52.5893 419.735 55.6449 415.151 Q58.7236 410.545 64.5337 410.545 Z" fill="#000000" fill-rule="nonzero" fill-opacity="1" /><path clip-path="url(#clip270)" d="M84.6956 439.85 L89.5799 439.85 L89.5799 445.73 L84.6956 445.73 L84.6956 439.85 Z" fill="#000000" fill-rule="nonzero" fill-opacity="1" /><path clip-path="url(#clip270)" d="M103.793 441.795 L120.112 441.795 L120.112 445.73 L98.1678 445.73 L98.1678 441.795 Q100.83 439.04 105.413 434.411 Q110.02 429.758 111.2 428.415 Q113.445 425.892 114.325 424.156 Q115.228 422.397 115.228 420.707 Q115.228 417.952 113.283 416.216 Q111.362 414.48 108.26 414.48 Q106.061 414.48 103.608 415.244 Q101.177 416.008 98.3993 417.559 L98.3993 412.837 Q101.223 411.702 103.677 411.124 Q106.131 410.545 108.168 410.545 Q113.538 410.545 116.733 413.23 Q119.927 415.915 119.927 420.406 Q119.927 422.536 119.117 424.457 Q118.33 426.355 116.223 428.948 Q115.645 429.619 112.543 432.837 Q109.441 436.031 103.793 441.795 Z" fill="#000000" fill-rule="nonzero" fill-opacity="1" /><path clip-path="url(#clip270)" d="M133.955 441.795 L150.274 441.795 L150.274 445.73 L128.33 445.73 L128.33 441.795 Q130.992 439.04 135.575 434.411 Q140.181 429.758 141.362 428.415 Q143.607 425.892 144.487 424.156 Q145.39 422.397 145.39 420.707 Q145.39 417.952 143.445 416.216 Q141.524 414.48 138.422 414.48 Q136.223 414.48 133.769 415.244 Q131.339 416.008 128.561 417.559 L128.561 412.837 Q131.385 411.702 133.839 411.124 Q136.293 410.545 138.33 410.545 Q143.7 410.545 146.894 413.23 Q150.089 415.915 150.089 420.406 Q150.089 422.536 149.279 424.457 Q148.492 426.355 146.385 428.948 Q145.806 429.619 142.705 432.837 Q139.603 436.031 133.955 441.795 Z" fill="#000000" fill-rule="nonzero" fill-opacity="1" /><path clip-path="url(#clip270)" d="M63.5847 151.349 Q59.9736 151.349 58.1449 154.914 Q56.3393 158.455 56.3393 165.585 Q56.3393 172.691 58.1449 176.256 Q59.9736 179.798 63.5847 179.798 Q67.2189 179.798 69.0244 176.256 Q70.8531 172.691 70.8531 165.585 Q70.8531 158.455 69.0244 154.914 Q67.2189 151.349 63.5847 151.349 M63.5847 147.645 Q69.3948 147.645 72.4503 152.252 Q75.529 156.835 75.529 165.585 Q75.529 174.312 72.4503 178.918 Q69.3948 183.502 63.5847 183.502 Q57.7745 183.502 54.6958 178.918 Q51.6403 174.312 51.6403 165.585 Q51.6403 156.835 54.6958 152.252 Q57.7745 147.645 63.5847 147.645 Z" fill="#000000" fill-rule="nonzero" fill-opacity="1" /><path clip-path="url(#clip270)" d="M83.7466 176.951 L88.6308 176.951 L88.6308 182.83 L83.7466 182.83 L83.7466 176.951 Z" fill="#000000" fill-rule="nonzero" fill-opacity="1" /><path clip-path="url(#clip270)" d="M102.844 178.895 L119.163 178.895 L119.163 182.83 L97.2187 182.83 L97.2187 178.895 Q99.8808 176.141 104.464 171.511 Q109.071 166.858 110.251 165.516 Q112.496 162.992 113.376 161.256 Q114.279 159.497 114.279 157.807 Q114.279 155.053 112.334 153.317 Q110.413 151.58 107.311 151.58 Q105.112 151.58 102.659 152.344 Q100.228 153.108 97.4502 154.659 L97.4502 149.937 Q100.274 148.803 102.728 148.224 Q105.182 147.645 107.219 147.645 Q112.589 147.645 115.783 150.33 Q118.978 153.016 118.978 157.506 Q118.978 159.636 118.168 161.557 Q117.381 163.455 115.274 166.048 Q114.695 166.719 111.594 169.937 Q108.492 173.131 102.844 178.895 Z" fill="#000000" fill-rule="nonzero" fill-opacity="1" /><path clip-path="url(#clip270)" d="M143.144 164.196 Q146.501 164.914 148.376 167.182 Q150.274 169.451 150.274 172.784 Q150.274 177.9 146.756 180.701 Q143.237 183.502 136.756 183.502 Q134.58 183.502 132.265 183.062 Q129.973 182.645 127.519 181.789 L127.519 177.275 Q129.464 178.409 131.779 178.988 Q134.094 179.566 136.617 179.566 Q141.015 179.566 143.306 177.83 Q145.621 176.094 145.621 172.784 Q145.621 169.729 143.468 168.016 Q141.339 166.279 137.519 166.279 L133.492 166.279 L133.492 162.437 L137.705 162.437 Q141.154 162.437 142.982 161.071 Q144.811 159.682 144.811 157.09 Q144.811 154.428 142.913 153.016 Q141.038 151.58 137.519 151.58 Q135.598 151.58 133.399 151.997 Q131.2 152.414 128.561 153.293 L128.561 149.127 Q131.223 148.386 133.538 148.016 Q135.876 147.645 137.936 147.645 Q143.26 147.645 146.362 150.076 Q149.464 152.483 149.464 156.604 Q149.464 159.474 147.82 161.465 Q146.177 163.432 143.144 164.196 Z" fill="#000000" fill-rule="nonzero" fill-opacity="1" /><polyline clip-path="url(#clip272)" style="stroke:#009af9; stroke-linecap:round; stroke-linejoin:round; stroke-width:4; stroke-opacity:1; fill:none" points="247.59,1065.78 280.032,949.284 312.474,590.598 344.916,221.763 377.358,448.539 409.8,276.876 442.242,537.693 474.684,106.818 507.126,159.483 539.568,87.9763 572.01,579.782 604.452,353.935 636.894,460.804 669.337,406.058 701.779,331.896 734.221,666.115 766.663,719.877 799.105,562.144 831.547,489.985 863.989,486.724 896.431,794.569 928.873,658.741 961.315,587.672 993.757,725.818 1026.2,492.04 1058.64,311.995 1091.08,199.721 1123.53,589.005 1155.97,436.959 1188.41,486.046 1220.85,519.426 1253.29,349.547 1285.74,289.336 1318.18,223.543 1350.62,623.727 1383.06,710.869 1415.5,473.236 1447.95,866.243 1480.39,510.411 1512.83,657.161 1545.27,322.688 1577.71,437.29 1610.16,429.411 1642.6,758.113 1675.04,508.085 1707.48,541.75 1739.93,522.635 1772.37,482.199 1804.81,497.284 1837.25,651.251 1869.69,666.419 1902.14,649.52 1934.58,548.58 1967.02,419.287 1999.46,477.359 2031.9,324.592 2064.35,321.749 2096.79,762.894 2129.23,478.577 2161.67,831.267 2194.11,618.049 2226.56,734.358 2259,623.994 2291.44,287.878 "/>
<polyline clip-path="url(#clip272)" style="stroke:#e26f46; stroke-linecap:round; stroke-linejoin:round; stroke-width:4; stroke-opacity:1; fill:none" points="247.59,1051.2 280.032,774.104 312.474,741.266 344.916,667.755 377.358,481.795 409.8,907.603 442.242,909.791 474.684,568.383 507.126,513.295 539.568,507.185 572.01,796.785 604.452,442.86 636.894,720.479 669.337,821.743 701.779,785.322 734.221,329.753 766.663,639.384 799.105,880.287 831.547,902.118 863.989,780.21 896.431,750.766 928.873,1105.88 961.315,604.746 993.757,898.103 1026.2,651.72 1058.64,945.5 1091.08,996.395 1123.53,916.605 1155.97,878.669 1188.41,841.795 1220.85,816.741 1253.29,587.874 1285.74,798.372 1318.18,1099.11 1350.62,517.915 1383.06,649.279 1415.5,933.524 1447.95,1069.77 1480.39,927.946 1512.83,1129.16 1545.27,700.216 1577.71,847.428 1610.16,866.955 1642.6,842.579 1675.04,930.676 1707.48,1280.27 1739.93,1072.05 1772.37,809.371 1804.81,555.129 1837.25,1020.55 1869.69,942.029 1902.14,901.241 1934.58,847.171 1967.02,1445.72 1999.46,1101.73 2031.9,1119.65 2064.35,977.827 2096.79,1088.7 2129.23,785.348 2161.67,880.454 2194.11,946.352 2226.56,753.237 2259,1054.05 2291.44,374.152 "/>
<path clip-path="url(#clip270)" d="M258.49 1438.47 L696.85 1438.47 L696.85 1282.95 L258.49 1282.95  Z" fill="#ffffff" fill-rule="evenodd" fill-opacity="1"/>
<polyline clip-path="url(#clip270)" style="stroke:#000000; stroke-linecap:round; stroke-linejoin:round; stroke-width:4; stroke-opacity:1; fill:none" points="258.49,1438.47 696.85,1438.47 696.85,1282.95 258.49,1282.95 258.49,1438.47 "/>
<polyline clip-path="url(#clip270)" style="stroke:#009af9; stroke-linecap:round; stroke-linejoin:round; stroke-width:4; stroke-opacity:1; fill:none" points="282.562,1334.79 426.994,1334.79 "/>
<path clip-path="url(#clip270)" d="M466.251 1330.13 Q465.534 1329.71 464.677 1329.53 Q463.844 1329.32 462.825 1329.32 Q459.214 1329.32 457.27 1331.68 Q455.349 1334.02 455.349 1338.42 L455.349 1352.07 L451.066 1352.07 L451.066 1326.15 L455.349 1326.15 L455.349 1330.18 Q456.691 1327.82 458.844 1326.68 Q460.997 1325.52 464.075 1325.52 Q464.515 1325.52 465.048 1325.59 Q465.58 1325.64 466.228 1325.76 L466.251 1330.13 Z" fill="#000000" fill-rule="nonzero" fill-opacity="1" /><path clip-path="url(#clip270)" d="M482.501 1339.04 Q477.339 1339.04 475.349 1340.22 Q473.358 1341.4 473.358 1344.25 Q473.358 1346.52 474.839 1347.86 Q476.344 1349.18 478.913 1349.18 Q482.455 1349.18 484.585 1346.68 Q486.737 1344.16 486.737 1339.99 L486.737 1339.04 L482.501 1339.04 M490.997 1337.28 L490.997 1352.07 L486.737 1352.07 L486.737 1348.14 Q485.279 1350.5 483.103 1351.63 Q480.927 1352.75 477.779 1352.75 Q473.798 1352.75 471.436 1350.52 Q469.099 1348.28 469.099 1344.53 Q469.099 1340.15 472.015 1337.93 Q474.955 1335.71 480.765 1335.71 L486.737 1335.71 L486.737 1335.29 Q486.737 1332.35 484.793 1330.76 Q482.872 1329.13 479.376 1329.13 Q477.154 1329.13 475.048 1329.67 Q472.941 1330.2 470.997 1331.26 L470.997 1327.33 Q473.335 1326.43 475.534 1325.99 Q477.733 1325.52 479.816 1325.52 Q485.441 1325.52 488.219 1328.44 Q490.997 1331.36 490.997 1337.28 Z" fill="#000000" fill-rule="nonzero" fill-opacity="1" /><path clip-path="url(#clip270)" d="M497.293 1326.15 L501.552 1326.15 L506.876 1346.38 L512.177 1326.15 L517.2 1326.15 L522.524 1346.38 L527.825 1326.15 L532.084 1326.15 L525.302 1352.07 L520.279 1352.07 L514.7 1330.82 L509.098 1352.07 L504.075 1352.07 L497.293 1326.15 Z" fill="#000000" fill-rule="nonzero" fill-opacity="1" /><path clip-path="url(#clip270)" d="M558.242 1359.94 L558.242 1363.25 L533.612 1363.25 L533.612 1359.94 L558.242 1359.94 Z" fill="#000000" fill-rule="nonzero" fill-opacity="1" /><path clip-path="url(#clip270)" d="M580.904 1327.14 L580.904 1331.13 Q579.098 1330.13 577.269 1329.64 Q575.464 1329.13 573.612 1329.13 Q569.468 1329.13 567.177 1331.77 Q564.885 1334.39 564.885 1339.13 Q564.885 1343.88 567.177 1346.52 Q569.468 1349.13 573.612 1349.13 Q575.464 1349.13 577.269 1348.65 Q579.098 1348.14 580.904 1347.14 L580.904 1351.08 Q579.121 1351.91 577.2 1352.33 Q575.302 1352.75 573.149 1352.75 Q567.292 1352.75 563.843 1349.07 Q560.394 1345.38 560.394 1339.13 Q560.394 1332.79 563.867 1329.16 Q567.362 1325.52 573.427 1325.52 Q575.394 1325.52 577.269 1325.94 Q579.144 1326.33 580.904 1327.14 Z" fill="#000000" fill-rule="nonzero" fill-opacity="1" /><path clip-path="url(#clip270)" d="M598.357 1329.13 Q594.931 1329.13 592.94 1331.82 Q590.95 1334.48 590.95 1339.13 Q590.95 1343.79 592.917 1346.47 Q594.908 1349.13 598.357 1349.13 Q601.76 1349.13 603.751 1346.45 Q605.741 1343.76 605.741 1339.13 Q605.741 1334.53 603.751 1331.84 Q601.76 1329.13 598.357 1329.13 M598.357 1325.52 Q603.913 1325.52 607.084 1329.13 Q610.255 1332.75 610.255 1339.13 Q610.255 1345.5 607.084 1349.13 Q603.913 1352.75 598.357 1352.75 Q592.778 1352.75 589.607 1349.13 Q586.459 1345.5 586.459 1339.13 Q586.459 1332.75 589.607 1329.13 Q592.778 1325.52 598.357 1325.52 Z" fill="#000000" fill-rule="nonzero" fill-opacity="1" /><path clip-path="url(#clip270)" d="M633.843 1326.91 L633.843 1330.94 Q632.037 1330.01 630.093 1329.55 Q628.149 1329.09 626.065 1329.09 Q622.894 1329.09 621.297 1330.06 Q619.723 1331.03 619.723 1332.98 Q619.723 1334.46 620.857 1335.32 Q621.991 1336.15 625.417 1336.91 L626.875 1337.24 Q631.412 1338.21 633.311 1339.99 Q635.232 1341.75 635.232 1344.92 Q635.232 1348.53 632.362 1350.64 Q629.514 1352.75 624.514 1352.75 Q622.431 1352.75 620.163 1352.33 Q617.917 1351.94 615.417 1351.13 L615.417 1346.73 Q617.778 1347.95 620.07 1348.58 Q622.362 1349.18 624.607 1349.18 Q627.616 1349.18 629.237 1348.16 Q630.857 1347.12 630.857 1345.25 Q630.857 1343.51 629.676 1342.58 Q628.519 1341.66 624.561 1340.8 L623.079 1340.45 Q619.121 1339.62 617.362 1337.91 Q615.602 1336.17 615.602 1333.16 Q615.602 1329.51 618.195 1327.51 Q620.788 1325.52 625.556 1325.52 Q627.917 1325.52 630 1325.87 Q632.084 1326.22 633.843 1326.91 Z" fill="#000000" fill-rule="nonzero" fill-opacity="1" /><path clip-path="url(#clip270)" d="M646.227 1318.79 L646.227 1326.15 L655 1326.15 L655 1329.46 L646.227 1329.46 L646.227 1343.53 Q646.227 1346.7 647.084 1347.61 Q647.963 1348.51 650.625 1348.51 L655 1348.51 L655 1352.07 L650.625 1352.07 Q645.695 1352.07 643.82 1350.25 Q641.945 1348.39 641.945 1343.53 L641.945 1329.46 L638.82 1329.46 L638.82 1326.15 L641.945 1326.15 L641.945 1318.79 L646.227 1318.79 Z" fill="#000000" fill-rule="nonzero" fill-opacity="1" /><polyline clip-path="url(#clip270)" style="stroke:#e26f46; stroke-linecap:round; stroke-linejoin:round; stroke-width:4; stroke-opacity:1; fill:none" points="282.562,1386.63 426.994,1386.63 "/>
<path clip-path="url(#clip270)" d="M469.978 1390.65 Q469.978 1386.02 468.057 1383.47 Q466.159 1380.93 462.71 1380.93 Q459.284 1380.93 457.362 1383.47 Q455.464 1386.02 455.464 1390.65 Q455.464 1395.26 457.362 1397.8 Q459.284 1400.35 462.71 1400.35 Q466.159 1400.35 468.057 1397.8 Q469.978 1395.26 469.978 1390.65 M474.237 1400.7 Q474.237 1407.32 471.298 1410.53 Q468.358 1413.78 462.293 1413.78 Q460.048 1413.78 458.057 1413.43 Q456.066 1413.1 454.191 1412.41 L454.191 1408.27 Q456.066 1409.28 457.895 1409.77 Q459.724 1410.26 461.622 1410.26 Q465.812 1410.26 467.895 1408.06 Q469.978 1405.88 469.978 1401.46 L469.978 1399.35 Q468.659 1401.65 466.599 1402.78 Q464.538 1403.91 461.668 1403.91 Q456.9 1403.91 453.983 1400.28 Q451.066 1396.65 451.066 1390.65 Q451.066 1384.63 453.983 1381 Q456.9 1377.36 461.668 1377.36 Q464.538 1377.36 466.599 1378.5 Q468.659 1379.63 469.978 1381.92 L469.978 1377.99 L474.237 1377.99 L474.237 1400.7 Z" fill="#000000" fill-rule="nonzero" fill-opacity="1" /><path clip-path="url(#clip270)" d="M482.571 1393.68 L482.571 1377.99 L486.83 1377.99 L486.83 1393.52 Q486.83 1397.2 488.265 1399.05 Q489.7 1400.88 492.571 1400.88 Q496.02 1400.88 498.01 1398.68 Q500.024 1396.48 500.024 1392.69 L500.024 1377.99 L504.284 1377.99 L504.284 1403.91 L500.024 1403.91 L500.024 1399.93 Q498.473 1402.29 496.413 1403.45 Q494.376 1404.59 491.668 1404.59 Q487.2 1404.59 484.885 1401.81 Q482.571 1399.03 482.571 1393.68 M493.288 1377.36 L493.288 1377.36 Z" fill="#000000" fill-rule="nonzero" fill-opacity="1" /><path clip-path="url(#clip270)" d="M513.057 1377.99 L517.316 1377.99 L517.316 1403.91 L513.057 1403.91 L513.057 1377.99 M513.057 1367.9 L517.316 1367.9 L517.316 1373.29 L513.057 1373.29 L513.057 1367.9 Z" fill="#000000" fill-rule="nonzero" fill-opacity="1" /><path clip-path="url(#clip270)" d="M543.288 1381.92 L543.288 1367.9 L547.547 1367.9 L547.547 1403.91 L543.288 1403.91 L543.288 1400.03 Q541.945 1402.34 539.885 1403.47 Q537.848 1404.59 534.978 1404.59 Q530.279 1404.59 527.316 1400.84 Q524.376 1397.09 524.376 1390.97 Q524.376 1384.86 527.316 1381.11 Q530.279 1377.36 534.978 1377.36 Q537.848 1377.36 539.885 1378.5 Q541.945 1379.61 543.288 1381.92 M528.774 1390.97 Q528.774 1395.67 530.695 1398.36 Q532.64 1401.02 536.019 1401.02 Q539.399 1401.02 541.344 1398.36 Q543.288 1395.67 543.288 1390.97 Q543.288 1386.28 541.344 1383.61 Q539.399 1380.93 536.019 1380.93 Q532.64 1380.93 530.695 1383.61 Q528.774 1386.28 528.774 1390.97 Z" fill="#000000" fill-rule="nonzero" fill-opacity="1" /><path clip-path="url(#clip270)" d="M576.019 1411.78 L576.019 1415.09 L551.39 1415.09 L551.39 1411.78 L576.019 1411.78 Z" fill="#000000" fill-rule="nonzero" fill-opacity="1" /><path clip-path="url(#clip270)" d="M598.681 1378.98 L598.681 1382.97 Q596.876 1381.97 595.047 1381.48 Q593.241 1380.97 591.39 1380.97 Q587.246 1380.97 584.954 1383.61 Q582.663 1386.23 582.663 1390.97 Q582.663 1395.72 584.954 1398.36 Q587.246 1400.97 591.39 1400.97 Q593.241 1400.97 595.047 1400.49 Q596.876 1399.98 598.681 1398.98 L598.681 1402.92 Q596.899 1403.75 594.978 1404.17 Q593.079 1404.59 590.927 1404.59 Q585.07 1404.59 581.621 1400.91 Q578.172 1397.22 578.172 1390.97 Q578.172 1384.63 581.644 1381 Q585.14 1377.36 591.204 1377.36 Q593.172 1377.36 595.047 1377.78 Q596.922 1378.17 598.681 1378.98 Z" fill="#000000" fill-rule="nonzero" fill-opacity="1" /><path clip-path="url(#clip270)" d="M616.135 1380.97 Q612.709 1380.97 610.718 1383.66 Q608.727 1386.32 608.727 1390.97 Q608.727 1395.63 610.695 1398.31 Q612.686 1400.97 616.135 1400.97 Q619.538 1400.97 621.528 1398.29 Q623.519 1395.6 623.519 1390.97 Q623.519 1386.37 621.528 1383.68 Q619.538 1380.97 616.135 1380.97 M616.135 1377.36 Q621.69 1377.36 624.862 1380.97 Q628.033 1384.59 628.033 1390.97 Q628.033 1397.34 624.862 1400.97 Q621.69 1404.59 616.135 1404.59 Q610.556 1404.59 607.385 1400.97 Q604.237 1397.34 604.237 1390.97 Q604.237 1384.59 607.385 1380.97 Q610.556 1377.36 616.135 1377.36 Z" fill="#000000" fill-rule="nonzero" fill-opacity="1" /><path clip-path="url(#clip270)" d="M651.621 1378.75 L651.621 1382.78 Q649.815 1381.85 647.871 1381.39 Q645.926 1380.93 643.843 1380.93 Q640.672 1380.93 639.074 1381.9 Q637.5 1382.87 637.5 1384.82 Q637.5 1386.3 638.635 1387.16 Q639.769 1387.99 643.195 1388.75 L644.653 1389.08 Q649.19 1390.05 651.088 1391.83 Q653.01 1393.59 653.01 1396.76 Q653.01 1400.37 650.139 1402.48 Q647.292 1404.59 642.292 1404.59 Q640.209 1404.59 637.94 1404.17 Q635.695 1403.78 633.195 1402.97 L633.195 1398.57 Q635.556 1399.79 637.848 1400.42 Q640.139 1401.02 642.385 1401.02 Q645.394 1401.02 647.014 1400 Q648.635 1398.96 648.635 1397.09 Q648.635 1395.35 647.454 1394.42 Q646.297 1393.5 642.338 1392.64 L640.857 1392.29 Q636.899 1391.46 635.139 1389.75 Q633.38 1388.01 633.38 1385 Q633.38 1381.35 635.973 1379.35 Q638.565 1377.36 643.334 1377.36 Q645.695 1377.36 647.778 1377.71 Q649.861 1378.06 651.621 1378.75 Z" fill="#000000" fill-rule="nonzero" fill-opacity="1" /><path clip-path="url(#clip270)" d="M664.005 1370.63 L664.005 1377.99 L672.778 1377.99 L672.778 1381.3 L664.005 1381.3 L664.005 1395.37 Q664.005 1398.54 664.861 1399.45 Q665.741 1400.35 668.403 1400.35 L672.778 1400.35 L672.778 1403.91 L668.403 1403.91 Q663.473 1403.91 661.598 1402.09 Q659.723 1400.23 659.723 1395.37 L659.723 1381.3 L656.598 1381.3 L656.598 1377.99 L659.723 1377.99 L659.723 1370.63 L664.005 1370.63 Z" fill="#000000" fill-rule="nonzero" fill-opacity="1" /></svg>
