<svg xmlns="http://www.w3.org/2000/svg" xmlns:xlink="http://www.w3.org/1999/xlink" width="600" height="400" viewBox="0 0 2400 1600">
<defs>
  <clipPath id="clip110">
    <rect x="0" y="0" width="2400" height="1600"></rect>
  </clipPath>
</defs>
<path clip-path="url(#clip110)" d="M0 1600 L2400 1600 L2400 0 L0 0  Z" fill="#ffffff" fill-rule="evenodd" fill-opacity="1"></path>
<defs>
  <clipPath id="clip111">
    <rect x="480" y="0" width="1681" height="1600"></rect>
  </clipPath>
</defs>
<path clip-path="url(#clip110)" d="M186.274 1486.45 L2352.76 1486.45 L2352.76 47.2441 L186.274 47.2441  Z" fill="#ffffff" fill-rule="evenodd" fill-opacity="1"></path>
<defs>
  <clipPath id="clip112">
    <rect x="186" y="47" width="2167" height="1440"></rect>
  </clipPath>
</defs>
<polyline clip-path="url(#clip112)" style="stroke:#000000; stroke-linecap:round; stroke-linejoin:round; stroke-width:2; stroke-opacity:0.1; fill:none" points="215.147,1486.45 215.147,47.2441 "></polyline>
<polyline clip-path="url(#clip112)" style="stroke:#000000; stroke-linecap:round; stroke-linejoin:round; stroke-width:2; stroke-opacity:0.1; fill:none" points="539.568,1486.45 539.568,47.2441 "></polyline>
<polyline clip-path="url(#clip112)" style="stroke:#000000; stroke-linecap:round; stroke-linejoin:round; stroke-width:2; stroke-opacity:0.1; fill:none" points="863.989,1486.45 863.989,47.2441 "></polyline>
<polyline clip-path="url(#clip112)" style="stroke:#000000; stroke-linecap:round; stroke-linejoin:round; stroke-width:2; stroke-opacity:0.1; fill:none" points="1188.41,1486.45 1188.41,47.2441 "></polyline>
<polyline clip-path="url(#clip112)" style="stroke:#000000; stroke-linecap:round; stroke-linejoin:round; stroke-width:2; stroke-opacity:0.1; fill:none" points="1512.83,1486.45 1512.83,47.2441 "></polyline>
<polyline clip-path="url(#clip112)" style="stroke:#000000; stroke-linecap:round; stroke-linejoin:round; stroke-width:2; stroke-opacity:0.1; fill:none" points="1837.25,1486.45 1837.25,47.2441 "></polyline>
<polyline clip-path="url(#clip112)" style="stroke:#000000; stroke-linecap:round; stroke-linejoin:round; stroke-width:2; stroke-opacity:0.1; fill:none" points="2161.67,1486.45 2161.67,47.2441 "></polyline>
<polyline clip-path="url(#clip110)" style="stroke:#000000; stroke-linecap:round; stroke-linejoin:round; stroke-width:4; stroke-opacity:1; fill:none" points="186.274,1486.45 2352.76,1486.45 "></polyline>
<polyline clip-path="url(#clip110)" style="stroke:#000000; stroke-linecap:round; stroke-linejoin:round; stroke-width:4; stroke-opacity:1; fill:none" points="215.147,1486.45 215.147,1467.55 "></polyline>
<polyline clip-path="url(#clip110)" style="stroke:#000000; stroke-linecap:round; stroke-linejoin:round; stroke-width:4; stroke-opacity:1; fill:none" points="539.568,1486.45 539.568,1467.55 "></polyline>
<polyline clip-path="url(#clip110)" style="stroke:#000000; stroke-linecap:round; stroke-linejoin:round; stroke-width:4; stroke-opacity:1; fill:none" points="863.989,1486.45 863.989,1467.55 "></polyline>
<polyline clip-path="url(#clip110)" style="stroke:#000000; stroke-linecap:round; stroke-linejoin:round; stroke-width:4; stroke-opacity:1; fill:none" points="1188.41,1486.45 1188.41,1467.55 "></polyline>
<polyline clip-path="url(#clip110)" style="stroke:#000000; stroke-linecap:round; stroke-linejoin:round; stroke-width:4; stroke-opacity:1; fill:none" points="1512.83,1486.45 1512.83,1467.55 "></polyline>
<polyline clip-path="url(#clip110)" style="stroke:#000000; stroke-linecap:round; stroke-linejoin:round; stroke-width:4; stroke-opacity:1; fill:none" points="1837.25,1486.45 1837.25,1467.55 "></polyline>
<polyline clip-path="url(#clip110)" style="stroke:#000000; stroke-linecap:round; stroke-linejoin:round; stroke-width:4; stroke-opacity:1; fill:none" points="2161.67,1486.45 2161.67,1467.55 "></polyline>
<path clip-path="url(#clip110)" d="M215.147 1517.37 Q211.536 1517.37 209.708 1520.93 Q207.902 1524.47 207.902 1531.6 Q207.902 1538.71 209.708 1542.27 Q211.536 1545.82 215.147 1545.82 Q218.782 1545.82 220.587 1542.27 Q222.416 1538.71 222.416 1531.6 Q222.416 1524.47 220.587 1520.93 Q218.782 1517.37 215.147 1517.37 M215.147 1513.66 Q220.958 1513.66 224.013 1518.27 Q227.092 1522.85 227.092 1531.6 Q227.092 1540.33 224.013 1544.94 Q220.958 1549.52 215.147 1549.52 Q209.337 1549.52 206.259 1544.94 Q203.203 1540.33 203.203 1531.6 Q203.203 1522.85 206.259 1518.27 Q209.337 1513.66 215.147 1513.66 Z" fill="#000000" fill-rule="nonzero" fill-opacity="1"></path><path clip-path="url(#clip110)" d="M514.256 1544.91 L521.895 1544.91 L521.895 1518.55 L513.585 1520.21 L513.585 1515.95 L521.848 1514.29 L526.524 1514.29 L526.524 1544.91 L534.163 1544.91 L534.163 1548.85 L514.256 1548.85 L514.256 1544.91 Z" fill="#000000" fill-rule="nonzero" fill-opacity="1"></path><path clip-path="url(#clip110)" d="M553.607 1517.37 Q549.996 1517.37 548.168 1520.93 Q546.362 1524.47 546.362 1531.6 Q546.362 1538.71 548.168 1542.27 Q549.996 1545.82 553.607 1545.82 Q557.242 1545.82 559.047 1542.27 Q560.876 1538.71 560.876 1531.6 Q560.876 1524.47 559.047 1520.93 Q557.242 1517.37 553.607 1517.37 M553.607 1513.66 Q559.418 1513.66 562.473 1518.27 Q565.552 1522.85 565.552 1531.6 Q565.552 1540.33 562.473 1544.94 Q559.418 1549.52 553.607 1549.52 Q547.797 1549.52 544.719 1544.94 Q541.663 1540.33 541.663 1531.6 Q541.663 1522.85 544.719 1518.27 Q547.797 1513.66 553.607 1513.66 Z" fill="#000000" fill-rule="nonzero" fill-opacity="1"></path><path clip-path="url(#clip110)" d="M842.762 1544.91 L859.082 1544.91 L859.082 1548.85 L837.137 1548.85 L837.137 1544.91 Q839.799 1542.16 844.383 1537.53 Q848.989 1532.88 850.17 1531.53 Q852.415 1529.01 853.295 1527.27 Q854.197 1525.51 854.197 1523.82 Q854.197 1521.07 852.253 1519.33 Q850.332 1517.6 847.23 1517.6 Q845.031 1517.6 842.577 1518.36 Q840.147 1519.13 837.369 1520.68 L837.369 1515.95 Q840.193 1514.82 842.647 1514.24 Q845.1 1513.66 847.137 1513.66 Q852.508 1513.66 855.702 1516.35 Q858.896 1519.03 858.896 1523.52 Q858.896 1525.65 858.086 1527.57 Q857.299 1529.47 855.193 1532.07 Q854.614 1532.74 851.512 1535.95 Q848.41 1539.15 842.762 1544.91 Z" fill="#000000" fill-rule="nonzero" fill-opacity="1"></path><path clip-path="url(#clip110)" d="M878.896 1517.37 Q875.285 1517.37 873.457 1520.93 Q871.651 1524.47 871.651 1531.6 Q871.651 1538.71 873.457 1542.27 Q875.285 1545.82 878.896 1545.82 Q882.531 1545.82 884.336 1542.27 Q886.165 1538.71 886.165 1531.6 Q886.165 1524.47 884.336 1520.93 Q882.531 1517.37 878.896 1517.37 M878.896 1513.66 Q884.706 1513.66 887.762 1518.27 Q890.841 1522.85 890.841 1531.6 Q890.841 1540.33 887.762 1544.94 Q884.706 1549.52 878.896 1549.52 Q873.086 1549.52 870.007 1544.94 Q866.952 1540.33 866.952 1531.6 Q866.952 1522.85 870.007 1518.27 Q873.086 1513.66 878.896 1513.66 Z" fill="#000000" fill-rule="nonzero" fill-opacity="1"></path><path clip-path="url(#clip110)" d="M1177.25 1530.21 Q1180.61 1530.93 1182.48 1533.2 Q1184.38 1535.47 1184.38 1538.8 Q1184.38 1543.92 1180.86 1546.72 Q1177.35 1549.52 1170.86 1549.52 Q1168.69 1549.52 1166.37 1549.08 Q1164.08 1548.66 1161.63 1547.81 L1161.63 1543.29 Q1163.57 1544.43 1165.89 1545.01 Q1168.2 1545.58 1170.72 1545.58 Q1175.12 1545.58 1177.41 1543.85 Q1179.73 1542.11 1179.73 1538.8 Q1179.73 1535.75 1177.58 1534.03 Q1175.45 1532.3 1171.63 1532.3 L1167.6 1532.3 L1167.6 1528.45 L1171.81 1528.45 Q1175.26 1528.45 1177.09 1527.09 Q1178.92 1525.7 1178.92 1523.11 Q1178.92 1520.45 1177.02 1519.03 Q1175.15 1517.6 1171.63 1517.6 Q1169.71 1517.6 1167.51 1518.01 Q1165.31 1518.43 1162.67 1519.31 L1162.67 1515.14 Q1165.33 1514.4 1167.65 1514.03 Q1169.98 1513.66 1172.04 1513.66 Q1177.37 1513.66 1180.47 1516.09 Q1183.57 1518.5 1183.57 1522.62 Q1183.57 1525.49 1181.93 1527.48 Q1180.28 1529.45 1177.25 1530.21 Z" fill="#000000" fill-rule="nonzero" fill-opacity="1"></path><path clip-path="url(#clip110)" d="M1203.25 1517.37 Q1199.64 1517.37 1197.81 1520.93 Q1196 1524.47 1196 1531.6 Q1196 1538.71 1197.81 1542.27 Q1199.64 1545.82 1203.25 1545.82 Q1206.88 1545.82 1208.69 1542.27 Q1210.52 1538.71 1210.52 1531.6 Q1210.52 1524.47 1208.69 1520.93 Q1206.88 1517.37 1203.25 1517.37 M1203.25 1513.66 Q1209.06 1513.66 1212.11 1518.27 Q1215.19 1522.85 1215.19 1531.6 Q1215.19 1540.33 1212.11 1544.94 Q1209.06 1549.52 1203.25 1549.52 Q1197.44 1549.52 1194.36 1544.94 Q1191.3 1540.33 1191.3 1531.6 Q1191.3 1522.85 1194.36 1518.27 Q1197.44 1513.66 1203.25 1513.66 Z" fill="#000000" fill-rule="nonzero" fill-opacity="1"></path><path clip-path="url(#clip110)" d="M1501 1518.36 L1489.2 1536.81 L1501 1536.81 L1501 1518.36 M1499.78 1514.29 L1505.65 1514.29 L1505.65 1536.81 L1510.59 1536.81 L1510.59 1540.7 L1505.65 1540.7 L1505.65 1548.85 L1501 1548.85 L1501 1540.7 L1485.4 1540.7 L1485.4 1536.19 L1499.78 1514.29 Z" fill="#000000" fill-rule="nonzero" fill-opacity="1"></path><path clip-path="url(#clip110)" d="M1528.32 1517.37 Q1524.71 1517.37 1522.88 1520.93 Q1521.07 1524.47 1521.07 1531.6 Q1521.07 1538.71 1522.88 1542.27 Q1524.71 1545.82 1528.32 1545.82 Q1531.95 1545.82 1533.76 1542.27 Q1535.59 1538.71 1535.59 1531.6 Q1535.59 1524.47 1533.76 1520.93 Q1531.95 1517.37 1528.32 1517.37 M1528.32 1513.66 Q1534.13 1513.66 1537.18 1518.27 Q1540.26 1522.85 1540.26 1531.6 Q1540.26 1540.33 1537.18 1544.94 Q1534.13 1549.52 1528.32 1549.52 Q1522.51 1549.52 1519.43 1544.94 Q1516.37 1540.33 1516.37 1531.6 Q1516.37 1522.85 1519.43 1518.27 Q1522.51 1513.66 1528.32 1513.66 Z" fill="#000000" fill-rule="nonzero" fill-opacity="1"></path><path clip-path="url(#clip110)" d="M1811.95 1514.29 L1830.31 1514.29 L1830.31 1518.22 L1816.23 1518.22 L1816.23 1526.7 Q1817.25 1526.35 1818.27 1526.19 Q1819.29 1526 1820.31 1526 Q1826.09 1526 1829.47 1529.17 Q1832.85 1532.34 1832.85 1537.76 Q1832.85 1543.34 1829.38 1546.44 Q1825.91 1549.52 1819.59 1549.52 Q1817.41 1549.52 1815.14 1549.15 Q1812.9 1548.78 1810.49 1548.04 L1810.49 1543.34 Q1812.58 1544.47 1814.8 1545.03 Q1817.02 1545.58 1819.5 1545.58 Q1823.5 1545.58 1825.84 1543.48 Q1828.18 1541.37 1828.18 1537.76 Q1828.18 1534.15 1825.84 1532.04 Q1823.5 1529.94 1819.5 1529.94 Q1817.62 1529.94 1815.75 1530.35 Q1813.89 1530.77 1811.95 1531.65 L1811.95 1514.29 Z" fill="#000000" fill-rule="nonzero" fill-opacity="1"></path><path clip-path="url(#clip110)" d="M1852.07 1517.37 Q1848.45 1517.37 1846.63 1520.93 Q1844.82 1524.47 1844.82 1531.6 Q1844.82 1538.71 1846.63 1542.27 Q1848.45 1545.82 1852.07 1545.82 Q1855.7 1545.82 1857.51 1542.27 Q1859.33 1538.71 1859.33 1531.6 Q1859.33 1524.47 1857.51 1520.93 Q1855.7 1517.37 1852.07 1517.37 M1852.07 1513.66 Q1857.88 1513.66 1860.93 1518.27 Q1864.01 1522.85 1864.01 1531.6 Q1864.01 1540.33 1860.93 1544.94 Q1857.88 1549.52 1852.07 1549.52 Q1846.26 1549.52 1843.18 1544.94 Q1840.12 1540.33 1840.12 1531.6 Q1840.12 1522.85 1843.18 1518.27 Q1846.26 1513.66 1852.07 1513.66 Z" fill="#000000" fill-rule="nonzero" fill-opacity="1"></path><path clip-path="url(#clip110)" d="M2147.08 1529.7 Q2143.93 1529.7 2142.08 1531.86 Q2140.25 1534.01 2140.25 1537.76 Q2140.25 1541.49 2142.08 1543.66 Q2143.93 1545.82 2147.08 1545.82 Q2150.23 1545.82 2152.05 1543.66 Q2153.91 1541.49 2153.91 1537.76 Q2153.91 1534.01 2152.05 1531.86 Q2150.23 1529.7 2147.08 1529.7 M2156.36 1515.05 L2156.36 1519.31 Q2154.6 1518.48 2152.79 1518.04 Q2151.01 1517.6 2149.25 1517.6 Q2144.62 1517.6 2142.17 1520.72 Q2139.74 1523.85 2139.39 1530.17 Q2140.76 1528.15 2142.82 1527.09 Q2144.88 1526 2147.36 1526 Q2152.56 1526 2155.57 1529.17 Q2158.6 1532.32 2158.6 1537.76 Q2158.6 1543.08 2155.46 1546.3 Q2152.31 1549.52 2147.08 1549.52 Q2141.08 1549.52 2137.91 1544.94 Q2134.74 1540.33 2134.74 1531.6 Q2134.74 1523.41 2138.63 1518.55 Q2142.52 1513.66 2149.07 1513.66 Q2150.83 1513.66 2152.61 1514.01 Q2154.42 1514.36 2156.36 1515.05 Z" fill="#000000" fill-rule="nonzero" fill-opacity="1"></path><path clip-path="url(#clip110)" d="M2176.66 1517.37 Q2173.05 1517.37 2171.22 1520.93 Q2169.42 1524.47 2169.42 1531.6 Q2169.42 1538.71 2171.22 1542.27 Q2173.05 1545.82 2176.66 1545.82 Q2180.29 1545.82 2182.1 1542.27 Q2183.93 1538.71 2183.93 1531.6 Q2183.93 1524.47 2182.1 1520.93 Q2180.29 1517.37 2176.66 1517.37 M2176.66 1513.66 Q2182.47 1513.66 2185.53 1518.27 Q2188.6 1522.85 2188.6 1531.6 Q2188.6 1540.33 2185.53 1544.94 Q2182.47 1549.52 2176.66 1549.52 Q2170.85 1549.52 2167.77 1544.94 Q2164.72 1540.33 2164.72 1531.6 Q2164.72 1522.85 2167.77 1518.27 Q2170.85 1513.66 2176.66 1513.66 Z" fill="#000000" fill-rule="nonzero" fill-opacity="1"></path><polyline clip-path="url(#clip112)" style="stroke:#000000; stroke-linecap:round; stroke-linejoin:round; stroke-width:2; stroke-opacity:0.1; fill:none" points="186.274,1290.85 2352.76,1290.85 "></polyline>
<polyline clip-path="url(#clip112)" style="stroke:#000000; stroke-linecap:round; stroke-linejoin:round; stroke-width:2; stroke-opacity:0.1; fill:none" points="186.274,925.797 2352.76,925.797 "></polyline>
<polyline clip-path="url(#clip112)" style="stroke:#000000; stroke-linecap:round; stroke-linejoin:round; stroke-width:2; stroke-opacity:0.1; fill:none" points="186.274,560.745 2352.76,560.745 "></polyline>
<polyline clip-path="url(#clip112)" style="stroke:#000000; stroke-linecap:round; stroke-linejoin:round; stroke-width:2; stroke-opacity:0.1; fill:none" points="186.274,195.693 2352.76,195.693 "></polyline>
<polyline clip-path="url(#clip110)" style="stroke:#000000; stroke-linecap:round; stroke-linejoin:round; stroke-width:4; stroke-opacity:1; fill:none" points="186.274,1486.45 186.274,47.2441 "></polyline>
<polyline clip-path="url(#clip110)" style="stroke:#000000; stroke-linecap:round; stroke-linejoin:round; stroke-width:4; stroke-opacity:1; fill:none" points="186.274,1290.85 205.172,1290.85 "></polyline>
<polyline clip-path="url(#clip110)" style="stroke:#000000; stroke-linecap:round; stroke-linejoin:round; stroke-width:4; stroke-opacity:1; fill:none" points="186.274,925.797 205.172,925.797 "></polyline>
<polyline clip-path="url(#clip110)" style="stroke:#000000; stroke-linecap:round; stroke-linejoin:round; stroke-width:4; stroke-opacity:1; fill:none" points="186.274,560.745 205.172,560.745 "></polyline>
<polyline clip-path="url(#clip110)" style="stroke:#000000; stroke-linecap:round; stroke-linejoin:round; stroke-width:4; stroke-opacity:1; fill:none" points="186.274,195.693 205.172,195.693 "></polyline>
<path clip-path="url(#clip110)" d="M62.9365 1276.65 Q59.3254 1276.65 57.4967 1280.21 Q55.6912 1283.75 55.6912 1290.88 Q55.6912 1297.99 57.4967 1301.56 Q59.3254 1305.1 62.9365 1305.1 Q66.5707 1305.1 68.3763 1301.56 Q70.205 1297.99 70.205 1290.88 Q70.205 1283.75 68.3763 1280.21 Q66.5707 1276.65 62.9365 1276.65 M62.9365 1272.94 Q68.7467 1272.94 71.8022 1277.55 Q74.8809 1282.13 74.8809 1290.88 Q74.8809 1299.61 71.8022 1304.22 Q68.7467 1308.8 62.9365 1308.8 Q57.1264 1308.8 54.0477 1304.22 Q50.9921 1299.61 50.9921 1290.88 Q50.9921 1282.13 54.0477 1277.55 Q57.1264 1272.94 62.9365 1272.94 Z" fill="#000000" fill-rule="nonzero" fill-opacity="1"></path><path clip-path="url(#clip110)" d="M83.0984 1302.25 L87.9827 1302.25 L87.9827 1308.13 L83.0984 1308.13 L83.0984 1302.25 Z" fill="#000000" fill-rule="nonzero" fill-opacity="1"></path><path clip-path="url(#clip110)" d="M102.196 1304.19 L118.515 1304.19 L118.515 1308.13 L96.5706 1308.13 L96.5706 1304.19 Q99.2326 1301.44 103.816 1296.81 Q108.422 1292.16 109.603 1290.81 Q111.848 1288.29 112.728 1286.56 Q113.631 1284.8 113.631 1283.11 Q113.631 1280.35 111.686 1278.62 Q109.765 1276.88 106.663 1276.88 Q104.464 1276.88 102.01 1277.64 Q99.5798 1278.41 96.8021 1279.96 L96.8021 1275.24 Q99.6261 1274.1 102.08 1273.52 Q104.534 1272.94 106.571 1272.94 Q111.941 1272.94 115.135 1275.63 Q118.33 1278.31 118.33 1282.81 Q118.33 1284.93 117.52 1286.86 Q116.733 1288.75 114.626 1291.35 Q114.047 1292.02 110.946 1295.24 Q107.844 1298.43 102.196 1304.19 Z" fill="#000000" fill-rule="nonzero" fill-opacity="1"></path><path clip-path="url(#clip110)" d="M138.33 1276.65 Q134.719 1276.65 132.89 1280.21 Q131.084 1283.75 131.084 1290.88 Q131.084 1297.99 132.89 1301.56 Q134.719 1305.1 138.33 1305.1 Q141.964 1305.1 143.769 1301.56 Q145.598 1297.99 145.598 1290.88 Q145.598 1283.75 143.769 1280.21 Q141.964 1276.65 138.33 1276.65 M138.33 1272.94 Q144.14 1272.94 147.195 1277.55 Q150.274 1282.13 150.274 1290.88 Q150.274 1299.61 147.195 1304.22 Q144.14 1308.8 138.33 1308.8 Q132.519 1308.8 129.441 1304.22 Q126.385 1299.61 126.385 1290.88 Q126.385 1282.13 129.441 1277.55 Q132.519 1272.94 138.33 1272.94 Z" fill="#000000" fill-rule="nonzero" fill-opacity="1"></path><path clip-path="url(#clip110)" d="M64.1634 911.596 Q60.5523 911.596 58.7236 915.161 Q56.918 918.702 56.918 925.832 Q56.918 932.938 58.7236 936.503 Q60.5523 940.045 64.1634 940.045 Q67.7976 940.045 69.6031 936.503 Q71.4318 932.938 71.4318 925.832 Q71.4318 918.702 69.6031 915.161 Q67.7976 911.596 64.1634 911.596 M64.1634 907.892 Q69.9735 907.892 73.029 912.499 Q76.1077 917.082 76.1077 925.832 Q76.1077 934.559 73.029 939.165 Q69.9735 943.748 64.1634 943.748 Q58.3532 943.748 55.2745 939.165 Q52.219 934.559 52.219 925.832 Q52.219 917.082 55.2745 912.499 Q58.3532 907.892 64.1634 907.892 Z" fill="#000000" fill-rule="nonzero" fill-opacity="1"></path><path clip-path="url(#clip110)" d="M84.3253 937.197 L89.2095 937.197 L89.2095 943.077 L84.3253 943.077 L84.3253 937.197 Z" fill="#000000" fill-rule="nonzero" fill-opacity="1"></path><path clip-path="url(#clip110)" d="M103.422 939.142 L119.742 939.142 L119.742 943.077 L97.7974 943.077 L97.7974 939.142 Q100.459 936.387 105.043 931.758 Q109.649 927.105 110.83 925.762 Q113.075 923.239 113.955 921.503 Q114.858 919.744 114.858 918.054 Q114.858 915.299 112.913 913.563 Q110.992 911.827 107.89 911.827 Q105.691 911.827 103.237 912.591 Q100.807 913.355 98.0289 914.906 L98.0289 910.184 Q100.853 909.049 103.307 908.471 Q105.76 907.892 107.797 907.892 Q113.168 907.892 116.362 910.577 Q119.557 913.262 119.557 917.753 Q119.557 919.883 118.746 921.804 Q117.959 923.702 115.853 926.295 Q115.274 926.966 112.172 930.184 Q109.071 933.378 103.422 939.142 Z" fill="#000000" fill-rule="nonzero" fill-opacity="1"></path><path clip-path="url(#clip110)" d="M130.367 939.142 L138.006 939.142 L138.006 912.776 L129.695 914.443 L129.695 910.184 L137.959 908.517 L142.635 908.517 L142.635 939.142 L150.274 939.142 L150.274 943.077 L130.367 943.077 L130.367 939.142 Z" fill="#000000" fill-rule="nonzero" fill-opacity="1"></path><path clip-path="url(#clip110)" d="M64.5337 546.543 Q60.9226 546.543 59.0939 550.108 Q57.2884 553.65 57.2884 560.78 Q57.2884 567.886 59.0939 571.451 Q60.9226 574.992 64.5337 574.992 Q68.168 574.992 69.9735 571.451 Q71.8022 567.886 71.8022 560.78 Q71.8022 553.65 69.9735 550.108 Q68.168 546.543 64.5337 546.543 M64.5337 542.84 Q70.3439 542.84 73.3994 547.446 Q76.4781 552.03 76.4781 560.78 Q76.4781 569.506 73.3994 574.113 Q70.3439 578.696 64.5337 578.696 Q58.7236 578.696 55.6449 574.113 Q52.5893 569.506 52.5893 560.78 Q52.5893 552.03 55.6449 547.446 Q58.7236 542.84 64.5337 542.84 Z" fill="#000000" fill-rule="nonzero" fill-opacity="1"></path><path clip-path="url(#clip110)" d="M84.6956 572.145 L89.5799 572.145 L89.5799 578.025 L84.6956 578.025 L84.6956 572.145 Z" fill="#000000" fill-rule="nonzero" fill-opacity="1"></path><path clip-path="url(#clip110)" d="M103.793 574.09 L120.112 574.09 L120.112 578.025 L98.1678 578.025 L98.1678 574.09 Q100.83 571.335 105.413 566.705 Q110.02 562.053 111.2 560.71 Q113.445 558.187 114.325 556.451 Q115.228 554.692 115.228 553.002 Q115.228 550.247 113.283 548.511 Q111.362 546.775 108.26 546.775 Q106.061 546.775 103.608 547.539 Q101.177 548.303 98.3993 549.854 L98.3993 545.131 Q101.223 543.997 103.677 543.419 Q106.131 542.84 108.168 542.84 Q113.538 542.84 116.733 545.525 Q119.927 548.21 119.927 552.701 Q119.927 554.83 119.117 556.752 Q118.33 558.65 116.223 561.242 Q115.645 561.914 112.543 565.131 Q109.441 568.326 103.793 574.09 Z" fill="#000000" fill-rule="nonzero" fill-opacity="1"></path><path clip-path="url(#clip110)" d="M133.955 574.09 L150.274 574.09 L150.274 578.025 L128.33 578.025 L128.33 574.09 Q130.992 571.335 135.575 566.705 Q140.181 562.053 141.362 560.71 Q143.607 558.187 144.487 556.451 Q145.39 554.692 145.39 553.002 Q145.39 550.247 143.445 548.511 Q141.524 546.775 138.422 546.775 Q136.223 546.775 133.769 547.539 Q131.339 548.303 128.561 549.854 L128.561 545.131 Q131.385 543.997 133.839 543.419 Q136.293 542.84 138.33 542.84 Q143.7 542.84 146.894 545.525 Q150.089 548.21 150.089 552.701 Q150.089 554.83 149.279 556.752 Q148.492 558.65 146.385 561.242 Q145.806 561.914 142.705 565.131 Q139.603 568.326 133.955 574.09 Z" fill="#000000" fill-rule="nonzero" fill-opacity="1"></path><path clip-path="url(#clip110)" d="M63.5847 181.491 Q59.9736 181.491 58.1449 185.056 Q56.3393 188.598 56.3393 195.727 Q56.3393 202.834 58.1449 206.399 Q59.9736 209.94 63.5847 209.94 Q67.2189 209.94 69.0244 206.399 Q70.8531 202.834 70.8531 195.727 Q70.8531 188.598 69.0244 185.056 Q67.2189 181.491 63.5847 181.491 M63.5847 177.788 Q69.3948 177.788 72.4503 182.394 Q75.529 186.977 75.529 195.727 Q75.529 204.454 72.4503 209.061 Q69.3948 213.644 63.5847 213.644 Q57.7745 213.644 54.6958 209.061 Q51.6403 204.454 51.6403 195.727 Q51.6403 186.977 54.6958 182.394 Q57.7745 177.788 63.5847 177.788 Z" fill="#000000" fill-rule="nonzero" fill-opacity="1"></path><path clip-path="url(#clip110)" d="M83.7466 207.093 L88.6308 207.093 L88.6308 212.973 L83.7466 212.973 L83.7466 207.093 Z" fill="#000000" fill-rule="nonzero" fill-opacity="1"></path><path clip-path="url(#clip110)" d="M102.844 209.037 L119.163 209.037 L119.163 212.973 L97.2187 212.973 L97.2187 209.037 Q99.8808 206.283 104.464 201.653 Q109.071 197 110.251 195.658 Q112.496 193.135 113.376 191.399 Q114.279 189.639 114.279 187.95 Q114.279 185.195 112.334 183.459 Q110.413 181.723 107.311 181.723 Q105.112 181.723 102.659 182.487 Q100.228 183.25 97.4502 184.801 L97.4502 180.079 Q100.274 178.945 102.728 178.366 Q105.182 177.788 107.219 177.788 Q112.589 177.788 115.783 180.473 Q118.978 183.158 118.978 187.649 Q118.978 189.778 118.168 191.7 Q117.381 193.598 115.274 196.19 Q114.695 196.862 111.594 200.079 Q108.492 203.274 102.844 209.037 Z" fill="#000000" fill-rule="nonzero" fill-opacity="1"></path><path clip-path="url(#clip110)" d="M143.144 194.338 Q146.501 195.056 148.376 197.324 Q150.274 199.593 150.274 202.926 Q150.274 208.042 146.756 210.843 Q143.237 213.644 136.756 213.644 Q134.58 213.644 132.265 213.204 Q129.973 212.787 127.519 211.931 L127.519 207.417 Q129.464 208.551 131.779 209.13 Q134.094 209.709 136.617 209.709 Q141.015 209.709 143.306 207.973 Q145.621 206.236 145.621 202.926 Q145.621 199.871 143.468 198.158 Q141.339 196.422 137.519 196.422 L133.492 196.422 L133.492 192.579 L137.705 192.579 Q141.154 192.579 142.982 191.213 Q144.811 189.825 144.811 187.232 Q144.811 184.57 142.913 183.158 Q141.038 181.723 137.519 181.723 Q135.598 181.723 133.399 182.139 Q131.2 182.556 128.561 183.436 L128.561 179.269 Q131.223 178.528 133.538 178.158 Q135.876 177.788 137.936 177.788 Q143.26 177.788 146.362 180.218 Q149.464 182.625 149.464 186.746 Q149.464 189.616 147.82 191.607 Q146.177 193.575 143.144 194.338 Z" fill="#000000" fill-rule="nonzero" fill-opacity="1"></path><polyline clip-path="url(#clip112)" style="stroke:#009af9; stroke-linecap:round; stroke-linejoin:round; stroke-width:4; stroke-opacity:1; fill:none" points="247.59,1445.72 280.032,1283.95 312.474,785.897 344.916,273.748 377.358,588.639 409.8,350.275 442.242,712.435 474.684,114.139 507.126,187.268 539.568,87.9763 572.01,770.879 604.452,457.276 636.894,605.67 669.337,529.652 701.779,426.674 734.221,890.757 766.663,965.41 799.105,746.387 831.547,646.19 863.989,641.661 896.431,1069.12 928.873,880.517 961.315,781.834 993.757,973.659 1026.2,649.043 1058.64,399.04 1091.08,243.141 1123.53,783.685 1155.97,572.561 1188.41,640.721 1220.85,687.071 1253.29,451.184 1285.74,367.576 1318.18,276.219 1350.62,831.899 1383.06,952.901 1415.5,622.934 1447.95,1168.65 1480.39,674.553 1512.83,878.325 1545.27,413.888 1577.71,573.02 1610.16,562.079 1642.6,1018.5 1675.04,671.323 1707.48,718.068 1739.93,691.526 1772.37,635.379 1804.81,656.325 1837.25,870.118 1869.69,891.18 1902.14,867.714 1934.58,727.552 1967.02,548.021 1999.46,628.658 2031.9,416.531 2064.35,412.584 2096.79,1025.14 2129.23,630.349 2161.67,1120.08 2194.11,824.014 2226.56,985.516 2259,832.269 2291.44,365.551 "></polyline>
<path clip-path="url(#clip110)" d="M2011.46 1438.47 L2280.54 1438.47 L2280.54 1334.79 L2011.46 1334.79  Z" fill="#ffffff" fill-rule="evenodd" fill-opacity="1"></path>
<polyline clip-path="url(#clip110)" style="stroke:#000000; stroke-linecap:round; stroke-linejoin:round; stroke-width:4; stroke-opacity:1; fill:none" points="2011.46,1438.47 2280.54,1438.47 2280.54,1334.79 2011.46,1334.79 2011.46,1438.47 "></polyline>
<polyline clip-path="url(#clip110)" style="stroke:#009af9; stroke-linecap:round; stroke-linejoin:round; stroke-width:4; stroke-opacity:1; fill:none" points="2035.53,1386.63 2179.97,1386.63 "></polyline>
<path clip-path="url(#clip110)" d="M2217.88 1406.32 Q2216.07 1410.95 2214.36 1412.36 Q2212.65 1413.78 2209.78 1413.78 L2206.38 1413.78 L2206.38 1410.21 L2208.88 1410.21 Q2210.63 1410.21 2211.61 1409.38 Q2212.58 1408.54 2213.76 1405.44 L2214.52 1403.5 L2204.04 1377.99 L2208.55 1377.99 L2216.65 1398.27 L2224.76 1377.99 L2229.27 1377.99 L2217.88 1406.32 Z" fill="#000000" fill-rule="nonzero" fill-opacity="1"></path><path clip-path="url(#clip110)" d="M2236.56 1399.98 L2244.2 1399.98 L2244.2 1373.61 L2235.89 1375.28 L2235.89 1371.02 L2244.15 1369.35 L2248.83 1369.35 L2248.83 1399.98 L2256.47 1399.98 L2256.47 1403.91 L2236.56 1403.91 L2236.56 1399.98 Z" fill="#000000" fill-rule="nonzero" fill-opacity="1"></path></svg>