<svg xmlns="http://www.w3.org/2000/svg" xmlns:xlink="http://www.w3.org/1999/xlink" width="600" height="400" viewBox="0 0 2400 1600">
<defs>
  <clipPath id="clip150">
    <rect x="0" y="0" width="2400" height="1600"></rect>
  </clipPath>
</defs>
<path clip-path="url(#clip150)" d="M0 1600 L2400 1600 L2400 0 L0 0  Z" fill="#ffffff" fill-rule="evenodd" fill-opacity="1"></path>
<defs>
  <clipPath id="clip151">
    <rect x="480" y="0" width="1681" height="1600"></rect>
  </clipPath>
</defs>
<path clip-path="url(#clip150)" d="M186.274 1486.45 L2352.76 1486.45 L2352.76 47.2441 L186.274 47.2441  Z" fill="#ffffff" fill-rule="evenodd" fill-opacity="1"></path>
<defs>
  <clipPath id="clip152">
    <rect x="186" y="47" width="2167" height="1440"></rect>
  </clipPath>
</defs>
<polyline clip-path="url(#clip152)" style="stroke:#000000; stroke-linecap:round; stroke-linejoin:round; stroke-width:2; stroke-opacity:0.1; fill:none" points="215.147,1486.45 215.147,47.2441 "></polyline>
<polyline clip-path="url(#clip152)" style="stroke:#000000; stroke-linecap:round; stroke-linejoin:round; stroke-width:2; stroke-opacity:0.1; fill:none" points="539.568,1486.45 539.568,47.2441 "></polyline>
<polyline clip-path="url(#clip152)" style="stroke:#000000; stroke-linecap:round; stroke-linejoin:round; stroke-width:2; stroke-opacity:0.1; fill:none" points="863.989,1486.45 863.989,47.2441 "></polyline>
<polyline clip-path="url(#clip152)" style="stroke:#000000; stroke-linecap:round; stroke-linejoin:round; stroke-width:2; stroke-opacity:0.1; fill:none" points="1188.41,1486.45 1188.41,47.2441 "></polyline>
<polyline clip-path="url(#clip152)" style="stroke:#000000; stroke-linecap:round; stroke-linejoin:round; stroke-width:2; stroke-opacity:0.1; fill:none" points="1512.83,1486.45 1512.83,47.2441 "></polyline>
<polyline clip-path="url(#clip152)" style="stroke:#000000; stroke-linecap:round; stroke-linejoin:round; stroke-width:2; stroke-opacity:0.1; fill:none" points="1837.25,1486.45 1837.25,47.2441 "></polyline>
<polyline clip-path="url(#clip152)" style="stroke:#000000; stroke-linecap:round; stroke-linejoin:round; stroke-width:2; stroke-opacity:0.1; fill:none" points="2161.67,1486.45 2161.67,47.2441 "></polyline>
<polyline clip-path="url(#clip150)" style="stroke:#000000; stroke-linecap:round; stroke-linejoin:round; stroke-width:4; stroke-opacity:1; fill:none" points="186.274,1486.45 2352.76,1486.45 "></polyline>
<polyline clip-path="url(#clip150)" style="stroke:#000000; stroke-linecap:round; stroke-linejoin:round; stroke-width:4; stroke-opacity:1; fill:none" points="215.147,1486.45 215.147,1467.55 "></polyline>
<polyline clip-path="url(#clip150)" style="stroke:#000000; stroke-linecap:round; stroke-linejoin:round; stroke-width:4; stroke-opacity:1; fill:none" points="539.568,1486.45 539.568,1467.55 "></polyline>
<polyline clip-path="url(#clip150)" style="stroke:#000000; stroke-linecap:round; stroke-linejoin:round; stroke-width:4; stroke-opacity:1; fill:none" points="863.989,1486.45 863.989,1467.55 "></polyline>
<polyline clip-path="url(#clip150)" style="stroke:#000000; stroke-linecap:round; stroke-linejoin:round; stroke-width:4; stroke-opacity:1; fill:none" points="1188.41,1486.45 1188.41,1467.55 "></polyline>
<polyline clip-path="url(#clip150)" style="stroke:#000000; stroke-linecap:round; stroke-linejoin:round; stroke-width:4; stroke-opacity:1; fill:none" points="1512.83,1486.45 1512.83,1467.55 "></polyline>
<polyline clip-path="url(#clip150)" style="stroke:#000000; stroke-linecap:round; stroke-linejoin:round; stroke-width:4; stroke-opacity:1; fill:none" points="1837.25,1486.45 1837.25,1467.55 "></polyline>
<polyline clip-path="url(#clip150)" style="stroke:#000000; stroke-linecap:round; stroke-linejoin:round; stroke-width:4; stroke-opacity:1; fill:none" points="2161.67,1486.45 2161.67,1467.55 "></polyline>
<path clip-path="url(#clip150)" d="M215.147 1517.37 Q211.536 1517.37 209.708 1520.93 Q207.902 1524.47 207.902 1531.6 Q207.902 1538.71 209.708 1542.27 Q211.536 1545.82 215.147 1545.82 Q218.782 1545.82 220.587 1542.27 Q222.416 1538.71 222.416 1531.6 Q222.416 1524.47 220.587 1520.93 Q218.782 1517.37 215.147 1517.37 M215.147 1513.66 Q220.958 1513.66 224.013 1518.27 Q227.092 1522.85 227.092 1531.6 Q227.092 1540.33 224.013 1544.94 Q220.958 1549.52 215.147 1549.52 Q209.337 1549.52 206.259 1544.94 Q203.203 1540.33 203.203 1531.6 Q203.203 1522.85 206.259 1518.27 Q209.337 1513.66 215.147 1513.66 Z" fill="#000000" fill-rule="nonzero" fill-opacity="1"></path><path clip-path="url(#clip150)" d="M514.256 1544.91 L521.895 1544.91 L521.895 1518.55 L513.585 1520.21 L513.585 1515.95 L521.848 1514.29 L526.524 1514.29 L526.524 1544.91 L534.163 1544.91 L534.163 1548.85 L514.256 1548.85 L514.256 1544.91 Z" fill="#000000" fill-rule="nonzero" fill-opacity="1"></path><path clip-path="url(#clip150)" d="M553.607 1517.37 Q549.996 1517.37 548.168 1520.93 Q546.362 1524.47 546.362 1531.6 Q546.362 1538.71 548.168 1542.27 Q549.996 1545.82 553.607 1545.82 Q557.242 1545.82 559.047 1542.27 Q560.876 1538.71 560.876 1531.6 Q560.876 1524.47 559.047 1520.93 Q557.242 1517.37 553.607 1517.37 M553.607 1513.66 Q559.418 1513.66 562.473 1518.27 Q565.552 1522.85 565.552 1531.6 Q565.552 1540.33 562.473 1544.94 Q559.418 1549.52 553.607 1549.52 Q547.797 1549.52 544.719 1544.94 Q541.663 1540.33 541.663 1531.6 Q541.663 1522.85 544.719 1518.27 Q547.797 1513.66 553.607 1513.66 Z" fill="#000000" fill-rule="nonzero" fill-opacity="1"></path><path clip-path="url(#clip150)" d="M842.762 1544.91 L859.082 1544.91 L859.082 1548.85 L837.137 1548.85 L837.137 1544.91 Q839.799 1542.16 844.383 1537.53 Q848.989 1532.88 850.17 1531.53 Q852.415 1529.01 853.295 1527.27 Q854.197 1525.51 854.197 1523.82 Q854.197 1521.07 852.253 1519.33 Q850.332 1517.6 847.23 1517.6 Q845.031 1517.6 842.577 1518.36 Q840.147 1519.13 837.369 1520.68 L837.369 1515.95 Q840.193 1514.82 842.647 1514.24 Q845.1 1513.66 847.137 1513.66 Q852.508 1513.66 855.702 1516.35 Q858.896 1519.03 858.896 1523.52 Q858.896 1525.65 858.086 1527.57 Q857.299 1529.47 855.193 1532.07 Q854.614 1532.74 851.512 1535.95 Q848.41 1539.15 842.762 1544.91 Z" fill="#000000" fill-rule="nonzero" fill-opacity="1"></path><path clip-path="url(#clip150)" d="M878.896 1517.37 Q875.285 1517.37 873.457 1520.93 Q871.651 1524.47 871.651 1531.6 Q871.651 1538.71 873.457 1542.27 Q875.285 1545.82 878.896 1545.82 Q882.531 1545.82 884.336 1542.27 Q886.165 1538.71 886.165 1531.6 Q886.165 1524.47 884.336 1520.93 Q882.531 1517.37 878.896 1517.37 M878.896 1513.66 Q884.706 1513.66 887.762 1518.27 Q890.841 1522.85 890.841 1531.6 Q890.841 1540.33 887.762 1544.94 Q884.706 1549.52 878.896 1549.52 Q873.086 1549.52 870.007 1544.94 Q866.952 1540.33 866.952 1531.6 Q866.952 1522.85 870.007 1518.27 Q873.086 1513.66 878.896 1513.66 Z" fill="#000000" fill-rule="nonzero" fill-opacity="1"></path><path clip-path="url(#clip150)" d="M1177.25 1530.21 Q1180.61 1530.93 1182.48 1533.2 Q1184.38 1535.47 1184.38 1538.8 Q1184.38 1543.92 1180.86 1546.72 Q1177.35 1549.52 1170.86 1549.52 Q1168.69 1549.52 1166.37 1549.08 Q1164.08 1548.66 1161.63 1547.81 L1161.63 1543.29 Q1163.57 1544.43 1165.89 1545.01 Q1168.2 1545.58 1170.72 1545.58 Q1175.12 1545.58 1177.41 1543.85 Q1179.73 1542.11 1179.73 1538.8 Q1179.73 1535.75 1177.58 1534.03 Q1175.45 1532.3 1171.63 1532.3 L1167.6 1532.3 L1167.6 1528.45 L1171.81 1528.45 Q1175.26 1528.45 1177.09 1527.09 Q1178.92 1525.7 1178.92 1523.11 Q1178.92 1520.45 1177.02 1519.03 Q1175.15 1517.6 1171.63 1517.6 Q1169.71 1517.6 1167.51 1518.01 Q1165.31 1518.43 1162.67 1519.31 L1162.67 1515.14 Q1165.33 1514.4 1167.65 1514.03 Q1169.98 1513.66 1172.04 1513.66 Q1177.37 1513.66 1180.47 1516.09 Q1183.57 1518.5 1183.57 1522.62 Q1183.57 1525.49 1181.93 1527.48 Q1180.28 1529.45 1177.25 1530.21 Z" fill="#000000" fill-rule="nonzero" fill-opacity="1"></path><path clip-path="url(#clip150)" d="M1203.25 1517.37 Q1199.64 1517.37 1197.81 1520.93 Q1196 1524.47 1196 1531.6 Q1196 1538.71 1197.81 1542.27 Q1199.64 1545.82 1203.25 1545.82 Q1206.88 1545.82 1208.69 1542.27 Q1210.52 1538.71 1210.52 1531.6 Q1210.52 1524.47 1208.69 1520.93 Q1206.88 1517.37 1203.25 1517.37 M1203.25 1513.66 Q1209.06 1513.66 1212.11 1518.27 Q1215.19 1522.85 1215.19 1531.6 Q1215.19 1540.33 1212.11 1544.94 Q1209.06 1549.52 1203.25 1549.52 Q1197.44 1549.52 1194.36 1544.94 Q1191.3 1540.33 1191.3 1531.6 Q1191.3 1522.85 1194.36 1518.27 Q1197.44 1513.66 1203.25 1513.66 Z" fill="#000000" fill-rule="nonzero" fill-opacity="1"></path><path clip-path="url(#clip150)" d="M1501 1518.36 L1489.2 1536.81 L1501 1536.81 L1501 1518.36 M1499.78 1514.29 L1505.65 1514.29 L1505.65 1536.81 L1510.59 1536.81 L1510.59 1540.7 L1505.65 1540.7 L1505.65 1548.85 L1501 1548.85 L1501 1540.7 L1485.4 1540.7 L1485.4 1536.19 L1499.78 1514.29 Z" fill="#000000" fill-rule="nonzero" fill-opacity="1"></path><path clip-path="url(#clip150)" d="M1528.32 1517.37 Q1524.71 1517.37 1522.88 1520.93 Q1521.07 1524.47 1521.07 1531.6 Q1521.07 1538.71 1522.88 1542.27 Q1524.71 1545.82 1528.32 1545.82 Q1531.95 1545.82 1533.76 1542.27 Q1535.59 1538.71 1535.59 1531.6 Q1535.59 1524.47 1533.76 1520.93 Q1531.95 1517.37 1528.32 1517.37 M1528.32 1513.66 Q1534.13 1513.66 1537.18 1518.27 Q1540.26 1522.85 1540.26 1531.6 Q1540.26 1540.33 1537.18 1544.94 Q1534.13 1549.52 1528.32 1549.52 Q1522.51 1549.52 1519.43 1544.94 Q1516.37 1540.33 1516.37 1531.6 Q1516.37 1522.85 1519.43 1518.27 Q1522.51 1513.66 1528.32 1513.66 Z" fill="#000000" fill-rule="nonzero" fill-opacity="1"></path><path clip-path="url(#clip150)" d="M1811.95 1514.29 L1830.31 1514.29 L1830.31 1518.22 L1816.23 1518.22 L1816.23 1526.7 Q1817.25 1526.35 1818.27 1526.19 Q1819.29 1526 1820.31 1526 Q1826.09 1526 1829.47 1529.17 Q1832.85 1532.34 1832.85 1537.76 Q1832.85 1543.34 1829.38 1546.44 Q1825.91 1549.52 1819.59 1549.52 Q1817.41 1549.52 1815.14 1549.15 Q1812.9 1548.78 1810.49 1548.04 L1810.49 1543.34 Q1812.58 1544.47 1814.8 1545.03 Q1817.02 1545.58 1819.5 1545.58 Q1823.5 1545.58 1825.84 1543.48 Q1828.18 1541.37 1828.18 1537.76 Q1828.18 1534.15 1825.84 1532.04 Q1823.5 1529.94 1819.5 1529.94 Q1817.62 1529.94 1815.75 1530.35 Q1813.89 1530.77 1811.95 1531.65 L1811.95 1514.29 Z" fill="#000000" fill-rule="nonzero" fill-opacity="1"></path><path clip-path="url(#clip150)" d="M1852.07 1517.37 Q1848.45 1517.37 1846.63 1520.93 Q1844.82 1524.47 1844.82 1531.6 Q1844.82 1538.71 1846.63 1542.27 Q1848.45 1545.82 1852.07 1545.82 Q1855.7 1545.82 1857.51 1542.27 Q1859.33 1538.71 1859.33 1531.6 Q1859.33 1524.47 1857.51 1520.93 Q1855.7 1517.37 1852.07 1517.37 M1852.07 1513.66 Q1857.88 1513.66 1860.93 1518.27 Q1864.01 1522.85 1864.01 1531.6 Q1864.01 1540.33 1860.93 1544.94 Q1857.88 1549.52 1852.07 1549.52 Q1846.26 1549.52 1843.18 1544.94 Q1840.12 1540.33 1840.12 1531.6 Q1840.12 1522.85 1843.18 1518.27 Q1846.26 1513.66 1852.07 1513.66 Z" fill="#000000" fill-rule="nonzero" fill-opacity="1"></path><path clip-path="url(#clip150)" d="M2147.08 1529.7 Q2143.93 1529.7 2142.08 1531.86 Q2140.25 1534.01 2140.25 1537.76 Q2140.25 1541.49 2142.08 1543.66 Q2143.93 1545.82 2147.08 1545.82 Q2150.23 1545.82 2152.05 1543.66 Q2153.91 1541.49 2153.91 1537.76 Q2153.91 1534.01 2152.05 1531.86 Q2150.23 1529.7 2147.08 1529.7 M2156.36 1515.05 L2156.36 1519.31 Q2154.6 1518.48 2152.79 1518.04 Q2151.01 1517.6 2149.25 1517.6 Q2144.62 1517.6 2142.17 1520.72 Q2139.74 1523.85 2139.39 1530.17 Q2140.76 1528.15 2142.82 1527.09 Q2144.88 1526 2147.36 1526 Q2152.56 1526 2155.57 1529.17 Q2158.6 1532.32 2158.6 1537.76 Q2158.6 1543.08 2155.46 1546.3 Q2152.31 1549.52 2147.08 1549.52 Q2141.08 1549.52 2137.91 1544.94 Q2134.74 1540.33 2134.74 1531.6 Q2134.74 1523.41 2138.63 1518.55 Q2142.52 1513.66 2149.07 1513.66 Q2150.83 1513.66 2152.61 1514.01 Q2154.42 1514.36 2156.36 1515.05 Z" fill="#000000" fill-rule="nonzero" fill-opacity="1"></path><path clip-path="url(#clip150)" d="M2176.66 1517.37 Q2173.05 1517.37 2171.22 1520.93 Q2169.42 1524.47 2169.42 1531.6 Q2169.42 1538.71 2171.22 1542.27 Q2173.05 1545.82 2176.66 1545.82 Q2180.29 1545.82 2182.1 1542.27 Q2183.93 1538.71 2183.93 1531.6 Q2183.93 1524.47 2182.1 1520.93 Q2180.29 1517.37 2176.66 1517.37 M2176.66 1513.66 Q2182.47 1513.66 2185.53 1518.27 Q2188.6 1522.85 2188.6 1531.6 Q2188.6 1540.33 2185.53 1544.94 Q2182.47 1549.52 2176.66 1549.52 Q2170.85 1549.52 2167.77 1544.94 Q2164.72 1540.33 2164.72 1531.6 Q2164.72 1522.85 2167.77 1518.27 Q2170.85 1513.66 2176.66 1513.66 Z" fill="#000000" fill-rule="nonzero" fill-opacity="1"></path><polyline clip-path="url(#clip152)" style="stroke:#000000; stroke-linecap:round; stroke-linejoin:round; stroke-width:2; stroke-opacity:0.1; fill:none" points="186.274,1167.63 2352.76,1167.63 "></polyline>
<polyline clip-path="url(#clip152)" style="stroke:#000000; stroke-linecap:round; stroke-linejoin:round; stroke-width:2; stroke-opacity:0.1; fill:none" points="186.274,847.772 2352.76,847.772 "></polyline>
<polyline clip-path="url(#clip152)" style="stroke:#000000; stroke-linecap:round; stroke-linejoin:round; stroke-width:2; stroke-opacity:0.1; fill:none" points="186.274,527.914 2352.76,527.914 "></polyline>
<polyline clip-path="url(#clip152)" style="stroke:#000000; stroke-linecap:round; stroke-linejoin:round; stroke-width:2; stroke-opacity:0.1; fill:none" points="186.274,208.056 2352.76,208.056 "></polyline>
<polyline clip-path="url(#clip150)" style="stroke:#000000; stroke-linecap:round; stroke-linejoin:round; stroke-width:4; stroke-opacity:1; fill:none" points="186.274,1486.45 186.274,47.2441 "></polyline>
<polyline clip-path="url(#clip150)" style="stroke:#000000; stroke-linecap:round; stroke-linejoin:round; stroke-width:4; stroke-opacity:1; fill:none" points="186.274,1167.63 205.172,1167.63 "></polyline>
<polyline clip-path="url(#clip150)" style="stroke:#000000; stroke-linecap:round; stroke-linejoin:round; stroke-width:4; stroke-opacity:1; fill:none" points="186.274,847.772 205.172,847.772 "></polyline>
<polyline clip-path="url(#clip150)" style="stroke:#000000; stroke-linecap:round; stroke-linejoin:round; stroke-width:4; stroke-opacity:1; fill:none" points="186.274,527.914 205.172,527.914 "></polyline>
<polyline clip-path="url(#clip150)" style="stroke:#000000; stroke-linecap:round; stroke-linejoin:round; stroke-width:4; stroke-opacity:1; fill:none" points="186.274,208.056 205.172,208.056 "></polyline>
<path clip-path="url(#clip150)" d="M63.1217 1153.43 Q59.5106 1153.43 57.6819 1156.99 Q55.8764 1160.53 55.8764 1167.66 Q55.8764 1174.77 57.6819 1178.34 Q59.5106 1181.88 63.1217 1181.88 Q66.7559 1181.88 68.5615 1178.34 Q70.3902 1174.77 70.3902 1167.66 Q70.3902 1160.53 68.5615 1156.99 Q66.7559 1153.43 63.1217 1153.43 M63.1217 1149.72 Q68.9318 1149.72 71.9874 1154.33 Q75.0661 1158.91 75.0661 1167.66 Q75.0661 1176.39 71.9874 1181 Q68.9318 1185.58 63.1217 1185.58 Q57.3115 1185.58 54.2328 1181 Q51.1773 1176.39 51.1773 1167.66 Q51.1773 1158.91 54.2328 1154.33 Q57.3115 1149.72 63.1217 1149.72 Z" fill="#000000" fill-rule="nonzero" fill-opacity="1"></path><path clip-path="url(#clip150)" d="M83.2836 1179.03 L88.1679 1179.03 L88.1679 1184.91 L83.2836 1184.91 L83.2836 1179.03 Z" fill="#000000" fill-rule="nonzero" fill-opacity="1"></path><path clip-path="url(#clip150)" d="M99.1632 1180.97 L106.802 1180.97 L106.802 1154.61 L98.4919 1156.28 L98.4919 1152.02 L106.756 1150.35 L111.432 1150.35 L111.432 1180.97 L119.07 1180.97 L119.07 1184.91 L99.1632 1184.91 L99.1632 1180.97 Z" fill="#000000" fill-rule="nonzero" fill-opacity="1"></path><path clip-path="url(#clip150)" d="M128.654 1184.19 L128.654 1179.93 Q130.413 1180.77 132.219 1181.21 Q134.024 1181.65 135.76 1181.65 Q140.39 1181.65 142.82 1178.54 Q145.274 1175.42 145.621 1169.08 Q144.279 1171.07 142.218 1172.13 Q140.158 1173.2 137.658 1173.2 Q132.473 1173.2 129.441 1170.07 Q126.432 1166.92 126.432 1161.48 Q126.432 1156.16 129.58 1152.94 Q132.728 1149.72 137.959 1149.72 Q143.955 1149.72 147.103 1154.33 Q150.274 1158.91 150.274 1167.66 Q150.274 1175.84 146.385 1180.72 Q142.519 1185.58 135.969 1185.58 Q134.209 1185.58 132.404 1185.23 Q130.598 1184.89 128.654 1184.19 M137.959 1169.54 Q141.107 1169.54 142.936 1167.39 Q144.788 1165.23 144.788 1161.48 Q144.788 1157.76 142.936 1155.6 Q141.107 1153.43 137.959 1153.43 Q134.811 1153.43 132.959 1155.6 Q131.131 1157.76 131.131 1161.48 Q131.131 1165.23 132.959 1167.39 Q134.811 1169.54 137.959 1169.54 Z" fill="#000000" fill-rule="nonzero" fill-opacity="1"></path><path clip-path="url(#clip150)" d="M62.9365 833.57 Q59.3254 833.57 57.4967 837.135 Q55.6912 840.677 55.6912 847.806 Q55.6912 854.913 57.4967 858.478 Q59.3254 862.019 62.9365 862.019 Q66.5707 862.019 68.3763 858.478 Q70.205 854.913 70.205 847.806 Q70.205 840.677 68.3763 837.135 Q66.5707 833.57 62.9365 833.57 M62.9365 829.867 Q68.7467 829.867 71.8022 834.473 Q74.8809 839.057 74.8809 847.806 Q74.8809 856.533 71.8022 861.14 Q68.7467 865.723 62.9365 865.723 Q57.1264 865.723 54.0477 861.14 Q50.9921 856.533 50.9921 847.806 Q50.9921 839.057 54.0477 834.473 Q57.1264 829.867 62.9365 829.867 Z" fill="#000000" fill-rule="nonzero" fill-opacity="1"></path><path clip-path="url(#clip150)" d="M83.0984 859.172 L87.9827 859.172 L87.9827 865.052 L83.0984 865.052 L83.0984 859.172 Z" fill="#000000" fill-rule="nonzero" fill-opacity="1"></path><path clip-path="url(#clip150)" d="M102.196 861.117 L118.515 861.117 L118.515 865.052 L96.5706 865.052 L96.5706 861.117 Q99.2326 858.362 103.816 853.732 Q108.422 849.08 109.603 847.737 Q111.848 845.214 112.728 843.478 Q113.631 841.719 113.631 840.029 Q113.631 837.274 111.686 835.538 Q109.765 833.802 106.663 833.802 Q104.464 833.802 102.01 834.566 Q99.5798 835.33 96.8021 836.881 L96.8021 832.158 Q99.6261 831.024 102.08 830.445 Q104.534 829.867 106.571 829.867 Q111.941 829.867 115.135 832.552 Q118.33 835.237 118.33 839.728 Q118.33 841.857 117.52 843.779 Q116.733 845.677 114.626 848.269 Q114.047 848.941 110.946 852.158 Q107.844 855.353 102.196 861.117 Z" fill="#000000" fill-rule="nonzero" fill-opacity="1"></path><path clip-path="url(#clip150)" d="M138.33 833.57 Q134.719 833.57 132.89 837.135 Q131.084 840.677 131.084 847.806 Q131.084 854.913 132.89 858.478 Q134.719 862.019 138.33 862.019 Q141.964 862.019 143.769 858.478 Q145.598 854.913 145.598 847.806 Q145.598 840.677 143.769 837.135 Q141.964 833.57 138.33 833.57 M138.33 829.867 Q144.14 829.867 147.195 834.473 Q150.274 839.057 150.274 847.806 Q150.274 856.533 147.195 861.14 Q144.14 865.723 138.33 865.723 Q132.519 865.723 129.441 861.14 Q126.385 856.533 126.385 847.806 Q126.385 839.057 129.441 834.473 Q132.519 829.867 138.33 829.867 Z" fill="#000000" fill-rule="nonzero" fill-opacity="1"></path><path clip-path="url(#clip150)" d="M64.1634 513.713 Q60.5523 513.713 58.7236 517.278 Q56.918 520.819 56.918 527.949 Q56.918 535.055 58.7236 538.62 Q60.5523 542.162 64.1634 542.162 Q67.7976 542.162 69.6031 538.62 Q71.4318 535.055 71.4318 527.949 Q71.4318 520.819 69.6031 517.278 Q67.7976 513.713 64.1634 513.713 M64.1634 510.009 Q69.9735 510.009 73.029 514.616 Q76.1077 519.199 76.1077 527.949 Q76.1077 536.676 73.029 541.282 Q69.9735 545.865 64.1634 545.865 Q58.3532 545.865 55.2745 541.282 Q52.219 536.676 52.219 527.949 Q52.219 519.199 55.2745 514.616 Q58.3532 510.009 64.1634 510.009 Z" fill="#000000" fill-rule="nonzero" fill-opacity="1"></path><path clip-path="url(#clip150)" d="M84.3253 539.314 L89.2095 539.314 L89.2095 545.194 L84.3253 545.194 L84.3253 539.314 Z" fill="#000000" fill-rule="nonzero" fill-opacity="1"></path><path clip-path="url(#clip150)" d="M103.422 541.259 L119.742 541.259 L119.742 545.194 L97.7974 545.194 L97.7974 541.259 Q100.459 538.504 105.043 533.875 Q109.649 529.222 110.83 527.879 Q113.075 525.356 113.955 523.62 Q114.858 521.861 114.858 520.171 Q114.858 517.416 112.913 515.68 Q110.992 513.944 107.89 513.944 Q105.691 513.944 103.237 514.708 Q100.807 515.472 98.0289 517.023 L98.0289 512.301 Q100.853 511.166 103.307 510.588 Q105.76 510.009 107.797 510.009 Q113.168 510.009 116.362 512.694 Q119.557 515.379 119.557 519.87 Q119.557 522 118.746 523.921 Q117.959 525.819 115.853 528.412 Q115.274 529.083 112.172 532.301 Q109.071 535.495 103.422 541.259 Z" fill="#000000" fill-rule="nonzero" fill-opacity="1"></path><path clip-path="url(#clip150)" d="M130.367 541.259 L138.006 541.259 L138.006 514.893 L129.695 516.56 L129.695 512.301 L137.959 510.634 L142.635 510.634 L142.635 541.259 L150.274 541.259 L150.274 545.194 L130.367 545.194 L130.367 541.259 Z" fill="#000000" fill-rule="nonzero" fill-opacity="1"></path><path clip-path="url(#clip150)" d="M64.5337 193.855 Q60.9226 193.855 59.0939 197.42 Q57.2884 200.961 57.2884 208.091 Q57.2884 215.198 59.0939 218.762 Q60.9226 222.304 64.5337 222.304 Q68.168 222.304 69.9735 218.762 Q71.8022 215.198 71.8022 208.091 Q71.8022 200.961 69.9735 197.42 Q68.168 193.855 64.5337 193.855 M64.5337 190.151 Q70.3439 190.151 73.3994 194.758 Q76.4781 199.341 76.4781 208.091 Q76.4781 216.818 73.3994 221.424 Q70.3439 226.008 64.5337 226.008 Q58.7236 226.008 55.6449 221.424 Q52.5893 216.818 52.5893 208.091 Q52.5893 199.341 55.6449 194.758 Q58.7236 190.151 64.5337 190.151 Z" fill="#000000" fill-rule="nonzero" fill-opacity="1"></path><path clip-path="url(#clip150)" d="M84.6956 219.457 L89.5799 219.457 L89.5799 225.336 L84.6956 225.336 L84.6956 219.457 Z" fill="#000000" fill-rule="nonzero" fill-opacity="1"></path><path clip-path="url(#clip150)" d="M103.793 221.401 L120.112 221.401 L120.112 225.336 L98.1678 225.336 L98.1678 221.401 Q100.83 218.647 105.413 214.017 Q110.02 209.364 111.2 208.022 Q113.445 205.499 114.325 203.762 Q115.228 202.003 115.228 200.313 Q115.228 197.559 113.283 195.823 Q111.362 194.087 108.26 194.087 Q106.061 194.087 103.608 194.85 Q101.177 195.614 98.3993 197.165 L98.3993 192.443 Q101.223 191.309 103.677 190.73 Q106.131 190.151 108.168 190.151 Q113.538 190.151 116.733 192.837 Q119.927 195.522 119.927 200.012 Q119.927 202.142 119.117 204.063 Q118.33 205.961 116.223 208.554 Q115.645 209.225 112.543 212.443 Q109.441 215.637 103.793 221.401 Z" fill="#000000" fill-rule="nonzero" fill-opacity="1"></path><path clip-path="url(#clip150)" d="M133.955 221.401 L150.274 221.401 L150.274 225.336 L128.33 225.336 L128.33 221.401 Q130.992 218.647 135.575 214.017 Q140.181 209.364 141.362 208.022 Q143.607 205.499 144.487 203.762 Q145.39 202.003 145.39 200.313 Q145.39 197.559 143.445 195.823 Q141.524 194.087 138.422 194.087 Q136.223 194.087 133.769 194.85 Q131.339 195.614 128.561 197.165 L128.561 192.443 Q131.385 191.309 133.839 190.73 Q136.293 190.151 138.33 190.151 Q143.7 190.151 146.894 192.837 Q150.089 195.522 150.089 200.012 Q150.089 202.142 149.279 204.063 Q148.492 205.961 146.385 208.554 Q145.806 209.225 142.705 212.443 Q139.603 215.637 133.955 221.401 Z" fill="#000000" fill-rule="nonzero" fill-opacity="1"></path><polyline clip-path="url(#clip152)" style="stroke:#009af9; stroke-linecap:round; stroke-linejoin:round; stroke-width:4; stroke-opacity:1; fill:none" points="247.59,965.722 280.032,628.598 312.474,588.644 344.916,499.208 377.358,272.959 409.8,791.019 442.242,793.682 474.684,378.307 507.126,311.283 539.568,303.85 572.01,656.192 604.452,225.588 636.894,563.354 669.337,686.557 701.779,642.245 734.221,87.9763 766.663,464.689 799.105,757.785 831.547,784.346 863.989,636.026 896.431,600.202 928.873,1032.26 961.315,422.548 993.757,779.462 1026.2,479.699 1058.64,837.126 1091.08,899.048 1123.53,801.972 1155.97,755.817 1188.41,710.954 1220.85,680.472 1253.29,402.02 1285.74,658.123 1318.18,1024.02 1350.62,316.904 1383.06,476.728 1415.5,822.556 1447.95,988.318 1480.39,815.77 1512.83,1060.57 1545.27,538.701 1577.71,717.807 1610.16,741.564 1642.6,711.908 1675.04,819.091 1707.48,1244.43 1739.93,991.09 1772.37,671.504 1804.81,362.181 1837.25,928.436 1869.69,832.904 1902.14,783.279 1934.58,717.494 1967.02,1445.72 1999.46,1027.2 2031.9,1049.01 2064.35,876.458 2096.79,1011.36 2129.23,642.277 2161.67,757.988 2194.11,838.164 2226.56,603.209 2259,969.198 2291.44,141.994 "></polyline>
<path clip-path="url(#clip150)" d="M258.49 1438.47 L527.569 1438.47 L527.569 1334.79 L258.49 1334.79  Z" fill="#ffffff" fill-rule="evenodd" fill-opacity="1"></path>
<polyline clip-path="url(#clip150)" style="stroke:#000000; stroke-linecap:round; stroke-linejoin:round; stroke-width:4; stroke-opacity:1; fill:none" points="258.49,1438.47 527.569,1438.47 527.569,1334.79 258.49,1334.79 258.49,1438.47 "></polyline>
<polyline clip-path="url(#clip150)" style="stroke:#009af9; stroke-linecap:round; stroke-linejoin:round; stroke-width:4; stroke-opacity:1; fill:none" points="282.562,1386.63 426.994,1386.63 "></polyline>
<path clip-path="url(#clip150)" d="M464.909 1406.32 Q463.103 1410.95 461.39 1412.36 Q459.677 1413.78 456.807 1413.78 L453.404 1413.78 L453.404 1410.21 L455.904 1410.21 Q457.663 1410.21 458.636 1409.38 Q459.608 1408.54 460.788 1405.44 L461.552 1403.5 L451.066 1377.99 L455.58 1377.99 L463.682 1398.27 L471.784 1377.99 L476.298 1377.99 L464.909 1406.32 Z" fill="#000000" fill-rule="nonzero" fill-opacity="1"></path><path clip-path="url(#clip150)" d="M483.589 1399.98 L491.228 1399.98 L491.228 1373.61 L482.918 1375.28 L482.918 1371.02 L491.182 1369.35 L495.858 1369.35 L495.858 1399.98 L503.497 1399.98 L503.497 1403.91 L483.589 1403.91 L483.589 1399.98 Z" fill="#000000" fill-rule="nonzero" fill-opacity="1"></path></svg>