<?xml version="1.0" encoding="utf-8"?>
<svg xmlns="http://www.w3.org/2000/svg" xmlns:xlink="http://www.w3.org/1999/xlink" width="600" height="400" viewBox="0 0 2400 1600">
<defs>
  <clipPath id="clip390">
    <rect x="0" y="0" width="2400" height="1600"/>
  </clipPath>
</defs>
<path clip-path="url(#clip390)" d="M0 1600 L2400 1600 L2400 0 L0 0  Z" fill="#ffffff" fill-rule="evenodd" fill-opacity="1"/>
<defs>
  <clipPath id="clip391">
    <rect x="480" y="0" width="1681" height="1600"/>
  </clipPath>
</defs>
<path clip-path="url(#clip390)" d="M216.436 1486.45 L2352.76 1486.45 L2352.76 47.2441 L216.436 47.2441  Z" fill="#ffffff" fill-rule="evenodd" fill-opacity="1"/>
<defs>
  <clipPath id="clip392">
    <rect x="216" y="47" width="2137" height="1440"/>
  </clipPath>
</defs>
<polyline clip-path="url(#clip392)" style="stroke:#000000; stroke-linecap:round; stroke-linejoin:round; stroke-width:2; stroke-opacity:0.1; fill:none" points="536.949,1486.45 536.949,47.2441 "/>
<polyline clip-path="url(#clip392)" style="stroke:#000000; stroke-linecap:round; stroke-linejoin:round; stroke-width:2; stroke-opacity:0.1; fill:none" points="862.013,1486.45 862.013,47.2441 "/>
<polyline clip-path="url(#clip392)" style="stroke:#000000; stroke-linecap:round; stroke-linejoin:round; stroke-width:2; stroke-opacity:0.1; fill:none" points="1187.08,1486.45 1187.08,47.2441 "/>
<polyline clip-path="url(#clip392)" style="stroke:#000000; stroke-linecap:round; stroke-linejoin:round; stroke-width:2; stroke-opacity:0.1; fill:none" points="1512.14,1486.45 1512.14,47.2441 "/>
<polyline clip-path="url(#clip392)" style="stroke:#000000; stroke-linecap:round; stroke-linejoin:round; stroke-width:2; stroke-opacity:0.1; fill:none" points="1837.2,1486.45 1837.2,47.2441 "/>
<polyline clip-path="url(#clip392)" style="stroke:#000000; stroke-linecap:round; stroke-linejoin:round; stroke-width:2; stroke-opacity:0.1; fill:none" points="2162.27,1486.45 2162.27,47.2441 "/>
<polyline clip-path="url(#clip390)" style="stroke:#000000; stroke-linecap:round; stroke-linejoin:round; stroke-width:4; stroke-opacity:1; fill:none" points="216.436,1486.45 2352.76,1486.45 "/>
<polyline clip-path="url(#clip390)" style="stroke:#000000; stroke-linecap:round; stroke-linejoin:round; stroke-width:4; stroke-opacity:1; fill:none" points="536.949,1486.45 536.949,1467.55 "/>
<polyline clip-path="url(#clip390)" style="stroke:#000000; stroke-linecap:round; stroke-linejoin:round; stroke-width:4; stroke-opacity:1; fill:none" points="862.013,1486.45 862.013,1467.55 "/>
<polyline clip-path="url(#clip390)" style="stroke:#000000; stroke-linecap:round; stroke-linejoin:round; stroke-width:4; stroke-opacity:1; fill:none" points="1187.08,1486.45 1187.08,1467.55 "/>
<polyline clip-path="url(#clip390)" style="stroke:#000000; stroke-linecap:round; stroke-linejoin:round; stroke-width:4; stroke-opacity:1; fill:none" points="1512.14,1486.45 1512.14,1467.55 "/>
<polyline clip-path="url(#clip390)" style="stroke:#000000; stroke-linecap:round; stroke-linejoin:round; stroke-width:4; stroke-opacity:1; fill:none" points="1837.2,1486.45 1837.2,1467.55 "/>
<polyline clip-path="url(#clip390)" style="stroke:#000000; stroke-linecap:round; stroke-linejoin:round; stroke-width:4; stroke-opacity:1; fill:none" points="2162.27,1486.45 2162.27,1467.55 "/>
<path clip-path="url(#clip390)" d="M527.227 1514.29 L545.583 1514.29 L545.583 1518.22 L531.509 1518.22 L531.509 1526.7 Q532.528 1526.35 533.546 1526.19 Q534.565 1526 535.583 1526 Q541.37 1526 544.75 1529.17 Q548.129 1532.34 548.129 1537.76 Q548.129 1543.34 544.657 1546.44 Q541.185 1549.52 534.866 1549.52 Q532.69 1549.52 530.421 1549.15 Q528.176 1548.78 525.768 1548.04 L525.768 1543.34 Q527.852 1544.47 530.074 1545.03 Q532.296 1545.58 534.773 1545.58 Q538.778 1545.58 541.116 1543.48 Q543.453 1541.37 543.453 1537.76 Q543.453 1534.15 541.116 1532.04 Q538.778 1529.94 534.773 1529.94 Q532.898 1529.94 531.023 1530.35 Q529.171 1530.77 527.227 1531.65 L527.227 1514.29 Z" fill="#000000" fill-rule="nonzero" fill-opacity="1" /><path clip-path="url(#clip390)" d="M836.7 1544.91 L844.339 1544.91 L844.339 1518.55 L836.029 1520.21 L836.029 1515.95 L844.293 1514.29 L848.969 1514.29 L848.969 1544.91 L856.608 1544.91 L856.608 1548.85 L836.7 1548.85 L836.7 1544.91 Z" fill="#000000" fill-rule="nonzero" fill-opacity="1" /><path clip-path="url(#clip390)" d="M876.052 1517.37 Q872.441 1517.37 870.612 1520.93 Q868.807 1524.47 868.807 1531.6 Q868.807 1538.71 870.612 1542.27 Q872.441 1545.82 876.052 1545.82 Q879.686 1545.82 881.492 1542.27 Q883.321 1538.71 883.321 1531.6 Q883.321 1524.47 881.492 1520.93 Q879.686 1517.37 876.052 1517.37 M876.052 1513.66 Q881.862 1513.66 884.918 1518.27 Q887.996 1522.85 887.996 1531.6 Q887.996 1540.33 884.918 1544.94 Q881.862 1549.52 876.052 1549.52 Q870.242 1549.52 867.163 1544.94 Q864.108 1540.33 864.108 1531.6 Q864.108 1522.85 867.163 1518.27 Q870.242 1513.66 876.052 1513.66 Z" fill="#000000" fill-rule="nonzero" fill-opacity="1" /><path clip-path="url(#clip390)" d="M1162.26 1544.91 L1169.9 1544.91 L1169.9 1518.55 L1161.59 1520.21 L1161.59 1515.95 L1169.85 1514.29 L1174.53 1514.29 L1174.53 1544.91 L1182.17 1544.91 L1182.17 1548.85 L1162.26 1548.85 L1162.26 1544.91 Z" fill="#000000" fill-rule="nonzero" fill-opacity="1" /><path clip-path="url(#clip390)" d="M1191.66 1514.29 L1210.02 1514.29 L1210.02 1518.22 L1195.94 1518.22 L1195.94 1526.7 Q1196.96 1526.35 1197.98 1526.19 Q1199 1526 1200.02 1526 Q1205.8 1526 1209.18 1529.17 Q1212.56 1532.34 1212.56 1537.76 Q1212.56 1543.34 1209.09 1546.44 Q1205.62 1549.52 1199.3 1549.52 Q1197.12 1549.52 1194.85 1549.15 Q1192.61 1548.78 1190.2 1548.04 L1190.2 1543.34 Q1192.29 1544.47 1194.51 1545.03 Q1196.73 1545.58 1199.21 1545.58 Q1203.21 1545.58 1205.55 1543.48 Q1207.89 1541.37 1207.89 1537.76 Q1207.89 1534.15 1205.55 1532.04 Q1203.21 1529.94 1199.21 1529.94 Q1197.33 1529.94 1195.46 1530.35 Q1193.6 1530.77 1191.66 1531.65 L1191.66 1514.29 Z" fill="#000000" fill-rule="nonzero" fill-opacity="1" /><path clip-path="url(#clip390)" d="M1490.91 1544.91 L1507.23 1544.91 L1507.23 1548.85 L1485.29 1548.85 L1485.29 1544.91 Q1487.95 1542.16 1492.53 1537.53 Q1497.14 1532.88 1498.32 1531.53 Q1500.57 1529.01 1501.45 1527.27 Q1502.35 1525.51 1502.35 1523.82 Q1502.35 1521.07 1500.4 1519.33 Q1498.48 1517.6 1495.38 1517.6 Q1493.18 1517.6 1490.73 1518.36 Q1488.3 1519.13 1485.52 1520.68 L1485.52 1515.95 Q1488.34 1514.82 1490.8 1514.24 Q1493.25 1513.66 1495.29 1513.66 Q1500.66 1513.66 1503.85 1516.35 Q1507.05 1519.03 1507.05 1523.52 Q1507.05 1525.65 1506.24 1527.57 Q1505.45 1529.47 1503.34 1532.07 Q1502.77 1532.74 1499.66 1535.95 Q1496.56 1539.15 1490.91 1544.91 Z" fill="#000000" fill-rule="nonzero" fill-opacity="1" /><path clip-path="url(#clip390)" d="M1527.05 1517.37 Q1523.44 1517.37 1521.61 1520.93 Q1519.8 1524.47 1519.8 1531.6 Q1519.8 1538.71 1521.61 1542.27 Q1523.44 1545.82 1527.05 1545.82 Q1530.68 1545.82 1532.49 1542.27 Q1534.32 1538.71 1534.32 1531.6 Q1534.32 1524.47 1532.49 1520.93 Q1530.68 1517.37 1527.05 1517.37 M1527.05 1513.66 Q1532.86 1513.66 1535.91 1518.27 Q1538.99 1522.85 1538.99 1531.6 Q1538.99 1540.33 1535.91 1544.94 Q1532.86 1549.52 1527.05 1549.52 Q1521.24 1549.52 1518.16 1544.94 Q1515.1 1540.33 1515.1 1531.6 Q1515.1 1522.85 1518.16 1518.27 Q1521.24 1513.66 1527.05 1513.66 Z" fill="#000000" fill-rule="nonzero" fill-opacity="1" /><path clip-path="url(#clip390)" d="M1816.48 1544.91 L1832.79 1544.91 L1832.79 1548.85 L1810.85 1548.85 L1810.85 1544.91 Q1813.51 1542.16 1818.1 1537.53 Q1822.7 1532.88 1823.88 1531.53 Q1826.13 1529.01 1827.01 1527.27 Q1827.91 1525.51 1827.91 1523.82 Q1827.91 1521.07 1825.97 1519.33 Q1824.04 1517.6 1820.94 1517.6 Q1818.74 1517.6 1816.29 1518.36 Q1813.86 1519.13 1811.08 1520.68 L1811.08 1515.95 Q1813.91 1514.82 1816.36 1514.24 Q1818.81 1513.66 1820.85 1513.66 Q1826.22 1513.66 1829.42 1516.35 Q1832.61 1519.03 1832.61 1523.52 Q1832.61 1525.65 1831.8 1527.57 Q1831.01 1529.47 1828.91 1532.07 Q1828.33 1532.74 1825.23 1535.95 Q1822.12 1539.15 1816.48 1544.91 Z" fill="#000000" fill-rule="nonzero" fill-opacity="1" /><path clip-path="url(#clip390)" d="M1842.66 1514.29 L1861.01 1514.29 L1861.01 1518.22 L1846.94 1518.22 L1846.94 1526.7 Q1847.96 1526.35 1848.98 1526.19 Q1849.99 1526 1851.01 1526 Q1856.8 1526 1860.18 1529.17 Q1863.56 1532.34 1863.56 1537.76 Q1863.56 1543.34 1860.09 1546.44 Q1856.61 1549.52 1850.29 1549.52 Q1848.12 1549.52 1845.85 1549.15 Q1843.6 1548.78 1841.2 1548.04 L1841.2 1543.34 Q1843.28 1544.47 1845.5 1545.03 Q1847.73 1545.58 1850.2 1545.58 Q1854.21 1545.58 1856.54 1543.48 Q1858.88 1541.37 1858.88 1537.76 Q1858.88 1534.15 1856.54 1532.04 Q1854.21 1529.94 1850.2 1529.94 Q1848.33 1529.94 1846.45 1530.35 Q1844.6 1530.77 1842.66 1531.65 L1842.66 1514.29 Z" fill="#000000" fill-rule="nonzero" fill-opacity="1" /><path clip-path="url(#clip390)" d="M2151.11 1530.21 Q2154.47 1530.93 2156.34 1533.2 Q2158.24 1535.47 2158.24 1538.8 Q2158.24 1543.92 2154.72 1546.72 Q2151.2 1549.52 2144.72 1549.52 Q2142.55 1549.52 2140.23 1549.08 Q2137.94 1548.66 2135.49 1547.81 L2135.49 1543.29 Q2137.43 1544.43 2139.75 1545.01 Q2142.06 1545.58 2144.58 1545.58 Q2148.98 1545.58 2151.27 1543.85 Q2153.59 1542.11 2153.59 1538.8 Q2153.59 1535.75 2151.44 1534.03 Q2149.31 1532.3 2145.49 1532.3 L2141.46 1532.3 L2141.46 1528.45 L2145.67 1528.45 Q2149.12 1528.45 2150.95 1527.09 Q2152.78 1525.7 2152.78 1523.11 Q2152.78 1520.45 2150.88 1519.03 Q2149 1517.6 2145.49 1517.6 Q2143.56 1517.6 2141.37 1518.01 Q2139.17 1518.43 2136.53 1519.31 L2136.53 1515.14 Q2139.19 1514.4 2141.5 1514.03 Q2143.84 1513.66 2145.9 1513.66 Q2151.23 1513.66 2154.33 1516.09 Q2157.43 1518.5 2157.43 1522.62 Q2157.43 1525.49 2155.79 1527.48 Q2154.14 1529.45 2151.11 1530.21 Z" fill="#000000" fill-rule="nonzero" fill-opacity="1" /><path clip-path="url(#clip390)" d="M2177.11 1517.37 Q2173.5 1517.37 2171.67 1520.93 Q2169.86 1524.47 2169.86 1531.6 Q2169.86 1538.71 2171.67 1542.27 Q2173.5 1545.82 2177.11 1545.82 Q2180.74 1545.82 2182.55 1542.27 Q2184.37 1538.71 2184.37 1531.6 Q2184.37 1524.47 2182.55 1520.93 Q2180.74 1517.37 2177.11 1517.37 M2177.11 1513.66 Q2182.92 1513.66 2185.97 1518.27 Q2189.05 1522.85 2189.05 1531.6 Q2189.05 1540.33 2185.97 1544.94 Q2182.92 1549.52 2177.11 1549.52 Q2171.3 1549.52 2168.22 1544.94 Q2165.16 1540.33 2165.16 1531.6 Q2165.16 1522.85 2168.22 1518.27 Q2171.3 1513.66 2177.11 1513.66 Z" fill="#000000" fill-rule="nonzero" fill-opacity="1" /><polyline clip-path="url(#clip392)" style="stroke:#000000; stroke-linecap:round; stroke-linejoin:round; stroke-width:2; stroke-opacity:0.1; fill:none" points="216.436,1383.71 2352.76,1383.71 "/>
<polyline clip-path="url(#clip392)" style="stroke:#000000; stroke-linecap:round; stroke-linejoin:round; stroke-width:2; stroke-opacity:0.1; fill:none" points="216.436,1089.46 2352.76,1089.46 "/>
<polyline clip-path="url(#clip392)" style="stroke:#000000; stroke-linecap:round; stroke-linejoin:round; stroke-width:2; stroke-opacity:0.1; fill:none" points="216.436,795.216 2352.76,795.216 "/>
<polyline clip-path="url(#clip392)" style="stroke:#000000; stroke-linecap:round; stroke-linejoin:round; stroke-width:2; stroke-opacity:0.1; fill:none" points="216.436,500.968 2352.76,500.968 "/>
<polyline clip-path="url(#clip392)" style="stroke:#000000; stroke-linecap:round; stroke-linejoin:round; stroke-width:2; stroke-opacity:0.1; fill:none" points="216.436,206.72 2352.76,206.72 "/>
<polyline clip-path="url(#clip390)" style="stroke:#000000; stroke-linecap:round; stroke-linejoin:round; stroke-width:4; stroke-opacity:1; fill:none" points="216.436,1486.45 216.436,47.2441 "/>
<polyline clip-path="url(#clip390)" style="stroke:#000000; stroke-linecap:round; stroke-linejoin:round; stroke-width:4; stroke-opacity:1; fill:none" points="216.436,1383.71 235.334,1383.71 "/>
<polyline clip-path="url(#clip390)" style="stroke:#000000; stroke-linecap:round; stroke-linejoin:round; stroke-width:4; stroke-opacity:1; fill:none" points="216.436,1089.46 235.334,1089.46 "/>
<polyline clip-path="url(#clip390)" style="stroke:#000000; stroke-linecap:round; stroke-linejoin:round; stroke-width:4; stroke-opacity:1; fill:none" points="216.436,795.216 235.334,795.216 "/>
<polyline clip-path="url(#clip390)" style="stroke:#000000; stroke-linecap:round; stroke-linejoin:round; stroke-width:4; stroke-opacity:1; fill:none" points="216.436,500.968 235.334,500.968 "/>
<polyline clip-path="url(#clip390)" style="stroke:#000000; stroke-linecap:round; stroke-linejoin:round; stroke-width:4; stroke-opacity:1; fill:none" points="216.436,206.72 235.334,206.72 "/>
<path clip-path="url(#clip390)" d="M62.9365 1369.51 Q59.3254 1369.51 57.4967 1373.08 Q55.6912 1376.62 55.6912 1383.75 Q55.6912 1390.85 57.4967 1394.42 Q59.3254 1397.96 62.9365 1397.96 Q66.5707 1397.96 68.3763 1394.42 Q70.205 1390.85 70.205 1383.75 Q70.205 1376.62 68.3763 1373.08 Q66.5707 1369.51 62.9365 1369.51 M62.9365 1365.81 Q68.7467 1365.81 71.8022 1370.41 Q74.8809 1375 74.8809 1383.75 Q74.8809 1392.47 71.8022 1397.08 Q68.7467 1401.66 62.9365 1401.66 Q57.1264 1401.66 54.0477 1397.08 Q50.9921 1392.47 50.9921 1383.75 Q50.9921 1375 54.0477 1370.41 Q57.1264 1365.81 62.9365 1365.81 Z" fill="#000000" fill-rule="nonzero" fill-opacity="1" /><path clip-path="url(#clip390)" d="M83.0984 1395.11 L87.9827 1395.11 L87.9827 1400.99 L83.0984 1400.99 L83.0984 1395.11 Z" fill="#000000" fill-rule="nonzero" fill-opacity="1" /><path clip-path="url(#clip390)" d="M98.978 1397.06 L106.617 1397.06 L106.617 1370.69 L98.3067 1372.36 L98.3067 1368.1 L106.571 1366.43 L111.246 1366.43 L111.246 1397.06 L118.885 1397.06 L118.885 1400.99 L98.978 1400.99 L98.978 1397.06 Z" fill="#000000" fill-rule="nonzero" fill-opacity="1" /><path clip-path="url(#clip390)" d="M138.33 1369.51 Q134.719 1369.51 132.89 1373.08 Q131.084 1376.62 131.084 1383.75 Q131.084 1390.85 132.89 1394.42 Q134.719 1397.96 138.33 1397.96 Q141.964 1397.96 143.769 1394.42 Q145.598 1390.85 145.598 1383.75 Q145.598 1376.62 143.769 1373.08 Q141.964 1369.51 138.33 1369.51 M138.33 1365.81 Q144.14 1365.81 147.195 1370.41 Q150.274 1375 150.274 1383.75 Q150.274 1392.47 147.195 1397.08 Q144.14 1401.66 138.33 1401.66 Q132.519 1401.66 129.441 1397.08 Q126.385 1392.47 126.385 1383.75 Q126.385 1375 129.441 1370.41 Q132.519 1365.81 138.33 1365.81 Z" fill="#000000" fill-rule="nonzero" fill-opacity="1" /><path clip-path="url(#clip390)" d="M168.491 1369.51 Q164.88 1369.51 163.052 1373.08 Q161.246 1376.62 161.246 1383.75 Q161.246 1390.85 163.052 1394.42 Q164.88 1397.96 168.491 1397.96 Q172.126 1397.96 173.931 1394.42 Q175.76 1390.85 175.76 1383.75 Q175.76 1376.62 173.931 1373.08 Q172.126 1369.51 168.491 1369.51 M168.491 1365.81 Q174.302 1365.81 177.357 1370.41 Q180.436 1375 180.436 1383.75 Q180.436 1392.47 177.357 1397.08 Q174.302 1401.66 168.491 1401.66 Q162.681 1401.66 159.603 1397.08 Q156.547 1392.47 156.547 1383.75 Q156.547 1375 159.603 1370.41 Q162.681 1365.81 168.491 1365.81 Z" fill="#000000" fill-rule="nonzero" fill-opacity="1" /><path clip-path="url(#clip390)" d="M63.9319 1075.26 Q60.3208 1075.26 58.4921 1078.83 Q56.6865 1082.37 56.6865 1089.5 Q56.6865 1096.61 58.4921 1100.17 Q60.3208 1103.71 63.9319 1103.71 Q67.5661 1103.71 69.3717 1100.17 Q71.2004 1096.61 71.2004 1089.5 Q71.2004 1082.37 69.3717 1078.83 Q67.5661 1075.26 63.9319 1075.26 M63.9319 1071.56 Q69.742 1071.56 72.7976 1076.17 Q75.8763 1080.75 75.8763 1089.5 Q75.8763 1098.23 72.7976 1102.83 Q69.742 1107.42 63.9319 1107.42 Q58.1217 1107.42 55.043 1102.83 Q51.9875 1098.23 51.9875 1089.5 Q51.9875 1080.75 55.043 1076.17 Q58.1217 1071.56 63.9319 1071.56 Z" fill="#000000" fill-rule="nonzero" fill-opacity="1" /><path clip-path="url(#clip390)" d="M84.0938 1100.86 L88.978 1100.86 L88.978 1106.74 L84.0938 1106.74 L84.0938 1100.86 Z" fill="#000000" fill-rule="nonzero" fill-opacity="1" /><path clip-path="url(#clip390)" d="M99.9733 1102.81 L107.612 1102.81 L107.612 1076.44 L99.3021 1078.11 L99.3021 1073.85 L107.566 1072.18 L112.242 1072.18 L112.242 1102.81 L119.881 1102.81 L119.881 1106.74 L99.9733 1106.74 L99.9733 1102.81 Z" fill="#000000" fill-rule="nonzero" fill-opacity="1" /><path clip-path="url(#clip390)" d="M133.353 1102.81 L149.672 1102.81 L149.672 1106.74 L127.728 1106.74 L127.728 1102.81 Q130.39 1100.05 134.973 1095.42 Q139.58 1090.77 140.76 1089.43 Q143.006 1086.91 143.885 1085.17 Q144.788 1083.41 144.788 1081.72 Q144.788 1078.97 142.843 1077.23 Q140.922 1075.49 137.82 1075.49 Q135.621 1075.49 133.168 1076.26 Q130.737 1077.02 127.959 1078.57 L127.959 1073.85 Q130.783 1072.72 133.237 1072.14 Q135.691 1071.56 137.728 1071.56 Q143.098 1071.56 146.293 1074.24 Q149.487 1076.93 149.487 1081.42 Q149.487 1083.55 148.677 1085.47 Q147.89 1087.37 145.783 1089.96 Q145.205 1090.63 142.103 1093.85 Q139.001 1097.05 133.353 1102.81 Z" fill="#000000" fill-rule="nonzero" fill-opacity="1" /><path clip-path="url(#clip390)" d="M159.533 1072.18 L177.89 1072.18 L177.89 1076.12 L163.816 1076.12 L163.816 1084.59 Q164.834 1084.24 165.853 1084.08 Q166.871 1083.9 167.89 1083.9 Q173.677 1083.9 177.056 1087.07 Q180.436 1090.24 180.436 1095.66 Q180.436 1101.23 176.964 1104.34 Q173.491 1107.42 167.172 1107.42 Q164.996 1107.42 162.728 1107.05 Q160.482 1106.67 158.075 1105.93 L158.075 1101.23 Q160.158 1102.37 162.38 1102.92 Q164.603 1103.48 167.079 1103.48 Q171.084 1103.48 173.422 1101.37 Q175.76 1099.27 175.76 1095.66 Q175.76 1092.05 173.422 1089.94 Q171.084 1087.83 167.079 1087.83 Q165.204 1087.83 163.329 1088.25 Q161.478 1088.67 159.533 1089.55 L159.533 1072.18 Z" fill="#000000" fill-rule="nonzero" fill-opacity="1" /><path clip-path="url(#clip390)" d="M62.9365 781.015 Q59.3254 781.015 57.4967 784.58 Q55.6912 788.121 55.6912 795.251 Q55.6912 802.357 57.4967 805.922 Q59.3254 809.464 62.9365 809.464 Q66.5707 809.464 68.3763 805.922 Q70.205 802.357 70.205 795.251 Q70.205 788.121 68.3763 784.58 Q66.5707 781.015 62.9365 781.015 M62.9365 777.311 Q68.7467 777.311 71.8022 781.918 Q74.8809 786.501 74.8809 795.251 Q74.8809 803.978 71.8022 808.584 Q68.7467 813.167 62.9365 813.167 Q57.1264 813.167 54.0477 808.584 Q50.9921 803.978 50.9921 795.251 Q50.9921 786.501 54.0477 781.918 Q57.1264 777.311 62.9365 777.311 Z" fill="#000000" fill-rule="nonzero" fill-opacity="1" /><path clip-path="url(#clip390)" d="M83.0984 806.617 L87.9827 806.617 L87.9827 812.496 L83.0984 812.496 L83.0984 806.617 Z" fill="#000000" fill-rule="nonzero" fill-opacity="1" /><path clip-path="url(#clip390)" d="M98.978 808.561 L106.617 808.561 L106.617 782.195 L98.3067 783.862 L98.3067 779.603 L106.571 777.936 L111.246 777.936 L111.246 808.561 L118.885 808.561 L118.885 812.496 L98.978 812.496 L98.978 808.561 Z" fill="#000000" fill-rule="nonzero" fill-opacity="1" /><path clip-path="url(#clip390)" d="M128.376 777.936 L146.732 777.936 L146.732 781.871 L132.658 781.871 L132.658 790.343 Q133.677 789.996 134.695 789.834 Q135.714 789.649 136.732 789.649 Q142.519 789.649 145.899 792.82 Q149.279 795.992 149.279 801.408 Q149.279 806.987 145.806 810.089 Q142.334 813.167 136.015 813.167 Q133.839 813.167 131.57 812.797 Q129.325 812.427 126.918 811.686 L126.918 806.987 Q129.001 808.121 131.223 808.677 Q133.445 809.232 135.922 809.232 Q139.927 809.232 142.265 807.126 Q144.603 805.019 144.603 801.408 Q144.603 797.797 142.265 795.691 Q139.927 793.584 135.922 793.584 Q134.047 793.584 132.172 794.001 Q130.32 794.418 128.376 795.297 L128.376 777.936 Z" fill="#000000" fill-rule="nonzero" fill-opacity="1" /><path clip-path="url(#clip390)" d="M168.491 781.015 Q164.88 781.015 163.052 784.58 Q161.246 788.121 161.246 795.251 Q161.246 802.357 163.052 805.922 Q164.88 809.464 168.491 809.464 Q172.126 809.464 173.931 805.922 Q175.76 802.357 175.76 795.251 Q175.76 788.121 173.931 784.58 Q172.126 781.015 168.491 781.015 M168.491 777.311 Q174.302 777.311 177.357 781.918 Q180.436 786.501 180.436 795.251 Q180.436 803.978 177.357 808.584 Q174.302 813.167 168.491 813.167 Q162.681 813.167 159.603 808.584 Q156.547 803.978 156.547 795.251 Q156.547 786.501 159.603 781.918 Q162.681 777.311 168.491 777.311 Z" fill="#000000" fill-rule="nonzero" fill-opacity="1" /><path clip-path="url(#clip390)" d="M63.9319 486.767 Q60.3208 486.767 58.4921 490.331 Q56.6865 493.873 56.6865 501.003 Q56.6865 508.109 58.4921 511.674 Q60.3208 515.216 63.9319 515.216 Q67.5661 515.216 69.3717 511.674 Q71.2004 508.109 71.2004 501.003 Q71.2004 493.873 69.3717 490.331 Q67.5661 486.767 63.9319 486.767 M63.9319 483.063 Q69.742 483.063 72.7976 487.669 Q75.8763 492.253 75.8763 501.003 Q75.8763 509.73 72.7976 514.336 Q69.742 518.919 63.9319 518.919 Q58.1217 518.919 55.043 514.336 Q51.9875 509.73 51.9875 501.003 Q51.9875 492.253 55.043 487.669 Q58.1217 483.063 63.9319 483.063 Z" fill="#000000" fill-rule="nonzero" fill-opacity="1" /><path clip-path="url(#clip390)" d="M84.0938 512.368 L88.978 512.368 L88.978 518.248 L84.0938 518.248 L84.0938 512.368 Z" fill="#000000" fill-rule="nonzero" fill-opacity="1" /><path clip-path="url(#clip390)" d="M99.9733 514.313 L107.612 514.313 L107.612 487.947 L99.3021 489.614 L99.3021 485.355 L107.566 483.688 L112.242 483.688 L112.242 514.313 L119.881 514.313 L119.881 518.248 L99.9733 518.248 L99.9733 514.313 Z" fill="#000000" fill-rule="nonzero" fill-opacity="1" /><path clip-path="url(#clip390)" d="M128.144 483.688 L150.367 483.688 L150.367 485.679 L137.82 518.248 L132.936 518.248 L144.742 487.623 L128.144 487.623 L128.144 483.688 Z" fill="#000000" fill-rule="nonzero" fill-opacity="1" /><path clip-path="url(#clip390)" d="M159.533 483.688 L177.89 483.688 L177.89 487.623 L163.816 487.623 L163.816 496.095 Q164.834 495.748 165.853 495.586 Q166.871 495.401 167.89 495.401 Q173.677 495.401 177.056 498.572 Q180.436 501.743 180.436 507.16 Q180.436 512.739 176.964 515.841 Q173.491 518.919 167.172 518.919 Q164.996 518.919 162.728 518.549 Q160.482 518.179 158.075 517.438 L158.075 512.739 Q160.158 513.873 162.38 514.429 Q164.603 514.984 167.079 514.984 Q171.084 514.984 173.422 512.878 Q175.76 510.771 175.76 507.16 Q175.76 503.549 173.422 501.443 Q171.084 499.336 167.079 499.336 Q165.204 499.336 163.329 499.753 Q161.478 500.169 159.533 501.049 L159.533 483.688 Z" fill="#000000" fill-rule="nonzero" fill-opacity="1" /><path clip-path="url(#clip390)" d="M62.9365 192.519 Q59.3254 192.519 57.4967 196.083 Q55.6912 199.625 55.6912 206.755 Q55.6912 213.861 57.4967 217.426 Q59.3254 220.967 62.9365 220.967 Q66.5707 220.967 68.3763 217.426 Q70.205 213.861 70.205 206.755 Q70.205 199.625 68.3763 196.083 Q66.5707 192.519 62.9365 192.519 M62.9365 188.815 Q68.7467 188.815 71.8022 193.421 Q74.8809 198.005 74.8809 206.755 Q74.8809 215.481 71.8022 220.088 Q68.7467 224.671 62.9365 224.671 Q57.1264 224.671 54.0477 220.088 Q50.9921 215.481 50.9921 206.755 Q50.9921 198.005 54.0477 193.421 Q57.1264 188.815 62.9365 188.815 Z" fill="#000000" fill-rule="nonzero" fill-opacity="1" /><path clip-path="url(#clip390)" d="M83.0984 218.12 L87.9827 218.12 L87.9827 224 L83.0984 224 L83.0984 218.12 Z" fill="#000000" fill-rule="nonzero" fill-opacity="1" /><path clip-path="url(#clip390)" d="M102.196 220.065 L118.515 220.065 L118.515 224 L96.5706 224 L96.5706 220.065 Q99.2326 217.31 103.816 212.681 Q108.422 208.028 109.603 206.685 Q111.848 204.162 112.728 202.426 Q113.631 200.667 113.631 198.977 Q113.631 196.222 111.686 194.486 Q109.765 192.75 106.663 192.75 Q104.464 192.75 102.01 193.514 Q99.5798 194.278 96.8021 195.829 L96.8021 191.107 Q99.6261 189.972 102.08 189.394 Q104.534 188.815 106.571 188.815 Q111.941 188.815 115.135 191.5 Q118.33 194.185 118.33 198.676 Q118.33 200.806 117.52 202.727 Q116.733 204.625 114.626 207.218 Q114.047 207.889 110.946 211.106 Q107.844 214.301 102.196 220.065 Z" fill="#000000" fill-rule="nonzero" fill-opacity="1" /><path clip-path="url(#clip390)" d="M138.33 192.519 Q134.719 192.519 132.89 196.083 Q131.084 199.625 131.084 206.755 Q131.084 213.861 132.89 217.426 Q134.719 220.967 138.33 220.967 Q141.964 220.967 143.769 217.426 Q145.598 213.861 145.598 206.755 Q145.598 199.625 143.769 196.083 Q141.964 192.519 138.33 192.519 M138.33 188.815 Q144.14 188.815 147.195 193.421 Q150.274 198.005 150.274 206.755 Q150.274 215.481 147.195 220.088 Q144.14 224.671 138.33 224.671 Q132.519 224.671 129.441 220.088 Q126.385 215.481 126.385 206.755 Q126.385 198.005 129.441 193.421 Q132.519 188.815 138.33 188.815 Z" fill="#000000" fill-rule="nonzero" fill-opacity="1" /><path clip-path="url(#clip390)" d="M168.491 192.519 Q164.88 192.519 163.052 196.083 Q161.246 199.625 161.246 206.755 Q161.246 213.861 163.052 217.426 Q164.88 220.967 168.491 220.967 Q172.126 220.967 173.931 217.426 Q175.76 213.861 175.76 206.755 Q175.76 199.625 173.931 196.083 Q172.126 192.519 168.491 192.519 M168.491 188.815 Q174.302 188.815 177.357 193.421 Q180.436 198.005 180.436 206.755 Q180.436 215.481 177.357 220.088 Q174.302 224.671 168.491 224.671 Q162.681 224.671 159.603 220.088 Q156.547 215.481 156.547 206.755 Q156.547 198.005 159.603 193.421 Q162.681 188.815 168.491 188.815 Z" fill="#000000" fill-rule="nonzero" fill-opacity="1" /><polyline clip-path="url(#clip392)" style="stroke:#009af9; stroke-linecap:round; stroke-linejoin:round; stroke-width:4; stroke-opacity:1; fill:none" points="276.898,476.709 341.911,484.328 406.923,220.58 471.936,205.328 536.949,156.636 601.962,366.387 666.974,467.334 731.987,289.808 797,87.9763 862.013,302.603 927.026,447.847 992.038,623.613 1057.05,664.003 1122.06,570.997 1187.08,586.24 1252.09,592.238 1317.1,677.859 1382.12,453.215 1447.13,715.697 1512.14,535.035 1577.15,579.594 1642.17,560.343 1707.18,526.006 1772.19,610.705 1837.2,640.855 1902.22,663.952 1967.23,718.762 2032.24,664.586 2097.26,677.035 2162.27,548.718 2227.28,797.255 2292.29,859.814 "/>
<polyline clip-path="url(#clip392)" style="stroke:#e26f46; stroke-linecap:round; stroke-linejoin:round; stroke-width:4; stroke-opacity:1; fill:none" points="276.898,419.32 341.911,442.216 406.923,563.799 471.936,579.415 536.949,539.139 601.962,675.436 666.974,930.129 731.987,649.702 797,611.554 862.013,658.044 927.026,866.647 992.038,846.399 1057.05,701.671 1122.06,1075.57 1187.08,934.932 1252.09,1100.85 1317.1,1032.15 1382.12,1012.7 1447.13,1051.89 1512.14,1031.09 1577.15,1069.12 1642.17,889.133 1707.18,1156.13 1772.19,1445.72 1837.2,1144.86 1902.22,1123.8 1967.23,1204.37 2032.24,1194.58 2097.26,1315.53 2162.27,1155.35 2227.28,1159.66 2292.29,1300.26 "/>
<path clip-path="url(#clip390)" d="M1846.2 250.738 L2281.55 250.738 L2281.55 95.2176 L1846.2 95.2176  Z" fill="#ffffff" fill-rule="evenodd" fill-opacity="1"/>
<polyline clip-path="url(#clip390)" style="stroke:#000000; stroke-linecap:round; stroke-linejoin:round; stroke-width:4; stroke-opacity:1; fill:none" points="1846.2,250.738 2281.55,250.738 2281.55,95.2176 1846.2,95.2176 1846.2,250.738 "/>
<polyline clip-path="url(#clip390)" style="stroke:#009af9; stroke-linecap:round; stroke-linejoin:round; stroke-width:4; stroke-opacity:1; fill:none" points="1869.94,147.058 2012.36,147.058 "/>
<path clip-path="url(#clip390)" d="M2051.28 142.393 Q2050.56 141.977 2049.71 141.791 Q2048.87 141.583 2047.86 141.583 Q2044.24 141.583 2042.3 143.944 Q2040.38 146.282 2040.38 150.68 L2040.38 164.338 L2036.1 164.338 L2036.1 138.412 L2040.38 138.412 L2040.38 142.44 Q2041.72 140.078 2043.87 138.944 Q2046.03 137.787 2049.11 137.787 Q2049.55 137.787 2050.08 137.856 Q2050.61 137.903 2051.26 138.018 L2051.28 142.393 Z" fill="#000000" fill-rule="nonzero" fill-opacity="1" /><path clip-path="url(#clip390)" d="M2067.53 151.305 Q2062.37 151.305 2060.38 152.486 Q2058.39 153.666 2058.39 156.514 Q2058.39 158.782 2059.87 160.125 Q2061.37 161.444 2063.94 161.444 Q2067.49 161.444 2069.61 158.944 Q2071.77 156.421 2071.77 152.254 L2071.77 151.305 L2067.53 151.305 M2076.03 149.546 L2076.03 164.338 L2071.77 164.338 L2071.77 160.402 Q2070.31 162.763 2068.13 163.898 Q2065.96 165.009 2062.81 165.009 Q2058.83 165.009 2056.47 162.787 Q2054.13 160.541 2054.13 156.791 Q2054.13 152.416 2057.05 150.194 Q2059.99 147.972 2065.8 147.972 L2071.77 147.972 L2071.77 147.555 Q2071.77 144.615 2069.82 143.018 Q2067.9 141.398 2064.41 141.398 Q2062.18 141.398 2060.08 141.93 Q2057.97 142.463 2056.03 143.527 L2056.03 139.592 Q2058.36 138.69 2060.56 138.25 Q2062.76 137.787 2064.85 137.787 Q2070.47 137.787 2073.25 140.703 Q2076.03 143.62 2076.03 149.546 Z" fill="#000000" fill-rule="nonzero" fill-opacity="1" /><path clip-path="url(#clip390)" d="M2082.32 138.412 L2086.58 138.412 L2091.91 158.643 L2097.21 138.412 L2102.23 138.412 L2107.55 158.643 L2112.86 138.412 L2117.11 138.412 L2110.33 164.338 L2105.31 164.338 L2099.73 143.088 L2094.13 164.338 L2089.11 164.338 L2082.32 138.412 Z" fill="#000000" fill-rule="nonzero" fill-opacity="1" /><path clip-path="url(#clip390)" d="M2143.27 172.208 L2143.27 175.518 L2118.64 175.518 L2118.64 172.208 L2143.27 172.208 Z" fill="#000000" fill-rule="nonzero" fill-opacity="1" /><path clip-path="url(#clip390)" d="M2165.93 139.407 L2165.93 143.389 Q2164.13 142.393 2162.3 141.907 Q2160.49 141.398 2158.64 141.398 Q2154.5 141.398 2152.21 144.037 Q2149.92 146.652 2149.92 151.398 Q2149.92 156.143 2152.21 158.782 Q2154.5 161.398 2158.64 161.398 Q2160.49 161.398 2162.3 160.912 Q2164.13 160.402 2165.93 159.407 L2165.93 163.342 Q2164.15 164.176 2162.23 164.592 Q2160.33 165.009 2158.18 165.009 Q2152.32 165.009 2148.87 161.328 Q2145.42 157.648 2145.42 151.398 Q2145.42 145.055 2148.9 141.421 Q2152.39 137.787 2158.46 137.787 Q2160.42 137.787 2162.3 138.203 Q2164.17 138.597 2165.93 139.407 Z" fill="#000000" fill-rule="nonzero" fill-opacity="1" /><path clip-path="url(#clip390)" d="M2183.39 141.398 Q2179.96 141.398 2177.97 144.083 Q2175.98 146.745 2175.98 151.398 Q2175.98 156.051 2177.95 158.736 Q2179.94 161.398 2183.39 161.398 Q2186.79 161.398 2188.78 158.713 Q2190.77 156.027 2190.77 151.398 Q2190.77 146.791 2188.78 144.106 Q2186.79 141.398 2183.39 141.398 M2183.39 137.787 Q2188.94 137.787 2192.11 141.398 Q2195.29 145.009 2195.29 151.398 Q2195.29 157.764 2192.11 161.398 Q2188.94 165.009 2183.39 165.009 Q2177.81 165.009 2174.64 161.398 Q2171.49 157.764 2171.49 151.398 Q2171.49 145.009 2174.64 141.398 Q2177.81 137.787 2183.39 137.787 Z" fill="#000000" fill-rule="nonzero" fill-opacity="1" /><path clip-path="url(#clip390)" d="M2218.87 139.176 L2218.87 143.203 Q2217.07 142.277 2215.12 141.815 Q2213.18 141.352 2211.1 141.352 Q2207.92 141.352 2206.33 142.324 Q2204.75 143.296 2204.75 145.24 Q2204.75 146.722 2205.89 147.578 Q2207.02 148.412 2210.45 149.176 L2211.91 149.5 Q2216.44 150.472 2218.34 152.254 Q2220.26 154.014 2220.26 157.185 Q2220.26 160.796 2217.39 162.902 Q2214.54 165.009 2209.54 165.009 Q2207.46 165.009 2205.19 164.592 Q2202.95 164.199 2200.45 163.388 L2200.45 158.99 Q2202.81 160.217 2205.1 160.842 Q2207.39 161.444 2209.64 161.444 Q2212.65 161.444 2214.27 160.426 Q2215.89 159.384 2215.89 157.509 Q2215.89 155.773 2214.71 154.847 Q2213.55 153.921 2209.59 153.064 L2208.11 152.717 Q2204.15 151.884 2202.39 150.171 Q2200.63 148.435 2200.63 145.426 Q2200.63 141.768 2203.23 139.778 Q2205.82 137.787 2210.59 137.787 Q2212.95 137.787 2215.03 138.134 Q2217.11 138.481 2218.87 139.176 Z" fill="#000000" fill-rule="nonzero" fill-opacity="1" /><path clip-path="url(#clip390)" d="M2231.26 131.051 L2231.26 138.412 L2240.03 138.412 L2240.03 141.722 L2231.26 141.722 L2231.26 155.796 Q2231.26 158.967 2232.11 159.87 Q2232.99 160.773 2235.66 160.773 L2240.03 160.773 L2240.03 164.338 L2235.66 164.338 Q2230.73 164.338 2228.85 162.509 Q2226.98 160.657 2226.98 155.796 L2226.98 141.722 L2223.85 141.722 L2223.85 138.412 L2226.98 138.412 L2226.98 131.051 L2231.26 131.051 Z" fill="#000000" fill-rule="nonzero" fill-opacity="1" /><polyline clip-path="url(#clip390)" style="stroke:#e26f46; stroke-linecap:round; stroke-linejoin:round; stroke-width:4; stroke-opacity:1; fill:none" points="1869.94,198.898 2012.36,198.898 "/>
<path clip-path="url(#clip390)" d="M2055.01 202.914 Q2055.01 198.284 2053.09 195.738 Q2051.19 193.192 2047.74 193.192 Q2044.31 193.192 2042.39 195.738 Q2040.49 198.284 2040.49 202.914 Q2040.49 207.52 2042.39 210.066 Q2044.31 212.613 2047.74 212.613 Q2051.19 212.613 2053.09 210.066 Q2055.01 207.52 2055.01 202.914 M2059.27 212.96 Q2059.27 219.58 2056.33 222.798 Q2053.39 226.039 2047.32 226.039 Q2045.08 226.039 2043.09 225.691 Q2041.1 225.367 2039.22 224.673 L2039.22 220.529 Q2041.1 221.548 2042.93 222.034 Q2044.75 222.52 2046.65 222.52 Q2050.84 222.52 2052.93 220.321 Q2055.01 218.145 2055.01 213.724 L2055.01 211.617 Q2053.69 213.909 2051.63 215.043 Q2049.57 216.178 2046.7 216.178 Q2041.93 216.178 2039.01 212.543 Q2036.1 208.909 2036.1 202.914 Q2036.1 196.895 2039.01 193.261 Q2041.93 189.627 2046.7 189.627 Q2049.57 189.627 2051.63 190.761 Q2053.69 191.895 2055.01 194.187 L2055.01 190.252 L2059.27 190.252 L2059.27 212.96 Z" fill="#000000" fill-rule="nonzero" fill-opacity="1" /><path clip-path="url(#clip390)" d="M2067.6 205.946 L2067.6 190.252 L2071.86 190.252 L2071.86 205.784 Q2071.86 209.465 2073.3 211.316 Q2074.73 213.145 2077.6 213.145 Q2081.05 213.145 2083.04 210.946 Q2085.05 208.747 2085.05 204.951 L2085.05 190.252 L2089.31 190.252 L2089.31 216.178 L2085.05 216.178 L2085.05 212.196 Q2083.5 214.557 2081.44 215.715 Q2079.41 216.849 2076.7 216.849 Q2072.23 216.849 2069.92 214.071 Q2067.6 211.293 2067.6 205.946 M2078.32 189.627 L2078.32 189.627 Z" fill="#000000" fill-rule="nonzero" fill-opacity="1" /><path clip-path="url(#clip390)" d="M2098.09 190.252 L2102.35 190.252 L2102.35 216.178 L2098.09 216.178 L2098.09 190.252 M2098.09 180.159 L2102.35 180.159 L2102.35 185.553 L2098.09 185.553 L2098.09 180.159 Z" fill="#000000" fill-rule="nonzero" fill-opacity="1" /><path clip-path="url(#clip390)" d="M2128.32 194.187 L2128.32 180.159 L2132.58 180.159 L2132.58 216.178 L2128.32 216.178 L2128.32 212.289 Q2126.98 214.603 2124.92 215.738 Q2122.88 216.849 2120.01 216.849 Q2115.31 216.849 2112.35 213.099 Q2109.41 209.349 2109.41 203.238 Q2109.41 197.127 2112.35 193.377 Q2115.31 189.627 2120.01 189.627 Q2122.88 189.627 2124.92 190.761 Q2126.98 191.872 2128.32 194.187 M2113.8 203.238 Q2113.8 207.937 2115.73 210.622 Q2117.67 213.284 2121.05 213.284 Q2124.43 213.284 2126.37 210.622 Q2128.32 207.937 2128.32 203.238 Q2128.32 198.539 2126.37 195.877 Q2124.43 193.192 2121.05 193.192 Q2117.67 193.192 2115.73 195.877 Q2113.8 198.539 2113.8 203.238 Z" fill="#000000" fill-rule="nonzero" fill-opacity="1" /><path clip-path="url(#clip390)" d="M2161.05 224.048 L2161.05 227.358 L2136.42 227.358 L2136.42 224.048 L2161.05 224.048 Z" fill="#000000" fill-rule="nonzero" fill-opacity="1" /><path clip-path="url(#clip390)" d="M2183.71 191.247 L2183.71 195.229 Q2181.91 194.233 2180.08 193.747 Q2178.27 193.238 2176.42 193.238 Q2172.28 193.238 2169.98 195.877 Q2167.69 198.492 2167.69 203.238 Q2167.69 207.983 2169.98 210.622 Q2172.28 213.238 2176.42 213.238 Q2178.27 213.238 2180.08 212.752 Q2181.91 212.242 2183.71 211.247 L2183.71 215.182 Q2181.93 216.016 2180.01 216.432 Q2178.11 216.849 2175.96 216.849 Q2170.1 216.849 2166.65 213.168 Q2163.2 209.488 2163.2 203.238 Q2163.2 196.895 2166.67 193.261 Q2170.17 189.627 2176.23 189.627 Q2178.2 189.627 2180.08 190.043 Q2181.95 190.437 2183.71 191.247 Z" fill="#000000" fill-rule="nonzero" fill-opacity="1" /><path clip-path="url(#clip390)" d="M2201.17 193.238 Q2197.74 193.238 2195.75 195.923 Q2193.76 198.585 2193.76 203.238 Q2193.76 207.891 2195.73 210.576 Q2197.72 213.238 2201.17 213.238 Q2204.57 213.238 2206.56 210.553 Q2208.55 207.867 2208.55 203.238 Q2208.55 198.631 2206.56 195.946 Q2204.57 193.238 2201.17 193.238 M2201.17 189.627 Q2206.72 189.627 2209.89 193.238 Q2213.06 196.849 2213.06 203.238 Q2213.06 209.604 2209.89 213.238 Q2206.72 216.849 2201.17 216.849 Q2195.59 216.849 2192.42 213.238 Q2189.27 209.604 2189.27 203.238 Q2189.27 196.849 2192.42 193.238 Q2195.59 189.627 2201.17 189.627 Z" fill="#000000" fill-rule="nonzero" fill-opacity="1" /><path clip-path="url(#clip390)" d="M2236.65 191.016 L2236.65 195.043 Q2234.85 194.117 2232.9 193.655 Q2230.96 193.192 2228.87 193.192 Q2225.7 193.192 2224.1 194.164 Q2222.53 195.136 2222.53 197.08 Q2222.53 198.562 2223.67 199.418 Q2224.8 200.252 2228.23 201.016 L2229.68 201.34 Q2234.22 202.312 2236.12 204.094 Q2238.04 205.854 2238.04 209.025 Q2238.04 212.636 2235.17 214.742 Q2232.32 216.849 2227.32 216.849 Q2225.24 216.849 2222.97 216.432 Q2220.73 216.039 2218.23 215.228 L2218.23 210.83 Q2220.59 212.057 2222.88 212.682 Q2225.17 213.284 2227.41 213.284 Q2230.42 213.284 2232.04 212.266 Q2233.66 211.224 2233.66 209.349 Q2233.66 207.613 2232.48 206.687 Q2231.33 205.761 2227.37 204.904 L2225.89 204.557 Q2221.93 203.724 2220.17 202.011 Q2218.41 200.275 2218.41 197.266 Q2218.41 193.608 2221 191.618 Q2223.6 189.627 2228.36 189.627 Q2230.73 189.627 2232.81 189.974 Q2234.89 190.321 2236.65 191.016 Z" fill="#000000" fill-rule="nonzero" fill-opacity="1" /><path clip-path="url(#clip390)" d="M2249.04 182.891 L2249.04 190.252 L2257.81 190.252 L2257.81 193.562 L2249.04 193.562 L2249.04 207.636 Q2249.04 210.807 2249.89 211.71 Q2250.77 212.613 2253.43 212.613 L2257.81 212.613 L2257.81 216.178 L2253.43 216.178 Q2248.5 216.178 2246.63 214.349 Q2244.75 212.497 2244.75 207.636 L2244.75 193.562 L2241.63 193.562 L2241.63 190.252 L2244.75 190.252 L2244.75 182.891 L2249.04 182.891 Z" fill="#000000" fill-rule="nonzero" fill-opacity="1" /></svg>
